<?xml version="1.0" encoding="UTF-8" standalone="no"?>
<svg
   xmlns:dc="http://purl.org/dc/elements/1.1/"
   xmlns:cc="http://creativecommons.org/ns#"
   xmlns:rdf="http://www.w3.org/1999/02/22-rdf-syntax-ns#"
   xmlns:svg="http://www.w3.org/2000/svg"
   xmlns="http://www.w3.org/2000/svg"
   xmlns:sodipodi="http://sodipodi.sourceforge.net/DTD/sodipodi-0.dtd"
   xmlns:inkscape="http://www.inkscape.org/namespaces/inkscape"
   version="1.1"
   width="64"
   height="64"
   id="svg4"
   sodipodi:docname="ARM.svg"
   inkscape:version="1.0 (1.0+r73+1)">
  <metadata
     id="metadata10">
    <rdf:RDF>
      <cc:Work
         rdf:about="">
        <dc:format>image/svg+xml</dc:format>
        <dc:type
           rdf:resource="http://purl.org/dc/dcmitype/StillImage" />
        <dc:title></dc:title>
      </cc:Work>
    </rdf:RDF>
  </metadata>
  <defs
     id="defs8" />
  <sodipodi:namedview
     inkscape:document-rotation="0"
     pagecolor="#ffffff"
     bordercolor="#666666"
     borderopacity="1"
     objecttolerance="10"
     gridtolerance="10"
     guidetolerance="10"
     inkscape:pageopacity="0"
     inkscape:pageshadow="2"
     inkscape:window-width="3840"
     inkscape:window-height="2045"
     id="namedview6"
     showgrid="false"
     showguides="false"
     inkscape:zoom="8"
     inkscape:cx="17.80569"
     inkscape:cy="70.991247"
     inkscape:window-x="3840"
     inkscape:window-y="0"
     inkscape:window-maximized="1"
     inkscape:current-layer="svg4" />
  <path
     fill="#0091BD"
     d="m 14.718935,22.906805 h 4.233728 V 41.03994 H 14.718935 V 39.149408 C 12.85503,41.306212 10.591716,41.599113 9.2869822,41.599113 3.6952663,41.599113 0.5,36.939349 0.5,31.960059 c 0,-5.911243 4.0473373,-9.532544 8.8402367,-9.532544 1.3313613,0 3.6745563,0.346154 5.3786983,2.58284 z m -9.8786983,9.159762 c 0,3.115386 1.9704142,5.778107 5.0325444,5.778107 2.6627219,0 5.1390529,-1.943787 5.1390529,-5.724852 0,-3.967455 -2.449704,-5.857988 -5.1390529,-5.857988 -3.0621302,-0.02663 -5.0325444,2.58284 -5.0325444,5.804733 z M 23.985207,22.906805 h 4.233728 v 1.62426 c 0.47929,-0.559172 1.171598,-1.171598 1.757396,-1.517752 0.825444,-0.479289 1.624261,-0.612426 2.582841,-0.612426 1.038461,0 2.156804,0.159764 3.328402,0.852072 l -1.730769,3.834319 C 33.198225,26.474852 32.426036,26.448225 32,26.448225 c -0.905325,0 -1.810651,0.133136 -2.636095,0.985207 -1.171597,1.251479 -1.171597,2.982248 -1.171597,4.180473 V 41.03994 H 23.95858 Z m 14.618343,0 h 4.233728 v 1.677514 c 1.411243,-1.730769 3.088758,-2.156804 4.473373,-2.156804 1.890532,0 3.674556,0.905325 4.68639,2.662722 1.517752,-2.156805 3.781066,-2.662722 5.378699,-2.662722 2.210059,0 4.127219,1.038461 5.16568,2.849112 0.346154,0.612426 0.95858,1.943787 0.95858,4.579882 v 11.210059 h -4.233728 v -9.95858 c 0,-2.023669 -0.213018,-2.849112 -0.399408,-3.221893 -0.266272,-0.692308 -0.905326,-1.597634 -2.423077,-1.597634 -1.038462,0 -1.943787,0.559172 -2.502959,1.331361 -0.745562,1.038462 -0.825443,2.582841 -0.825443,4.127219 v 9.346154 h -4.233728 v -9.985207 c 0,-2.023669 -0.213018,-2.849112 -0.399408,-3.221893 -0.266273,-0.692308 -0.905326,-1.597634 -2.423077,-1.597634 -1.038462,0 -1.943787,0.559172 -2.502959,1.331361 -0.745562,1.038462 -0.825444,2.582841 -0.825444,4.127219 v 9.346154 H 38.60355 Z"
     id="path2"
     style="fill:#6a7098;fill-opacity:1;stroke-width:0.266272" />
</svg>
