<?xml version="1.0" encoding="UTF-8" standalone="no"?>
<svg
   xmlns:dc="http://purl.org/dc/elements/1.1/"
   xmlns:cc="http://creativecommons.org/ns#"
   xmlns:rdf="http://www.w3.org/1999/02/22-rdf-syntax-ns#"
   xmlns:svg="http://www.w3.org/2000/svg"
   xmlns="http://www.w3.org/2000/svg"
   xmlns:sodipodi="http://sodipodi.sourceforge.net/DTD/sodipodi-0.dtd"
   xmlns:inkscape="http://www.inkscape.org/namespaces/inkscape"
   width="64"
   height="64"
   version="1.1"
   id="svg4"
   sodipodi:docname="AuthenticAMD.svg"
   inkscape:version="1.0 (1.0+r73+1)">
  <metadata
     id="metadata10">
    <rdf:RDF>
      <cc:Work
         rdf:about="">
        <dc:format>image/svg+xml</dc:format>
        <dc:type
           rdf:resource="http://purl.org/dc/dcmitype/StillImage" />
        <dc:title></dc:title>
      </cc:Work>
    </rdf:RDF>
  </metadata>
  <defs
     id="defs8" />
  <sodipodi:namedview
     fit-margin-bottom="0"
     fit-margin-right="0"
     fit-margin-left="0"
     fit-margin-top="0"
     inkscape:document-rotation="0"
     pagecolor="#ffffff"
     bordercolor="#666666"
     borderopacity="1"
     objecttolerance="10"
     gridtolerance="10"
     guidetolerance="10"
     inkscape:pageopacity="0"
     inkscape:pageshadow="2"
     inkscape:window-width="3840"
     inkscape:window-height="2045"
     id="namedview6"
     showgrid="false"
     inkscape:zoom="1"
     inkscape:cx="-597.25405"
     inkscape:cy="177.60569"
     inkscape:window-x="3840"
     inkscape:window-y="0"
     inkscape:window-maximized="1"
     inkscape:current-layer="svg4" />
  <path
     sodipodi:nodetypes="cccccccccccccccccccccccccccsssccscsssccc"
     d="M 20.881606,61.965239 H 16.06868 L 14.596316,58.413905 H 6.5750611 L 5.2336292,61.965239 H 0.49999978 L 7.7318643,44.02893 H 12.912855 Z M 10.388259,48.314873 7.7584412,55.283897 H 13.281352 Z M 38.364696,44.02893 h 3.89217 V 61.965239 H 37.785535 V 50.76169 l -4.838961,5.627484 H 32.263057 L 27.424422,50.76169 v 11.203332 h -4.47133 V 44.02893 h 3.892169 l 5.759284,6.653572 z m 15.221444,0 c 6.548131,0 9.91386,4.075822 9.91386,8.993755 0,5.154522 -3.260614,8.942554 -10.413833,8.942554 H 45.669674 V 44.02893 Z m -3.44546,14.648901 h 2.918693 c 4.497149,0 5.83858,-3.051362 5.83858,-5.681723 0,-3.077287 -1.6571,-5.680203 -5.891192,-5.680203 h -2.86619 v 11.361926 z"
     id="path2"
     style="fill:#6a7098;fill-opacity:1;stroke-width:0.108477" />
  <path
     style="fill:#6a7098;fill-opacity:1;stroke-width:0.165591"
     id="path2-3"
     d="M 25.073136,13.838551 16.467027,5.230954 H 47.797385 V 36.56247 L 39.191279,27.955867 V 13.838551 Z m -0.01007,1.724799 -8.860454,8.860124 v 12.402619 h 12.40096 L 37.46353,27.965969 H 25.063068 Z"
     sodipodi:nodetypes="cccccccccccccc" />
</svg>
