<?xml version="1.0" encoding="UTF-8" standalone="no"?>
<svg
   xmlns:dc="http://purl.org/dc/elements/1.1/"
   xmlns:cc="http://creativecommons.org/ns#"
   xmlns:rdf="http://www.w3.org/1999/02/22-rdf-syntax-ns#"
   xmlns:svg="http://www.w3.org/2000/svg"
   xmlns="http://www.w3.org/2000/svg"
   xmlns:xlink="http://www.w3.org/1999/xlink"
   xmlns:sodipodi="http://sodipodi.sourceforge.net/DTD/sodipodi-0.dtd"
   xmlns:inkscape="http://www.inkscape.org/namespaces/inkscape"
   sodipodi:docname="Broadcom.svg"
   inkscape:version="1.0 (1.0+r73+1)"
   id="svg866"
   version="1.1"
   viewBox="0 0 16.933333 16.933334"
   height="64"
   width="64">
  <defs
     id="defs860" />
  <sodipodi:namedview
     inkscape:window-maximized="1"
     inkscape:window-y="0"
     inkscape:window-x="3840"
     inkscape:window-height="2045"
     inkscape:window-width="3840"
     units="px"
     showgrid="false"
     inkscape:document-rotation="0"
     inkscape:current-layer="layer1"
     inkscape:document-units="mm"
     inkscape:cy="28.887966"
     inkscape:cx="-6.5306825"
     inkscape:zoom="15.839192"
     inkscape:pageshadow="2"
     inkscape:pageopacity="0.0"
     borderopacity="1.0"
     bordercolor="#666666"
     pagecolor="#ffffff"
     id="base" />
  <metadata
     id="metadata863">
    <rdf:RDF>
      <cc:Work
         rdf:about="">
        <dc:format>image/svg+xml</dc:format>
        <dc:type
           rdf:resource="http://purl.org/dc/dcmitype/StillImage" />
        <dc:title />
      </cc:Work>
    </rdf:RDF>
  </metadata>
  <g
     id="layer1"
     inkscape:groupmode="layer"
     inkscape:label="Layer 1">
    <g
       style="fill:#6a7098;fill-opacity:1"
       transform="matrix(1.0424328,0,0,1.0424328,-0.00385361,-0.58916283)"
       id="g1557">
      <path
         id="path10"
         d="M 0.98974249,15.434802 H 0.48358004 v -1.167237 h 0.49232503 c 0.13280543,0 0.21574553,0.08573 0.21574553,0.201908 0,0.116184 -0.08294,0.199124 -0.21574553,0.199124 H 0.41311892 v 0.337498 h 0.57662357 c 0.15491151,0 0.23785161,0.09956 0.23785161,0.215661 0,0.132806 -0.088509,0.213046 -0.23785161,0.213046 M 1.2745907,14.823509 c 0.1743177,-0.03594 0.3181761,-0.190855 0.3181761,-0.423138 0,-0.246205 -0.179802,-0.470219 -0.5311373,-0.470219 H 0.09081688 V 15.775 H 1.0920887 c 0.3512509,0 0.5365373,-0.221315 0.5365373,-0.497894 0,-0.232368 -0.1576115,-0.423138 -0.3540353,-0.453597"
         style="stroke-width:0.0843745;fill:#6a7098;fill-opacity:1" />
      <path
         id="path12"
         d="m 2.7783547,14.773711 h -0.424623 v 0.345766 h 0.3001706 l 0.362304,0.655506 H 3.4670191 L 3.0521498,15.072396 c 0.1992082,-0.047 0.4038163,-0.221229 0.4038163,-0.54759 m 0,0 c 0,-0.342982 -0.2350673,-0.594671 -0.6195618,-0.594671 H 1.9734222 v 1.844848 h 0.3927632 v -1.499082 h 0.4121693 c 0.1576959,0 0.2765795,0.09399 0.2765795,0.248905 0,0.154912 -0.1188836,0.248905 -0.2765795,0.248905"
         style="stroke-width:0.0843745;fill:#6a7098;fill-opacity:1" />
      <path
         id="path14"
         d="M 6.4419448,15.11671 6.7295774,14.322915 7.0172943,15.11671 Z M 6.483457,13.930152 5.7698178,15.775 h 0.4480284 l 0.1161837,-0.312524 h 0.791095 L 7.2385242,15.775 H 7.686637 L 6.9757821,13.930152 Z"
         style="stroke-width:0.0843745;fill:#6a7098;fill-opacity:1" />
      <path
         id="path16"
         d="M 8.7534593,15.429241 H 8.4187458 v -1.153399 h 0.3347135 c 0.3789258,0 0.5780495,0.251689 0.5780495,0.578134 0,0.312523 -0.2129611,0.575265 -0.5780495,0.575265 m 0,-1.499081 H 8.0259827 v 1.844848 h 0.7274766 c 0.5780495,0 0.9790814,-0.365088 0.9790814,-0.921032 0,-0.555943 -0.4010319,-0.923816 -0.9790814,-0.923816"
         style="stroke-width:0.0843745;fill:#6a7098;fill-opacity:1" />
      <path
         id="path18"
         d="M 15.682873,13.92978 15.19907,14.711932 14.715267,13.92978 h -0.434191 v 1.845186 h 0.392847 v -1.205965 l 0.422885,0.643103 c 0.04843,0.07349 0.156177,0.07349 0.204524,0 l 0.422969,-0.643103 v 1.205965 h 0.392847 V 13.92978 Z"
         style="stroke-width:0.0843745;fill:#6a7098;fill-opacity:1" />
      <path
         id="path20"
         d="m 4.7014767,15.448605 c -0.3266136,0 -0.5912963,-0.264767 -0.5912963,-0.591296 0,-0.326614 0.2646827,-0.591381 0.5912963,-0.591381 0.3265292,0 0.5912963,0.264767 0.5912963,0.591381 0,0.326529 -0.2647671,0.591296 -0.5912963,0.591296 m 0,-1.563965 c -0.5372123,0 -0.9726689,0.435457 -0.9726689,0.972669 0,0.537128 0.4354566,0.972585 0.9726689,0.972585 0.5371278,0 0.9726689,-0.435457 0.9726689,-0.972585 0,-0.537212 -0.4355411,-0.972669 -0.9726689,-0.972669"
         style="stroke-width:0.0843745;fill:#6a7098;fill-opacity:1" />
      <path
         id="path22"
         d="m 11.50022,15.143406 c -0.100828,0.181911 -0.294636,0.305182 -0.517385,0.305182 -0.326529,0 -0.591296,-0.264767 -0.591296,-0.591296 0,-0.326613 0.264767,-0.591296 0.591296,-0.591296 0.220893,0 0.413182,0.12133 0.514685,0.300795 l 0.275904,-0.27582 c -0.176511,-0.245952 -0.464734,-0.406348 -0.790589,-0.406348 -0.537212,0 -0.972584,0.435457 -0.972584,0.972669 0,0.537128 0.435372,0.972669 0.972584,0.972669 0.327626,0 0.617284,-0.162168 0.793458,-0.410482 z"
         style="stroke-width:0.0843745;fill:#6a7098;fill-opacity:1" />
      <use
         style="fill:#6a7098;fill-opacity:1"
         id="use8"
         transform="translate(8.3292962)"
         xlink:href="#path20"
         x="0"
         y="0"
         width="100%"
         height="100%" />
    </g>
    <g
       id="g858"
       transform="matrix(0.39109828,0,0,0.39109828,2.0899068,0.03708907)">
      <ellipse
         id="ellipse24"
         fill="#cc092f"
         ry="16.235352"
         rx="16.236328"
         cy="16.49707"
         cx="16.519531"
         style="fill:#6a7098;fill-opacity:1" />
      <path
         id="path26"
         fill="#ffffff"
         d="m 30.8253,20.8832 c -1.857,-0.74 -3.557,-0.492 -5.261,0.541 0,0 -0.621,0.379 -0.807,0.496 -0.794,0.498 -1.543,0.97 -2.263,0.97 -0.687,0 -1.363,-0.184 -1.649,-1.513 -0.446,-2.073 -1.534,-7.167 -2.009,-9.69 -0.279,-1.483 -0.432,-2.282 -0.591,-2.825 -0.28,-0.954 -0.792,-1.473 -1.519,-1.556 0,0 -0.114,-0.016 -0.207,-0.016 -0.092,0 -0.218,0.018 -0.218,0.018 -0.72,0.086 -1.229,0.605 -1.507,1.554 -0.159,0.543 -0.312,1.342 -0.591,2.825 -0.475,2.523 -1.563,7.617 -2.009,9.69 -0.286,1.329 -0.962,1.513 -1.649,1.513 -0.72,0 -1.469,-0.472 -2.263,-0.97 -0.186,-0.117 -0.808,-0.496 -0.808,-0.496 -1.703,-1.033 -3.404,-1.281 -5.26,-0.541 -0.401,0.16 -0.7959632,0.339183 -1.1719632,0.520183 0.257,0.806 0.5769317,1.59925 0.9499317,2.34425 0.411,-0.202 0.8420315,-0.402433 1.2820315,-0.532433 0.634,-0.187 1.284,-0.197 1.914,0.014 0.612,0.205 1.157,0.568 1.7,0.909 1.023,0.643 2.182,1.372 3.657,1.372 2.186,0 3.72,-1.305 4.21,-3.581 0.38,-1.764 1.222,-5.702 1.763,-8.418 0,0 1.386,6.654 1.765,8.418 0.49,2.276 2.025,3.581 4.211,3.581 1.475,0 2.634,-0.729 3.657,-1.372 0.543,-0.341 1.088,-0.704 1.7,-0.909 0.629,-0.211 1.28,-0.201 1.914,-0.014 0.44,0.13 0.870387,0.330647 1.281387,0.532647 0.374,-0.745 0.693089,-1.538621 0.950089,-2.344621 -0.376,-0.181 -0.770476,-0.360026 -1.171476,-0.520026" />
    </g>
  </g>
</svg>
