<?xml version="1.0" encoding="UTF-8" standalone="no"?>
<svg
   xmlns:dc="http://purl.org/dc/elements/1.1/"
   xmlns:cc="http://creativecommons.org/ns#"
   xmlns:rdf="http://www.w3.org/1999/02/22-rdf-syntax-ns#"
   xmlns:svg="http://www.w3.org/2000/svg"
   xmlns="http://www.w3.org/2000/svg"
   xmlns:sodipodi="http://sodipodi.sourceforge.net/DTD/sodipodi-0.dtd"
   xmlns:inkscape="http://www.inkscape.org/namespaces/inkscape"
   width="64"
   height="64"
   version="1.1"
   id="svg6"
   sodipodi:docname="GenuineIntel.svg"
   inkscape:version="1.0 (1.0+r73+1)">
  <metadata
     id="metadata12">
    <rdf:RDF>
      <cc:Work
         rdf:about="">
        <dc:format>image/svg+xml</dc:format>
        <dc:type
           rdf:resource="http://purl.org/dc/dcmitype/StillImage" />
        <dc:title></dc:title>
      </cc:Work>
    </rdf:RDF>
  </metadata>
  <defs
     id="defs10" />
  <sodipodi:namedview
     inkscape:document-rotation="0"
     pagecolor="#ffffff"
     bordercolor="#666666"
     borderopacity="1"
     objecttolerance="10"
     gridtolerance="10"
     guidetolerance="10"
     inkscape:pageopacity="0"
     inkscape:pageshadow="2"
     inkscape:window-width="3840"
     inkscape:window-height="2045"
     id="namedview8"
     showgrid="false"
     inkscape:zoom="9.9277792"
     inkscape:cx="47.492166"
     inkscape:cy="14.992791"
     inkscape:window-x="3840"
     inkscape:window-y="0"
     inkscape:window-maximized="1"
     inkscape:current-layer="svg6" />
  <g
     transform="matrix(0.063,0,0,0.063,0.5,18.711725)"
     id="g833">
    <path
       style="fill:#6a7098;fill-opacity:1"
       id="path2"
       d="M 0,5.882 H 78.711 V 84.593 H 0 Z"
       fill="#0068b5" />
    <path
       style="fill:#6a7098;fill-opacity:1"
       id="path4"
       d="M 76.75,415.966 V 132.493 H 2.24 v 283.473 z m 495.239,2.801 V 349.3 c -10.925,0 -20.168,-0.56 -26.891,-1.681 -7.843,-1.12 -13.725,-3.922 -17.647,-7.843 -3.922,-3.922 -6.443,-9.524 -7.843,-16.807 -1.12,-7.003 -1.68,-16.246 -1.68,-27.45 v -99.16 h 54.06 v -63.866 h -54.06 V 21.849 h -74.79 v 274.23 c 0,23.249 1.96,42.857 5.882,58.543 3.921,15.406 10.644,28.011 19.888,37.535 9.243,9.524 21.568,16.246 36.414,20.448 15.126,4.202 34.174,6.162 56.863,6.162 z M 1000,415.967 V 0 H 925.21 V 415.966 Z M 371.148,160.223 c -20.728,-22.409 -49.86,-33.613 -86.834,-33.613 -17.927,0 -34.174,3.641 -49.02,10.924 -14.566,7.283 -27.17,17.367 -36.975,30.252 l -4.201,5.322 v -40.616 h -73.67 v 283.473 h 74.23 v -150.98 5.323 c 0.84,-26.61 7.283,-46.218 19.608,-58.823 13.165,-13.446 29.131,-20.168 47.339,-20.168 21.568,0 38.095,6.722 49.02,19.607 10.644,12.886 16.246,31.093 16.246,54.342 v 150.42 h 75.35 V 254.902 c 0.28,-40.336 -10.364,-72.269 -31.093,-94.678 z M 886.555,273.67 c 0,-20.448 -3.642,-39.495 -10.645,-57.423 -7.283,-17.647 -17.367,-33.333 -29.972,-46.778 -12.885,-13.446 -28.291,-23.81 -46.218,-31.373 -17.927,-7.563 -37.815,-11.204 -59.384,-11.204 -20.448,0 -39.776,3.921 -57.703,11.484 -17.927,7.843 -33.613,18.208 -46.779,31.373 -13.165,13.165 -23.81,28.851 -31.372,46.779 -7.843,17.927 -11.485,37.255 -11.485,57.703 0,20.448 3.642,39.776 10.925,57.703 7.282,17.927 17.647,33.613 30.532,46.778 12.885,13.166 28.851,23.81 47.339,31.373 18.487,7.843 38.935,11.765 60.784,11.765 63.305,0 102.521,-28.852 126.05,-55.743 l -53.781,-40.896 c -11.205,13.445 -38.095,31.653 -71.709,31.653 -21.008,0 -38.375,-4.762 -51.54,-14.566 -13.166,-9.524 -22.13,-22.97 -26.891,-39.496 l -0.84,-2.52 h 222.689 z m -222.13,-26.05 c 0,-20.728 23.81,-56.863 75.07,-57.143 51.261,0 75.35,36.135 75.35,56.863 z" />
  </g>
</svg>
