<svg version="1.1" viewBox="0 0 64 64" xmlns="http://www.w3.org/2000/svg"><path d="m6-2.5e-5c-3.324 0-6 2.676-6 6v4c0 3.324 2.676 6 6 6h6.8965v3.3926l-3.707 2e-3c-2.5089 0.0747-4.2626 2.3225-4.1855 4.6934-2.8458 0.47238-5.0039 2.9282-5.0039 5.9121v4c0 3.324 2.676 6 6 6h32.553v3.3926l-3.707 2e-3c-2.4778 0.0737-4.2168 2.2674-4.1855 4.6055h-24.66c-3.324 0-6 2.676-6 6v4c0 3.324 2.676 6 6 6h52c3.324 0 6-2.676 6-6v-4c0-2.9866-2.1622-5.4427-5.0117-5.9121 0.08311-2.3434-1.7222-4.6945-4.3301-4.6953h-3.6504v-3.3926h6.9922c3.324 0 6-2.676 6-6v-4c0-3.324-2.676-6-6-6h-24.668c0.03601-2.3139-1.7548-4.6066-4.3301-4.6074h-3.6523v-3.3926h32.65c3.324 0 6-2.676 6-6v-4c0-3.324-2.676-6-6-6zm13.123 3.916c1.2988 0 2.3086 1.0117 2.3086 2.3105v17.084h7.5684c0.54446 1.7e-4 0.71732 0.36853 0.36914 0.78711l-9.8477 11.832-0.01563 0.0195c-0.12433 0.15751-0.02992 0.13281-0.36719 0.13281-0.29386 0-0.24516 2e-3 -0.49023-0.24219l-9.6211-11.557c-0.33006-0.57716 0.20832-0.96814 0.27539-0.97265h7.5098v-17.084c0-1.2988 1.0118-2.3105 2.3105-2.3105zm25.656 24c1.2988 0 2.3105 1.0117 2.3105 2.3105v17.084h7.5664c0.54446 1.7e-4 0.71732 0.36853 0.36914 0.78711h2e-3l-9.8496 11.832-0.01563 0.0195c-0.12434 0.15751-0.02992 0.13281-0.36719 0.13281-0.29571 0-0.24166 7e-3 -0.49219-0.24219l-9.6172-11.555c-0.33297-0.57849 0.20822-0.97009 0.27539-0.97461h7.5098v-17.084c0-1.2988 1.0098-2.3105 2.3086-2.3105z"/></svg>
