<svg version="1.1" viewBox="0 0 64 64" xmlns="http://www.w3.org/2000/svg"><path d="m17.873-1.5e-7c-1.1594 0-2.0994 0.93992-2.0994 2.0994v6.8086h-0.5679c-3.4528 0-6.2981 2.8453-6.2981 6.2981v0.56584h-6.8086c-1.1594 0-2.0994 0.93992-2.0994 2.0994s0.93992 2.0994 2.0994 2.0994h6.8086v5.2218h-6.8086c-1.1594 0-2.0994 0.93992-2.0994 2.0994 0 1.1594 0.93992 2.0994 2.0994 2.0994h6.8086v5.2197h-6.8086c-1.1594 0-2.0994 0.93992-2.0994 2.0994s0.93992 2.0994 2.0994 2.0994h6.8086v5.2197h-6.8086c-1.1594 0-2.0994 0.93992-2.0994 2.0994s0.93992 2.0994 2.0994 2.0994h6.8086v0.5679c0 3.4528 2.8453 6.2981 6.2981 6.2981h0.5679v6.8065c0 1.1594 0.93992 2.0994 2.0994 2.0994s2.0994-0.93992 2.0994-2.0994v-6.8065h5.2197v6.8065c0 1.1594 0.93992 2.0994 2.0994 2.0994 1.1594 0 2.0994-0.93992 2.0994-2.0994v-6.8065h5.2197v6.8065c0 1.1594 0.93992 2.0994 2.0994 2.0994s2.0994-0.93992 2.0994-2.0994v-6.8065h5.2197v6.8065c0 1.1594 0.93992 2.0994 2.0994 2.0994s2.0994-0.93992 2.0994-2.0994v-6.8065h0.5679c3.4528 0 6.2981-2.8453 6.2981-6.2981v-0.5679h6.8065c1.1594 0 2.0994-0.93992 2.0994-2.0994s-0.93992-2.0994-2.0994-2.0994h-6.8065v-5.2197h6.8065c1.1594 0 2.0994-0.93992 2.0994-2.0994s-0.93992-2.0994-2.0994-2.0994h-6.8065v-5.2197h6.8065c1.1594 0 2.0994-0.93992 2.0994-2.0994 0-1.1594-0.93992-2.0994-2.0994-2.0994h-6.8065v-5.2218h6.8065c1.1594 0 2.0994-0.93992 2.0994-2.0994s-0.93992-2.0994-2.0994-2.0994h-6.8065v-0.56584c0-3.4528-2.8453-6.2981-6.2981-6.2981h-0.5679v-6.8086c0-1.1594-0.93992-2.0994-2.0994-2.0994s-2.0994 0.93992-2.0994 2.0994v6.8086h-5.2197v-6.8086c0-1.1594-0.93992-2.0994-2.0994-2.0994s-2.0994 0.93992-2.0994 2.0994v6.8086h-5.2197v-6.8086c0-1.1594-0.93992-2.0994-2.0994-2.0994-1.1594 0-2.0994 0.93992-2.0994 2.0994v6.8086h-5.2197v-6.8086c0-1.1594-0.93992-2.0994-2.0994-2.0994z"/></svg>
