<svg id="SVGRoot" version="1.1" viewBox="0 0 64 64" xmlns="http://www.w3.org/2000/svg"><g><path d="m3.7266 20.465v12.117c0 0.54866 0.33509 1.4692 1.6094 2.6328 1.2743 1.1636 3.3289 2.3627 5.9297 3.3672 5.2017 2.009 12.584 3.3047 20.734 3.3047s15.533-1.2957 20.734-3.3047c2.6008-1.0045 4.6554-2.2036 5.9297-3.3672 1.2743-1.1636 1.6094-2.0842 1.6094-2.6328v-12.117c-1.7156 1.4588-3.9201 2.6583-6.5547 3.6758-5.6631 2.1872-13.29 3.4883-21.719 3.4883s-16.056-1.3011-21.719-3.4883c-2.6345-1.0175-4.8391-2.217-6.5547-3.6758z" color="#000000" style="-inkscape-stroke:none"/><path d="m3.7266 39.164v12.117c0 0.54866 0.33509 1.4692 1.6094 2.6328 1.2743 1.1636 3.3289 2.3627 5.9297 3.3672 5.2017 2.009 12.584 3.3047 20.734 3.3047s15.533-1.2957 20.734-3.3047c2.6008-1.0045 4.6554-2.2036 5.9297-3.3672 1.2743-1.1636 1.6094-2.0842 1.6094-2.6328v-12.117c-1.7156 1.4588-3.9201 2.6583-6.5547 3.6758-5.6631 2.1872-13.29 3.4883-21.719 3.4883s-16.056-1.3011-21.719-3.4883c-2.6345-1.0175-4.8391-2.217-6.5547-3.6758z" color="#000000" style="-inkscape-stroke:none"/><path d="m32 4.582c-8.1508 0-15.533 1.2957-20.734 3.3047-2.6009 1.0045-4.6554 2.2036-5.9297 3.3672s-1.6094 2.0841-1.6094 2.6328c1e-7 0.54869 0.33507 1.4672 1.6094 2.6309 1.2743 1.1636 3.3288 2.3646 5.9297 3.3691 5.2017 2.009 12.584 3.3008 20.734 3.3008s15.533-1.2918 20.734-3.3008c2.6009-1.0045 4.6554-2.2055 5.9297-3.3691 1.2743-1.1636 1.6094-2.0822 1.6094-2.6309 0-0.54869-0.33507-1.4692-1.6094-2.6328-1.2743-1.1636-3.3288-2.3627-5.9297-3.3672-5.2017-2.009-12.584-3.3047-20.734-3.3047z" color="#000000" style="-inkscape-stroke:none"/></g></svg>
