<?xml version="1.0" encoding="UTF-8" standalone="no"?>
<svg
   width="256.87177"
   height="256.87955"
   viewBox="0 0 256.87176 256.87955"
   version="1.1"
   id="svg8"
   inkscape:version="1.1.1 (3bf5ae0d25, 2021-09-20)"
   sodipodi:docname="elpida-versions.svg"
   inkscape:export-filename="/media/klapeto/Αρχεία/Code/elpida-frontend/src/assets/Elpida-icon-web.png"
   inkscape:export-xdpi="191.34839"
   inkscape:export-ydpi="191.34839"
   xmlns:inkscape="http://www.inkscape.org/namespaces/inkscape"
   xmlns:sodipodi="http://sodipodi.sourceforge.net/DTD/sodipodi-0.dtd"
   xmlns="http://www.w3.org/2000/svg"
   xmlns:svg="http://www.w3.org/2000/svg"
   xmlns:rdf="http://www.w3.org/1999/02/22-rdf-syntax-ns#"
   xmlns:cc="http://creativecommons.org/ns#"
   xmlns:dc="http://purl.org/dc/elements/1.1/">
  <title
     id="title994">Elpida</title>
  <defs
     id="defs2">
    <clipPath
       clipPathUnits="userSpaceOnUse"
       id="clipPath904">
      <path
         d="M 256.17655,128.17655 A 128.17655,128.17655 0 0 1 127.99999,256.35311 128.17655,128.17655 0 0 1 -0.176553,128.17655 128.17655,128.17655 0 0 1 127.99999,0 128.17655,128.17655 0 0 1 256.17655,128.17655 Z"
         style="display:inline;fill:#e5e8fd;fill-opacity:1;stroke:none;stroke-width:0.50069;stroke-linecap:round;stroke-linejoin:round;stroke-miterlimit:4;stroke-dasharray:none;stroke-opacity:1"
         id="path906" />
    </clipPath>
    <clipPath
       clipPathUnits="userSpaceOnUse"
       id="clipPath908">
      <path
         d="M 256.17655,128.17655 A 128.17655,128.17655 0 0 1 127.99999,256.35311 128.17655,128.17655 0 0 1 -0.176553,128.17655 128.17655,128.17655 0 0 1 127.99999,0 128.17655,128.17655 0 0 1 256.17655,128.17655 Z"
         style="display:inline;fill:#e5e8fd;fill-opacity:1;stroke:none;stroke-width:0.50069;stroke-linecap:round;stroke-linejoin:round;stroke-miterlimit:4;stroke-dasharray:none;stroke-opacity:1"
         id="path910" />
    </clipPath>
    <clipPath
       clipPathUnits="userSpaceOnUse"
       id="clipPath912">
      <path
         d="M 256.17655,128.17655 A 128.17655,128.17655 0 0 1 127.99999,256.35311 128.17655,128.17655 0 0 1 -0.176553,128.17655 128.17655,128.17655 0 0 1 127.99999,0 128.17655,128.17655 0 0 1 256.17655,128.17655 Z"
         style="display:inline;fill:#e5e8fd;fill-opacity:1;stroke:none;stroke-width:0.50069;stroke-linecap:round;stroke-linejoin:round;stroke-miterlimit:4;stroke-dasharray:none;stroke-opacity:1"
         id="path914" />
    </clipPath>
    <clipPath
       clipPathUnits="userSpaceOnUse"
       id="clipPath916">
      <path
         d="M 622.11242,-94.46874 A 128.17655,128.17655 0 0 1 493.93586,33.70782 128.17655,128.17655 0 0 1 365.75932,-94.46874 128.17655,128.17655 0 0 1 493.93586,-222.64529 128.17655,128.17655 0 0 1 622.11242,-94.46874 Z"
         style="display:inline;fill:#e5e8fd;fill-opacity:1;stroke:none;stroke-width:0.50069;stroke-linecap:round;stroke-linejoin:round;stroke-miterlimit:4;stroke-dasharray:none;stroke-opacity:1"
         id="path918" />
    </clipPath>
    <clipPath
       clipPathUnits="userSpaceOnUse"
       id="clipPath920">
      <path
         d="M 256.17655,128.17655 A 128.17655,128.17655 0 0 1 127.99999,256.35311 128.17655,128.17655 0 0 1 -0.176553,128.17655 128.17655,128.17655 0 0 1 127.99999,0 128.17655,128.17655 0 0 1 256.17655,128.17655 Z"
         style="display:inline;fill:#e5e8fd;fill-opacity:1;stroke:none;stroke-width:0.50069;stroke-linecap:round;stroke-linejoin:round;stroke-miterlimit:4;stroke-dasharray:none;stroke-opacity:1"
         id="path922" />
    </clipPath>
    <clipPath
       clipPathUnits="userSpaceOnUse"
       id="clipPath924">
      <path
         d="M 256.17655,128.17655 A 128.17655,128.17655 0 0 1 127.99999,256.35311 128.17655,128.17655 0 0 1 -0.176553,128.17655 128.17655,128.17655 0 0 1 127.99999,0 128.17655,128.17655 0 0 1 256.17655,128.17655 Z"
         style="display:inline;fill:#e5e8fd;fill-opacity:1;stroke:none;stroke-width:0.50069;stroke-linecap:round;stroke-linejoin:round;stroke-miterlimit:4;stroke-dasharray:none;stroke-opacity:1"
         id="path926" />
    </clipPath>
    <clipPath
       clipPathUnits="userSpaceOnUse"
       id="clipPath928">
      <path
         d="M 256.17655,128.17655 A 128.17655,128.17655 0 0 1 127.99999,256.35311 128.17655,128.17655 0 0 1 -0.176553,128.17655 128.17655,128.17655 0 0 1 127.99999,0 128.17655,128.17655 0 0 1 256.17655,128.17655 Z"
         style="display:inline;fill:#e5e8fd;fill-opacity:1;stroke:none;stroke-width:0.50069;stroke-linecap:round;stroke-linejoin:round;stroke-miterlimit:4;stroke-dasharray:none;stroke-opacity:1"
         id="path930" />
    </clipPath>
    <clipPath
       clipPathUnits="userSpaceOnUse"
       id="clipPath932">
      <path
         d="M 634.57997,-95.525174 A 140.2438,127.98652 0 0 1 494.33616,32.461351 140.2438,127.98652 0 0 1 354.09237,-95.525174 140.2438,127.98652 0 0 1 494.33616,-223.51169 140.2438,127.98652 0 0 1 634.57997,-95.525174 Z"
         style="display:inline;fill:#e5e8fd;fill-opacity:1;stroke:none;stroke-width:0.52334;stroke-linecap:round;stroke-linejoin:round;stroke-miterlimit:4;stroke-dasharray:none;stroke-opacity:1"
         id="path934" />
    </clipPath>
    <clipPath
       clipPathUnits="userSpaceOnUse"
       id="clipPath936">
      <path
         d="M 256.17655,128.17655 A 128.17655,128.17655 0 0 1 127.99999,256.35311 128.17655,128.17655 0 0 1 -0.176553,128.17655 128.17655,128.17655 0 0 1 127.99999,0 128.17655,128.17655 0 0 1 256.17655,128.17655 Z"
         style="display:inline;fill:#e5e8fd;fill-opacity:1;stroke:none;stroke-width:0.50069;stroke-linecap:round;stroke-linejoin:round;stroke-miterlimit:4;stroke-dasharray:none;stroke-opacity:1"
         id="path938" />
    </clipPath>
    <clipPath
       clipPathUnits="userSpaceOnUse"
       id="clipPath940">
      <path
         d="M 256.17655,128.17655 A 128.17655,128.17655 0 0 1 127.99999,256.35311 128.17655,128.17655 0 0 1 -0.176553,128.17655 128.17655,128.17655 0 0 1 127.99999,0 128.17655,128.17655 0 0 1 256.17655,128.17655 Z"
         style="display:inline;fill:#e5e8fd;fill-opacity:1;stroke:none;stroke-width:0.50069;stroke-linecap:round;stroke-linejoin:round;stroke-miterlimit:4;stroke-dasharray:none;stroke-opacity:1"
         id="path942" />
    </clipPath>
    <clipPath
       clipPathUnits="userSpaceOnUse"
       id="clipPath944">
      <path
         d="M 256.17655,128.17655 A 128.17655,128.17655 0 0 1 127.99999,256.35311 128.17655,128.17655 0 0 1 -0.176553,128.17655 128.17655,128.17655 0 0 1 127.99999,0 128.17655,128.17655 0 0 1 256.17655,128.17655 Z"
         style="display:inline;fill:#e5e8fd;fill-opacity:1;stroke:none;stroke-width:0.50069;stroke-linecap:round;stroke-linejoin:round;stroke-miterlimit:4;stroke-dasharray:none;stroke-opacity:1"
         id="path946" />
    </clipPath>
    <clipPath
       clipPathUnits="userSpaceOnUse"
       id="clipPath948">
      <path
         d="M 256.17655,128.17655 A 128.17655,128.17655 0 0 1 127.99999,256.35311 128.17655,128.17655 0 0 1 -0.176553,128.17655 128.17655,128.17655 0 0 1 127.99999,0 128.17655,128.17655 0 0 1 256.17655,128.17655 Z"
         style="display:inline;fill:#e5e8fd;fill-opacity:1;stroke:none;stroke-width:0.50069;stroke-linecap:round;stroke-linejoin:round;stroke-miterlimit:4;stroke-dasharray:none;stroke-opacity:1"
         id="path950" />
    </clipPath>
    <clipPath
       clipPathUnits="userSpaceOnUse"
       id="clipPath952">
      <path
         d="M 256.17655,128.17655 A 128.17655,128.17655 0 0 1 127.99999,256.35311 128.17655,128.17655 0 0 1 -0.176553,128.17655 128.17655,128.17655 0 0 1 127.99999,0 128.17655,128.17655 0 0 1 256.17655,128.17655 Z"
         style="display:inline;fill:#e5e8fd;fill-opacity:1;stroke:none;stroke-width:0.50069;stroke-linecap:round;stroke-linejoin:round;stroke-miterlimit:4;stroke-dasharray:none;stroke-opacity:1"
         id="path954" />
    </clipPath>
    <clipPath
       clipPathUnits="userSpaceOnUse"
       id="clipPath956">
      <path
         d="M 256.17655,128.17655 A 128.17655,128.17655 0 0 1 127.99999,256.35311 128.17655,128.17655 0 0 1 -0.176553,128.17655 128.17655,128.17655 0 0 1 127.99999,0 128.17655,128.17655 0 0 1 256.17655,128.17655 Z"
         style="display:inline;fill:#e5e8fd;fill-opacity:1;stroke:none;stroke-width:0.50069;stroke-linecap:round;stroke-linejoin:round;stroke-miterlimit:4;stroke-dasharray:none;stroke-opacity:1"
         id="path958" />
    </clipPath>
    <clipPath
       clipPathUnits="userSpaceOnUse"
       id="clipPath960">
      <path
         d="M 256.17655,128.17655 A 128.17655,128.17655 0 0 1 127.99999,256.35311 128.17655,128.17655 0 0 1 -0.176553,128.17655 128.17655,128.17655 0 0 1 127.99999,0 128.17655,128.17655 0 0 1 256.17655,128.17655 Z"
         style="display:inline;fill:#e5e8fd;fill-opacity:1;stroke:none;stroke-width:0.50069;stroke-linecap:round;stroke-linejoin:round;stroke-miterlimit:4;stroke-dasharray:none;stroke-opacity:1"
         id="path962" />
    </clipPath>
    <clipPath
       clipPathUnits="userSpaceOnUse"
       id="clipPath964">
      <path
         d="M 256.17655,128.17655 A 128.17655,128.17655 0 0 1 127.99999,256.35311 128.17655,128.17655 0 0 1 -0.176553,128.17655 128.17655,128.17655 0 0 1 127.99999,0 128.17655,128.17655 0 0 1 256.17655,128.17655 Z"
         style="display:inline;fill:#e5e8fd;fill-opacity:1;stroke:none;stroke-width:0.50069;stroke-linecap:round;stroke-linejoin:round;stroke-miterlimit:4;stroke-dasharray:none;stroke-opacity:1"
         id="path966" />
    </clipPath>
    <clipPath
       clipPathUnits="userSpaceOnUse"
       id="clipPath968">
      <path
         d="M 256.17655,128.17655 A 128.17655,128.17655 0 0 1 127.99999,256.35311 128.17655,128.17655 0 0 1 -0.17655301,128.17655 128.17655,128.17655 0 0 1 127.99999,0 128.17655,128.17655 0 0 1 256.17655,128.17655 Z"
         style="display:inline;fill:#e5e8fd;fill-opacity:1;stroke:none;stroke-width:0.50069;stroke-linecap:round;stroke-linejoin:round;stroke-miterlimit:4;stroke-dasharray:none;stroke-opacity:1"
         id="path970" />
    </clipPath>
  </defs>
  <sodipodi:namedview
     inkscape:bbox-nodes="false"
     inkscape:snap-midpoints="false"
     inkscape:snap-intersection-paths="false"
     inkscape:snap-bbox="true"
     inkscape:guide-bbox="true"
     inkscape:object-nodes="true"
     id="base"
     pagecolor="#ffffff"
     bordercolor="#666666"
     borderopacity="1.0"
     inkscape:pageopacity="0.0"
     inkscape:pageshadow="2"
     inkscape:zoom="1.2325118"
     inkscape:cx="-19.878107"
     inkscape:cy="92.899723"
     inkscape:document-units="px"
     inkscape:current-layer="layer2"
     showgrid="false"
     inkscape:window-width="1920"
     inkscape:window-height="1017"
     inkscape:window-x="3232"
     inkscape:window-y="-8"
     inkscape:window-maximized="1"
     fit-margin-top="0"
     fit-margin-left="0"
     fit-margin-right="0"
     fit-margin-bottom="0"
     inkscape:measure-start="772.654,759.868"
     inkscape:measure-end="694.75,989.625"
     inkscape:snap-nodes="false"
     inkscape:snap-others="false"
     showguides="true"
     units="px"
     scale-x="1"
     inkscape:object-paths="true"
     inkscape:document-rotation="0"
     inkscape:snap-smooth-nodes="true"
     inkscape:pagecheckerboard="0" />
  <metadata
     id="metadata5">
    <rdf:RDF>
      <cc:Work
         rdf:about="">
        <dc:format>image/svg+xml</dc:format>
        <dc:type
           rdf:resource="http://purl.org/dc/dcmitype/StillImage" />
        <dc:title>Elpida</dc:title>
        <cc:license
           rdf:resource="http://creativecommons.org/licenses/by-nc/4.0/" />
        <dc:creator>
          <cc:Agent>
            <dc:title>Ioannis Panagiotopoulos</dc:title>
          </cc:Agent>
        </dc:creator>
        <dc:rights>
          <cc:Agent>
            <dc:title>Ioannis Panagiotopoulos</dc:title>
          </cc:Agent>
        </dc:rights>
      </cc:Work>
      <cc:License
         rdf:about="http://creativecommons.org/licenses/by-nc/4.0/">
        <cc:permits
           rdf:resource="http://creativecommons.org/ns#Reproduction" />
        <cc:permits
           rdf:resource="http://creativecommons.org/ns#Distribution" />
        <cc:requires
           rdf:resource="http://creativecommons.org/ns#Notice" />
        <cc:requires
           rdf:resource="http://creativecommons.org/ns#Attribution" />
        <cc:prohibits
           rdf:resource="http://creativecommons.org/ns#CommercialUse" />
        <cc:permits
           rdf:resource="http://creativecommons.org/ns#DerivativeWorks" />
      </cc:License>
    </rdf:RDF>
  </metadata>
  <g
     transform="translate(0.37400001,0.37400001)"
     style="display:inline"
     inkscape:label="Background 1"
     id="layer7"
     inkscape:groupmode="layer">
    <path
       d="M 256.17655,128.17655 A 128.17655,128.17655 0 0 1 128,256.35311 128.17655,128.17655 0 0 1 -0.17655373,128.17655 128.17655,128.17655 0 0 1 128,0 128.17655,128.17655 0 0 1 256.17655,128.17655 Z"
       style="fill:#e5e8fd;fill-opacity:1;stroke:none;stroke-width:0.50069;stroke-linecap:round;stroke-linejoin:round;stroke-miterlimit:4;stroke-dasharray:none;stroke-opacity:1"
       id="path1196"
       clip-path="url(#clipPath968)" />
  </g>
  <g
     inkscape:groupmode="layer"
     id="layer21"
     inkscape:label="Καπέλο #1"
     style="display:inline"
     transform="translate(96.653899,-40.994276)">
    <path
       sodipodi:nodetypes="ccccccc"
       transform="translate(-96.279899,41.368276)"
       d="M 125.97461,0.39648438 C 84.472651,1.1752016 45.417958,21.271664 22.059201,55.584744 L 65.462891,188.36719 H 241.44336 c 9.80387,-18.47775 14.92995,-39.07661 14.92969,-59.99414 C 256.3718,58.588271 200.47247,1.6646973 130.69922,0.39648438 Z"
       style="fill:#c7cdf9;fill-opacity:1;stroke:none;stroke-width:0.748209;stroke-linecap:round;stroke-linejoin:round;stroke-miterlimit:4;stroke-dasharray:none;stroke-opacity:1"
       id="path2031"
       clip-path="url(#clipPath964)" />
  </g>
  <g
     inkscape:groupmode="layer"
     id="layer6"
     inkscape:label="Μαλλιά #2"
     style="display:inline"
     transform="translate(96.653899,-40.994276)">
    <path
       sodipodi:nodetypes="cccccccccc"
       transform="translate(-96.279899,41.368276)"
       d="M 55.805593,24.516481 C 47.615804,34.574784 44.065072,43.349497 43.214844,45.884766 l 0.371094,9.6875 c 8.307783,48.897554 13.401741,112.159674 13.496093,179.109374 21.086501,14.14081 45.901989,21.69131 71.291019,21.69141 40.15949,6.7e-4 77.99121,-18.8465 102.17968,-50.9043 l -0.18359,-7.59375 c 0,-0.0579 -2e-5,-0.11591 0,-0.17383 -0.15672,-16.75486 1.08703,-33.38712 2.37889,-50.04101 l 1.59375,-15.24024"
       style="display:inline;fill:#6a7098;fill-opacity:1;stroke:none;stroke-width:0.792545;stroke-linecap:round;stroke-linejoin:round;stroke-miterlimit:4;stroke-dasharray:none;stroke-opacity:1"
       id="path2289-2"
       clip-path="url(#clipPath960)" />
  </g>
  <g
     transform="translate(-20.798711,-70.458169)"
     style="display:inline"
     inkscape:label="Σώμα"
     id="layer3"
     inkscape:groupmode="layer">
    <g
       inkscape:groupmode="layer"
       id="layer13"
       inkscape:label="Κορμός"
       style="display:inline">
      <path
         transform="translate(21.172711,70.832169)"
         d="m 189.73047,164.36719 c -29.22938,6.22447 -51.60994,22.64827 -81.9434,29.77753 l -0.0332,24.64624 c 0.20653,2.39093 0.59616,7.19888 0.69922,8.60546 l -4.1289,2.16993 c -10.832923,4.54654 -21.666591,9.09132 -32.500001,13.63671 17.591943,8.66365 36.939261,13.16954 56.548831,13.16993 18.26851,-3e-5 36.32537,-3.91055 52.95703,-11.46875 l 0.79492,-6.23438 -2.76172,-7.05859 z"
         style="display:inline;fill:#cbc7f7;fill-opacity:1;stroke:none;stroke-width:0.264182px;stroke-linecap:butt;stroke-linejoin:miter;stroke-opacity:1"
         id="path3244"
         sodipodi:nodetypes="ccccccccccc"
         clip-path="url(#clipPath956)" />
    </g>
    <g
       inkscape:groupmode="layer"
       id="layer16"
       inkscape:label="Πουκάμισο"
       style="display:inline;opacity:1"
       transform="translate(117.45261,29.463893)">
      <path
         transform="translate(-96.279899,41.368276)"
         d="m 107.96484,199.94727 c -4.76789,5.29413 -9.965302,12.96859 -9.376949,20.41211 l 0.982421,1.74414 1.205078,2.69531 1.45899,3.83594 c -0.5412,0.18268 -0.99518,0.35872 -1.47603,0.54101 -8.11358,2.94618 -16.821123,6.5566 -23.713478,10.35342 l -1.97461,5.21679 c 10.644587,4.87582 21.907818,8.26813 33.474608,10.08203 l 2.00981,0.29887 -0.20117,-2.91211 c -1.64359,-17.39825 -2.17835,-34.80882 -2.38867,-52.26751 z m 33.0331,22.4594 c -6.92973,4.81956 -14.9337,12.56248 -21.89258,26.51953 -0.79552,1.59554 -1.4959,3.00635 -2.00781,4.13867 l -6.47266,2.07227 c 5.88018,0.82325 11.81052,1.23636 17.74805,1.23633 24.02244,5e-4 47.48351,-6.79553 67.84518,-19.54229 -0.41913,-0.14516 -0.7566,-0.25716 -1.17721,-0.40107 -1.37647,-0.46815 -2.65231,-0.89529 -3.86329,-1.29692 -3.17086,-1.01578 -6.43822,-2.06713 -9.28514,-2.9043 4.5152,-7.51328 1.3822,-20.33919 -2.15058,-27.05468 l -0.004,-0.01 c -14.81848,6.53888 -25.4962,14.90357 -38.73996,17.24246 z"
         style="fill:#c7cdf9;fill-opacity:1;stroke:#c7cdf9;stroke-width:0.264182px;stroke-linecap:butt;stroke-linejoin:miter;stroke-opacity:1"
         id="path1241"
         sodipodi:nodetypes="cccccccccccccscccccccccc"
         clip-path="url(#clipPath952)" />
    </g>
    <g
       inkscape:groupmode="layer"
       id="layer8"
       inkscape:label="Φουστάνι"
       style="display:inline;opacity:1"
       transform="translate(117.45261,29.463893)">
      <path
         transform="translate(-96.279899,41.368276)"
         d="m 94.404297,230.39847 c -6.538937,1.05436 -14.259902,4.11644 -18.494137,9.29895 -0.589221,0.75125 -1.381823,2.27573 -2.316406,4.35976 6.916485,3.32712 12.90481,5.44545 19.847656,7.48389 1.066254,-7.07204 2.164035,-14.26073 2.82809,-21.16583 -0.667609,-0.0558 -1.269454,-0.008 -1.865203,0.0232 z"
         style="fill:#898ee2;fill-opacity:1;stroke:#898ee2;stroke-width:0.264182px;stroke-linecap:butt;stroke-linejoin:miter;stroke-opacity:1"
         id="path1235"
         sodipodi:nodetypes="ccccccc"
         clip-path="url(#clipPath948)" />
    </g>
    <g
       inkscape:groupmode="layer"
       id="layer17"
       inkscape:label="Γιακάς"
       style="display:inline"
       transform="translate(117.45261,29.463893)">
      <path
         transform="translate(-96.279899,41.368276)"
         d="M 107.55859,200.11328 C 94.817259,212.6439 85.299789,230.71482 83.600062,248.32936 l 2.47139,0.88835 c 4.89172,-7.50499 8.939056,-15.65365 13.982778,-23.04185 1.57217,3.77306 2.99808,8.43577 4.22453,13.37891 l 1.08984,-0.47657 c -1.67196,-6.6742 -3.66041,-13.16104 -6.783198,-18.71874 -0.519307,-7.22104 4.617718,-14.07751 8.207028,-19.22852 0.25527,-0.33777 0.51457,-0.69561 0.76562,-1.01758 z"
         style="display:inline;fill:#c7cdf9;fill-opacity:1;stroke:#c7cdf9;stroke-width:0.264583px;stroke-linecap:butt;stroke-linejoin:miter;stroke-opacity:1"
         id="path1074"
         sodipodi:nodetypes="cccccccccc"
         clip-path="url(#clipPath944)" />
    </g>
    <g
       inkscape:groupmode="layer"
       id="layer23"
       inkscape:label="Μαλλια #3"
       style="display:inline">
      <path
         transform="translate(21.172711,70.832169)"
         d="m 76.328125,61.845703 -15.658203,0.05469 -9.863281,0.03516 c -0.297655,63.238407 -3.752044,121.619307 0.252824,168.384977 8.998722,6.81647 18.888079,12.26097 29.354597,16.49101 -2.873532,-18.05842 -4.764714,-37.54357 -5.41215,-53.48927 z m -1.228516,49.597657 c -0.439785,18.74828 -0.41854,15.27118 4e-6,0 z"
         style="display:inline;fill:#6a7098;fill-opacity:1;stroke:#6a7098;stroke-width:0.792545;stroke-linecap:round;stroke-linejoin:round;stroke-miterlimit:4;stroke-dasharray:none;stroke-opacity:1"
         id="path1449"
         sodipodi:nodetypes="cccccccccc"
         clip-path="url(#clipPath940)" />
    </g>
  </g>
  <g
     style="display:inline;opacity:0.999"
     inkscape:groupmode="layer"
     id="layer2"
     inkscape:label="Κεφάλι"
     transform="translate(-365.56187,223.01929)">
    <path
       sodipodi:nodetypes="cccsssssscc"
       transform="translate(365.93587,-222.64529)"
       d="M 118.43378,7.9848268 C 94.507687,15.997075 70.788903,28.519104 61.898438,50.826172 54.175906,71.13678 51.932051,93.620185 57.51363,114.56064 c 0.18923,0.70664 0.741375,4.15507 1.078125,7.71679 0.81693,8.64036 0.499053,19.68126 0.908203,28.72071 0.14748,3.25842 1.047623,8.34844 3.632812,12.57422 1.79323,2.93124 3.97035,5.56898 6.15625,7.8164 1.849672,1.90171 3.757023,3.8271 5.882813,5.68945 3.525864,3.08891 8.888702,7.58481 14.232422,11.4961 6.89183,5.0444 10.324098,7.28172 15.669925,7.03125 65.35887,-3.17653 75.32089,-49.62538 96.87399,-108.399154"
       style="display:inline;opacity:1;fill:#cbc7f7;fill-opacity:1;stroke:#cbc7f7;stroke-width:0.792545;stroke-linecap:round;stroke-linejoin:round;stroke-miterlimit:4;stroke-dasharray:none;stroke-opacity:1"
       id="path1230"
       clip-path="url(#clipPath936)" />
    <path
       d="m 500.3636,-105.8367 c -5.72799,-0.0398 -10.6395,5.12437 -10.49414,11.44727 0.14534,6.32289 4.12048,11.60981 10.70508,11.68945 6.58461,0.0796 10.47394,-6.66176 10.33399,-12.13476 -0.13996,-5.473 -4.81695,-10.96222 -10.54493,-11.00196 z"
       style="fill:#6a7098;fill-opacity:1;stroke:#6a7098;stroke-width:0.792545;stroke-linecap:butt;stroke-linejoin:miter;stroke-miterlimit:4;stroke-dasharray:none;stroke-opacity:1"
       id="path1169" />
    <path
       transform="translate(365.93587,-222.64529)"
       d="m 141.4082,109.2168 c -0.76945,-0.009 -1.55333,0.0102 -2.30078,0.0684 -2.46381,0.19189 -3.39141,0.31827 -5.76562,0.95703 -2.09678,0.56412 -4.81053,2.07901 -6.26172,3.0039 -3.02949,1.93079 -4.34187,3.64734 -4.89649,4.29883 -1.29055,1.51592 -1.02954,2.95727 0.92579,1.24024 1.98492,-1.74305 3.01136,-2.64072 5.42968,-3.98828 1.9167,-1.06805 3.35432,-1.61797 5.48633,-1.98829 3.61564,-0.628 8.017,-1.00377 13.74219,1.82032 3.34748,1.65114 5.7915,4.73836 6.32422,7.41015 0.52986,2.65746 -1.05411,7.96494 -0.32618,7.81446 1.23668,-0.25554 5.11197,-8.05987 4.44727,-9.95313 -2.49613,-7.10952 -9.68574,-9.54901 -11.59961,-10.15039 -0.71388,-0.22431 -2.89671,-0.50511 -5.20508,-0.5332 z"
       style="display:inline;fill:#6a7098;fill-opacity:1;stroke:none;stroke-width:0.792545;stroke-linecap:butt;stroke-linejoin:miter;stroke-miterlimit:4;stroke-dasharray:none;stroke-opacity:1"
       id="path4565"
       clip-path="url(#clipPath928)" />
    <path
       style="color:#000000;fill:#6a7098;stroke-linecap:round;-inkscape-stroke:none"
       d="m 68.984375,94.71875 c -3.683884,0.04398 -7.313798,0.767464 -10.375,2.476562 a 0.52836502,0.52836502 0 0 0 -0.203125,0.71875 0.52836502,0.52836502 0 0 0 0.71875,0.203125 c 2.860631,-1.597117 6.317537,-2.297421 9.871094,-2.339843 7.817702,-0.09331 16.098636,3.088644 19.220703,6.376956 a 0.52836502,0.52836502 0 0 0 0.746094,0.0195 0.52836502,0.52836502 0 0 0 0.01953,-0.7461 C 85.470035,97.728322 77.089039,94.622018 68.984375,94.71875 Z"
       id="path1732"
       transform="translate(365.93587,-222.64529)" />
    <path
       style="color:#000000;fill:#6a7098;stroke-linecap:round;-inkscape-stroke:none"
       d="m 146.9043,95.693359 c -5.9178,-0.103845 -12.31882,0.771835 -17.55469,2.039063 -2.61794,0.633614 -4.94296,1.363571 -6.7793,2.126953 -1.83633,0.763385 -3.18009,1.522325 -3.88867,2.398435 a 0.52836502,0.52836502 0 0 0 0.0781,0.74219 0.52836502,0.52836502 0 0 0 0.74218,-0.0781 c 0.45884,-0.56733 1.70991,-1.35234 3.47461,-2.08594 1.7647,-0.73361 4.04686,-1.452664 6.62305,-2.076174 5.15239,-1.247022 11.48542,-2.113493 17.28516,-2.011719 5.27241,0.09252 10.0985,1.003723 13.17187,3.046875 a 0.52836502,0.52836502 0 0 0 0.73242,-0.146485 0.52836502,0.52836502 0 0 0 -0.14648,-0.732421 c -3.37168,-2.241465 -8.35839,-3.128254 -13.73828,-3.222657 z"
       id="path1734"
       transform="translate(365.93587,-222.64529)" />
    <path
       d="m 445.46907,-105.86013 c -4.31129,-0.18988 -8.79764,4.50704 -8.94336,11.4082 -0.14169,6.70966 4.15841,11.76843 8.87696,11.75195 4.83514,-0.0169 8.2971,-5.21395 8.16406,-11.03125 -0.18932,-8.27731 -3.90949,-11.94443 -8.09766,-12.1289 z"
       style="fill:#6a7098;fill-opacity:1;stroke:#6a7098;stroke-width:0.775433;stroke-linecap:butt;stroke-linejoin:miter;stroke-miterlimit:4;stroke-dasharray:none;stroke-opacity:1"
       id="path1121" />
    <path
       transform="translate(365.93587,-222.64529)"
       d="m 73.605469,109.73438 c -0.906557,0.0276 -1.742659,0.13025 -2.496094,0.24023 -3.06664,0.44745 -5.203757,2.06286 -6.873047,3.45703 -1.74509,1.45748 -3.46403,5.27079 -3.59375,6.23438 -0.27587,2.05047 1.866925,6.65942 2.265625,7.67773 0.39869,1.0183 1.612892,2.00543 1.107422,0.43359 -0.8132,-2.52885 -0.203172,-4.92164 -0.03516,-5.92382 0.41149,-2.45439 1.914743,-4.85664 2.964843,-5.875 1.57499,-1.52739 3.363346,-2.48998 5.166016,-2.84766 2.40167,-0.47651 3.674679,-0.83637 6.529297,-0.25391 3.89824,0.7954 6.719803,4.04555 8.226563,6.42383 0.422409,0.66672 1.196368,0.79375 0.605468,-0.74219 -0.35957,-0.93461 -1.738836,-3.68563 -5.753906,-6.41797 -2.62768,-1.78818 -5.067989,-2.33938 -7.183594,-2.40624 -0.317341,-0.01 -0.627502,-0.009 -0.929687,0 z"
       style="display:inline;fill:#6a7098;fill-opacity:1;stroke:none;stroke-width:0.792545;stroke-linecap:butt;stroke-linejoin:miter;stroke-miterlimit:4;stroke-dasharray:none;stroke-opacity:1"
       id="path51"
       clip-path="url(#clipPath912)" />
  </g>
  <g
     transform="translate(-20.798711,-70.458169)"
     inkscape:label="Μαλλιά #1"
     id="layer4"
     inkscape:groupmode="layer"
     style="display:inline">
    <path
       transform="translate(21.172711,70.832169)"
       d="M 125.30088,6.1331246 C 111.60298,6.3900823 98.708882,6.8413974 85.789062,11.399563 L 62.060547,31.503906 43.214844,45.884766 c -4.846263,14.451028 -9.760761,41.314542 -0.0293,61.527344 3.698786,0.62896 11.225438,1.6384 16.476562,2.17773 1.98e-4,0.001 -1.98e-4,0.003 0,0.004 l 0.07617,0.004 c 1.451838,0.14844 2.760143,0.26648 3.71875,0.32226 -0.09114,-0.2115 -0.1929,-0.51331 -0.296875,-0.84961 -3.104486,-15.219855 -4.254063,-31.535734 0.406255,-46.464841 -3.18068,14.848067 -3.86545,32.879086 1.259766,47.484371 0,0 5.054538,0.29942 8.902344,0.46485 v 0.002 l 0.07813,0.002 c 1.315389,0.0562 2.485794,0.098 3.251953,0.10352 -2.776774,-15.718072 -3.525937,-31.57368 0.505863,-47.150391 -3.613599,17.10329 -1.231751,37.942011 1.96875,47.310551 1.898097,0.0324 10.006819,0.12868 16.517578,0.0176 0.0012,0.005 0.0027,0.0104 0.0039,0.0156 l 4.30273,-0.12109 C 97.376437,93.568968 96.684892,76.252379 99.484452,59.049108 c 0.0139,-0.06544 0.02898,-0.12605 0.04297,-0.191406 7.831378,15.588655 8.274448,45.282068 8.419928,51.121098 4.85229,-0.12704 12.18677,-0.18942 18.07226,-0.25196 -6.5e-4,0.004 -9.5e-4,0.009 -0.002,0.0137 l 6.72265,-0.0977 c 1.29742,-13.725822 0.76489,-27.965894 -2.03964,-41.501955 5.2884,15.04029 6.48736,34.750735 5.91016,41.408205 2.7379,-0.009 17.05544,-0.26564 19.40234,-0.38281 0.46328,-10.10243 -0.5601,-21.137708 -1.82418,-32.019536 2.8574,14.217305 3.2235,27.652816 3.14649,31.970706 0.25591,-0.008 0.51172,-0.0183 0.76758,-0.0274 0.27267,27.83235 0.57173,55.66446 0.83984,83.49684 -1.04566,21.50741 -2.87452,41.26363 -7.04687,61.74287 10.06716,-1.88382 19.87185,-4.96911 29.2037,-9.18966 2.03663,-15.6788 3.04888,-31.29625 3.36708,-46.8276 l 42.55468,-26.28906 6.17188,-44.66406 1.85937,-35.14063 C 232.75115,80.036653 233.37978,67.310969 227.63041,56.217144 195.81877,21.392497 163.99761,5.8566612 125.30088,6.1331246 Z"
       style="fill:#6a7098;fill-opacity:1;stroke:#6a7098;stroke-width:0.264182px;stroke-linecap:butt;stroke-linejoin:miter;stroke-opacity:1"
       id="path4310"
       sodipodi:nodetypes="cccccccccccccccccccccccccccccccccccccccccc"
       clip-path="url(#clipPath908)" />
  </g>
  <g
     inkscape:groupmode="layer"
     id="layer25"
     inkscape:label="Καπελο #2"
     style="display:inline;opacity:1"
     transform="translate(96.653899,-40.994276)">
    <path
       sodipodi:nodetypes="scccccccss"
       transform="translate(-96.279899,41.368276)"
       d="m 126.98499,-0.22682165 c -37.869734,0 -77.036868,18.66114865 -100.986436,50.89826965 L 37.476562,83.123047 C 39.752209,30.303848 80.5762,26.484224 100.91406,26.607422 c 3.89215,0.01769 4.30883,0.07203 5.75782,0.130859 78.23739,7.386229 115.35999,45.927217 126.17773,121.343749 -0.77871,11.34677 -1.57727,22.85751 -1.9082,34.45703 4.63271,0.21654 9.64157,0.0518 13.38482,0.0489 7.93496,-16.9722 12.04682,-35.47941 12.04682,-54.21491 0,-71.411224 -57.69329,-128.59987165 -129.38806,-128.59987165 z"
       style="display:inline;fill:#c7cdf9;fill-opacity:1;stroke:#c7cdf9;stroke-width:0.249403px;stroke-linecap:butt;stroke-linejoin:miter;stroke-opacity:1"
       id="path2029"
       clip-path="url(#clipPath904)" />
  </g>
  <g
     style="display:inline"
     inkscape:groupmode="layer"
     id="layer1"
     inkscape:label="Mask"
     transform="translate(-22.301391,-51.348868)" />
  <g
     inkscape:label="Badge"
     id="layer5"
     inkscape:groupmode="layer" />
</svg>
