<svg version="1.1" viewBox="0 0 64 64" xmlns="http://www.w3.org/2000/svg"><g stroke-width=".24928"><path d="m13.484 40.214 2.0196 20.06 1.5157 0.85058 3.5255 0.0185c-0.45229-0.23057-0.92649-0.47103-1.4431-0.72545 2.7006-1.1331 2.3027-2.0596 5.0032-3.193l1.0293-0.54092c-0.02569-0.35064-0.12282-1.5492-0.1743-2.1452l0.0078-5.826c-0.22514 0.01553-0.44514 0.03504-0.67579 0.04625-1.3326 0.06244-2.1882-0.49529-3.9062-1.7528-1.3321-0.97502-2.669-2.0958-3.5479-2.8658-0.52992-0.46425-1.0054-0.94422-1.4665-1.4183-0.54491-0.56024-1.0876-1.2178-1.5346-1.9485-0.11072-0.18098-0.20503-0.36913-0.29213-0.55943z"/><path d="m12.633 15.43-1.8691 0.0068c-0.0742 15.764-0.93554 30.317 0.06281 41.975 2.2432 1.6992 4.7087 3.0567 7.3178 4.1112-0.71632-4.5016-1.1877-9.3592-1.3491-13.334l0.0409-4.0508c-0.52929-0.46382-1.0044-0.94323-1.465-1.4168-0.54491-0.56024-1.0876-1.2178-1.5346-1.9485-0.64444-1.0534-0.86883-2.3223-0.9056-3.1345-0.10199-2.2534-0.02275-5.0057-0.2264-7.1596-0.08395-0.88787-0.22159-1.7475-0.26876-1.9237-1.1426-4.2869-0.96738-8.8326 0.19719-13.125z"/><path d="m29.763 3.2101e-4c-7.3803-0.042165-15.82 4.0805-17.752 6.1556-1.5069 1.7245-2.3885 3.497-3.1394 5.2796-1.2081 3.6024-2.4332 10.299-0.0073 15.338 0.92204 0.15679 2.7983 0.40842 4.1073 0.54287 4.9e-5 2.5e-4 -5e-5 7.48e-4 0 9.97e-4l0.01899 9.98e-4c0.36192 0.037 0.68805 0.06643 0.92702 0.08033-0.02272-0.05272-0.04809-0.12796-0.07401-0.21179-0.77389-3.794-1.0605-7.8613 0.10127-11.583-0.79289 3.7014-0.96359 8.1962 0.31404 11.837 0 0 1.26 0.07464 2.2192 0.11588v4.99e-4l0.01948 4.98e-4c0.3279 0.01401 0.61966 0.02443 0.81065 0.02581-0.6922-3.9182-0.87895-7.8708 0.1261-11.754-0.9008 4.2635-0.30705 9.4583 0.49078 11.794 0.47316 0.0081 2.4945 0.03208 4.1175 0.0044 2.99e-4 0.0012 6.73e-4 0.0026 9.72e-4 0.0039l1.0726-0.03018c-0.74311-4.2791-0.9155-8.5958-0.21762-12.884 0.0035-0.01631 0.0072-0.03142 0.01071-0.04771 1.9522 3.886 2.0627 11.288 2.0989 12.744 1.2096-0.03167 3.0379-0.04722 4.5051-0.06281-1.62e-4 9.97e-4 -2.37e-4 0.0022-4.98e-4 0.0034l1.6758-0.02436c0.32342-3.4216 0.19067-6.9714-0.50845-10.346 1.3183 3.7493 1.6172 8.6627 1.4733 10.322 0.68251-0.0022 4.2516-0.06622 4.8367-0.09543 0.11549-2.5184-0.13962-5.2693-0.45474-7.9819 0.7123 3.5441 0.80356 6.8934 0.78436 7.9697 0.06379-2e-3 0.12756-0.0046 0.19134-0.0068 0.06797 6.9381 0.14252 13.876 0.20936 20.814-0.26066 5.3614-0.71657 10.286-1.7567 15.391 2.5096-0.4696 4.9537-1.2387 7.28-2.2908 5.215-2.3551 9.4935-5.3027 13.238-7.7072-0.48198-3.7182 0.05169-21.249 0.05169-21.249-0.14596-20.545-6.6617-32.035-26.77-32.15z"/><path d="m25.022 50.082-8.1174 11.019c0.69888 0.32012 1.4093 0.61335 2.1281 0.88174-3.74e-4 0.0039-0.0011 0.0078-0.0015 0.01169l0.6159 0.22153c0.0023-0.0035 0.0045-0.0072 0.0068-0.01072 1.8174 0.63603 3.689 1.1101 5.5952 1.409l0.501 0.07449-0.05015-0.72594c-0.40972-4.3371-0.62565-8.5285-0.67808-12.881zm17.974 1.1522c-3.694 1.63-6.3558 3.7151-9.6573 4.2982-1.7275 1.2014-3.7227 3.1316-5.4574 6.6108-0.19831 0.39774-0.3729 0.74943-0.50051 1.0317l-1.6135 0.51658c1.4658 0.20522 2.9442 0.3082 4.4243 0.3082 5.9884 1.25e-4 11.837-1.6942 16.913-4.8717l-4.1073-7.8913z"/><path d="m16.447 27.352c-0.22599 0.0069-0.43441 0.03247-0.62223 0.05988-0.76446 0.11154-1.2972 0.51423-1.7133 0.86178-0.43502 0.36332-0.86352 1.3139-0.89586 1.5541-0.06877 0.51114 0.46539 1.6601 0.56478 1.9139 0.09939 0.25384 0.40206 0.49992 0.27606 0.10809-0.20272-0.6304-0.05065-1.2269-0.0088-1.4767 0.10258-0.61184 0.47731-1.2107 0.73908-1.4645 0.39262-0.38075 0.83842-0.62071 1.2878-0.70987 0.59869-0.11879 0.91603-0.20849 1.6276-0.0633 0.97176 0.19828 1.6751 1.0085 2.0507 1.6013 0.1053 0.1662 0.29823 0.19787 0.15093-0.18502-0.08963-0.23298-0.43346-0.91876-1.4343-1.5999-0.65503-0.44576-1.2634-0.58316-1.7907-0.59983-0.07911-0.0025-0.15642-0.0022-0.23175 0z"/><path d="m34.719 23.852c-1.4752-0.02589-3.0709 0.1924-4.3761 0.5083-0.65261 0.15795-1.2322 0.33991-1.69 0.53021-0.45776 0.1903-0.79274 0.37949-0.96938 0.59789a0.13171 0.13171 0 0 0 0.01947 0.18502 0.13171 0.13171 0 0 0 0.18501-0.01947c0.11438-0.14143 0.42625-0.33712 0.86616-0.51999 0.43991-0.18288 1.0088-0.36212 1.651-0.51755 1.2844-0.31086 2.8631-0.52686 4.3089-0.50149 1.3143 0.02306 2.5174 0.25021 3.2835 0.75953a0.13171 0.13171 0 0 0 0.18258-0.03652 0.13171 0.13171 0 0 0-0.03652-0.18258c-0.8405-0.55876-2.0836-0.77982-3.4247-0.80335z"/><path d="m33.349 27.223c-0.19181-0.0022-0.38722 0.0025-0.57354 0.01705-0.61418 0.04784-0.84542 0.07934-1.4373 0.23857-0.52269 0.14062-1.1992 0.51826-1.5609 0.74882-0.7552 0.48131-1.0824 0.90922-1.2206 1.0716-0.32171 0.37789-0.25665 0.7372 0.23078 0.30917 0.4948-0.43451 0.75068-0.65828 1.3535-0.99421 0.4778-0.26625 0.83617-0.40333 1.3676-0.49565 0.90131-0.15655 1.9985-0.25022 3.4257 0.45377 0.83447 0.4116 1.4437 1.1812 1.5765 1.8472 0.13208 0.66246-0.26277 1.9855-0.08131 1.948 0.30828-0.0637 1.2743-2.0092 1.1086-2.4811-0.62224-1.7723-2.4145-2.3804-2.8916-2.5303-0.17796-0.05592-0.7221-0.12592-1.2975-0.13292z"/><path d="m15.295 23.609c-0.91833 0.01096-1.8232 0.19132-2.5863 0.61736a0.13171 0.13171 0 0 0-0.05064 0.17917 0.13171 0.13171 0 0 0 0.17917 0.05063c0.7131-0.39813 1.5748-0.57271 2.4607-0.58328 1.9488-0.02326 4.0131 0.76994 4.7914 1.5897a0.13171 0.13171 0 0 0 0.18599 0.0049 0.13171 0.13171 0 0 0 0.0049-0.18599c-0.87558-0.92219-2.9648-1.6965-4.9852-1.6724z"/><path d="m17.535 29.198c-1.0747-0.04733-2.1931 1.1235-2.2294 2.8439-0.03532 1.6726 1.0366 2.9337 2.2129 2.9296 1.2053-0.0042 2.0683-1.2997 2.0352-2.7499-0.04719-2.0634-0.97457-2.9775-2.0186-3.0235z"/><path d="m31.219 29.204c-1.4279-0.0099-2.6522 1.2774-2.616 2.8536 0.03623 1.5762 1.0272 2.8941 2.6686 2.914 1.6414 0.01984 2.611-1.6607 2.5761-3.025-0.03489-1.3643-1.2008-2.7327-2.6287-2.7426z"/></g></svg>
