<svg version="1.1" viewBox="0 0 64 64" xmlns="http://www.w3.org/2000/svg"><path d="m32 0a32 32 0 0 0-32 32 32 32 0 0 0 32 32 32 32 0 0 0 32-32 32 32 0 0 0-32-32zm-12.086 18.891c4.0625 0 7.2448 1.1617 9.5469 3.4863 2.3021 2.3247 3.4531 5.5345 3.4531 9.6309 0 4.0851-1.151 7.2906-3.4531 9.6152-2.3021 2.3246-5.4844 3.4863-9.5469 3.4863-4.0512 0-7.2335-1.1617-9.5469-3.4863-2.3021-2.3247-3.4531-5.5302-3.4531-9.6152 0-4.0964 1.151-7.3062 3.4531-9.6309 2.3134-2.3246 5.4957-3.4863 9.5469-3.4863zm26.678 0c1.388 0 2.8142 0.1059 4.2812 0.32032 1.467 0.20312 2.9861 0.5141 4.5547 0.93164v5.3496c-1.388-0.62066-2.7422-1.0903-4.0625-1.4062-1.3203-0.31598-2.5686-0.47266-3.7422-0.47266-1.5573 0-2.7083 0.21376-3.4531 0.64258-0.74479 0.42882-1.1172 1.0953-1.1172 1.998 0 0.67708 0.24957 1.2062 0.74609 1.5898 0.50781 0.37239 1.4219 0.69401 2.7422 0.96484l2.7754 0.5586c2.8099 0.56423 4.8073 1.4232 5.9922 2.5742 1.1849 1.151 1.7773 2.7867 1.7773 4.9082 0 2.7873-0.82943 4.8631-2.4883 6.2285-1.6476 1.3542-4.1697 2.0312-7.5664 2.0312-1.6024 0-3.2105-0.15234-4.8242-0.45703-1.6137-0.30469-3.2281-0.75543-4.8418-1.3535v-5.502c1.6137 0.85764 3.171 1.5072 4.6719 1.9473 1.5122 0.42882 2.9679 0.64258 4.3672 0.64258 1.4219 0 2.5115-0.23698 3.2676-0.71094s1.1348-1.151 1.1348-2.0312c0-0.78993-0.2602-1.3993-0.7793-1.8281-0.50781-0.42882-1.5297-0.81185-3.0645-1.1504l-2.5215-0.5586c-2.5278-0.54167-4.3791-1.405-5.5527-2.5898-1.1623-1.1849-1.7422-2.7823-1.7422-4.791 0-2.5165 0.8125-4.4505 2.4375-5.8047 1.625-1.3542 3.9609-2.0312 7.0078-2.0312zm-26.678 4.7227c-1.9861 0-3.5265 0.7322-4.6211 2.1992-1.0946 1.467-1.6426 3.5321-1.6426 6.1953 0 2.6519 0.54796 4.7127 1.6426 6.1797 1.0946 1.467 2.635 2.1992 4.6211 2.1992 1.9974 0 3.5441-0.7322 4.6387-2.1992 1.0946-1.467 1.6406-3.5278 1.6406-6.1797 0-2.6632-0.546-4.7283-1.6406-6.1953-1.0946-1.467-2.6413-2.1992-4.6387-2.1992z"/></svg>
