<svg version="1.1" viewBox="0 0 64 64" xmlns="http://www.w3.org/2000/svg"><path d="m24.064 0c-1.261 0-2.2833 1.0223-2.2833 2.2833-0.0013 1.2619 1.0214 2.2856 2.2833 2.2856h5.6548v5.1642c-13.921 1.1642-24.903 12.864-24.903 27.081-2.5e-6 14.985 12.2 27.186 27.186 27.186 14.985 0 27.181-12.199 27.181-27.186-6e-6 -14.216-10.977-25.915-24.898-27.081v-5.1642h5.6503c1.2619 7e-7 2.2846-1.0236 2.2833-2.2856 0-1.261-1.0223-2.2833-2.2833-2.2833zm-0.18284 19.48c0.8102 0.01364 1.586 0.45944 1.9868 1.2286l7.4721 14.318h9.8825c1.261 0 2.2833 1.0223 2.2833 2.2833 0 1.261-1.0223 2.2833-2.2833 2.2833h-11.269c-0.85078-5.89e-4 -1.6294-0.47406-2.0224-1.2286l-8.112-15.544c-0.58371-1.1184-0.14885-2.4964 0.96997-3.0794v-0.0022c0.34951-0.18241 0.72434-0.26486 1.0926-0.25866z"/></svg>
