<svg version="1.1" viewBox="0 0 64 64" xmlns="http://www.w3.org/2000/svg"><path d="m12 0c-2.2092 0-4 1.7909-4 4v44h-4c-2.2092 0-4 1.7909-4 4s1.7909 4 4 4h4v4c0 2.2092 1.7909 4 4 4s4-1.7909 4-4v-4h44c2.2092 0 4-1.7909 4-4s-1.7909-4-4-4h-44v-0.71876l15.816-22.14 8.8124 13.785c1.6117 2.5228 5.3216 2.4464 6.8282-0.14062l14-24c1.1142-1.9091 0.46868-4.36-1.4414-5.4726-0.91724-0.53398-2.009-0.68152-3.0352-0.41016-1.0259 0.2696-1.9026 0.9356-2.4376 1.8516l-10.699 18.344-8.4726-13.254c-1.5265-2.385-4.9796-2.4724-6.625-0.16797l-12.746 17.844v-29.52c0-2.2092-1.7909-4-4-4z" stroke-width="2"/></svg>
