<?xml version="1.0" encoding="UTF-8" standalone="no"?>
<svg
   class="icon"
   viewBox="0 0 64 64"
   version="1.1"
   id="svg4"
   sodipodi:docname="summary.svg"
   inkscape:version="1.1.1 (3bf5ae0d25, 2021-09-20)"
   xmlns:inkscape="http://www.inkscape.org/namespaces/inkscape"
   xmlns:sodipodi="http://sodipodi.sourceforge.net/DTD/sodipodi-0.dtd"
   xmlns="http://www.w3.org/2000/svg"
   xmlns:svg="http://www.w3.org/2000/svg">
  <defs
     id="defs8" />
  <sodipodi:namedview
     id="namedview6"
     pagecolor="#ffffff"
     bordercolor="#666666"
     borderopacity="1.0"
     inkscape:pageshadow="2"
     inkscape:pageopacity="0.0"
     inkscape:pagecheckerboard="0"
     showgrid="false"
     inkscape:zoom="17.359375"
     inkscape:cx="31.971197"
     inkscape:cy="31.971197"
     inkscape:window-width="3840"
     inkscape:window-height="2043"
     inkscape:window-x="3840"
     inkscape:window-y="0"
     inkscape:window-maximized="1"
     inkscape:current-layer="svg4" />
  <path
     d="m8.5 2.5c-3.2894 0-6 2.7106-6 6v47c0 3.2894 2.7106 6 6 6h47c3.2894 0 6-2.7106 6-6v-47c0-3.2894-2.7106-6-6-6h-47zm7.4688 7.4707a2.0002 2.0002 0 0 1 2.0312 2.0293v11.17l9.5859-9.5859a2.0002 2.0002 0 0 1 2.8281 0l5.8594 5.8613 12.645-8.1289a2.0002 2.0002 0 0 1 1.0742-0.33203 2.0002 2.0002 0 0 1 1.0898 3.6973l-14 9a2.0002 2.0002 0 0 1-2.4961-0.26758l-5.5859-5.5859-8.1719 8.1719h29.172a2.0002 2.0002 0 1 1 0 4h-34a2.0002 2.0002 0 0 1-2-2v-16a2.0002 2.0002 0 0 1 1.9688-2.0293zm-0.48242 23.529a4 4 0 0 1 4 4 4 4 0 0 1-4 4 4 4 0 0 1-4-4 4 4 0 0 1 4-4zm10 2h25a2.0002 2.0002 0 1 1 0 4h-25a2.0002 2.0002 0 1 1 0-4zm-10 9a4 4 0 0 1 4 4 4 4 0 0 1-4 4 4 4 0 0 1-4-4 4 4 0 0 1 4-4zm10 2h25a2.0002 2.0002 0 1 1 0 4h-25a2.0002 2.0002 0 1 1 0-4z"
     id="path2" />
</svg>
