<svg version="1.1" viewBox="0 0 64 64" xmlns="http://www.w3.org/2000/svg"><path d="m15 0c-2.216 0-4 1.784-4 4v8c0 1.6087 0.94165 2.9869 2.3047 3.623l-3.8398 8.377h-5.4648c-2.216 0-4 1.784-4 4v8c0 2.216 1.784 4 4 4h5.4668l3.8398 8.377c-1.3639 0.63582-2.3066 2.0138-2.3066 3.623v8c0 2.216 1.784 4 4 4h8c2.216 0 4-1.784 4-4v-2h10v2c0 2.216 1.784 4 4 4h8c2.216 0 4-1.784 4-4v-8c0-1.6093-0.94274-2.9872-2.3066-3.623l3.8398-8.377h5.4668c2.216 0 4-1.784 4-4v-8c0-2.216-1.784-4-4-4h-5.4668l-3.8398-8.377c1.3639-0.63582 2.3066-2.0138 2.3066-3.623v-8c0-2.216-1.784-4-4-4h-8c-2.216 0-4 1.784-4 4v2h-10v-2c0-2.216-1.784-4-4-4zm12 10h10v2c0 1.385 0.69609 2.6009 1.7598 3.3184l-4.7031 8.6816h-4.1172l-4.7012-8.6797 2e-3 -2e-3c1.0636-0.71737 1.7597-1.9333 1.7597-3.3183zm-9.4668 6h3.5254l4.7031 8.6816h-2e-3c-1.0636 0.71742-1.7597 1.9334-1.7597 3.3184v2h-8v-2c0-1.6093-0.94274-2.9872-2.3066-3.623zm25.406 0h3.5273l3.8379 8.377c-1.363 0.63616-2.3047 2.0144-2.3047 3.623v2h-8v-2c0-1.3866-0.69798-2.6032-1.7637-3.3203zm-26.939 18h8v2c0 1.385 0.69609 2.6009 1.7598 3.3184l-4.7031 8.6816h-3.5234l-3.8398-8.377c1.3639-0.63582 2.3066-2.0138 2.3066-3.623zm24 0h8v2c0 1.6093 0.94274 2.9872 2.3066 3.623l-3.8398 8.377h-3.5254l-4.7031-8.6816h2e-3c1.0636-0.71742 1.7597-1.9334 1.7597-3.3184zm-10.062 6h4.1211l4.7031 8.6816h-2e-3c-1.0636 0.71742-1.7597 1.9334-1.7597 3.3184v2h-10v-2c0-1.3866-0.69798-2.6032-1.7637-3.3203z"/></svg>
