<?xml version="1.0" encoding="UTF-8" standalone="no"?>
<svg
   id="svg1484"
   version="1.1"
   viewBox="0 0 64 64"
   height="64"
   width="64"
   inkscape:version="1.1.1 (3bf5ae0d25, 2021-09-20)"
   sodipodi:docname="topologies-o.svg"
   xmlns:inkscape="http://www.inkscape.org/namespaces/inkscape"
   xmlns:sodipodi="http://sodipodi.sourceforge.net/DTD/sodipodi-0.dtd"
   xmlns="http://www.w3.org/2000/svg"
   xmlns:svg="http://www.w3.org/2000/svg">
  <defs
     id="defs1478" />
  <sodipodi:namedview
     inkscape:zoom="5.3078126"
     inkscape:cx="62.172504"
     inkscape:cy="18.369149"
     inkscape:window-width="1920"
     inkscape:window-height="1017"
     inkscape:window-x="3232"
     inkscape:window-y="-8"
     inkscape:window-maximized="1"
     inkscape:current-layer="svg1484"
     id="namedview9214"
     pagecolor="#ffffff"
     bordercolor="#666666"
     borderopacity="1.0"
     inkscape:pageshadow="2"
     inkscape:pageopacity="0.0"
     inkscape:pagecheckerboard="0" />
  <path
     id="rect1016-9-2-0"
     d="m 15,0 c -2.216,0 -4,1.784 -4,4 v 8 c 0,1.60866 0.941651,2.98689 2.304688,3.62305 L 9.4648438,24 H 4 c -2.216,0 -4,1.784 -4,4 v 8 c 0,2.216 1.784,4 4,4 h 5.4667969 l 3.8398441,8.37695 C 11.942741,49.01277 11,50.39071 11,52 v 8 c 0,2.216 1.784,4 4,4 h 8 c 2.216,0 4,-1.784 4,-4 v -2 h 10 v 2 c 0,2.216 1.784,4 4,4 h 8 c 2.216,0 4,-1.784 4,-4 v -8 c 0,-1.60929 -0.942741,-2.98723 -2.306641,-3.62305 L 54.533203,40 H 60 c 2.216,0 4,-1.784 4,-4 v -8 c 0,-2.216 -1.784,-4 -4,-4 H 54.533203 L 50.693359,15.62305 C 52.057259,14.98723 53,13.60929 53,12 V 4 C 53,1.784 51.216,0 49,0 H 41 C 38.784,0 37,1.784 37,4 V 6 H 27 V 4 C 27,1.784 25.216,0 23,0 Z m 12,10 h 10 v 2 c 0,1.38501 0.696094,2.60094 1.759766,3.31836 L 34.056641,24 h -4.117188 l -4.701172,-8.67969 c 0,0 0.002,-0.002 0.002,-0.002 C 26.303906,14.60094 27,13.38501 27,12 Z m -9.466797,6 h 3.525391 l 4.703125,8.68164 c 0,0 -0.002,0 -0.002,0 C 24.696094,25.39906 24,26.615 24,28 v 2 h -8 v -2 c 0,-1.60929 -0.942741,-2.98723 -2.306641,-3.62305 z m 25.40625,0 h 3.527344 l 3.837891,8.37695 C 48.941651,25.01311 48,26.39134 48,28 v 2 h -8 v -2 c 0,-1.38656 -0.697976,-2.60321 -1.763672,-3.32031 z M 16,34 h 8 v 2 c 0,1.385 0.696094,2.60094 1.759766,3.31836 L 21.056641,48 H 17.533203 L 13.693359,39.62305 C 15.057259,38.98723 16,37.60929 16,36 Z m 24,0 h 8 v 2 c 0,1.60929 0.942741,2.98723 2.306641,3.62305 L 46.466797,48 h -3.525391 l -4.703125,-8.68164 c 0,0 0.002,0 0.002,0 C 39.303906,38.60094 40,37.385 40,36 Z m -10.0625,6 h 4.121094 l 4.703125,8.68164 c 0,0 -0.002,0 -0.002,0 C 37.696094,49.39906 37,50.615 37,52 v 2 H 27 v -2 c 0,-1.38656 -0.697976,-2.60321 -1.763672,-3.32031 z" />
</svg>
