<?xml version="1.0" encoding="UTF-8" standalone="no"?>
<svg
   xmlns:dc="http://purl.org/dc/elements/1.1/"
   xmlns:cc="http://creativecommons.org/ns#"
   xmlns:rdf="http://www.w3.org/1999/02/22-rdf-syntax-ns#"
   xmlns:svg="http://www.w3.org/2000/svg"
   xmlns="http://www.w3.org/2000/svg"
   xmlns:sodipodi="http://sodipodi.sourceforge.net/DTD/sodipodi-0.dtd"
   xmlns:inkscape="http://www.inkscape.org/namespaces/inkscape"
   sodipodi:docname="floyd-steinberg.svg"
   inkscape:version="1.0 (1.0+r73+1)"
   id="svg1484"
   version="1.1"
   viewBox="0 0 64.000002 63.999999"
   height="64"
   width="64">
  <title
     id="title918">Elpida</title>
  <defs
     id="defs1478" />
  <sodipodi:namedview
     inkscape:snap-others="true"
     inkscape:snap-page="false"
     showguides="true"
     inkscape:snap-nodes="true"
     inkscape:object-paths="true"
     inkscape:window-maximized="1"
     inkscape:window-y="0"
     inkscape:window-x="3840"
     inkscape:window-height="2045"
     inkscape:window-width="3840"
     units="px"
     fit-margin-bottom="0"
     fit-margin-right="0"
     fit-margin-left="0"
     fit-margin-top="0"
     showgrid="false"
     inkscape:document-rotation="0"
     inkscape:current-layer="layer1"
     inkscape:document-units="px"
     inkscape:cy="48.488789"
     inkscape:cx="-10.683465"
     inkscape:zoom="5.6568543"
     inkscape:pageshadow="2"
     inkscape:pageopacity="0.0"
     borderopacity="1.0"
     bordercolor="#666666"
     pagecolor="#ffffff"
     id="base">
    <inkscape:grid
       id="grid3598"
       type="xygrid" />
  </sodipodi:namedview>
  <metadata
     id="metadata1481">
    <rdf:RDF>
      <cc:Work
         rdf:about="">
        <dc:format>image/svg+xml</dc:format>
        <dc:type
           rdf:resource="http://purl.org/dc/dcmitype/StillImage" />
        <dc:title>Elpida</dc:title>
        <dc:creator>
          <cc:Agent>
            <dc:title>Ioannis Panagiotopoulos</dc:title>
          </cc:Agent>
        </dc:creator>
        <cc:license
           rdf:resource="http://creativecommons.org/licenses/by-nc/4.0/" />
        <dc:rights>
          <cc:Agent>
            <dc:title>Ioannis Panagiotopoulos</dc:title>
          </cc:Agent>
        </dc:rights>
      </cc:Work>
      <cc:License
         rdf:about="http://creativecommons.org/licenses/by-nc/4.0/">
        <cc:permits
           rdf:resource="http://creativecommons.org/ns#Reproduction" />
        <cc:permits
           rdf:resource="http://creativecommons.org/ns#Distribution" />
        <cc:requires
           rdf:resource="http://creativecommons.org/ns#Notice" />
        <cc:requires
           rdf:resource="http://creativecommons.org/ns#Attribution" />
        <cc:prohibits
           rdf:resource="http://creativecommons.org/ns#CommercialUse" />
        <cc:permits
           rdf:resource="http://creativecommons.org/ns#DerivativeWorks" />
      </cc:License>
    </rdf:RDF>
  </metadata>
  <g
     transform="translate(-54.271023,-92.285728)"
     id="layer1"
     inkscape:groupmode="layer"
     inkscape:label="Layer 1">
    <rect
       y="92.786301"
       x="54.771023"
       height="62.61702"
       width="62.61702"
       id="rect921-7-8-7-1-6-3"
       style="fill:#ffffff;fill-opacity:1;stroke:none;stroke-width:1.9879;stroke-linecap:round;stroke-linejoin:round;stroke-miterlimit:4;stroke-dasharray:none;stroke-opacity:1" />
    <rect
       y="92.786301"
       x="54.771023"
       height="62.61702"
       width="62.61702"
       id="rect934-3-7-3-96-9-2"
       style="fill:#c7cdf9;fill-opacity:1;stroke:none;stroke-width:1.11817;stroke-linecap:round;stroke-linejoin:round;stroke-miterlimit:4;stroke-dasharray:none;stroke-opacity:1" />
    <path
       sodipodi:nodetypes="ccccscc"
       id="path931-5-9-6-9-8-1"
       d="m 74.837319,107.6276 h 18.549485 c 1.707022,-0.11749 2.919186,-6.11573 -5.594269,-4.61351 0.451612,-3.90801 -3.910564,-4.41575 -6.441811,-2.84392 -2.221372,-3.856955 -8.126181,-3.698927 -9.637286,-0.19972 -1.591227,3.68501 1.349359,7.6571 3.123881,7.6571 z"
       style="fill:#ffffff;fill-opacity:1;stroke:none;stroke-width:1.15126px;stroke-linecap:butt;stroke-linejoin:miter;stroke-opacity:1" />
    <path
       style="fill:#898ee2;fill-opacity:1;stroke:none;stroke-width:1.9879;stroke-linecap:butt;stroke-linejoin:miter;stroke-miterlimit:4;stroke-dasharray:none;stroke-opacity:1"
       d="m 54.771035,131.85803 h 62.617035 v 23.54528 H 54.771035 Z"
       id="path930-6-2-1-3-7-5" />
    <path
       sodipodi:nodetypes="cccccccccccccccccc"
       id="path2413"
       d="m 54.771035,133.92394 8.671324,0.20427 10.756277,0.5267 16.56998,1.58923 14.740544,2.33705 2.0501,0.83208 0.25784,0.68674 -2.23924,0.90354 -10.628932,1.04268 -20.06868,1.31438 -12.411942,1.93805 -1.429144,1.15103 1.272676,1.06095 8.841677,2.08043 14.447492,2.07418 15.244033,2.62048 -46.074005,1.11757 z"
       style="fill:#c7cdf9;fill-opacity:1;stroke:none;stroke-width:0.993952px;stroke-linecap:butt;stroke-linejoin:miter;stroke-opacity:1" />
    <path
       id="path2465"
       d="M 117.38807,131.85803 H 54.771035"
       style="fill:none;stroke:#898ee2;stroke-width:2;stroke-linecap:butt;stroke-linejoin:miter;stroke-miterlimit:4;stroke-dasharray:none;stroke-opacity:1" />
    <path
       sodipodi:nodetypes="cssc"
       id="path923-2-0-2-3"
       d="m 54.771035,133.99283 c 28.369926,0 53.518575,4.47681 53.463235,6.03561 -0.0896,2.52571 -46.813331,2.96605 -47.251962,6.25989 -0.406625,3.05361 25.420168,4.89704 41.503242,7.9974"
       style="fill:none;fill-opacity:1;stroke:#c7cdf9;stroke-width:2;stroke-linecap:butt;stroke-linejoin:miter;stroke-miterlimit:4;stroke-dasharray:none;stroke-opacity:1" />
    <path
       style="fill:#ffffff;fill-opacity:1;stroke:none;stroke-width:0.849909px;stroke-linecap:butt;stroke-linejoin:miter;stroke-opacity:1"
       d="m 117.38804,120.15566 h -13.44279 c -1.2602,-0.0867 -2.15506,-4.51488 4.1299,-3.40583 -0.33336,-2.88507 2.887,-3.2599 4.75562,-2.09954 0.96984,-1.6839 2.91865,-2.33118 4.55727,-2.04466 z"
       id="path931-3-2-7-1-66-9-4"
       sodipodi:nodetypes="cccccc" />
    <path
       style="fill:#6a7098;fill-opacity:1;stroke:#6a7098;stroke-width:2;stroke-linecap:round;stroke-linejoin:miter;stroke-miterlimit:4;stroke-dasharray:none;stroke-opacity:1"
       d="m 66.452512,140.47686 v -5.45217"
       id="path926-6-3-2-7-46-0-0" />
    <path
       style="fill:#6a7098;fill-opacity:1;stroke:#6a7098;stroke-width:2;stroke-linecap:butt;stroke-linejoin:miter;stroke-miterlimit:4;stroke-dasharray:none;stroke-opacity:1"
       d="m 66.452512,136.53663 c -7.16176,0 -2.142145,-32.25539 0.004,-32.25539 2.147214,0 7.156691,32.25539 -0.004,32.25539 z"
       id="path928-7-6-2-8-2-2-7"
       sodipodi:nodetypes="zzz" />
    <rect
       style="fill:none;fill-opacity:1;stroke:none;stroke-width:1.9879;stroke-linecap:round;stroke-linejoin:round;stroke-miterlimit:4;stroke-dasharray:none;stroke-opacity:1"
       id="rect932-7-8-4-6-7-5"
       width="62.61702"
       height="62.61702"
       x="54.771023"
       y="92.786301" />
    <rect
       y="94.285728"
       x="94.269577"
       height="60.000008"
       width="22.00145"
       id="rect2964"
       style="fill:#c7cdf9;fill-opacity:1;stroke:none;stroke-width:0.5;stroke-linecap:round;stroke-miterlimit:4;stroke-dasharray:none;stroke-opacity:1" />
    <rect
       style="fill:none;stroke:#6a7098;stroke-width:4;stroke-linecap:round;stroke-miterlimit:4;stroke-dasharray:none;stroke-opacity:1"
       id="rect4342"
       width="60"
       height="60"
       x="56.271023"
       y="94.285728" />
    <rect
       y="107.28573"
       x="104.27103"
       height="2"
       width="2"
       id="rect3578"
       style="fill:#6a7098;fill-opacity:1;stroke:none;stroke-width:3;stroke-linecap:round;stroke-linejoin:miter;stroke-miterlimit:4;stroke-dasharray:none;stroke-opacity:1" />
    <rect
       y="99.285728"
       x="104.27103"
       height="2"
       width="2"
       id="rect3578-4-2"
       style="fill:#6a7098;fill-opacity:1;stroke:none;stroke-width:3;stroke-linecap:round;stroke-linejoin:miter;stroke-miterlimit:4;stroke-dasharray:none;stroke-opacity:1" />
    <rect
       style="fill:#6a7098;fill-opacity:1;stroke:none;stroke-width:3;stroke-linecap:round;stroke-linejoin:miter;stroke-miterlimit:4;stroke-dasharray:none;stroke-opacity:1"
       id="rect3578-4-2-8"
       width="2"
       height="2"
       x="106.27103"
       y="101.28573" />
    <rect
       style="fill:#6a7098;fill-opacity:1;stroke:none;stroke-width:3;stroke-linecap:round;stroke-linejoin:miter;stroke-miterlimit:4;stroke-dasharray:none;stroke-opacity:1"
       id="rect3578-4-2-6"
       width="2"
       height="2"
       x="106.27103"
       y="97.285728" />
    <rect
       style="fill:#6a7098;fill-opacity:1;stroke:none;stroke-width:3;stroke-linecap:round;stroke-linejoin:miter;stroke-miterlimit:4;stroke-dasharray:none;stroke-opacity:1"
       id="rect3578-4-2-2"
       width="2"
       height="2"
       x="110.27103"
       y="97.285728" />
    <rect
       style="fill:#6a7098;fill-opacity:1;stroke:none;stroke-width:3;stroke-linecap:round;stroke-linejoin:miter;stroke-miterlimit:4;stroke-dasharray:none;stroke-opacity:1"
       id="rect3578-4-2-84"
       width="2"
       height="2"
       x="112.27103"
       y="99.285728" />
    <rect
       style="fill:#6a7098;fill-opacity:1;stroke:none;stroke-width:3;stroke-linecap:round;stroke-linejoin:miter;stroke-miterlimit:4;stroke-dasharray:none;stroke-opacity:1"
       id="rect3578-4-2-7"
       width="2"
       height="2"
       x="112.27103"
       y="107.28573" />
    <rect
       style="fill:#6a7098;fill-opacity:1;stroke:none;stroke-width:3;stroke-linecap:round;stroke-linejoin:miter;stroke-miterlimit:4;stroke-dasharray:none;stroke-opacity:1"
       id="rect3578-4-2-24"
       width="2"
       height="2"
       x="110.27103"
       y="109.28573" />
    <rect
       style="fill:#6a7098;fill-opacity:1;stroke:none;stroke-width:3;stroke-linecap:round;stroke-linejoin:miter;stroke-miterlimit:4;stroke-dasharray:none;stroke-opacity:1"
       id="rect3578-4-2-0"
       width="2"
       height="2"
       x="106.27103"
       y="109.28573" />
    <rect
       style="fill:#6a7098;fill-opacity:1;stroke:none;stroke-width:3;stroke-linecap:round;stroke-linejoin:miter;stroke-miterlimit:4;stroke-dasharray:none;stroke-opacity:1"
       id="rect3578-4-2-62"
       width="2"
       height="2"
       x="102.27103"
       y="105.28573" />
    <rect
       style="fill:#6a7098;fill-opacity:1;stroke:none;stroke-width:3;stroke-linecap:round;stroke-linejoin:miter;stroke-miterlimit:4;stroke-dasharray:none;stroke-opacity:1"
       id="rect3578-4-2-9"
       width="2"
       height="2"
       x="102.27103"
       y="101.28573" />
    <rect
       style="fill:#6a7098;fill-opacity:1;stroke:none;stroke-width:3;stroke-linecap:round;stroke-linejoin:miter;stroke-miterlimit:4;stroke-dasharray:none;stroke-opacity:1"
       id="rect3578-4-2-90"
       width="2"
       height="2"
       x="102.27103"
       y="97.285728" />
    <rect
       y="109.28573"
       x="102.27103"
       height="2"
       width="2"
       id="rect3578-4-2-0-8"
       style="fill:#6a7098;fill-opacity:1;stroke:none;stroke-width:3;stroke-linecap:round;stroke-linejoin:miter;stroke-miterlimit:4;stroke-dasharray:none;stroke-opacity:1" />
    <rect
       y="111.28573"
       x="108.27103"
       height="2"
       width="2"
       id="rect3578-4-2-0-3"
       style="fill:#6a7098;fill-opacity:1;stroke:none;stroke-width:3;stroke-linecap:round;stroke-linejoin:miter;stroke-miterlimit:4;stroke-dasharray:none;stroke-opacity:1" />
    <rect
       y="111.28573"
       x="112.27103"
       height="2"
       width="2"
       id="rect3578-4-2-0-11"
       style="fill:#6a7098;fill-opacity:1;stroke:none;stroke-width:3;stroke-linecap:round;stroke-linejoin:miter;stroke-miterlimit:4;stroke-dasharray:none;stroke-opacity:1" />
    <rect
       style="fill:#6a7098;fill-opacity:1;stroke:none;stroke-width:3;stroke-linecap:round;stroke-linejoin:miter;stroke-miterlimit:4;stroke-dasharray:none;stroke-opacity:1"
       id="rect3578-0"
       width="2"
       height="2"
       x="104.27103"
       y="115.28573" />
    <rect
       style="fill:#6a7098;fill-opacity:1;stroke:none;stroke-width:3;stroke-linecap:round;stroke-linejoin:miter;stroke-miterlimit:4;stroke-dasharray:none;stroke-opacity:1"
       id="rect3578-4-2-0-8-1"
       width="2"
       height="2"
       x="102.27103"
       y="117.28573" />
    <rect
       style="fill:#6a7098;fill-opacity:1;stroke:none;stroke-width:3;stroke-linecap:round;stroke-linejoin:miter;stroke-miterlimit:4;stroke-dasharray:none;stroke-opacity:1"
       id="rect3578-4-2-0-3-6"
       width="2"
       height="2"
       x="108.27103"
       y="119.28573" />
    <rect
       style="fill:#6a7098;fill-opacity:1;stroke:none;stroke-width:3;stroke-linecap:round;stroke-linejoin:miter;stroke-miterlimit:4;stroke-dasharray:none;stroke-opacity:1"
       id="rect3578-3"
       width="2"
       height="2"
       x="104.27103"
       y="123.28572" />
    <rect
       y="123.28572"
       x="112.27103"
       height="2"
       width="2"
       id="rect3578-4-2-7-0"
       style="fill:#6a7098;fill-opacity:1;stroke:none;stroke-width:3;stroke-linecap:round;stroke-linejoin:miter;stroke-miterlimit:4;stroke-dasharray:none;stroke-opacity:1" />
    <rect
       y="125.28572"
       x="110.27103"
       height="2"
       width="2"
       id="rect3578-4-2-24-5"
       style="fill:#6a7098;fill-opacity:1;stroke:none;stroke-width:3;stroke-linecap:round;stroke-linejoin:miter;stroke-miterlimit:4;stroke-dasharray:none;stroke-opacity:1" />
    <rect
       y="125.28572"
       x="106.27103"
       height="2"
       width="2"
       id="rect3578-4-2-0-6"
       style="fill:#6a7098;fill-opacity:1;stroke:none;stroke-width:3;stroke-linecap:round;stroke-linejoin:miter;stroke-miterlimit:4;stroke-dasharray:none;stroke-opacity:1" />
    <rect
       style="fill:#6a7098;fill-opacity:1;stroke:none;stroke-width:3;stroke-linecap:round;stroke-linejoin:miter;stroke-miterlimit:4;stroke-dasharray:none;stroke-opacity:1"
       id="rect3578-4-2-0-8-6"
       width="2"
       height="2"
       x="102.27103"
       y="125.28572" />
    <rect
       style="fill:#6a7098;fill-opacity:1;stroke:none;stroke-width:3;stroke-linecap:round;stroke-linejoin:miter;stroke-miterlimit:4;stroke-dasharray:none;stroke-opacity:1"
       id="rect3578-4-2-7-0-6"
       width="2"
       height="2"
       x="106.27103"
       y="121.28572" />
    <rect
       style="fill:#6a7098;fill-opacity:1;stroke:none;stroke-width:3;stroke-linecap:round;stroke-linejoin:miter;stroke-miterlimit:4;stroke-dasharray:none;stroke-opacity:1"
       id="rect3578-4-2-7-0-2"
       width="2"
       height="2"
       x="106.27103"
       y="113.28572" />
    <rect
       style="fill:#6a7098;fill-opacity:1;stroke:none;stroke-width:3;stroke-linecap:round;stroke-linejoin:miter;stroke-miterlimit:4;stroke-dasharray:none;stroke-opacity:1"
       id="rect3578-4-2-7-0-5"
       width="2"
       height="2"
       x="102.27103"
       y="113.28572" />
    <rect
       style="fill:#6a7098;fill-opacity:1;stroke:none;stroke-width:3;stroke-linecap:round;stroke-linejoin:miter;stroke-miterlimit:4;stroke-dasharray:none;stroke-opacity:1"
       id="rect3578-4-2-7-0-8"
       width="2"
       height="2"
       x="102.27103"
       y="129.28572" />
    <rect
       style="fill:#6a7098;fill-opacity:1;stroke:none;stroke-width:3;stroke-linecap:round;stroke-linejoin:miter;stroke-miterlimit:4;stroke-dasharray:none;stroke-opacity:1"
       id="rect3578-4-2-7-0-7"
       width="2"
       height="2"
       x="106.27103"
       y="129.28572" />
    <rect
       style="fill:#6a7098;fill-opacity:1;stroke:none;stroke-width:3;stroke-linecap:round;stroke-linejoin:miter;stroke-miterlimit:4;stroke-dasharray:none;stroke-opacity:1"
       id="rect3578-4-2-7-0-28"
       width="2"
       height="2"
       x="110.27103"
       y="129.28572" />
    <rect
       style="fill:#6a7098;fill-opacity:1;stroke:none;stroke-width:3;stroke-linecap:round;stroke-linejoin:miter;stroke-miterlimit:4;stroke-dasharray:none;stroke-opacity:1"
       id="rect3578-4-2-7-0-29"
       width="12"
       height="6.0000072"
       x="102.27103"
       y="131.28572" />
    <rect
       y="119.28572"
       x="100.27103"
       height="2"
       width="2"
       id="rect3578-4-2-0-8-6-0"
       style="fill:#6a7098;fill-opacity:1;stroke:none;stroke-width:3;stroke-linecap:round;stroke-linejoin:miter;stroke-miterlimit:4;stroke-dasharray:none;stroke-opacity:1" />
    <rect
       y="111.28572"
       x="100.27103"
       height="2"
       width="2"
       id="rect3578-4-2-0-8-6-7"
       style="fill:#6a7098;fill-opacity:1;stroke:none;stroke-width:3;stroke-linecap:round;stroke-linejoin:miter;stroke-miterlimit:4;stroke-dasharray:none;stroke-opacity:1" />
    <rect
       y="103.28572"
       x="100.27103"
       height="2"
       width="2"
       id="rect3578-4-2-0-8-6-3"
       style="fill:#6a7098;fill-opacity:1;stroke:none;stroke-width:3;stroke-linecap:round;stroke-linejoin:miter;stroke-miterlimit:4;stroke-dasharray:none;stroke-opacity:1" />
    <rect
       y="95.285721"
       x="100.27103"
       height="2"
       width="2"
       id="rect3578-4-2-0-8-6-5"
       style="fill:#6a7098;fill-opacity:1;stroke:none;stroke-width:3;stroke-linecap:round;stroke-linejoin:miter;stroke-miterlimit:4;stroke-dasharray:none;stroke-opacity:1" />
    <rect
       y="95.285721"
       x="108.27103"
       height="2"
       width="2"
       id="rect3578-4-2-0-8-6-1"
       style="fill:#6a7098;fill-opacity:1;stroke:none;stroke-width:3;stroke-linecap:round;stroke-linejoin:miter;stroke-miterlimit:4;stroke-dasharray:none;stroke-opacity:1" />
    <rect
       y="131.28572"
       x="94.271027"
       height="4.0000072"
       width="7.9999962"
       id="rect3955"
       style="fill:#6a7098;fill-opacity:1;stroke:none;stroke-width:3;stroke-linecap:round;stroke-linejoin:miter;stroke-miterlimit:4;stroke-dasharray:none;stroke-opacity:1" />
    <rect
       y="137.28572"
       x="109.27103"
       height="15"
       width="5"
       id="rect3957"
       style="fill:#6a7098;fill-opacity:1;stroke:none;stroke-width:3;stroke-linecap:round;stroke-linejoin:miter;stroke-miterlimit:4;stroke-dasharray:none;stroke-opacity:1" />
    <rect
       y="143.28572"
       x="94.271027"
       height="8.9999771"
       width="15"
       id="rect3959"
       style="fill:#6a7098;fill-opacity:1;stroke:none;stroke-width:3;stroke-linecap:round;stroke-linejoin:miter;stroke-miterlimit:4;stroke-dasharray:none;stroke-opacity:1" />
    <rect
       style="fill:#6a7098;fill-opacity:1;stroke:none;stroke-width:3;stroke-linecap:round;stroke-linejoin:miter;stroke-miterlimit:4;stroke-dasharray:none;stroke-opacity:1"
       id="rect3578-4-2-0-8-6-9-9"
       width="2"
       height="2"
       x="100.27103"
       y="135.28572" />
    <rect
       style="fill:#6a7098;fill-opacity:1;stroke:none;stroke-width:3;stroke-linecap:round;stroke-linejoin:miter;stroke-miterlimit:4;stroke-dasharray:none;stroke-opacity:1"
       id="rect3578-4-2-0-8-6-9-1"
       width="2"
       height="2"
       x="107.27103"
       y="137.28572" />
    <rect
       y="141.28572"
       x="107.27103"
       height="2"
       width="2"
       id="rect3578-4-2-0-8-6-9-1-0"
       style="fill:#6a7098;fill-opacity:1;stroke:none;stroke-width:3;stroke-linecap:round;stroke-linejoin:miter;stroke-miterlimit:4;stroke-dasharray:none;stroke-opacity:1" />
    <rect
       y="141.28572"
       x="105.27103"
       height="2"
       width="2"
       id="rect3578-4-2-0-8-6-9-1-7"
       style="fill:#6a7098;fill-opacity:1;stroke:none;stroke-width:3;stroke-linecap:round;stroke-linejoin:miter;stroke-miterlimit:4;stroke-dasharray:none;stroke-opacity:1" />
    <rect
       y="129.28572"
       x="98.271027"
       height="2"
       width="2"
       id="rect3578-4-2-0-8-6-9-1-5"
       style="fill:#6a7098;fill-opacity:1;stroke:none;stroke-width:3;stroke-linecap:round;stroke-linejoin:miter;stroke-miterlimit:4;stroke-dasharray:none;stroke-opacity:1" />
    <rect
       y="125.28573"
       x="98.271027"
       height="2"
       width="2"
       id="rect3578-4-2-0-8-6-9-1-8"
       style="fill:#6a7098;fill-opacity:1;stroke:none;stroke-width:3;stroke-linecap:round;stroke-linejoin:miter;stroke-miterlimit:4;stroke-dasharray:none;stroke-opacity:1" />
    <rect
       y="121.28572"
       x="98.271027"
       height="2"
       width="2"
       id="rect3578-4-2-0-8-6-9-1-70"
       style="fill:#6a7098;fill-opacity:1;stroke:none;stroke-width:3;stroke-linecap:round;stroke-linejoin:miter;stroke-miterlimit:4;stroke-dasharray:none;stroke-opacity:1" />
    <rect
       y="117.28573"
       x="98.271027"
       height="2"
       width="2"
       id="rect3578-4-2-0-8-6-9-1-4"
       style="fill:#6a7098;fill-opacity:1;stroke:none;stroke-width:3;stroke-linecap:round;stroke-linejoin:miter;stroke-miterlimit:4;stroke-dasharray:none;stroke-opacity:1" />
    <rect
       y="105.28572"
       x="106.27103"
       height="2"
       width="2"
       id="rect3578-4-2-0-8-6-9-1-80"
       style="fill:#6a7098;fill-opacity:1;stroke:none;stroke-width:3;stroke-linecap:round;stroke-linejoin:miter;stroke-miterlimit:4;stroke-dasharray:none;stroke-opacity:1" />
    <rect
       y="103.28572"
       x="108.27103"
       height="2"
       width="2"
       id="rect3578-4-2-0-8-6-9-1-42"
       style="fill:#6a7098;fill-opacity:1;stroke:none;stroke-width:3;stroke-linecap:round;stroke-linejoin:miter;stroke-miterlimit:4;stroke-dasharray:none;stroke-opacity:1" />
    <rect
       y="101.28572"
       x="110.27103"
       height="2"
       width="2"
       id="rect3578-4-2-0-8-6-9-1-9"
       style="fill:#6a7098;fill-opacity:1;stroke:none;stroke-width:3;stroke-linecap:round;stroke-linejoin:miter;stroke-miterlimit:4;stroke-dasharray:none;stroke-opacity:1" />
    <rect
       y="105.28572"
       x="110.27103"
       height="2"
       width="2"
       id="rect3578-4-2-0-8-6-9-1-6"
       style="fill:#6a7098;fill-opacity:1;stroke:none;stroke-width:3;stroke-linecap:round;stroke-linejoin:miter;stroke-miterlimit:4;stroke-dasharray:none;stroke-opacity:1" />
    <rect
       y="103.28572"
       x="112.27103"
       height="2"
       width="2"
       id="rect3578-4-2-0-8-6-9-1-1"
       style="fill:#6a7098;fill-opacity:1;stroke:none;stroke-width:3;stroke-linecap:round;stroke-linejoin:miter;stroke-miterlimit:4;stroke-dasharray:none;stroke-opacity:1" />
    <rect
       y="113.28572"
       x="98.271027"
       height="2"
       width="2"
       id="rect3578-4-2-0-8-6-9-1-04"
       style="fill:#6a7098;fill-opacity:1;stroke:none;stroke-width:3;stroke-linecap:round;stroke-linejoin:miter;stroke-miterlimit:4;stroke-dasharray:none;stroke-opacity:1" />
    <rect
       y="109.28572"
       x="98.271027"
       height="2"
       width="2"
       id="rect3578-4-2-0-8-6-9-1-2"
       style="fill:#6a7098;fill-opacity:1;stroke:none;stroke-width:3;stroke-linecap:round;stroke-linejoin:miter;stroke-miterlimit:4;stroke-dasharray:none;stroke-opacity:1" />
    <rect
       y="105.28573"
       x="98.271027"
       height="2"
       width="2"
       id="rect3578-4-2-0-8-6-9-1-22"
       style="fill:#6a7098;fill-opacity:1;stroke:none;stroke-width:3;stroke-linecap:round;stroke-linejoin:miter;stroke-miterlimit:4;stroke-dasharray:none;stroke-opacity:1" />
    <rect
       y="101.28572"
       x="98.271027"
       height="2"
       width="2"
       id="rect3578-4-2-0-8-6-9-1-05"
       style="fill:#6a7098;fill-opacity:1;stroke:none;stroke-width:3;stroke-linecap:round;stroke-linejoin:miter;stroke-miterlimit:4;stroke-dasharray:none;stroke-opacity:1" />
    <rect
       y="97.285721"
       x="98.271027"
       height="2"
       width="2"
       id="rect3578-4-2-0-8-6-9-1-52"
       style="fill:#6a7098;fill-opacity:1;stroke:none;stroke-width:3;stroke-linecap:round;stroke-linejoin:miter;stroke-miterlimit:4;stroke-dasharray:none;stroke-opacity:1" />
    <rect
       style="fill:#6a7098;fill-opacity:1;stroke:none;stroke-width:3;stroke-linecap:round;stroke-linejoin:miter;stroke-miterlimit:4;stroke-dasharray:none;stroke-opacity:1"
       id="rect3578-4-2-0-8-6-9-1-22-9"
       width="2"
       height="2"
       x="96.271027"
       y="107.28573" />
    <rect
       style="fill:#6a7098;fill-opacity:1;stroke:none;stroke-width:3;stroke-linecap:round;stroke-linejoin:miter;stroke-miterlimit:4;stroke-dasharray:none;stroke-opacity:1"
       id="rect3578-4-2-0-8-6-9-1-22-2"
       width="2"
       height="2"
       x="96.271027"
       y="103.28573" />
    <rect
       style="fill:#6a7098;fill-opacity:1;stroke:none;stroke-width:3;stroke-linecap:round;stroke-linejoin:miter;stroke-miterlimit:4;stroke-dasharray:none;stroke-opacity:1"
       id="rect3578-4-2-0-8-6-9-1-22-8"
       width="2"
       height="2"
       x="96.271027"
       y="99.285728" />
    <rect
       style="fill:#6a7098;fill-opacity:1;stroke:none;stroke-width:3;stroke-linecap:round;stroke-linejoin:miter;stroke-miterlimit:4;stroke-dasharray:none;stroke-opacity:1"
       id="rect3578-4-2-0-8-6-9-1-22-80"
       width="2"
       height="2"
       x="96.271027"
       y="115.28573" />
    <rect
       style="fill:#6a7098;fill-opacity:1;stroke:none;stroke-width:3;stroke-linecap:round;stroke-linejoin:miter;stroke-miterlimit:4;stroke-dasharray:none;stroke-opacity:1"
       id="rect3578-4-2-0-8-6-9-1-22-09"
       width="2"
       height="2"
       x="96.271027"
       y="123.28573" />
    <rect
       style="fill:#6a7098;fill-opacity:1;stroke:none;stroke-width:3;stroke-linecap:round;stroke-linejoin:miter;stroke-miterlimit:4;stroke-dasharray:none;stroke-opacity:1"
       id="rect3578-4-2-0-8-6-9-1-22-96"
       width="2"
       height="2"
       x="94.271027"
       y="129.28572" />
    <rect
       style="fill:#6a7098;fill-opacity:1;stroke:none;stroke-width:3;stroke-linecap:round;stroke-linejoin:miter;stroke-miterlimit:4;stroke-dasharray:none;stroke-opacity:1"
       id="rect3578-4-2-0-8-6-9-1-22-25"
       width="2"
       height="2"
       x="94.271027"
       y="125.28573" />
    <rect
       style="fill:#6a7098;fill-opacity:1;stroke:none;stroke-width:3;stroke-linecap:round;stroke-linejoin:miter;stroke-miterlimit:4;stroke-dasharray:none;stroke-opacity:1"
       id="rect3578-4-2-0-8-6-9-1-22-44"
       width="2"
       height="2"
       x="94.271027"
       y="121.28573" />
    <rect
       style="fill:#6a7098;fill-opacity:1;stroke:none;stroke-width:3;stroke-linecap:round;stroke-linejoin:miter;stroke-miterlimit:4;stroke-dasharray:none;stroke-opacity:1"
       id="rect3578-4-2-0-8-6-9-1-22-99"
       width="2"
       height="2"
       x="94.271027"
       y="117.28573" />
    <rect
       style="fill:#6a7098;fill-opacity:1;stroke:none;stroke-width:3;stroke-linecap:round;stroke-linejoin:miter;stroke-miterlimit:4;stroke-dasharray:none;stroke-opacity:1"
       id="rect3578-4-2-0-8-6-9-1-22-36"
       width="2"
       height="2"
       x="94.271027"
       y="113.28573" />
    <rect
       style="fill:#6a7098;fill-opacity:1;stroke:none;stroke-width:3;stroke-linecap:round;stroke-linejoin:miter;stroke-miterlimit:4;stroke-dasharray:none;stroke-opacity:1"
       id="rect3578-4-2-0-8-6-9-1-22-05"
       width="2"
       height="2"
       x="94.271027"
       y="109.28573" />
    <rect
       style="fill:#6a7098;fill-opacity:1;stroke:none;stroke-width:3;stroke-linecap:round;stroke-linejoin:miter;stroke-miterlimit:4;stroke-dasharray:none;stroke-opacity:1"
       id="rect3578-4-2-0-8-6-9-1-22-02"
       width="2"
       height="2"
       x="94.271027"
       y="101.28573" />
    <rect
       style="fill:#6a7098;fill-opacity:1;stroke:none;stroke-width:3;stroke-linecap:round;stroke-linejoin:miter;stroke-miterlimit:4;stroke-dasharray:none;stroke-opacity:1"
       id="rect3578-4-2-0-8-6-9-1-22-94"
       width="2"
       height="2"
       x="94.271027"
       y="97.285728" />
    <path
       d="m 99.938944,115.71476 a 1.7013013,1.7013013 0 0 0 -1.667917,1.70114 v 3.91061 H 87.721994 a 2.976991,2.976991 0 0 0 -2.976974,2.97699 2.976991,2.976991 0 0 0 2.976974,2.97699 h 10.549025 v 3.91228 a 1.7013013,1.7013013 0 0 0 2.789271,1.30741 l 8.23821,-6.8577 0.0114,-0.008 a 1.7011311,1.7011311 0 0 0 0.0266,-0.0233 1.7011311,1.7011311 0 0 0 0.0497,-0.0432 1.7011311,1.7011311 0 0 0 7.1e-4,-0.002 1.7011311,1.7011311 0 0 0 0.0714,-0.0681 1.7011311,1.7011311 0 0 0 0.025,-0.0249 1.7011311,1.7011311 0 0 0 0.0152,-0.0163 1.7011311,1.7011311 0 0 0 0.0482,-0.0548 1.7011311,1.7011311 0 0 0 0.004,-0.003 1.7011311,1.7011311 0 0 0 0.004,-0.006 1.7011311,1.7011311 0 0 0 0.0582,-0.073 1.7011311,1.7011311 0 0 0 0.004,-0.006 1.7011311,1.7011311 0 0 0 0.0531,-0.0764 1.7011311,1.7011311 0 0 0 0.004,-0.008 1.7011311,1.7011311 0 0 0 0.0499,-0.0797 1.7011311,1.7011311 0 0 0 0.004,-0.008 1.7011311,1.7011311 0 0 0 0.008,-0.0134 1.7011311,1.7011311 0 0 0 0.0399,-0.0748 1.7011311,1.7011311 0 0 0 0.04,-0.0864 1.7011311,1.7011311 0 0 0 0.004,-0.008 1.7011311,1.7011311 0 0 0 0.0333,-0.0881 1.7011311,1.7011311 0 0 0 0.004,-0.007 1.7011311,1.7011311 0 0 0 0.0299,-0.0897 1.7011311,1.7011311 0 0 0 0.004,-0.007 1.7011311,1.7011311 0 0 0 0.0232,-0.0914 1.7011311,1.7011311 0 0 0 0.004,-0.007 1.7011311,1.7011311 0 0 0 0.0165,-0.0914 1.7011311,1.7011311 0 0 0 0.004,-0.008 1.7011311,1.7011311 0 0 0 0.0133,-0.0931 1.7011311,1.7011311 0 0 0 0,-0.006 1.7011311,1.7011311 0 0 0 0.008,-0.0929 1.7011311,1.7011311 0 0 0 5.5e-4,-0.008 1.7011311,1.7011311 0 0 0 0.004,-0.0929 1.7011311,1.7011311 0 0 0 5.5e-4,-0.008 1.7011311,1.7011311 0 0 0 -0.005,-0.093 1.7011311,1.7011311 0 0 0 0,-0.006 1.7011311,1.7011311 0 0 0 -0.0103,-0.0948 1.7011311,1.7011311 0 0 0 -5.4e-4,-0.007 1.7011311,1.7011311 0 0 0 -0.0151,-0.093 1.7011311,1.7011311 0 0 0 -5.5e-4,-0.007 1.7011311,1.7011311 0 0 0 -0.0216,-0.0913 1.7011311,1.7011311 0 0 0 -5.5e-4,-0.007 1.7011311,1.7011311 0 0 0 -0.0266,-0.0914 1.7011311,1.7011311 0 0 0 -5.5e-4,-0.007 1.7011311,1.7011311 0 0 0 -0.0315,-0.088 1.7011311,1.7011311 0 0 0 -0.004,-0.007 1.7011311,1.7011311 0 0 0 -0.0365,-0.0863 1.7011311,1.7011311 0 0 0 -0.004,-0.007 1.7011311,1.7011311 0 0 0 -0.0413,-0.0832 1.7011311,1.7011311 0 0 0 -0.004,-0.007 1.7011311,1.7011311 0 0 0 -0.0464,-0.0814 1.7011311,1.7011311 0 0 0 -0.004,-0.007 1.7011311,1.7011311 0 0 0 -0.0531,-0.078 1.7011311,1.7011311 0 0 0 -0.037,-0.0495 1.7011311,1.7011311 0 0 0 -0.0229,-0.0316 1.7011311,1.7011311 0 0 0 -0.005,-0.005 1.7011311,1.7011311 0 0 0 -0.021,-0.0287 1.7011311,1.7011311 0 0 0 -0.0283,-0.0315 1.7011311,1.7011311 0 0 0 -0.0151,-0.0184 1.7011311,1.7011311 0 0 0 -0.0236,-0.0247 1.7011311,1.7011311 0 0 0 -0.0468,-0.0478 1.7011311,1.7011311 0 0 0 -0.0247,-0.0236 1.7011311,1.7011311 0 0 0 -0.049,-0.0457 1.7011311,1.7011311 0 0 0 -0.0266,-0.0233 1.7011311,1.7011311 0 0 0 -0.005,-0.005 l -8.27641,-6.88761 a 1.7013013,1.7013013 0 0 0 -1.121367,-0.39372 z"
       style="color:#000000;font-style:normal;font-variant:normal;font-weight:normal;font-stretch:normal;font-size:medium;line-height:normal;font-family:sans-serif;font-variant-ligatures:normal;font-variant-position:normal;font-variant-caps:normal;font-variant-numeric:normal;font-variant-alternates:normal;font-variant-east-asian:normal;font-feature-settings:normal;font-variation-settings:normal;text-indent:0;text-align:start;text-decoration:none;text-decoration-line:none;text-decoration-style:solid;text-decoration-color:#000000;letter-spacing:normal;word-spacing:normal;text-transform:none;writing-mode:lr-tb;direction:ltr;text-orientation:mixed;dominant-baseline:auto;baseline-shift:baseline;text-anchor:start;white-space:normal;shape-padding:0;shape-margin:0;inline-size:0;clip-rule:nonzero;display:inline;overflow:visible;visibility:visible;isolation:auto;mix-blend-mode:normal;color-interpolation:sRGB;color-interpolation-filters:linearRGB;solid-color:#000000;solid-opacity:1;vector-effect:none;fill:#6a7098;fill-opacity:1;fill-rule:nonzero;stroke:#c7cdf9;stroke-width:2.31837;stroke-linecap:round;stroke-linejoin:miter;stroke-miterlimit:4;stroke-dasharray:none;stroke-dashoffset:0;stroke-opacity:1;color-rendering:auto;image-rendering:auto;shape-rendering:auto;text-rendering:auto;enable-background:accumulate;stop-color:#000000"
       id="path3045-9-0-5" />
    <rect
       y="127.28573"
       x="108.27103"
       height="2"
       width="2"
       id="rect3578-4-2-0-1-4-4"
       style="fill:#6a7098;fill-opacity:1;stroke:none;stroke-width:3;stroke-linecap:round;stroke-linejoin:miter;stroke-miterlimit:4;stroke-dasharray:none;stroke-opacity:1" />
    <rect
       y="127.28571"
       x="100.27103"
       height="2"
       width="2"
       id="rect3578-4-2-0-1-4"
       style="fill:#6a7098;fill-opacity:1;stroke:none;stroke-width:3;stroke-linecap:round;stroke-linejoin:miter;stroke-miterlimit:4;stroke-dasharray:none;stroke-opacity:1" />
    <rect
       y="121.28573"
       x="102.27103"
       height="2"
       width="2"
       id="rect3578-4-2-0-1-4-1"
       style="fill:#6a7098;fill-opacity:1;stroke:none;stroke-width:3;stroke-linecap:round;stroke-linejoin:miter;stroke-miterlimit:4;stroke-dasharray:none;stroke-opacity:1" />
    <rect
       y="121.28572"
       x="110.27103"
       height="2"
       width="2"
       id="rect3578-4-2-0-1-4-46"
       style="fill:#6a7098;fill-opacity:1;stroke:none;stroke-width:3;stroke-linecap:round;stroke-linejoin:miter;stroke-miterlimit:4;stroke-dasharray:none;stroke-opacity:1" />
  </g>
</svg>
