<?xml version="1.0" encoding="UTF-8" standalone="no"?>
<svg
   xmlns:dc="http://purl.org/dc/elements/1.1/"
   xmlns:cc="http://creativecommons.org/ns#"
   xmlns:rdf="http://www.w3.org/1999/02/22-rdf-syntax-ns#"
   xmlns:svg="http://www.w3.org/2000/svg"
   xmlns="http://www.w3.org/2000/svg"
   xmlns:xlink="http://www.w3.org/1999/xlink"
   xmlns:sodipodi="http://sodipodi.sourceforge.net/DTD/sodipodi-0.dtd"
   xmlns:inkscape="http://www.inkscape.org/namespaces/inkscape"
   sodipodi:docname="png-decoding.svg"
   inkscape:version="1.0 (1.0+r73+1)"
   id="svg1484"
   version="1.1"
   viewBox="0 0 64.000002 63.999999"
   height="64"
   width="64">
  <title
     id="title852">Elpida</title>
  <defs
     id="defs1478">
    <linearGradient
       id="linearGradient2970"
       inkscape:collect="always">
      <stop
         id="stop2966"
         offset="0"
         style="stop-color:#fefefe;stop-opacity:1" />
      <stop
         id="stop2968"
         offset="1"
         style="stop-color:#ffffff;stop-opacity:0" />
    </linearGradient>
    <linearGradient
       gradientUnits="userSpaceOnUse"
       y2="126.05573"
       x2="89.49456"
       y1="143.96973"
       x1="95.656319"
       id="linearGradient2972"
       xlink:href="#linearGradient2970"
       inkscape:collect="always" />
  </defs>
  <sodipodi:namedview
     showguides="true"
     inkscape:snap-nodes="false"
     inkscape:object-paths="true"
     inkscape:window-maximized="1"
     inkscape:window-y="0"
     inkscape:window-x="3840"
     inkscape:window-height="2045"
     inkscape:window-width="3840"
     units="px"
     fit-margin-bottom="0"
     fit-margin-right="0"
     fit-margin-left="0"
     fit-margin-top="0"
     showgrid="false"
     inkscape:document-rotation="0"
     inkscape:current-layer="layer1"
     inkscape:document-units="px"
     inkscape:cy="116.07925"
     inkscape:cx="-103.66723"
     inkscape:zoom="1.75"
     inkscape:pageshadow="2"
     inkscape:pageopacity="0.0"
     borderopacity="1.0"
     bordercolor="#666666"
     pagecolor="#ffffff"
     id="base" />
  <metadata
     id="metadata1481">
    <rdf:RDF>
      <cc:Work
         rdf:about="">
        <dc:format>image/svg+xml</dc:format>
        <dc:type
           rdf:resource="http://purl.org/dc/dcmitype/StillImage" />
        <dc:title>Elpida</dc:title>
        <dc:creator>
          <cc:Agent>
            <dc:title>Ioannis Panagiotopoulos</dc:title>
          </cc:Agent>
        </dc:creator>
        <cc:license
           rdf:resource="http://creativecommons.org/licenses/by-nc/4.0/" />
        <dc:rights>
          <cc:Agent>
            <dc:title>Ioannis Panagiotopoulos</dc:title>
          </cc:Agent>
        </dc:rights>
      </cc:Work>
      <cc:License
         rdf:about="http://creativecommons.org/licenses/by-nc/4.0/">
        <cc:permits
           rdf:resource="http://creativecommons.org/ns#Reproduction" />
        <cc:permits
           rdf:resource="http://creativecommons.org/ns#Distribution" />
        <cc:requires
           rdf:resource="http://creativecommons.org/ns#Notice" />
        <cc:requires
           rdf:resource="http://creativecommons.org/ns#Attribution" />
        <cc:prohibits
           rdf:resource="http://creativecommons.org/ns#CommercialUse" />
        <cc:permits
           rdf:resource="http://creativecommons.org/ns#DerivativeWorks" />
      </cc:License>
    </rdf:RDF>
  </metadata>
  <g
     transform="translate(-54.271023,-92.285728)"
     id="layer1"
     inkscape:groupmode="layer"
     inkscape:label="Layer 1">
    <rect
       y="92.786301"
       x="54.771023"
       height="62.61702"
       width="62.61702"
       id="rect921-7-8-7-1-6-3"
       style="fill:#ffffff;fill-opacity:1;stroke:none;stroke-width:1.9879;stroke-linecap:round;stroke-linejoin:round;stroke-miterlimit:4;stroke-dasharray:none;stroke-opacity:1" />
    <rect
       y="92.786301"
       x="54.771023"
       height="62.61702"
       width="62.61702"
       id="rect934-3-7-3-96-9-2"
       style="fill:#c7cdf9;fill-opacity:1;stroke:none;stroke-width:1.11817;stroke-linecap:round;stroke-linejoin:round;stroke-miterlimit:4;stroke-dasharray:none;stroke-opacity:1" />
    <path
       sodipodi:nodetypes="ccccscc"
       id="path931-5-9-6-9-8-1"
       d="m 74.837319,107.6276 h 18.549485 c 1.707022,-0.11749 2.919186,-6.11573 -5.594269,-4.61351 0.451612,-3.90801 -3.910564,-4.41575 -6.441811,-2.84392 -2.221372,-3.856955 -8.126181,-3.698927 -9.637286,-0.19972 -1.591227,3.68501 1.349359,7.6571 3.123881,7.6571 z"
       style="fill:#ffffff;fill-opacity:1;stroke:none;stroke-width:1.15126px;stroke-linecap:butt;stroke-linejoin:miter;stroke-opacity:1" />
    <path
       style="fill:#898ee2;fill-opacity:1;stroke:none;stroke-width:1.9879;stroke-linecap:butt;stroke-linejoin:miter;stroke-miterlimit:4;stroke-dasharray:none;stroke-opacity:1"
       d="m 54.771035,131.85803 h 62.617035 v 23.54528 H 54.771035 Z"
       id="path930-6-2-1-3-7-5" />
    <path
       sodipodi:nodetypes="cccccccccccccccccc"
       id="path2413"
       d="m 54.771035,133.92394 8.671324,0.20427 10.756277,0.5267 16.56998,1.58923 14.740544,2.33705 2.0501,0.83208 0.25784,0.68674 -2.23924,0.90354 -10.628932,1.04268 -20.06868,1.31438 -12.411942,1.93805 -1.429144,1.15103 1.272676,1.06095 8.841677,2.08043 14.447492,2.07418 15.244033,2.62048 -46.074005,1.11757 z"
       style="fill:#c7cdf9;fill-opacity:1;stroke:none;stroke-width:0.993952px;stroke-linecap:butt;stroke-linejoin:miter;stroke-opacity:1" />
    <path
       id="path2465"
       d="M 117.38807,131.85803 H 54.771035"
       style="fill:none;stroke:#898ee2;stroke-width:2;stroke-linecap:butt;stroke-linejoin:miter;stroke-miterlimit:4;stroke-dasharray:none;stroke-opacity:1" />
    <path
       sodipodi:nodetypes="cssc"
       id="path923-2-0-2-3"
       d="m 54.771035,133.99283 c 28.369926,0 53.518575,4.47681 53.463235,6.03561 -0.0896,2.52571 -46.813331,2.96605 -47.251962,6.25989 -0.406625,3.05361 25.420168,4.89704 41.503242,7.9974"
       style="fill:none;fill-opacity:1;stroke:#c7cdf9;stroke-width:2;stroke-linecap:butt;stroke-linejoin:miter;stroke-miterlimit:4;stroke-dasharray:none;stroke-opacity:1" />
    <path
       style="fill:#ffffff;fill-opacity:1;stroke:none;stroke-width:0.849909px;stroke-linecap:butt;stroke-linejoin:miter;stroke-opacity:1"
       d="m 117.38804,120.15566 h -13.44279 c -1.2602,-0.0867 -2.15506,-4.51488 4.1299,-3.40583 -0.33336,-2.88507 2.887,-3.2599 4.75562,-2.09954 0.96984,-1.6839 2.91865,-2.33118 4.55727,-2.04466 z"
       id="path931-3-2-7-1-66-9-4"
       sodipodi:nodetypes="cccccc" />
    <path
       style="fill:#6a7098;fill-opacity:1;stroke:#6a7098;stroke-width:2;stroke-linecap:round;stroke-linejoin:miter;stroke-miterlimit:4;stroke-dasharray:none;stroke-opacity:1"
       d="m 66.452512,140.47686 v -5.45217"
       id="path926-6-3-2-7-46-0-0" />
    <path
       style="fill:#6a7098;fill-opacity:1;stroke:#6a7098;stroke-width:2;stroke-linecap:butt;stroke-linejoin:miter;stroke-miterlimit:4;stroke-dasharray:none;stroke-opacity:1"
       d="m 66.452512,136.53663 c -7.16176,0 -2.142145,-32.25539 0.004,-32.25539 2.147214,0 7.156691,32.25539 -0.004,32.25539 z"
       id="path928-7-6-2-8-2-2-7"
       sodipodi:nodetypes="zzz" />
    <rect
       style="fill:none;fill-opacity:1;stroke:none;stroke-width:1.9879;stroke-linecap:round;stroke-linejoin:round;stroke-miterlimit:4;stroke-dasharray:none;stroke-opacity:1"
       id="rect932-7-8-4-6-7-5"
       width="62.61702"
       height="62.61702"
       x="54.771023"
       y="92.786301" />
    <rect
       y="94.285728"
       x="56.271023"
       height="60"
       width="60"
       id="rect2964"
       style="fill:url(#linearGradient2972);fill-opacity:1;stroke:none;stroke-width:0.5;stroke-linecap:round;stroke-miterlimit:4;stroke-dasharray:none;stroke-opacity:1" />
    <rect
       style="fill:none;stroke:#6a7098;stroke-width:4;stroke-linecap:round;stroke-miterlimit:4;stroke-dasharray:none;stroke-opacity:1"
       id="rect4342"
       width="60"
       height="60"
       x="56.271023"
       y="94.285728" />
    <g
       transform="translate(111.83859,101.00583)"
       style="font-style:normal;font-variant:normal;font-weight:bold;font-stretch:normal;font-size:18.6667px;line-height:1.25;font-family:Ubuntu;-inkscape-font-specification:'Ubuntu Bold';text-align:center;letter-spacing:0px;word-spacing:0px;text-anchor:middle;fill:#6a7098;fill-opacity:1;stroke:#c7cdf9;stroke-width:0.5;stroke-linecap:round;stroke-linejoin:round;stroke-miterlimit:4;stroke-dasharray:none;stroke-opacity:1"
       id="text2886-2"
       aria-label="PNG">
      <path
         id="path2910"
         style="font-style:normal;font-variant:normal;font-weight:bold;font-stretch:normal;font-size:18.6667px;font-family:Ubuntu;-inkscape-font-specification:'Ubuntu Bold';fill:#6a7098;fill-opacity:1;stroke:none;stroke-width:0.7;stroke-linecap:round;stroke-linejoin:round;stroke-miterlimit:4;stroke-dasharray:none;stroke-opacity:1"
         d="m -30.996198,36.836484 q 2.893338,0 4.442674,1.026668 1.549336,1.008002 1.549336,3.322673 0,2.333337 -1.568002,3.378673 -1.568003,1.026668 -4.480008,1.026668 h -0.914669 v 4.330675 h -2.912005 V 37.172484 q 0.952002,-0.186667 2.016004,-0.261333 1.064002,-0.07467 1.86667,-0.07467 z m 0.186667,2.482671 q -0.317334,0 -0.634668,0.01867 -0.298667,0.01867 -0.522668,0.03733 v 3.73334 h 0.914669 q 1.512002,0 2.277337,-0.410667 0.765335,-0.410668 0.765335,-1.53067 0,-0.541334 -0.205334,-0.896001 -0.186667,-0.354668 -0.560001,-0.560001 -0.354667,-0.224001 -0.877335,-0.298668 -0.522668,-0.09333 -1.157335,-0.09333 z" />
      <path
         id="path2912"
         style="font-style:normal;font-variant:normal;font-weight:bold;font-stretch:normal;font-size:18.6667px;font-family:Ubuntu;-inkscape-font-specification:'Ubuntu Bold';fill:#6a7098;fill-opacity:1;stroke:none;stroke-width:0.7;stroke-linecap:round;stroke-linejoin:round;stroke-miterlimit:4;stroke-dasharray:none;stroke-opacity:1"
         d="m -14.177518,49.921841 q -1.250669,-2.221338 -2.706671,-4.386675 -1.456003,-2.165337 -3.098673,-4.088007 v 8.474682 h -2.874672 V 36.985817 h 2.370671 q 0.616001,0.616001 1.362669,1.512003 0.746668,0.896002 1.512003,1.92267 0.784002,1.008002 1.549336,2.109337 0.765335,1.082669 1.437336,2.090671 v -7.634681 h 2.893339 v 12.936024 z" />
      <path
         id="path2914"
         style="font-style:normal;font-variant:normal;font-weight:bold;font-stretch:normal;font-size:18.6667px;font-family:Ubuntu;-inkscape-font-specification:'Ubuntu Bold';fill:#6a7098;fill-opacity:1;stroke:none;stroke-width:0.7;stroke-linecap:round;stroke-linejoin:round;stroke-miterlimit:4;stroke-dasharray:none;stroke-opacity:1"
         d="m -2.4361884,39.225821 q -2.0346703,0 -2.9493387,1.138669 -0.8960016,1.120002 -0.8960016,3.080006 0,0.952001 0.2240004,1.736003 0.2240004,0.765334 0.6720012,1.325336 0.4480008,0.560001 1.1200021,0.877334 0.6720012,0.298668 1.5680028,0.298668 0.4853342,0 0.8213348,-0.01867 0.3546673,-0.01867 0.6160011,-0.07467 V 43.089828 H 1.651819 v 6.402679 q -0.5226676,0.205333 -1.68000306,0.429334 -1.15733544,0.242667 -2.85600514,0.242667 -1.4560026,0 -2.6506715,-0.448001 -1.1760021,-0.448001 -2.0160036,-1.306669 -0.8400015,-0.858668 -1.306669,-2.109337 -0.4480008,-1.250669 -0.4480008,-2.856005 0,-1.624003 0.5040009,-2.874672 0.5040009,-1.250669 1.3813358,-2.109337 0.8773349,-0.877335 2.053337,-1.325336 1.1946689,-0.448001 2.5386713,-0.448001 0.9146683,0 1.6426696,0.130667 0.74666803,0.112 1.26933564,0.280001 0.54133431,0.149333 0.87733492,0.317333 0.35466734,0.168001 0.50400094,0.261334 L 0.62515045,40.009823 Q 0.02781604,39.692489 -0.75618538,39.468488 -1.5215201,39.225821 -2.4361884,39.225821 Z" />
    </g>
    <path
       id="path3045-9-0"
       style="color:#000000;font-style:normal;font-variant:normal;font-weight:normal;font-stretch:normal;font-size:medium;line-height:normal;font-family:sans-serif;font-variant-ligatures:normal;font-variant-position:normal;font-variant-caps:normal;font-variant-numeric:normal;font-variant-alternates:normal;font-variant-east-asian:normal;font-feature-settings:normal;font-variation-settings:normal;text-indent:0;text-align:start;text-decoration:none;text-decoration-line:none;text-decoration-style:solid;text-decoration-color:#000000;letter-spacing:normal;word-spacing:normal;text-transform:none;writing-mode:lr-tb;direction:ltr;text-orientation:mixed;dominant-baseline:auto;baseline-shift:baseline;text-anchor:start;white-space:normal;shape-padding:0;shape-margin:0;inline-size:0;clip-rule:nonzero;display:inline;overflow:visible;visibility:visible;isolation:auto;mix-blend-mode:normal;color-interpolation:sRGB;color-interpolation-filters:linearRGB;solid-color:#000000;solid-opacity:1;vector-effect:none;fill:#6a7098;fill-opacity:1;fill-rule:nonzero;stroke:#c7cdf9;stroke-width:3;stroke-linecap:round;stroke-linejoin:miter;stroke-miterlimit:4;stroke-dasharray:none;stroke-dashoffset:0;stroke-opacity:1;color-rendering:auto;image-rendering:auto;shape-rendering:auto;text-rendering:auto;enable-background:accumulate;stop-color:#000000"
       d="m 82.527822,114.1061 a 2.2015098,2.2015098 0 0 0 2.201309,2.1583 h 5.060392 l -2e-6,13.65061 a 3.8522718,3.8522718 0 0 0 3.85227,3.85226 3.8522718,3.8522718 0 0 0 3.852259,-3.85226 l 3e-6,-13.65061 h 5.062557 a 2.2015098,2.2015098 0 0 0 1.69181,-3.60935 l -8.873974,-10.66038 -0.01038,-0.0148 a 2.2012896,2.2012896 0 0 0 -0.03014,-0.0344 2.2012896,2.2012896 0 0 0 -0.05576,-0.0644 2.2012896,2.2012896 0 0 0 -0.0024,-10e-4 2.2012896,2.2012896 0 0 0 -0.08826,-0.0922 2.2012896,2.2012896 0 0 0 -0.0322,-0.0323 2.2012896,2.2012896 0 0 0 -0.02151,-0.0194 2.2012896,2.2012896 0 0 0 -0.07078,-0.0624 2.2012896,2.2012896 0 0 0 -0.0035,-0.005 2.2012896,2.2012896 0 0 0 -0.0083,-0.005 2.2012896,2.2012896 0 0 0 -0.09454,-0.0753 2.2012896,2.2012896 0 0 0 -0.0083,-0.005 2.2012896,2.2012896 0 0 0 -0.09887,-0.0687 2.2012896,2.2012896 0 0 0 -0.0096,-0.005 2.2012896,2.2012896 0 0 0 -0.103169,-0.0646 2.2012896,2.2012896 0 0 0 -0.0095,-0.005 2.2012896,2.2012896 0 0 0 -0.01723,-0.0104 2.2012896,2.2012896 0 0 0 -0.09677,-0.0516 2.2012896,2.2012896 0 0 0 -0.111817,-0.0517 2.2012896,2.2012896 0 0 0 -0.0095,-0.005 2.2012896,2.2012896 0 0 0 -0.114019,-0.0431 2.2012896,2.2012896 0 0 0 -0.009,-0.005 2.2012896,2.2012896 0 0 0 -0.11609,-0.0387 2.2012896,2.2012896 0 0 0 -0.009,-0.005 2.2012896,2.2012896 0 0 0 -0.118301,-0.03 2.2012896,2.2012896 0 0 0 -0.009,-0.005 2.2012896,2.2012896 0 0 0 -0.118234,-0.0214 2.2012896,2.2012896 0 0 0 -0.01084,-0.005 2.2012896,2.2012896 0 0 0 -0.12038,-0.0172 2.2012896,2.2012896 0 0 0 -0.0092,-1.2e-4 2.2012896,2.2012896 0 0 0 -0.120341,-0.0104 2.2012896,2.2012896 0 0 0 -0.01095,-5.9e-4 2.2012896,2.2012896 0 0 0 -0.120212,-0.005 2.2012896,2.2012896 0 0 0 -0.01095,-5.8e-4 2.2012896,2.2012896 0 0 0 -0.120341,0.006 2.2012896,2.2012896 0 0 0 -0.0093,0 2.2012896,2.2012896 0 0 0 -0.122616,0.0133 2.2012896,2.2012896 0 0 0 -0.0093,0.001 2.2012896,2.2012896 0 0 0 -0.120262,0.0195 2.2012896,2.2012896 0 0 0 -0.0093,10e-4 2.2012896,2.2012896 0 0 0 -0.11817,0.028 2.2012896,2.2012896 0 0 0 -0.0093,10e-4 2.2012896,2.2012896 0 0 0 -0.118223,0.0344 2.2012896,2.2012896 0 0 0 -0.0093,0.001 2.2012896,2.2012896 0 0 0 -0.113973,0.0408 2.2012896,2.2012896 0 0 0 -0.0089,0.005 2.2012896,2.2012896 0 0 0 -0.111748,0.0472 2.2012896,2.2012896 0 0 0 -0.0089,0.005 2.2012896,2.2012896 0 0 0 -0.107608,0.0535 2.2012896,2.2012896 0 0 0 -0.0089,0.005 2.2012896,2.2012896 0 0 0 -0.105337,0.0601 2.2012896,2.2012896 0 0 0 -0.0089,0.005 2.2012896,2.2012896 0 0 0 -0.100978,0.0687 2.2012896,2.2012896 0 0 0 -0.06402,0.0479 2.2012896,2.2012896 0 0 0 -0.04118,0.0294 2.2012896,2.2012896 0 0 0 -0.0065,0.006 2.2012896,2.2012896 0 0 0 -0.03688,0.0274 2.2012896,2.2012896 0 0 0 -0.041,0.0363 2.2012896,2.2012896 0 0 0 -0.02387,0.0193 2.2012896,2.2012896 0 0 0 -0.0321,0.0303 2.2012896,2.2012896 0 0 0 -0.06218,0.0603 2.2012896,2.2012896 0 0 0 -0.03026,0.032 2.2012896,2.2012896 0 0 0 -0.05892,0.0635 2.2012896,2.2012896 0 0 0 -0.0299,0.0346 2.2012896,2.2012896 0 0 0 -0.0065,0.006 l -8.912663,10.70981 a 2.2015098,2.2015098 0 0 0 -0.509487,1.45106 z" />
  </g>
</svg>
