<?xml version="1.0" encoding="UTF-8" standalone="no"?>
<svg
   xmlns:dc="http://purl.org/dc/elements/1.1/"
   xmlns:cc="http://creativecommons.org/ns#"
   xmlns:rdf="http://www.w3.org/1999/02/22-rdf-syntax-ns#"
   xmlns:svg="http://www.w3.org/2000/svg"
   xmlns="http://www.w3.org/2000/svg"
   xmlns:sodipodi="http://sodipodi.sourceforge.net/DTD/sodipodi-0.dtd"
   xmlns:inkscape="http://www.inkscape.org/namespaces/inkscape"
   version="1.0"
   width="64"
   height="64"
   viewBox="0 0 64 64"
   preserveAspectRatio="xMidYMid meet"
   id="svg2"
   sodipodi:version="0.32"
   inkscape:version="1.0 (1.0+r73+1)"
   sodipodi:docname="GNU.svg"
   inkscape:output_extension="org.inkscape.output.svg.inkscape">
  <defs
     id="defs33" />
  <sodipodi:namedview
     inkscape:window-height="2045"
     inkscape:window-width="3840"
     inkscape:pageshadow="2"
     inkscape:pageopacity="0.0"
     borderopacity="1.0"
     bordercolor="#666666"
     pagecolor="#ffffff"
     id="base"
     inkscape:zoom="11.313709"
     inkscape:cx="60.464904"
     inkscape:cy="54.363026"
     inkscape:window-x="3840"
     inkscape:window-y="0"
     inkscape:current-layer="layer2"
     width="584px"
     height="688.75px"
     inkscape:document-rotation="0"
     showgrid="false"
     inkscape:window-maximized="1" />
  <metadata
     id="metadata4">
Created by potrace 1.7, written by Peter Selinger 2001-2005
<rdf:RDF>
  <cc:Work
     rdf:about="">
    <dc:format>image/svg+xml</dc:format>
    <dc:type
       rdf:resource="http://purl.org/dc/dcmitype/StillImage" />
    <dc:title />
  </cc:Work>
</rdf:RDF>
</metadata>
  <g
     inkscape:groupmode="layer"
     id="layer1"
     inkscape:label="Colors"
     style="display:inline" />
  <g
     inkscape:groupmode="layer"
     id="layer2"
     inkscape:label="Drawing"
     style="display:inline">
    <g
       id="g904">
      <path
         sodipodi:nodetypes="ccccssssssssssssssc"
         id="path1335"
         d="m 43.515144,6.133153 c -0.77596,1.1865544 -1.55192,2.3731076 -2.32788,3.5596609 3.678698,4.2699601 7.357395,8.5399211 11.036093,12.8098811 0.517906,-2.119197 0.896918,0.192505 1.320307,1.088493 1.133764,2.563562 1.31026,5.420227 1.663815,8.163205 0.669152,5.191481 0.448708,8.23009 -0.02752,11.062986 -1.543163,9.179653 -7.017248,14.537528 -12.245512,17.622372 -1.788428,1.055228 -3.509743,1.792969 -6.034488,2.137465 -2.601553,0.354976 -5.150558,0.214436 -7.762227,-0.29444 C 26.981619,61.862662 24.813017,61.154627 22.821613,60.242004 19.646429,58.786862 17.025542,56.268251 14.974075,53.505291 12.989391,50.832274 11.737543,47.642633 10.786784,44.446404 9.0574109,38.632667 8.3262297,32.441503 9.7056732,26.460747 10.565529,22.732733 11.805336,19.040906 13.500902,15.636852 c 1.799342,-3.612397 4.328419,-6.884063 7.389828,-9.5968897 1.838437,-1.629108 3.836859,-3.1302842 6.086758,-4.0364506 1.650397,-0.6647126 3.397453,-0.814484 5.200975,-0.6955477 1.783231,0.1175979 3.485406,0.3173812 5.184268,0.9215392 2.311785,0.8221273 4.490408,2.1080832 6.152413,3.9036498 z"
         style="display:inline;fill:#6a7098;fill-opacity:1;fill-rule:evenodd;stroke:none;stroke-width:0.496709;stroke-linecap:butt;stroke-linejoin:miter;stroke-miterlimit:4;stroke-dasharray:none;stroke-opacity:1" />
      <path
         id="path2211"
         d="m 26.391684,21.615399 -1.280952,-3.251754 1.379451,-0.689724 2.759144,-0.394234 5.123934,-6.306343 2.85752,0.394184 1.872181,-0.985411 1.379573,-0.295602 -2.167796,4.729763 -4.237093,0.492729 z"
         style="display:inline;fill:#c7cdf9;fill-opacity:1;fill-rule:evenodd;stroke:none;stroke-width:0.119537px;stroke-linecap:butt;stroke-linejoin:miter;stroke-opacity:1" />
      <path
         id="path3100"
         d="m 44.818125,8.4113772 2.266412,2.8575328 0.59123,0.98546 -4.335712,-1.478106 0.492731,-1.3795111 z"
         style="display:inline;fill:#6a7098;fill-opacity:1;fill-rule:evenodd;stroke:none;stroke-width:0.119537px;stroke-linecap:butt;stroke-linejoin:miter;stroke-opacity:1" />
      <path
         id="path3976"
         d="m 43.143059,10.579196 2.167795,1.182446 2.266293,0.689725 -3.054635,1.675186 -2.266294,-0.197116 -0.197116,-1.576569 z"
         style="display:inline;fill:#898ee2;fill-opacity:1;fill-rule:evenodd;stroke:#000000;stroke-width:0.119537px;stroke-linecap:butt;stroke-linejoin:miter;stroke-opacity:1" />
      <path
         sodipodi:nodetypes="ccccccccccccccccccccccccccccccccccccccc"
         id="path4852"
         d="m 26.490183,21.812393 1.576687,2.562029 -1.576687,4.039977 3.744482,0.689844 0.788224,0.788223 2.364911,3.645866 7.488846,-3.941479 2.229381,0.615905 2.401945,-0.714404 -1.675186,-1.773683 0.295615,-0.492729 0.788341,-0.49261 0.394112,1.280954 0.689728,1.576567 1.872182,2.266414 0.492728,-0.295615 0.0985,-1.478068 1.740114,-0.306361 0.614131,-0.477204 1.537249,-0.186315 0.394867,-1.936953 -1.133106,-4.680511 v -1.970799 l 1.773682,-0.295614 1.576568,1.182454 2.266293,0.59123 0.886843,-0.197118 -2.660406,-3.35025 -1.635346,-1.674361 -0.926682,-0.591932 -1.773683,-1.182457 -3.645866,0.196997 -2.85752,0.689846 -2.463528,1.182454 -1.477952,-0.197115 -1.872299,-0.886841 -0.591228,-0.886843 -3.842861,-0.0985 z"
         style="display:inline;fill:#898ee2;fill-opacity:1;fill-rule:evenodd;stroke:#efefef;stroke-width:0.119537px;stroke-linecap:butt;stroke-linejoin:miter;stroke-opacity:1" />
      <path
         id="path5728"
         d="m 44.916742,26.640716 0.49261,1.281073 -0.295613,0.788224 -1.47807,-0.886844 0.394232,-0.689726 z"
         style="display:inline;fill:#ffffff;fill-opacity:1;fill-rule:evenodd;stroke:#000000;stroke-width:0.119537px;stroke-linecap:butt;stroke-linejoin:miter;stroke-opacity:1" />
      <path
         sodipodi:nodetypes="cccccccccccccccccccc"
         id="path7479"
         d="m 50.034661,14.485827 -4.822303,1.217293 -3.153256,1.280953 -2.759023,-0.788223 -0.98534,-1.182457 2.561907,-5.8137201 2.400453,-2.97287 1.572623,-0.6227421 1.742087,0.3438832 1.804894,2.6489535 1.891416,1.2667548 -0.217849,0.3831637 -2.788735,-0.9486091 -2.46341,-1.0839096 -2.364911,3.6458427 -0.492609,1.281072 0.394111,1.182455 6.404888,-1.083958 0.683831,0.568304 z"
         style="display:inline;fill:#898ee2;fill-opacity:1;fill-rule:evenodd;stroke:#898ee2;stroke-width:0.119537px;stroke-linecap:butt;stroke-linejoin:miter;stroke-opacity:1" />
      <path
         sodipodi:nodetypes="ccccccccccccsccccccccc"
         id="path8354"
         d="m 51.91286,15.21039 1.128946,1.445069 0.71237,0.02006 2.633116,2.928852 0.654889,0.79424 1.177068,-0.754018 1.379451,-3.054637 0.76542,-2.428572 0.104516,-2.034459 -0.631964,-0.759402 h -2.208649 l -1.675186,0.394114 c 0,0 -1.379453,0.689725 -0.985341,0.689725 0.394113,0 2.266293,0.591227 2.266293,0.591227 l 0.788346,0.591228 0.197114,0.886843 -1.083957,2.167795 -0.49261,0.492729 -2.266413,-1.478069 -0.689726,-0.49273 -0.689845,-0.0985 z"
         style="display:inline;fill:#898ee2;fill-opacity:1;fill-rule:evenodd;stroke:#898ee2;stroke-width:0.119537px;stroke-linecap:butt;stroke-linejoin:miter;stroke-opacity:1" />
      <path
         style="display:inline;fill:#c7cdf9;fill-opacity:1;fill-rule:evenodd;stroke:#000000;stroke-width:0.119537px;stroke-linecap:butt;stroke-linejoin:miter;stroke-opacity:1"
         d="m 43.143059,10.579196 2.167795,1.182446 2.266293,0.689725 -3.054635,1.675186 -2.266294,-0.197116 -0.197116,-1.576569 z"
         id="path854" />
      <path
         sodipodi:nodetypes="ccsccscccscssccsscscccccccssccccccscccccccccsccsccccccccssssscscccsccsscscccccccccccccsccccscccccccccccsccscssccscccccsccccsccccccccccccccccccccsscccccscccccscscccccccccccccccccscccsccccccccccccssccsccccccsccscccscsccccsscccscccsccssccssc"
         id="path10"
         d="m 52.999176,21.288545 c 0.220906,-0.353956 0.762079,-0.309437 1.646008,0.237755 0.719736,0.425298 1.668478,0.512827 2.684773,0.582504 1.664571,0.114121 1.531682,-0.133419 0.750328,-0.920708 l -0.941444,-0.844567 c 0,0 0.346383,0.200541 0.921046,-0.330604 0.769279,-0.711023 2.245034,-3.982786 2.506756,-6.338283 0.294437,-2.388213 -0.09815,-2.74808 -2.649935,-2.453643 -1.046887,0.130861 -2.307484,0.438473 -2.830928,0.765625 0,0 -0.747579,0.374102 -0.633076,0.586751 0.114504,0.212649 1.108507,0.316101 1.108507,0.316101 1.864769,0.294437 2.375477,0.911345 2.375477,1.598365 0,0.719736 -0.968722,2.49104 -1.426735,2.49104 -0.163576,0 -0.75245,-0.458013 -1.30861,-0.981457 -1.112318,-1.079603 -1.710931,-1.22108 -2.787161,-0.901164 -0.604355,-0.165631 -1.481667,-0.25267 -2.190227,-0.659978 -0.173633,-0.09981 -0.06331,-0.240113 -0.40702,-0.671987 -0.621095,-0.780412 -1.093209,-0.711243 -1.747514,-0.547666 -0.817881,0.196291 -0.850596,0.196291 -0.229006,-0.261722 0.621589,-0.458014 0.588874,-0.523444 -0.785166,-2.322782 l -1.37404,-1.864769 1.635762,0.817881 c 1.668477,0.850596 3.107947,1.079603 3.4351,0.556159 C 50.882932,9.9778198 50.424918,9.5525217 49.737898,9.2253693 49.083594,8.8982169 48.298428,8.1457664 48.003991,7.5896073 47.676838,7.000733 47.25154,6.313713 47.055249,6.051991 46.56452,5.495832 44.852604,5.1963796 43.932134,5.5445057 42.993606,5.8994628 42.411736,6.8534784 41.658955,7.8397022 41.023403,8.6723378 40.669348,9.300742 40.37214,9.806585 c -0.61168,-0.1445261 -1.659277,0.302096 -2.084576,0.694679 -0.719735,0.654304 -0.883311,0.68702 -2.290066,0.327152 -1.406756,-0.392583 -1.570332,-0.359868 -2.322782,0.327152 -0.425299,0.425299 -1.603047,1.897484 -2.61722,3.271524 -0.981457,1.406756 -1.897484,2.551789 -1.995629,2.584504 -0.09815,0 -0.785166,0.06543 -1.504901,0.130861 -0.719736,0.06543 -1.701193,0.261722 -2.191921,0.458014 -0.785166,0.294437 -0.850597,0.425298 -0.62159,1.275894 0.163576,0.490729 0.883312,1.99563 1.635762,3.304239 l 1.341325,2.355498 -0.817881,1.962914 c -0.458013,1.079603 -0.752451,2.093775 -0.654305,2.224636 0.09815,0.163577 1.046888,0.392583 2.126491,0.523444 l 1.962914,0.229007 1.504901,2.257351 c 1.406755,2.126491 1.657934,2.245577 2.159206,1.99563 0.168647,-0.08409 0.981457,-0.654305 2.06106,-1.177749 1.079603,-0.556159 2.551789,-1.37404 3.271524,-1.864768 1.018419,-0.672158 2.049518,-0.900468 2.595896,-0.692831 0.331202,0.125863 0.48429,0.411918 0.348476,0.856407 -0.285585,0.91795 -0.272544,1.489162 -0.144415,2.084679 0.223082,0.238469 0.510825,0.347411 0.92958,0.630686 1.443708,0.887156 1.99563,0.948742 2.028345,0 v -0.719735 l 0.359868,0.75245 c 0.523444,1.079603 1.37404,0.785166 1.504901,-0.556159 0.09815,-0.785166 -0.09815,-1.30861 -0.62159,-1.864769 -0.392582,-0.425298 -0.596955,-0.982239 -0.433378,-0.982239 0.327152,0 1.447551,1.505683 1.447551,1.898266 0,0.130861 0.196291,0.261722 0.458013,0.261722 0.490729,0 0.850596,-0.68702 0.850596,-1.635762 0,-0.36153 0.976174,-0.565329 1.887055,-0.888134 0.243094,-0.08615 0.24134,-0.208167 0.473939,-0.367346 0.439604,0.09212 0.29499,0.09815 0.622911,0.07484 0.487798,-0.03467 0.705279,-0.172053 0.843779,-0.389695 0.68702,-1.112318 0.785165,-2.519073 0.261721,-3.762252 -0.261721,-0.654305 -0.490728,-2.012056 -0.458013,-2.60093 0,0 0.03123,-0.389021 0.175135,-0.773722 m -3.806527,4.323394 c 0,-0.654305 -0.13086,-0.654305 -1.308609,-0.03271 -0.556159,0.294437 -0.981457,0.75245 -0.981457,1.046887 0,0.752451 0.948742,1.733908 1.668477,1.733908 0.327152,0 1.901406,0.294476 2.330516,0.299158 -0.0093,0.125208 -0.190226,0.234215 -0.309653,0.272371 -0.495623,0.158358 -1.305574,0.07007 -1.595565,0.01734 -0.523444,-0.06543 -0.588874,0.09815 -0.556159,1.046888 0.06543,0.62159 0,0.916027 -0.130861,0.654305 -0.09815,-0.261722 -0.556159,-0.850596 -1.046888,-1.30861 -0.523443,-0.490728 -0.883311,-1.275894 -0.948742,-1.962914 -0.163576,-1.537616 -0.817881,-2.715365 -2.12649,-3.827683 -1.37404,-1.145034 -1.897484,-2.06106 -1.635762,-2.977087 0.130861,-0.523444 0.425298,-0.719735 1.046887,-0.719735 1.112319,-0.03272 3.206094,-0.981458 4.547419,-2.093776 1.766623,-1.537616 1.177748,-1.603047 -0.916027,-0.130861 -1.733908,1.210464 -2.224636,1.406756 -4.187551,1.504901 l -2.191921,0.163577 1.079603,-1.112319 c 0.556159,-0.588874 1.046888,-1.177748 1.046888,-1.308609 0,-0.68702 3.009802,-1.962915 5.267154,-2.224637 3.206093,-0.359867 3.369669,-0.327152 3.565961,0.752451 0.229006,1.243179 0.948742,1.537616 0.75245,0.294437 -0.130861,-0.883311 -0.130861,-0.883311 0.359868,-0.294437 0.294437,0.359868 0.523444,1.014172 0.523444,1.472186 0,0.458013 0.09815,1.177748 0.196291,1.570331 0.163576,0.556159 0,0.719736 -0.850596,0.916027 l -1.079603,0.229007 0.229007,1.930199 c 0.09814,1.046888 0.425298,2.453643 0.68702,3.140663 0.490728,1.145033 0.392583,3.173378 -0.163577,3.533246 -0.13086,0.09815 -0.948741,0.06543 -1.766622,-0.03271 -1.341325,-0.196292 -1.504902,-0.294438 -1.504902,-1.079603 M 46.204653,6.051991 c 0.294437,0.130861 0.817881,0.7851658 1.145033,1.4721858 0.359868,0.6870201 0.981457,1.4721858 1.37404,1.7339078 0.401112,0.285002 1.442369,0.6912599 1.38251,0.7475304 C 49.98057,10.12374 48.088295,9.5302917 46.891673,8.8655017 45.975646,8.3420578 45.026904,7.9821902 44.797897,8.0803359 c -0.261722,0.06543 -1.014172,1.0141725 -1.733908,2.1264911 -1.43947,2.224636 -1.701192,3.958544 -0.654304,4.318411 0.621589,0.196292 5.233947,-0.895184 5.986889,-1.014172 0.544754,-0.08609 1.243179,0.458013 1.243179,0.850596 0,0.130861 -0.981458,0.327152 -2.159206,0.425298 -1.406755,0.130861 -2.68265,0.490729 -3.631392,1.046888 -1.701192,0.948742 -2.682649,1.014172 -4.023974,0.327152 -1.341325,-0.68702 -1.275895,-1.406755 0.654305,-5.267153 2.12649,-4.3511274 3.631391,-5.6270217 5.725167,-4.841856 z m -0.163577,3.958544 c 1.406756,2.126491 1.406756,2.028345 0.425298,1.766623 -1.43947,-0.425298 -2.56756,-1.09192 -2.838537,-1.271265 0.234028,-0.5149707 0.810193,-1.7058218 1.202775,-1.7058218 0.229007,0 0.752451,0.5561591 1.210464,1.2104638 z m -6.215895,0.556159 c 0,0.06543 -0.359868,0.916027 -0.817881,1.930199 -0.752451,1.603047 -0.948742,1.799339 -2.06106,1.99563 -0.654305,0.09815 -1.635762,0.196291 -2.191922,0.196291 -0.785165,0 -1.537616,0.523444 -3.598676,2.551789 -1.43947,1.406755 -3.075232,2.878941 -3.631392,3.271524 l -1.014172,0.68702 -0.588874,-1.308609 c -0.719736,-1.603047 -0.523444,-1.864769 1.733907,-2.061061 1.864769,-0.163576 2.061061,-0.294437 3.565962,-2.486358 0.556159,-0.817881 1.570331,-2.12649 2.290066,-2.911656 1.112319,-1.275895 1.341325,-1.406755 1.962915,-1.046888 1.046887,0.556159 2.224636,0.425298 3.075232,-0.294437 0.719736,-0.588874 1.275895,-0.817881 1.275895,-0.523444 z m 5.856028,1.603047 1.43947,0.458013 -1.112318,0.556159 c -0.588874,0.294438 -1.603047,0.62159 -2.257351,0.719736 -1.472186,0.229006 -1.766623,-0.229007 -1.112319,-1.766623 0.270048,-0.685506 0.451258,-0.842441 0.602743,-1.09159 0.170217,0.06521 1.654609,0.862583 2.439775,1.124305 z m 14.573141,0.698506 c 0.06543,1.145034 -0.407442,2.638448 -1.061747,4.241495 -1.014173,2.551789 -2.023664,3.543862 -2.612538,2.496974 -0.340225,-0.595394 -1.13019,-1.786749 -2.449063,-2.869375 -0.09911,-0.08136 -0.227227,-0.212884 -0.509471,-0.277853 -0.412003,-0.09483 -0.526179,0.06707 -0.633337,-0.01554 -0.552348,-0.739279 -0.534931,-1.068117 0.184805,-1.100832 0.392582,0 0.981457,0.294437 1.308609,0.68702 0.294437,0.359868 0.948742,0.883312 1.406756,1.112318 0.785165,0.425299 0.916026,0.392583 1.603046,-0.327152 0.523444,-0.556159 0.82022,-1.348437 0.872261,-2.350816 0.0512,-0.986138 -0.316102,-1.542298 -1.984579,-1.902165 -0.490728,-0.09815 -1.460261,-0.08541 -1.3294,-0.183552 0.294437,-0.294437 3.128738,-0.896051 4.07748,-0.863336 0.752451,0.06543 1.096586,-0.01274 1.127178,1.352811 z M 39.69432,16.78259 c 0.621589,0.294437 1.341325,0.523444 1.603047,0.523444 0.850596,0 -0.163577,1.210463 -1.537617,1.832053 -0.68702,0.294437 -1.243179,0.654305 -1.243179,0.785166 0,0.130861 0.654305,0.359867 1.472186,0.490728 1.30861,0.163577 1.472186,0.294438 1.30861,0.850597 -0.327153,1.046887 0.392582,2.355497 1.995629,3.729537 1.275895,1.046888 1.439471,1.30861 1.046888,1.668477 -0.327153,0.327153 -0.817881,0.392583 -1.897484,0.196292 l -1.472186,-0.261722 0.09815,-1.701193 c 0.09815,-1.864768 -0.392583,-2.322782 -0.719735,-0.68702 -0.490729,2.486358 -0.196292,2.944372 2.12649,3.36967 0.654305,0.09815 1.504901,0.556159 1.897484,0.981457 l 0.719735,0.785166 -0.948742,0.327152 c -0.556159,0.196292 -1.112318,0.229007 -1.243179,0.06543 -0.68702,-0.588875 -2.322782,-0.588875 -3.238808,0 l -0.948742,0.621589 -1.30861,-1.046887 c -1.832054,-1.406756 -2.06106,-1.766623 -2.68265,-3.729538 -0.458013,-1.570331 -0.948742,-2.322782 -1.275894,-1.995629 -0.06543,0.06543 0.163576,1.014172 0.556159,2.159206 0.62159,1.930199 1.504901,3.107947 3.36967,4.449272 0.359867,0.261722 0.588874,0.523444 0.490728,0.62159 -0.229006,0.196291 -4.18755,2.191921 -4.383842,2.191921 -0.09815,0 -0.785166,-0.948742 -1.537616,-2.126491 -1.177749,-1.832053 -1.504901,-2.12649 -2.388213,-2.159206 -0.556159,-0.03271 -1.406755,-0.130861 -1.897484,-0.261722 l -0.850596,-0.196291 0.785166,-1.897484 0.817881,-1.897484 -0.719735,-1.145033 c -0.425298,-0.719736 -0.588875,-1.341325 -0.458014,-1.701193 0.229007,-0.490728 0.294437,-0.458013 0.458014,0.196292 0.261722,1.014172 0.785165,0.948742 0.850596,-0.09815 0,-0.458013 0.458013,-1.243179 0.948742,-1.733908 0.523444,-0.490728 0.850596,-0.719735 0.719735,-0.490728 -0.229007,0.458013 0.09815,1.406755 0.490729,1.406755 0.163576,0 0.294437,-0.490729 0.294437,-1.079603 0,-0.75245 0.359868,-1.43947 1.308609,-2.519073 1.112319,-1.275895 1.275895,-1.37404 1.30861,-0.752451 0,0.425298 0.196292,0.752451 0.425298,0.752451 0.294437,0 0.392583,-0.294438 0.294437,-0.948742 l -0.130861,-0.981458 1.897484,-0.09814 c 1.504901,-0.06543 1.99563,0.03271 2.191921,0.425298 0.163577,0.294437 0.785166,0.785166 1.406756,1.079603 z m 9.266647,10.245193 c -0.02559,0.170037 0.03855,0.39114 0.110803,0.522439 0.334998,0.608733 1.303722,0.402973 2.072884,-0.462332 0.458013,-0.490728 0.458013,-0.621589 0.06543,-0.785165 -0.460365,-0.201409 -1.828226,-0.0157 -2.044797,0.205916 -0.130161,0.133148 -0.178802,0.349585 -0.20432,0.519142 z m 6.403953,-8.445855 c 0.359867,0.458013 0.981457,1.341325 1.406755,1.930199 0,0 0.27521,0.341299 0.592653,0.652192 0.317442,0.310892 0.677117,0.59138 0.677117,0.59138 0,0 -0.526679,0.02532 -1.662353,-0.29483 -2.609276,-0.735556 -2.780795,-1.112318 -2.584504,-1.897484 0.163576,-0.621589 0.229007,-0.621589 1.079603,0.196292 0.458013,0.458013 0.981457,0.719735 1.079603,0.588874 0.359868,-0.327152 -1.406755,-2.028345 -1.930199,-1.832054 -0.458013,0.163577 -0.869368,-1.060304 -0.754407,-1.620196 0.03105,-0.151196 0.183899,-0.155613 0.386338,-0.06829 0.405328,0.174834 0.970566,0.830385 1.709394,1.75392 z m -2.878941,2.224636 c -0.130861,0.09815 -0.327153,0.09815 -0.458014,0 -0.09815,-0.130861 0,-0.229006 0.229007,-0.229006 0.229007,0 0.327152,0.09814 0.229007,0.229006 z m -4.481988,6.80477 c 0,0.850596 -0.458014,1.079603 -0.817881,0.490729 -0.294437,-0.458014 0.03272,-1.30861 0.490728,-1.30861 0.163577,0 0.327153,0.359868 0.327153,0.817881 z m 2.721734,-0.756697 c 0,0.179934 -1.038476,0.798157 -1.175645,0.413776 -0.141061,-0.395288 0.147716,-0.493941 0.506043,-0.527216 0.375165,-0.03484 0.669602,-0.06649 0.669602,0.11344 z m -5.666106,0.756697 c 0,0.261722 -0.130861,0.490729 -0.294437,0.490729 -0.425298,0 -0.719735,-0.523444 -0.458013,-0.785166 0.359867,-0.359868 0.75245,-0.196291 0.75245,0.294437 z"
         style="fill:#898ee2;fill-opacity:1;stroke:#898ee2;stroke-width:0.0327152;stroke-opacity:1" />
      <path
         sodipodi:nodetypes="czcszc"
         id="path2180"
         d="m 44.98637,26.71591 c 0,0 -0.218118,0.233376 -0.468068,0.409114 -0.249951,0.175739 -0.566574,0.293839 -0.566574,0.293839 0,0 1.178221,1.523099 1.35066,1.326025 0.17244,-0.197074 0.04752,-0.535977 -0.02638,-0.979394 C 45.201327,27.31744 44.98637,26.71591 44.98637,26.71591 Z"
         style="fill:#898ee2;fill-opacity:1;fill-rule:evenodd;stroke:#898ee2;stroke-width:0.148225;stroke-linecap:butt;stroke-linejoin:miter;stroke-miterlimit:4;stroke-dasharray:none;stroke-opacity:1" />
      <path
         id="path3233"
         d="m 21.660293,50.664321 c -1.567812,0 -2.791966,-0.386851 -3.672576,-1.160564 -0.88061,-0.773714 -1.320915,-1.873248 -1.320915,-3.2985 -1e-6,-1.048583 0.161613,-2.018218 0.48484,-2.909044 0.323227,-0.89078 0.792802,-1.666984 1.408724,-2.328819 0.610826,-0.656624 1.3604,-1.17078 2.248586,-1.54233 0.888232,-0.371574 1.887136,-0.55736 2.996852,-0.557383 0.666805,1.1e-5 1.332393,0.08018 1.996639,0.240515 0.664268,0.160351 1.342494,0.421228 2.034861,0.78262 l -0.343589,1.725638 h -0.137441 c -0.565027,-0.529376 -1.179618,-0.912405 -1.843978,-1.149086 -0.66428,-0.236681 -1.378192,-0.355034 -2.141724,-0.355045 -0.839896,10e-6 -1.575387,0.165447 -2.206575,0.496296 -0.631188,0.330871 -1.16309,0.771177 -1.595819,1.320915 -0.422491,0.539569 -0.741907,1.168255 -0.958238,1.885874 -0.216341,0.717722 -0.324501,1.440518 -0.324501,2.168468 -2e-6,1.094404 0.299043,1.939362 0.89715,2.534968 0.598097,0.59556 1.482529,0.893328 2.653309,0.893328 0.51411,1e-6 0.996403,-0.04708 1.446946,-0.141251 0.450475,-0.09417 0.87424,-0.215056 1.271329,-0.362678 l 0.64137,-2.909044 h -3.031172 l 0.290146,-1.275117 h 4.550661 l -1.130032,4.878938 c -0.335968,0.137441 -0.638833,0.260878 -0.908606,0.370311 -0.269784,0.109439 -0.608289,0.222701 -1.015502,0.339767 -0.351234,0.101804 -0.713912,0.185787 -1.088033,0.251971 -0.374133,0.06617 -0.774988,0.09926 -1.202575,0.09926 z"
         style="font-style:normal;font-weight:normal;font-size:32.0548px;line-height:125%;font-family:Sans;letter-spacing:0px;word-spacing:0px;fill:#ffffff;fill-opacity:1;stroke-width:0.114782" />
      <path
         id="path3235"
         d="m 33.410561,50.649399 c -1.440519,0 -2.570551,-0.372859 -3.390097,-1.118577 -0.819523,-0.745718 -1.229319,-1.80323 -1.229319,-3.172469 -1e-6,-1.048582 0.157792,-2.025908 0.473386,-2.932 0.315594,-0.906046 0.768617,-1.700156 1.359137,-2.382193 0.585367,-0.671901 1.30565,-1.202574 2.160778,-1.591916 0.855151,-0.389387 1.809544,-0.584093 2.863245,-0.584104 0.656624,1.1e-5 1.277643,0.08018 1.863033,0.240515 0.585367,0.160351 1.186045,0.413595 1.801968,0.75971 l -0.34359,1.710256 h -0.11453 c -0.167984,-0.167972 -0.337242,-0.324489 -0.507751,-0.469574 -0.170532,-0.145062 -0.426313,-0.304127 -0.767354,-0.477208 -0.279966,-0.14761 -0.613374,-0.271047 -1.000225,-0.37031 -0.386862,-0.09925 -0.814438,-0.148873 -1.282693,-0.148885 -0.712637,1.1e-5 -1.366713,0.148896 -1.962319,0.446664 -0.595559,0.297792 -1.112218,0.713912 -1.55002,1.248373 -0.427587,0.519207 -0.763532,1.150349 -1.007858,1.893564 -0.244337,0.743182 -0.3665,1.534755 -0.3665,2.374617 -2e-6,1.048583 0.272321,1.864295 0.816975,2.44716 0.544642,0.58283 1.33113,0.87424 2.359351,0.87424 0.483566,1e-6 0.94296,-0.05472 1.378191,-0.164162 0.435209,-0.109438 0.830967,-0.248148 1.187309,-0.41612 0.33086,-0.157792 0.628628,-0.323228 0.893328,-0.496296 0.264676,-0.173069 0.491199,-0.333409 0.679546,-0.48103 h 0.106894 l -0.358855,1.75617 c -0.534484,0.269784 -1.149086,0.512836 -1.843979,0.729177 -0.694823,0.216331 -1.434205,0.324502 -2.218054,0.324502 z"
         style="font-style:normal;font-weight:normal;font-size:32.0548px;line-height:125%;font-family:Sans;letter-spacing:0px;word-spacing:0px;fill:#ffffff;fill-opacity:1;stroke-width:0.114782" />
      <path
         id="path3237"
         d="m 44.344726,50.649399 c -1.440518,0 -2.57055,-0.372859 -3.390096,-1.118577 -0.819523,-0.745718 -1.229319,-1.80323 -1.229319,-3.172469 -10e-7,-1.048582 0.157791,-2.025908 0.473385,-2.932 0.315594,-0.906046 0.768617,-1.700156 1.359138,-2.382193 0.585367,-0.671901 1.305649,-1.202574 2.160778,-1.591916 0.855151,-0.389387 1.809543,-0.584093 2.863245,-0.584104 0.656624,1.1e-5 1.277642,0.08018 1.863032,0.240515 0.585367,0.160351 1.186046,0.413595 1.801968,0.75971 l -0.343589,1.710256 h -0.11453 c -0.167984,-0.167972 -0.337242,-0.324489 -0.507751,-0.469574 -0.170532,-0.145062 -0.426313,-0.304127 -0.767343,-0.477208 -0.279977,-0.14761 -0.613385,-0.271047 -1.000225,-0.37031 -0.386862,-0.09925 -0.814438,-0.148873 -1.282693,-0.148885 -0.712637,1.1e-5 -1.366713,0.148896 -1.962318,0.446664 -0.59556,0.297792 -1.112218,0.713912 -1.550021,1.248373 -0.427576,0.519207 -0.763532,1.150349 -1.007858,1.893564 -0.244337,0.743182 -0.3665,1.534755 -0.3665,2.374617 -2e-6,1.048583 0.272321,1.864295 0.816975,2.44716 0.544642,0.58283 1.331131,0.87424 2.359351,0.87424 0.483566,1e-6 0.94296,-0.05472 1.378191,-0.164162 0.435209,-0.109438 0.830967,-0.248148 1.187309,-0.41612 0.33086,-0.157792 0.628628,-0.323228 0.893328,-0.496296 0.264676,-0.173069 0.491199,-0.333409 0.679546,-0.48103 h 0.106894 l -0.358855,1.75617 c -0.534484,0.269784 -1.149086,0.512836 -1.843979,0.729177 -0.694823,0.216331 -1.434205,0.324502 -2.218053,0.324502 z"
         style="font-style:normal;font-weight:normal;font-size:32.0548px;line-height:125%;font-family:Sans;letter-spacing:0px;word-spacing:0px;fill:#ffffff;fill-opacity:1;stroke-width:0.114782" />
      <path
         style="fill:#898ee2;fill-opacity:1;stroke:none;stroke-width:1px;stroke-linecap:butt;stroke-linejoin:miter;stroke-opacity:1"
         d="m 51.617246,20.531441 0.533773,0.698014 0.750098,-0.296264 -0.553685,-0.757821 z"
         id="path856" />
    </g>
  </g>
</svg>
