<?xml version="1.0" encoding="UTF-8" standalone="no"?>
<svg
   width="64"
   height="64"
   viewBox="0 0 64 64"
   inkscape:version="1.1.1 (3bf5ae0d25, 2021-09-20)"
   sodipodi:docname="download.svg"
   version="1.1"
   id="svg3974"
   xmlns:inkscape="http://www.inkscape.org/namespaces/inkscape"
   xmlns:sodipodi="http://sodipodi.sourceforge.net/DTD/sodipodi-0.dtd"
   xmlns="http://www.w3.org/2000/svg"
   xmlns:svg="http://www.w3.org/2000/svg">
  <defs
     id="defs3966" />
  <sodipodi:namedview
     inkscape:zoom="7.9999999"
     inkscape:cx="35.4375"
     inkscape:cy="89.812501"
     inkscape:window-width="1920"
     inkscape:window-height="1017"
     inkscape:window-x="3232"
     inkscape:window-y="-8"
     inkscape:window-maximized="1"
     id="namedview3968"
     pagecolor="#ffffff"
     bordercolor="#666666"
     borderopacity="1.0"
     inkscape:pageshadow="2"
     inkscape:pageopacity="0.0"
     inkscape:pagecheckerboard="0" />
  <path
     d="m 7.4394531,49.09375 a 7.4449501,7.4449501 0 0 0 -7.44531248,7.445312 7.4449501,7.4449501 0 0 0 7.44531248,7.445313 H 56.560547 a 7.4449501,7.4449501 0 0 0 7.445312,-7.445313 7.4449501,7.4449501 0 0 0 -7.445312,-7.445312 z"
     id="path3970" />
  <path
     d="m 18.947863,27.20392 h 7.354434 V 5.61505 c 0,-3.09205 2.506597,-5.59866 5.598636,-5.59866 3.092037,0 5.59862,2.50661 5.59862,5.59866 v 21.58887 h 7.357575 c 2.71084,8.5e-4 4.192321,3.1615 2.458782,5.24559 L 34.419069,47.94257 c -0.616503,0.78099 -1.450271,1.15113 -2.497794,1.15113 -1.058464,0 -1.799415,-0.40568 -2.471162,-1.06624 L 16.487611,32.45404 c -1.468253,-2.33725 0.230201,-5.1837 2.460252,-5.25012 z"
     id="path3972" />
</svg>
