<svg version="1.1" viewBox="0 0 64 64" xmlns="http://www.w3.org/2000/svg"><path d="m7.4395 49.094a7.445 7.445 0 0 0-7.4453 7.4453 7.445 7.445 0 0 0 7.4453 7.4453h49.121a7.445 7.445 0 0 0 7.4453-7.4453 7.445 7.445 0 0 0-7.4453-7.4453z"/><path d="m18.948 27.204h7.3544v-21.589c0-3.092 2.5066-5.5987 5.5986-5.5987 3.092 0 5.5986 2.5066 5.5986 5.5987v21.589h7.3576c2.7108 8.5e-4 4.1923 3.1615 2.4588 5.2456l-12.897 15.493c-0.6165 0.78099-1.4503 1.1511-2.4978 1.1511-1.0585 0-1.7994-0.40568-2.4712-1.0662l-12.963-15.573c-1.4683-2.3372 0.2302-5.1837 2.4603-5.2501z"/></svg>
