<svg xmlns="http://www.w3.org/2000/svg" xmlns:xlink="http://www.w3.org/1999/xlink" viewBox="0 0 383.646 383.646" height="1450" width="1450"><defs><linearGradient id="b"><stop offset="0" stop-color="#383969"/><stop offset="1" stop-color="#292a4d" stop-opacity="0"/></linearGradient><linearGradient id="a"><stop offset="0" stop-color="#373868"/><stop offset="1" stop-color="#292a4d" stop-opacity="0"/></linearGradient><linearGradient y2="88.221" x2="213.95" y1="85.831" x1="213.985" gradientTransform="matrix(1.1 0 0 1.1 -204.858 -15.466)" gradientUnits="userSpaceOnUse" id="d" xlink:href="#a"/><linearGradient y2="88.579" x2="235.71" y1="85.517" x1="235.906" gradientTransform="matrix(1.1 0 0 1.1 -209.724 -15.455)" gradientUnits="userSpaceOnUse" id="e" xlink:href="#b"/><clipPath id="c" clipPathUnits="userSpaceOnUse"><path fill="#fbbb07" stroke="#fff" stroke-width=".225" stroke-linecap="round" stroke-linejoin="round" d="M370.118-246.39h256.939V10.549H370.118z"/></clipPath></defs><g clip-path="url(#c)" transform="matrix(1.49184 0 0 1.49184 -551.988 367.74)"><path d="M346.669-285.46l2.627-6.5 252.98.25L673.26-65.417l-2.354 5.937-11.085-2.483-67.345-216.916-239.895-3.111z" fill="#9f9f6e"/><path style="line-height:normal;font-variant-ligatures:normal;font-variant-position:normal;font-variant-caps:normal;font-variant-numeric:normal;font-variant-alternates:normal;font-feature-settings:normal;text-indent:0;text-align:start;text-decoration-line:none;text-decoration-style:solid;text-decoration-color:#000;text-transform:none;text-orientation:mixed;white-space:normal;shape-padding:0;isolation:auto;mix-blend-mode:normal;solid-color:#000;solid-opacity:1" d="M601.957-291.77l-2.572 6.56h.762l2.572-6.56z" color="#000" font-weight="400" font-family="sans-serif" overflow="visible" fill="#5f5f4e"/><path d="M359.821-246.414l210.977.5 62.393 183.18 1.53 3.174 13.928.318 21.74-.106-.07-1.237-70.49-224.517-2.546.035-250.635-.18z" fill="#60a98b"/><path d="M417.415-70.934l180.98 13.399 28.847.05 9.499-3 8.299-5.9 3.5-5.549.7-4.199-.15-2.8-51.383-162.015-3.075-6.93-4.879-7.741-4.914-5.586-7.6-5.55-6.54-2.899-6.364-1.803-7.317-.954H378.644l-3.074.474-3.025 1.6-3.05 2.5-2.974 3.275-2.475 2.8-2.062 3.244-.778 1.909-.92 5.515-.353 4.63.212 5.516.92 5.55 53.84 161.132.848 2.12z" fill="#ececec"/><path d="M608.742-256.298l5.836 19.488 53.464 170.03-23.859.548 1.022-1.038 3.085-4.121.943-5.698-1.55-5.77-47.998-151.838-2.992-8.192-2.867-5.77-2.875-4.76-5.593-7.16-5.76-4.693-11.955-5.375-9.779-1.887-180.127.1-2.344.672-5.012 3.03s3.427-5.372 11.3-7.276l220.776-.668z" fill="#426959"/><path d="M568.243-270.39l7.347 2.858 7.12 4.737 5.29 5.304 4.165 5.88 3.494 6.382 4.93 13.555 48.32 153.071-.132 4.575-1.598 3.995-3.166 3.89-5.933 4.578-4.12 1.967-3.273.864 3.363-3.574 2.43-4.368 1.232-5.922-.206-4.345C620-87.623 601.135-89.907 601.135-89.907l3.159-25.87-5.996-15.286-9.407-21.647-8.485-16.894-5.536-9.22-9.218-12.686-9.605-8.139-22.582-11.9-11.055-4.839-8.387-2.725-8.617-2.002-10.49-1.762-8.56-.928-9.604-.605-11.04-.047c18.139-2.882 97.502-1.053 128.442 14.533l-4.757-15.454-2.21-6.254-3.367-8.353-5.284-7.214-6.295-5.166-7.085-2.973-8.77-.97-8.578-.158-169.998-.255c-6.164-5.03-4.52-10.326-.106-15.715l126.134-.09 54.805.298z" fill="#9d9d9d"/><path style="line-height:normal;font-variant-ligatures:normal;font-variant-position:normal;font-variant-caps:normal;font-variant-numeric:normal;font-variant-alternates:normal;font-feature-settings:normal;text-indent:0;text-align:start;text-decoration-line:none;text-decoration-style:solid;text-decoration-color:#000;text-transform:none;text-orientation:mixed;white-space:normal;shape-padding:0;isolation:auto;mix-blend-mode:normal;solid-color:#000;solid-opacity:1" d="M378.027-256.932c-1.414-.048-3.896.587-6.594 1.902-2.697 1.316-5.573 3.32-7.587 6.075-1.78 2.434-2.73 5.508-3.082 8.45-.353 2.943-.113 5.753.542 7.7l53.969 160.62 2.258 2.197.536-.548-2.128-2.066-53.913-160.445c-.6-1.787-.843-4.523-.502-7.367.341-2.843 1.26-5.8 2.935-8.09 1.913-2.615 4.691-4.562 7.306-5.837 2.614-1.275 5.102-1.868 6.238-1.829 1.662.057 13.06.086 29.457.096 16.395.01 37.738.002 59.14-.011 42.804-.028 85.843-.085 89.963-.085 4.664 0 12.925 1.579 18.709 6.182 6.222 4.952 10.069 13.198 11.516 17.67L637.016-77.13c.937 3.502.135 8.392-1.942 12.357-2.077 3.967-5.378 6.972-9.354 6.972h-27.837v.768h27.837c4.36 0 7.873-3.263 10.032-7.384 2.158-4.122 3.015-9.14 2.004-12.917v-.011l-50.238-155.212c-1.483-4.584-5.34-12.918-11.764-18.03-5.993-4.77-14.356-6.346-19.189-6.346-4.127 0-47.16.052-89.963.079-21.402.014-42.745.022-59.14.011-16.395-.01-27.888-.037-29.435-.09z" color="#000" font-weight="400" font-family="sans-serif" overflow="visible" fill="#737373"/><path style="line-height:normal;font-variant-ligatures:normal;font-variant-position:normal;font-variant-caps:normal;font-variant-numeric:normal;font-variant-alternates:normal;font-feature-settings:normal;text-indent:0;text-align:start;text-decoration-line:none;text-decoration-style:solid;text-decoration-color:#000;text-transform:none;text-orientation:mixed;white-space:normal;shape-padding:0;isolation:auto;mix-blend-mode:normal;solid-color:#000;solid-opacity:1" d="M348.963-292.155l-2.879 6.565.768.38 2.878-6.945z" color="#000" font-weight="400" font-family="sans-serif" overflow="visible" fill="#5f5f4e"/><path style="line-height:normal;font-variant-ligatures:normal;font-variant-position:normal;font-variant-caps:normal;font-variant-numeric:normal;font-variant-alternates:normal;font-feature-settings:normal;text-indent:0;text-align:start;text-decoration-line:none;text-decoration-style:solid;text-decoration-color:#000;text-transform:none;text-orientation:mixed;white-space:normal;shape-padding:0;isolation:auto;mix-blend-mode:normal;solid-color:#000;solid-opacity:1" d="M346.086-285.593l13.588 40.86.588-.65-13.115-39.448h252.34l70.594 225.14h-36.31l-.439.762h37.793l-71.08-226.664z" color="#000" font-weight="400" font-family="sans-serif" overflow="visible" fill="#39554a"/><path style="line-height:normal;font-variant-ligatures:normal;font-variant-position:normal;font-variant-caps:normal;font-variant-numeric:normal;font-variant-alternates:normal;font-feature-settings:normal;text-indent:0;text-align:start;text-decoration-line:none;text-decoration-style:solid;text-decoration-color:#000;text-transform:none;text-orientation:mixed;white-space:normal;shape-padding:0;isolation:auto;mix-blend-mode:normal;solid-color:#000;solid-opacity:1" d="M378.705-272.818c-2.81 0-5.958 1.696-8.965 4.285-3.008 2.588-5.873 6.089-8.033 9.794-.589 1.01-1.05 2.61-1.406 4.59-.357 1.98-.594 4.332-.683 6.808-.178 4.953.238 10.38 1.603 14.232l.723-.254c-1.306-3.684-1.74-9.061-1.564-13.95.088-2.444.329-4.765.677-6.7.35-1.936.815-3.493 1.31-4.342 2.117-3.632 4.939-7.074 7.87-9.597 2.93-2.522 5.974-4.104 8.468-4.104h176.449c11.444 0 20.882 4.3 27.16 9.27 8.093 6.407 13.605 17.81 15.846 24.867l50.164 157.95c1.729 5.444-.928 10.674-5.555 14.74-4.627 4.066-11.21 6.895-17.083 7.429l.067.762c6.064-.551 12.754-3.43 17.518-7.615 4.763-4.187 7.621-9.753 5.78-15.548l-50.163-157.95c-2.279-7.172-7.795-18.658-16.1-25.234-6.402-5.067-16-9.433-27.634-9.433z" color="#000" font-weight="400" font-family="sans-serif" overflow="visible" fill="#737373"/><path style="line-height:normal;font-variant-ligatures:normal;font-variant-position:normal;font-variant-caps:normal;font-variant-numeric:normal;font-variant-alternates:normal;font-feature-settings:normal;text-indent:0;text-align:start;text-decoration-line:none;text-decoration-style:solid;text-decoration-color:#000;text-transform:none;text-orientation:mixed;white-space:normal;shape-padding:0;isolation:auto;mix-blend-mode:normal;solid-color:#000;solid-opacity:1" d="M349.345-292.153v.768h252.787l70.876 225.954.753-.046-71.07-226.676z" color="#000" font-weight="400" font-family="sans-serif" overflow="visible" fill="#5f5f4e"/><path d="M392.819-47.294l5.846 3.47 5.1 4.727 4.729 6.311 2.989 7.191 2.433 10.535.368 10.006-1.677 12.429-2.454 7.423-46.579-1.636-2.6-7.224-1.703-6.154-.298-5.452-.34-4.512.103-5.621.599-4.626.803-5.916 1.615-5.914 1.981-3.676 2.351-3.272 2.692-3.359 3.047-2.51 4.42-2.639 3.054-.977-.554-6.14-2.664-.182-3.706-1.349-1.22-1.8.642-1.596 2.216-1.495 3.513-1.016 4.54-.852 4.975-.053 4.404.55 2.771.996.922 1.472-1.507 2.242-5.587 2.472.72 6.261z" fill="#707070"/><path d="M672.995-65.475l-2.642 6.546h.767l2.64-6.548z" style="line-height:normal;font-variant-ligatures:normal;font-variant-position:normal;font-variant-caps:normal;font-variant-numeric:normal;font-variant-alternates:normal;font-feature-settings:normal;text-indent:0;text-align:start;text-decoration-line:none;text-decoration-style:solid;text-decoration-color:#000;text-transform:none;text-orientation:mixed;white-space:normal;shape-padding:0;isolation:auto;mix-blend-mode:normal;solid-color:#000;solid-opacity:1" color="#000" font-weight="400" font-family="sans-serif" overflow="visible" fill="#5f5f4e"/><path d="M450.03-42.944l6.586 4.48 32.547 8.695-1.051 37.03-38.695 12.122z" fill="#544f45"/><path d="M450.17-45.173l8.081-.01-.543 63.778-8.153-1.441z" fill="#7e7768"/><path d="M449.307-44.014v64.328h.754v-64.328z" style="line-height:normal;font-variant-ligatures:normal;font-variant-position:normal;font-variant-caps:normal;font-variant-numeric:normal;font-variant-alternates:normal;font-feature-settings:normal;text-indent:0;text-align:start;text-decoration-line:none;text-decoration-style:solid;text-decoration-color:#000;text-transform:none;text-orientation:mixed;white-space:normal;shape-padding:0;isolation:auto;mix-blend-mode:normal;solid-color:#000;solid-opacity:1" color="#000" font-weight="400" font-family="sans-serif" overflow="visible" fill="#45433e"/><path d="M433.44-156.591l-2.151 4.588-1.897 5.428-2.839 10.275-1.69 7.266-1.351 8.957-.934 8.654.454 1.66.788 3.37.646 4.302.286 5.64.023 2.486-.047 4.564-.55 2.964-.31 2.557.022 5.807.24 5.879.597 3.226 1.338 4.923 2.342 5.712 2.557 3.37 3.8 3.92 5.258 4.683 14.435 11.663 6.19 4.42 3.895 1.937 3.465 1.099h4.54l.383.574.67 3.728.393 5.162.084 4.994-4.84 18.429 3.866 41.61 10.843-2.178c19.364-26.251 25.48-37.297 47.737-49.393l5.29-2.82 1.984-2.088.106-9.699.778-92.233.202-21.9-1.892 5.677-1.589 4.191.102-3.177.135-6.252-.338-6.794-.845-6.083-1.724-7.233-1.79-4.934-2.603-5.408-.541-.372.44 3.921.405 7.233-.338 8.043-.507 6.354-.98 6.253-1.115 5.982-1.724 5.78-.17-3.617-1.148-7.402-1.183-5.34-1.893-5.475-2.028-4.968-1.791-3.718.372 2.94.44 3.313.27 3.413-.136 4.495-.845-2.805-.912-4.36-1.217-3.954-2.23-5.982-.271-.102-.338 3.448-.743 5.306-1.217 4.698-1.791 5.036-3.786 7.13-.473-2.77-1.284-8.146-2.096-8.28-2.298-6.185-2.298-5.171-3.008-5.34-3.042-3.785 2.13 5.948.54 3.21.946 6.456.372 5.813-.034 5.442-.845 7.334-1.385 8.753-2.23 8.18-.643-3.414-1.115-6.557-1.69-6.151-2.84-8.686-2.433-5.712-4.09-7.976-4.055-5.61-3.042-3.82-6.083-5.272 1.52 2.332 2.705 3.82 2.298 3.65 1.52 2.805 1.792 3.447 1.42 3.481 1.453 4.292.574 2.569.575 3.21-.237 2.366-1.555-6.658-1.858-5.576-2.738-5.678-3.447-5.813-2.468-3.448-3.346-3.548.102.912 1.25 3.11 1.386 3.852 1.42 3.955 1.351 5.002 1.319 5.982.185 1.707.778 4.41.101 4.58-.524.32-.591-3.75-1.436-9.43-1.994-7.182-2.485-7.385-2.653-5.712-3.836 7.233-2.687 8.06-2.334 9.183-1.242 7.934-.31 6.052-.102 5.88.17 4.901-.947-1.115-2.94-5.273-3.346-6.962-2.873-8.077-1.284-5.78-.474 2.332-.033 4.732.54 6.016.778 5.036.54 3.041-1.115-1.25-2.568-7.435-2.13-7.977-.642-6.86.102-6.22z" fill="#f3e1d8"/><path d="M442.078-132.082s.41 4.794 2.644 13.109c-3.975-6.9-6.672-15.556-6.672-15.556l-.067-10.786 1.445 4.534 1.605 4.856zM433.32-142.663c-1.374 4.924-5.527 22.04-5.927 32.138-3.45-12.399-2.154-20.102-2.129-20.527.026-.425 3.725-14.398 3.725-14.398l2.85-7.875 1.25-2.25.224 1.226-.3 3.374z" fill="#a78f87"/><path d="M428.054-126.307c1.758-1.007 5.838-2.134 8.91-2.15 3.073-.018 8.433 1.894 9.935 2.73 1.166.65 1.067.015.615-.255-2.168-1.298-6.23-3.38-10.328-3.449-3.009-.05-7.505.757-10.003 2.441-.585.395-1.43 2 .87.683z" fill="#3f3d38"/><path d="M467.708-27.442c22.447-7.4 36.079-23.043 42.769-30.577 5.315-5.987 10.75-17.589 14.426-42.68.652-4.455 1.847-18.083 2.142-22.388 1.262-18.423 2.368-39.88 2.368-39.88s1.588 2.803 2.958 6.546c1.566 4.28 2.968 9.754 3.449 13.112.93 6.499.904 13.612.904 13.612.484 2.316-.896 5.335-.268 6.399.313.53 2.693-8.716 3.346-8.715.934 0 .15 9.085.15 9.085l-1.099 104.375-.002 9-1.802 1.07-7.721 4.032c-10.15-7.449-44.23-22.802-61.62-22.99zM499.927-148.944s1.818 18.488-6.856 34.922c1.078-10.828-2.55-43.956-2.55-43.956l.213-8.131.726.277 3.375 5.025z" fill="#a78f87"/><path d="M521.634-138.994s-.395 6.947-1.624 8.84c.19-4.555-1.816-9.909-1.816-9.909l-.992-9.377zM471.244-162.03s2.55 2.73 5.205 7.612c3.738 6.868 7.978 17.447 8.165 25.865-.954-9.227-15.066-30.544-15.066-30.544l-6.258-10.19 3.374 2.314z" fill="#a78f87"/><path d="M441.255 19.405l8.788-5.239 2.775-1.814 3.828-8.555 3.03-5.66 2.58-4.109 2.02-2.732 5.296-6.193 2.938-2.595 1.286-.868.053 3.241.202 8.068.055 4.064.002 3.941.86 7.668.404 8.968.645 10.635c.882 1.811 1.47 13.938 1.678 17.003.603-1.039 2.464-5.662 5.09-10.557 4.398-8.2 10.175-17.867 10.175-17.867l5.813-6.424 5.313-4.528 3.18-2.502 4.553-1.019 9.263-3.005 6.883-3.09 5.895-2.794 4.833-2.65.136 4.55.014 24.784-.286 18.354-.956 8.173-1.004 7.17-1.53 7.551-2.007 8.221-3.202 10.802-2.677 7.313-2.294 5.115-3.394 6.5h1.052l7.121-6.644 7.935-9.99 6.165-10.228 3.92-8.603 3.537-10.802.717 1.338.812 4.493.765 4.636.43 5.688.335 5.736-.096 10.42.86-1.34L558.803 70l2.839-14.194 2.298-16.629 1.487-16.628.338-6.76 3.177 1.623 13.722 4.867 7.03 2.974 11.964 6.083 6.962 4.935 6.625 5.07 6.489 5.542 4.664 4.461 3.988 5.61 1.825 4.056.743 3.515.068 4.225-.44 5.543-.676 3.65-.71 2.704-3.21 7.266-2.197 5.374-2.974 5.374-3.617 6.76-4.833 7.84-9.666 12.303-8.01 9.192-.743 2.299-15.974 40.323-9.392 23.85-8.101 21.39-4.398 11.59-4.564 12.236-.98 4.015.023 3.179 1.506 2.82 5.687 9.631 7.839 14.458 5.688 11.83 4.086 9.249 5.115 11.615 3.059 7.647 4.062 11.519 1.96 6.094 3.441 10.444 3.49 11.04 2.605 8.341 3.035 10.229 2.342 7.79 2.533 8.556 2.629 8.604 5.21 17.876 3.25 11.232 2.676 10.754-261.161-8.794 2.584-4.258 5.644-12.066 8.585-23.894 2.839-10.241 3.21-12.235 3.008-12.572 3.008-12.81 1.555-7.976 1.352-5.543 1.859-7.807 2.366-8.145 2.94-8.145 3.008-7.368-8.787-.642 2.5-18.927 2.13-16.053 4.529-38.732 1.149-15.31.135-4.293-1.284-8.889-1.386-14.837-1.386-15.75-.642-14.735-.44-9.632-.134-7.368v-10.308l.182-21.98.525-11.518 2.964.669 4.875-.43 6.835-1.864 15.2-6.262 8.91-5.154 4.26-2.637 5.491 4.495 3.076 3.008-.676-2.602-2.569-6.793-.473-1.893 2.13-1.825 1.385-2.738.102-2.94-.98-2.062-2.603-2.298-4.292-2.839-.946-5.407-1.251-7.064-1.001-14.09.31-6.668z" fill="#60a98b"/><path d="M454.888 16.032l-2.496 8.981-2.593 9.811 3.547-13.973 9.365-10.38-.484 1.704-.508 5.359-1.934 17.27-.9 10.575 1.475 24.847 1.75 16.923 2.775-1.05 17.623-8.199 13.548-6.85 13.449-7.748 18.098-11.55 10.249-6.848 23.072-15.849 14.249-9.449 9.423 3.35 12.35 5.65 3.249 1.95-2.5.95-6.05 3.799-6.549 5.75-4.999 5.848-3.6 6.1-3.8 7.699-2.149 6.7-2.3 10.148-.9 9.25.5 3.949-16.91 16.302-12.162 12.126-7.424 7.919-7.848 8.52-9.827 11.064-3.783-3.535-20.237-20.45-11.999-12.548-14.348-15.249L451.91 83.9l-1.95-6.049-1.55-5.05 3.35-3.149.55-2.2-.95-4.05-3.8-2.899-3.2-2.05-2.249-12.548 3.15-3.95 3.75-5.8 1.2-2.4 2.449-9.248.7-4.675.659-1.772z" fill="#ddddad"/><path d="M580.035 21.39l6.03 2.54 6.385 2.837 6.982 3.41.294.371-7.788 4.412-7.712 6.534-6.477 8.607-4.408 8.548-2.451 7.393-2.606 11.111-.902 8.343.137 5.638-5.623 4.9-6.567 6.447-7.751 7.262-5.013 5.224-9.801 10.423-5.954 6.033-9.974 11.521-3.364 3.393c9.464-11.028 10.94-36.841 7.163-47.842-3.17-9.236-15.948-24.493-41.436-18.769l41.243-23.052 16.844-11.398 37.789-25.8z" fill="#aeae78"/><path d="M513.005-152.322l2.933 9.402s-1.747 11.617-7.898 18.299c1.12-7.505 2.12-11.847 2.384-17.944l1.128-3.04.817-7.248z" fill="#a78f87"/><path d="M498.18-126.286c4.054-1.817 10.163-2.753 14.581-3.066 3.877-.276 12.505-.17 15.836 3.38.398.423 1.173-.175.483-1.014-3.114-3.79-13.06-3.428-16.512-3.332-3.452.097-13.71 2.016-15.86 3.887-.938.815-2.208 1.793 1.472.145z" fill="#3f3d38"/><path d="M400.495-137.795l1.028 5.975 2.366 8.914 2.653 7.24 2.891 5.617 3.705 5.019-.287-1.888-2.103-7.433-1.076-8.747.12-6.978.884-6.978 2.342-9.68 2.247-5.567 3.274-6.572-1.1 4.612-1.008 5.287-.321 5.103-.186 4.04.017 4.748.44 4.393.49 4.14 1.436 5.476 2.873 8.212 1.15 2.028.76-4.951 2.078-14.6 2.653-10.697 2.011-6.608 2.234-6.284 1.218-1.984-.047 2.796-.12 6.787.67 4.9 1.17 5.042 2.008 6.477 2.366 5.4.12-1.577-1.004-5.448-.622-6.525.168-7.862.717 1.816 1.266 5.425 1.816 5.138 2.103 4.756 2.51 4.947 3.25 5.234.048-1.65-.191-7.36.167-4.54.67-6.501 1.17-6.238.687-3.459 1.96-6.354 2.096-5.508 2.602-5.847 1.15-2.028.81 1.96 1.116 2.4 1.25 2.906 1.386 4.292 2.13 7.503 1.419 6.963 1.183 7.74.405-2.57-1.284-9.564-1.555-6.928-2.433-7.368-2.974-7.672 2.061 1.859 5.273 7.165 2.737 4.934 2.13 4.867 1.994 5.543 1.318 5.272.27-2.095-1.318-6.287-2.433-6.016-2.738-5.576-3.076-4.935-2.805-3.751-1.014-1.521 2.535 1.791 3.515 3.38 3.042 3.65 3.447 5.07 2.467 4.427 2.759 6.092 2.294 5.783 1.936 5.497 1.458 5.473 1.553 7.647.55 4.158.908-2.342 2.127-10.252 1.434-11.71-.096-10.11-1.243-8.698-2.103-7.385 1.1.574 3.178 5.162 2.94 5.879 2.092 5.212 1.757 5.644 1.116 5.205 1.42 7.841.371 2.94 1.15-1.453 3.109-6.387 2.568-8.044 1.082-7.74.169-2.061.642 1.79 1.791 5.07 1.453 5.003 1.217 5.914.473-2.535-.371-6.15-.676-4.901 1.081 1.69 2.4 5.61 2.082 6.447 1.41 5.974.74 5.377.43 4.756.67-1.768 1.362-6.166 1.22-6.74.931-8.125.359-5.998-.12-8.365-.55-6.476 1.004 1.29 1.84 4.015 2.342 6.74 1.124 4.946.836 4.971.502 5.282v7.289l-.31 4.947.931-1.076 2.581-7.671.168 2.581-1.434 163.99-.359 7.959-1.003 6.811-2.056 12.045-2.246 8.89-2.772 9.512-3.06 8.268-2.771 6.453-3.442 6.5 2.247-1.768 3.393-2.82 4.493-4.923 4.11-5.019 4.876-6.93 4.397-7.935 3.25-6.93 2.151-6.405 1.339-4.636.812 1.72 1.147 5.832.622 5.449.477 6.213.096 7.026-.334 6.74 1.386-2.82 2.867-11.233 2.39-11.04 1.912-11.472 1.29-9.846.957-10.276.573-6.692.547-6.552 3.819 1.402 16.76 6.202 14.1 7.312-1.338-20.504-1.1-24.902-.716-17.685-.047-13.383.908-15.056 1.96-22.465 1.959-18.163 1.96-15.008-2.82-7.026-5.115-12.284-5.018-11.567-6.835-14.96-6.023-11.28-5.496-8.46-5.545-7.695-4.97-5.162-4.063-3.298-10.181-6.262-8.078-4.302-8.03-3.728-7.551-3.059-10.755-3.632-9.607-2.438-10.467-1.625-10.42-1.052-12.595-.286-9.463.215-5.45.573-7.742 1.506-10.061 2.772-8.245 3.465-5.736 3.155-6.995 4.028-6.658 5.002-3.177 6.185-3.582 10.072-2.028 8.787-.473 3.988-1.487 9.734-.305 8.45-.946 3.582-.338 10.612.473 7.706.575 4.732.777 5.103.811 4.225.98 2.23-.405-3.92-.778-6.455-.202-8.146z" fill="#726c5e"/><path d="M417.87-122.357l-.104 91.454.406 1.893 1.25 3.329 1.69 7.216.389 4.883-.136 4.665 1.37-2.738.76.963 1.115 2.501 2.653 4.715 1.082 3.21-.034 5.374-.17 9.058-.608 9.835-1.892 5.577-1.555 4.461-.54 3.312.608 3.887 1.757 6.083.423.053.49-.188 12.606 8.247 4.9 3.075-.202-1.757-1.656-9.26-.879-6.828-.473-7.57.135-11.627V1.391l-.135-22.24.118-24.452-1.538-1.554-6.156-6.43-3.061-3.418-2.627-4.873-2.142-6.14-.275-4.753-.12-4.43-.216-5.442.205-6.6-.437-4.45-.239-7.6-.956-5.712-.693-3.633-.812-.908-1.578-2.916-1.84-5.114zM448.34 73.108l3.25 8.867.717 2.079-1.577-1.171-3.203-3.011-2.963-2.247-1.004-.765 2.151-1.649z" fill="#7e7768"/><path d="M426.258 47.896l-1.577-4.804-.909-5.95.43-3.872 2.128-5.569 1.075-2.748.454-5.425.478-10.3.143-9.13-.788-3.058-1.96-3.394-2.605-5.4-1.481 2.365-1.697 4.015-.646 1.984-.501 3.871-1.22 8.46-1.075 2.844-2.963 1.912-3.609 1.338-2.198-.239-3.203-3.226-8.101-8.795-3.824-3.847-.574-1.028-.215-3.226-1.147-9.512-1.027-3.871 2.079-6.023 1.17-7.432.096-3.322-.884-1.745-2.055-.645-2.653.932-1.386 1.076-1.219 2.461-3.99 12.595-.55 1.266 1.673 13.79.884 5.257-1.673-.908-.908-1.553-1.601-6.31-2.295-6.38-1.051-1.888.788-2.438.614-7.21-.338-4.832-.878-2.18-2.35-2.518-2.314-1.2-.76.186-.136.845.101 4.546-.98 1.453-4.613 6.523-2.4 2.687.102 1.555.726 14.55-.405 4.258.034 4.427v3.177l1.318 5.915 1.656 5.441 1.69 4.326 2.5 4.935 2.197 2.602 28.83 30.147 2.4-.574 8.854-3.515 8.112-3.38 4.799-2.805z" fill="#f3e1d8"/><path d="M463.752-158.306c-2.227 5.409-7.215 19.651-4.726 39.528-7.487-15.861-7.88-21.576-8.022-24.192 2.025-7.682 4.38-17.676 8.726-24.836l.955 1.379zM461.469-167.867l1.333.43 5.088 7.028c2.9 5.424 8.418 28.599 7.46 37.483-1.15-14.323-9.524-33.871-9.874-34.771-.35-.9-4.007-10.17-4.007-10.17z" fill="#a78f87"/><path d="M536.594-123.402l2.358-6.55 2.874-12.124.725-9.849-.65-12.248-2.1-8.774-4.049-7.65s-3.316-9.475-8.45-14.732c-5.478-5.61-31.647-26.352-61.464-28.741 25.975 7.598 50.023 28.771 56.298 40.466 3.503 6.526 4.978 14.046 6.54 18.444.968 2.73 1.594 3.218 2.745 5.808.318.715 1.102 2.921 1.102 2.921l2.016 6.48 1.24 5.649.823 6.517.289 7.872z" fill="#544e43"/><path d="M518.145 22.864l.748 6.08-.105 5.623-.8 6.253-.64 2.805c-1.226-5.21-8.156-20.584-18.658-19.792-5.534.417-22.98 27.498-26.293 33.592l8.612-19.123 5.247-10.265 6.678-9.273 7.647-8.548 6.69-4.942 1.064.456 3.81 2.818 3.875 6.358z" fill="#426959"/><path d="M473.809-224.317c8.499 0 18.869 1.292 18.869 1.292l15.484 2.474 15.201 4.808 15.272 6.54 11.56 6.328 9.004 5.455 4.4 4.05 5.25 6 3.549 4.899 5.45 8.499 5.099 9.049 5.2 11.048 4.449 10 8.699 20.197 3 7.75-3.25 26.246-1.7 17.499-1.8 22.797-.3 12.799.75 19.647 1.1 23.948 1.45 23.597-2.45-1.1-5.55-2.95-7.149-3.099-7.349-3-5.95-2.25-6.248-2.15.2-17.297-.3-35.996-1.342-125.66c-8.908-15.484-24.428-32.192-39.104-41.072-14.675-8.88-41.242-16.742-62.453-20.206z" fill="#544f45"/><path d="M564.97-168.12l.992 172.051-.072 9.863-.99 16.722-3.322 24.675-1.662 9.439-3.429 13.964s-.954 4.03-2.298 7.635c.664-2.948.516-12.532-.49-20.714-.924-7.512-2.687-13.79-2.687-13.79L527.435 94.3l-6.008 5.57 5.042-10.156 2.254-5.26 4.484-15.152 1.117-3.902 1.201-5.667.884-5.144 1.46-6.999c-.335-68.98 4.651-153.136.626-222.023-11.787-18.335-24.856-34.465-61.5-48.223l40.528 11.1 27.323 18.427z" fill="#544f45"/><path d="M521.817 99.742l3.2-2.75 6.199-6.2 7.349-9.748 5.7-9.3 4.599-10.548 2.95-9.6 1.65-7.798s.45-11.3.2-25.248c-.35 10.85-2.895 28.419-7.8 40.796-4.905 12.377-24.047 40.396-24.047 40.396z" fill="#544e43"/><path d="M432.44-54.363l4.666 5.09 3.924 3.641.176 20.363-.035 59.744.707 9.297 2.44 14.707-8.184-5.365s-1.518.987-3.748-17.18c-2.23-18.168.053-90.297.053-90.297z" fill="#544f45"/><path d="M463.23-81.584s3.595 3.973 3.641 6.116c.047 2.142-3.5 4.277-3.5 4.277l-.954-2.05-1.343-1.167-.283-.954 1.343-1.237.672-2.44z" fill="#d3b7a4"/><path d="M410.627-40.997l5.245 6.592 3.52 9.1 1.654 7.37.316 7.33-.48 3.178-2.008 6.21-.756 6.147-.952 5.082-1.294 2.244-1.934 1.246-3.473 1.616.272-1.353 1.959-5.294 1.25-9.62.182-7.443-.552-8.915-1.59-6.95-2.904-6.996-3.581-5.476-4.266-4.728L394.2-46.9l-10.168-2.412c.507-1.75.21-3.559-.543-5.4 1.712-2.71 3.61-5.42-.818-8.131l5.155-.089 3.5.082 2.84 1.17.932 1.59-1.94 2.332-3.012 1.79-1.847-.062.443 6.3 8.936 1.554 8.12 3.19z" fill="#444"/><path d="M389.468-37.387s-4.086 16.177-4.077 17.504c.01 1.327 2.408 16.871 2.818 18.326.41 1.455 10.522 15.43 16.265 18.2 5.744 2.772 7.876 7.057 7.937 12.735.06 5.678-1.903 6.811.554 16.726.8 1.8 3.8 7.199 3.8 7.199l5.7-2.6 3.749-2.6-1.05-2.95-1.3-5.899.05-4.7 1.55-4.799 1.95-4.4.35-3.749.55-8.799.05-12.998-.65-2.3-1.75-3.25-2.2-4.25-.55-1.7-2.1 3.7-1.45 3.4-.5 2.8-.6 5.35-1.05 5.099-.649 2.6-3 2.5-3.45 1.549-2.15-.35-3.099-2.5-5.35-5.8-6.348-6.998-1.55-1.7-.5-7.85-1.35-7.998-.4-1.15 1.35-3 1.9-9.449.1-3.6-.75-2.05z" fill="#a78f87"/><path d="M373.68-36.147l2.49 3.21.45 5.899-.45 6.449-.9 3.05.85 1.4 2.1 5.899 1.949 6.799.2 1.2 2.25 1.75.7 2.8 1.5 2.65 4.649 6.248 7.65 8.15c-4.9-2.95-17.478-17.188-18.698-19.01-1.221-1.82-6.317-16.324-6.525-18.049-.208-1.724 2.351-10.314 1.786-18.445z" fill="#af8c7f"/><path d="M369.372-26.33c-1.131 4.101-2.192 8.662-2.192 8.662l1.733 4.913 2.191 6.894.743 5.055-.142 1.379 1.945 2.05 1.343 1.768 16.51 20.468c-8.697-8.625-22.416-21.032-23.015-23.155-.598-2.123-2.529-19.209-2.227-21.034.302-1.825 1.467-2.563 3.111-7z" fill="#a78f87"/><path d="M366.87 7.458l11.174 16.823s-7.282-7.892-8.298-9.5c-1.016-1.61-2.876-7.323-2.876-7.323z" fill="#d3b7a4"/><path d="M425.814 48.503l-3.55 2.5-8.199 3.7-7.999 3.35-4.7 1.75-2.749-.1-1.1 6.048-1.05 15.749.05 5.849.4 2.2 1.9 1.9 3.15 1.55 5.4.15 6.048-1.65 6.95-2.3 9.049-4.1 10.898-5.999 9.2-6.85 2.4-2.549.5-2.95-.75-2.9-2.7-2.25-21.748-14.248h-.5z" fill="#ddddad"/><path d="M417.065 53.803c7.95 15.348 3.35 34.946 3.35 34.946l5.299-2.05 8.999-4.35 9.949-6.399 6.55-5.45 1.1-3.599-.75-2.85-2.3-2.05-11.45-7.798-11.048-7.05-1.4 1.9-5.3 2.95z" fill="#aeae78"/><path d="M416.015 92.548l12.199 21.398 19.948 33.546 6.449 11.35 7.699 10.748 7.75 9.699 10.548 12.149 9.149 9.049 6.1 4.5 4.999 2.449 5.95.85 6.148-.9 6.7-3.2 9.754-7.519 38.463-33.23 16.19-15.342 12.656-13.363-.707 2.05-22.625 57.623-20.645 55.572-.023 3.471 3.545 6.718 5.931 9.72 16.62 34.836-176.201-.348 6.642-16.305 10.065-22.152 9.337-17.354.565-13.504-.353-20.433-1.697-30.614-1.343-15.555-1.768-11.595-1.555-3.465-7.07-9.898-6.293-12.232-2.121-6.929v-4.878l2.474-9.616 3.465-10.04z" fill="#ddddad"/><path d="M528.285 36.083l-6.353 5.866-4.179 1.833.006-.557 1.138-15.486c12.39-14.208 13.422-27.979 11.729-32.644l8.27-4.67-.163 32.145-.212 1.183-.694 1.016-4.294 5.402zM460.366 70.114l-.952-11.054-.403-9.207.1-6.15.453-6.318 1.19-10.633 2.075-15.843 1.135-1.591c-1.386 11.04-3.352 31.494-3.415 38.052-.065 6.675 1.151 24.721 2.68 33.181l-1.115 3.095-.929-6.527z" fill="#426959"/><path d="M525.742 52.847l-21.388 13.217-17.42 9.694-24.843 11.236c9.082-5.831 28.115-17.645 40.814-27.78 16.175-11.03 24.086-21.311 35.784-35.164l-.14 12.127-.473 4.685-.207 4.209zM473.936 30.403l1.295 7.087.84 9.065c-2.112-13.109-7.234-29.785-11.662-37.991l1.666-1.327 4.856 11.625z" fill="#426959"/><path d="M507.099 4.934c-13.486 8.574-22.23 24.231-26.714 33.652a147.255 147.255 0 00-1.524 3.314c-1.43 3.204-9.665 19.595-17.117 42.051l.433 1.037c7.434-22.402 15.9-39.464 17.378-42.778.436-.976.942-2.086 1.519-3.297 4.437-9.32 13.11-24.721 26.25-33.177 4.424 1.694 7.908 6.935 9.739 13.927 1.853 7.078 2.033 15.852-.03 24.201l-.135.537.548-.068c1.84-.22 4.038-1.645 6.39-3.613 2.352-1.968 4.838-4.498 7.113-7.006 4.551-5.015 7.853-9.404 7.853-9.404l-.209-.983s-3.69 4.89-8.214 9.873c-2.261 2.492-4.727 5.007-7.034 6.938-2.111 1.768-4.002 2.805-5.481 3.145 1.9-8.248 1.77-16.811-.063-23.812-1.889-7.216-5.484-12.81-10.364-14.57-.107-.052-.244-.026-.338.033z" style="line-height:normal;font-variant-ligatures:normal;font-variant-position:normal;font-variant-caps:normal;font-variant-numeric:normal;font-variant-alternates:normal;font-feature-settings:normal;text-indent:0;text-align:start;text-decoration-line:none;text-decoration-style:solid;text-decoration-color:#000;text-transform:none;text-orientation:mixed;white-space:normal;shape-padding:0;isolation:auto;mix-blend-mode:normal;solid-color:#000;solid-opacity:1" color="#000" font-weight="400" font-family="sans-serif" overflow="visible" fill="#39554a"/><path d="M458.993 14.518c-3.124 6.678-5.077 7.779-5.425 9.53-.8.25-1.6 2.926-1.6 2.926l1.675-7.825 1.75-4.55 2.574-5.998 4.425-5.95 1.186-.836 2.837 5.396-3.938 3.98z" fill="#426959"/><path d="M474.166-1.563l.34 7.061 1.078 14.022 1.291 23.77.003 3.442-.527.65-1.649-13.994-3.016-12.736-5.172-14.122-1.856-5.395-.002-2.944.697-2.899 1.43-3.424 2.069-3.782 4.669-6.936.268 4.79z" fill="#426959"/><path d="M489.338 22.557l-4.652 7.831-4.126 7.956-3.184 6.993-.345-5.963-.302-2.338-.234-4.382-.767-8.77-.218-5.633-.643-6.826-.462-8.758-.332-6.24-.236-17.914c3.193 13.93 6.559 30.755 15.5 44.044z" fill="#a78f87"/><path d="M442.434 46.547c1.658-2.726 4.806-6.746 6.385-9.527.063-.11.445-.615.598-.885a3.577 3.577 0 00-.247-.916s-.818 1.09-1.045 1.485c-1.484 2.579-4.985 7.39-6.015 8.972m-26.38 46.177a197.208 197.208 0 00-4.954 12.87c-1.54 4.483-2.694 8.484-3.41 11.725-.717 3.24-1.006 5.697-.757 7.214 1.787 10.856 11.87 25.441 15.756 30.327.234.294.53.931.808 1.829.278.897.554 2.059.824 3.443.54 2.77 1.054 6.428 1.53 10.681.951 8.507 1.754 19.396 2.32 30.383.566 10.987.897 22.071.92 30.97.012 4.45-.056 8.353-.209 11.42-.153 3.065-.405 5.315-.717 6.363v.006c-5.62 9.477-27.701 53.748-33.668 78.566-4.81 20.005-13.669 70.308-30.519 102.795l.678.35c16.947-32.675 25.794-83.036 30.586-102.965 5.922-24.63 28.119-69.187 33.618-78.441l.029-.04.011-.045c.363-1.217.597-3.46.75-6.548.155-3.089.216-7.002.204-11.46-.023-8.917-.354-20.012-.92-31.01-.566-10.998-1.366-21.897-2.32-30.428-.477-4.266-.994-7.94-1.541-10.743-.274-1.402-.556-2.59-.847-3.528-.292-.939-.58-1.628-.937-2.078-3.824-4.806-13.875-19.466-15.604-29.97-.21-1.282.043-3.727.75-6.927.708-3.201 1.856-7.178 3.388-11.641a195.708 195.708 0 014.726-12.322" style="line-height:normal;font-variant-ligatures:normal;font-variant-position:normal;font-variant-caps:normal;font-variant-numeric:normal;font-variant-alternates:normal;font-feature-settings:normal;text-indent:0;text-align:start;text-decoration-line:none;text-decoration-style:solid;text-decoration-color:#000;text-transform:none;text-orientation:mixed;white-space:normal;shape-padding:0;isolation:auto;mix-blend-mode:normal;solid-color:#000;solid-opacity:1" color="#000" font-weight="400" font-family="sans-serif" overflow="visible" fill="#8e8e62"/><path d="M539.203-10.195l-.462.231c-.077.039-.126.073-.249.147l-.508.305c-.428.255-1.034.617-1.812 1.056a108.25 108.25 0 01-6.594 3.41c-5.61 2.671-13.514 5.89-22.886 8.18l-.079.023-.062.045s-8.98 6.792-13.65 13.232c-5.004 6.902-11.601 18.501-15.22 28.502l1.333-1.568c3.58-9.897 9.53-19.63 14.502-26.488 4.524-6.24 13.372-12.967 13.453-13.03 9.39-2.303 17.311-5.523 22.937-8.202a108.537 108.537 0 006.639-3.438c.784-.442 1.403-.809 1.834-1.067l.175-.107c.023.446.05.94.045 1.586-.006.887-.028 1.683-.028 1.683v.005l-.283 29.768.465-.342.381-29.409.062-1.716.092-2.292z" style="line-height:normal;font-variant-ligatures:normal;font-variant-position:normal;font-variant-caps:normal;font-variant-numeric:normal;font-variant-alternates:normal;font-feature-settings:normal;text-indent:0;text-align:start;text-decoration-line:none;text-decoration-style:solid;text-decoration-color:#000;text-transform:none;text-orientation:mixed;white-space:normal;shape-padding:0;isolation:auto;mix-blend-mode:normal;solid-color:#000;solid-opacity:1" color="#000" font-weight="400" font-family="sans-serif" overflow="visible" fill="#39554a"/><path d="M474.366-13.65l-.756-.09s-.07 4.293 0 8.744c.036 2.226.073 4.542.153 6.48.08 1.947.214 3.365.335 4.132.061.386.262 2.777.262 2.777.279.11.588 5.657.82 5.358 0 0-.419-7.617-.458-7.999-.108-1.06-.129-2.359-.197-4.29a345.328 345.328 0 01-.153-6.47c-.124-2.843.082-5.885-.006-8.643z" style="line-height:normal;font-variant-ligatures:normal;font-variant-position:normal;font-variant-caps:normal;font-variant-numeric:normal;font-variant-alternates:normal;font-feature-settings:normal;text-indent:0;text-align:start;text-decoration-line:none;text-decoration-style:solid;text-decoration-color:#000;text-transform:none;text-orientation:mixed;white-space:normal;shape-padding:0;isolation:auto;mix-blend-mode:normal;solid-color:#000;solid-opacity:1" color="#000" font-weight="400" font-family="sans-serif" overflow="visible" fill="#987567"/><path d="M513.848 147.131l19.164-21.6 18.57-18.918 16.5-16.131-.823-.915.1-6.149 1.195-7.204 2.068-10.127 3.447-8.923 3.524-6.003 4.108-6.443 7.098-7.58 10.341-6.3 1.239-.344 6.306 4.232 7.029 5.53 10.276 8.697 6.94 9.069 2.036 7.535-.371 7.532-1.08 5.902-3.493 8.808-5.314 10.833-6.48 11.393-10.68 14.355-11.314 12.465-13.62 14.287-12.076 11.494-8.371 7.578-26.193 22.174-11.287 9.517-6.024 3.83-7.428 2.31-3.914.138-5.858-1.402-7.422-4.414-10.19-9.597-16.903-19.762-8.286-11.652c28.467 37.319 56.744 27.634 62.152 20.897 5.407-6.738 4.525-27.112-35.988-55.882zM575.025 19.254l-9.798 6.67.62-9.773z" fill="#426959"/><path d="M475.21 107.561l11.058 11.46 16.498 17.212 21.618 21.23c-32.643-22.794-79.752-61.325-102.297-69.107l4.459-2.002 10.872-5.71 5.78-3.853 6.067 4.589 6.987 6.848z" fill="#426959"/><path d="M588.335 155.456l-6.183 16.233-11.555 29.091-2.706 7.44-1.263 3.553-6.899 18.215-4.204 11.164-3.107 9.586.42 4.215 4.967 7.863 4.748 8.548 5.834 11.16 7.184 15.833 2.928 6.452-35.426 17.126-27.364 4.444s1.73-34.386-23.506-72.719c4.603-19.228 2.41-38.78-3.002-46.272-4.61-7.715-24.322-32.021-26.966-37.456l11.564 14.15 5.674 6.269 4.184 4.02 3.758 4.127 6.518 5.492 3.636 2.286 4.925 1.453 5.543.61 7.694-2.362 8.317-5.078 15.286-12.479 11.414-9.746 13.55-12.078 12.506-11.492 19.746-19.725z" fill="#aeae78"/><path d="M596.607 134.264c-7.075 17.497-17.08 43.019-25.692 65.316-8.612 22.297-15.818 41.34-17.33 45.981-.829 2.543-2.616 6.628-.153 10.641 1.686 2.748 7.4 11.591 13.56 24.06a546.983 546.983 0 0115.378 34.008c1.402 3.413 5.588 14.06 9.874 27.329 5.876 18.193 13.156 42.128 19.075 62.16 2.96 10.016 5.583 19.059 7.514 25.918 1.93 6.859 3.18 11.588 3.376 12.792l.75-.119c-.224-1.387-1.46-6.018-3.392-12.882s-4.554-15.905-7.514-25.923c-5.92-20.038-13.202-43.98-19.081-62.183-4.294-13.294-8.485-23.95-9.896-27.386a547.54 547.54 0 00-15.4-34.052c-6.181-12.51-11.929-21.408-13.595-24.122-2.256-3.677-.621-7.386.232-10.004 1.48-4.545 8.703-23.647 17.314-45.941 8.611-22.295 18.72-48.153 25.793-65.643z" style="line-height:normal;font-variant-ligatures:normal;font-variant-position:normal;font-variant-caps:normal;font-variant-numeric:normal;font-variant-alternates:normal;font-feature-settings:normal;text-indent:0;text-align:start;text-decoration-line:none;text-decoration-style:solid;text-decoration-color:#000;text-transform:none;text-orientation:mixed;white-space:normal;shape-padding:0;isolation:auto;mix-blend-mode:normal;solid-color:#000;solid-opacity:1" color="#000" font-weight="400" font-family="sans-serif" overflow="visible" fill="#8e8e62"/><path d="M426.25 172.488l1.055 15.853.816 13.63.932 18.521-.08 14.988-.373 12.656-5.087 9.13-5.15 10.27-8.165 17.815-4.968 11.218c5.225-16.878 12.511-32.692 14.909-50.896 2.84-21.555-.445-46.371-2.53-67.291-2.6-26.067-4.606-33.795-7.995-45.79l3.78 7.154 5.787 9.273 4.056 5.947 1.63 6.503z" fill="#426959"/><path d="M402.855 9.722l-7.903-8.685-2.935-3.234-2.266-16.458.637-1.332 1.358-5.112.659-3.926.482-2.927.03-3.005-.67-2.088-1.517-.899c1.19-.555 3.887-.197 4.99 1.569 1.083 1.732.547 11.914-1.785 18.538.913.71 2.5 12.092 2.196 15.607 0 0 11.402 11.63 15.458 13.489l-1.51 3.753-2.624-.679zM381.585-6.484l1.042 5.824-2.076-1.536-.73-3.01-2.697-8.443-1.908-3.76.596-2.925.665-3.688.149-6.024-.771-3.501-1.844-2.126s2.406-1.42 3.566-.514c4.419 3.448 1.977 18.419 1.977 18.419zM371.945.402l-.627-4.762 2.974 7.073z" fill="#444"/><path d="M452.024 83.481l-8.121-6.848 4.28-3.628z" fill="#544e43"/><path d="M463.173-81.797c-.28-.014-.42.503-.4.921.112 2.437-.83 4.155-1.703 4.927-.286.253-.476.507-.57.784-.094.277-.068.567.034.802.204.47.623.753 1.005.988.683.42 1.02.927 1.232 1.586.15.464.414.845.64.766.227-.079.195-.511.088-.907-.203-.759-.627-1.52-1.56-2.094-.34-.21-.629-.468-.705-.644a.302.302 0 01-.012-.254c.037-.106.135-.262.356-.457 1.158-1.022 1.922-2.838 1.922-5.522 0-.363-.046-.882-.327-.896z" style="line-height:normal;font-variant-ligatures:normal;font-variant-position:normal;font-variant-caps:normal;font-variant-numeric:normal;font-variant-alternates:normal;font-feature-settings:normal;text-indent:0;text-align:start;text-decoration-line:none;text-decoration-style:solid;text-decoration-color:#000;text-transform:none;text-orientation:mixed;white-space:normal;shape-padding:0;isolation:auto;mix-blend-mode:normal;solid-color:#000;solid-opacity:1" color="#000" font-weight="400" font-family="sans-serif" overflow="visible" fill="#987567"/><path d="M453.507-110.35c.147.377-.36.967-.743-.053-.513-1.365-1.753-3.107-2.284-3.598-.284-.263-.107-1.361.83-.2.712.884 1.615 2.361 2.197 3.851z" fill="#987567"/><path d="M452.6 12.408s-.55.305-1.294.712c-3.42 1.872-10.165 5.783-10.165 5.783l.367.666 10.261-5.753.66-.605z" style="line-height:normal;font-variant-ligatures:normal;font-variant-position:normal;font-variant-caps:normal;font-variant-numeric:normal;font-variant-alternates:normal;font-feature-settings:normal;text-indent:0;text-align:start;text-decoration-line:none;text-decoration-style:solid;text-decoration-color:#000;text-transform:none;text-orientation:mixed;white-space:normal;shape-padding:0;isolation:auto;mix-blend-mode:normal;solid-color:#000;solid-opacity:1" color="#000" font-weight="400" font-family="sans-serif" overflow="visible" fill="#39554a"/><path d="M444.873 58.786c-2.574-11.708-3.32-21.44-3.32-26.753v-76.942l-.762-.658v77.6c0 5.283.72 14.8 3.188 26.268m4.035 15.067c1.12 3.47 2.402 7.014 3.868 10.587l1.193.873a144.752 144.752 0 01-4.41-11.948" style="line-height:normal;font-variant-ligatures:normal;font-variant-position:normal;font-variant-caps:normal;font-variant-numeric:normal;font-variant-alternates:normal;font-feature-settings:normal;text-indent:0;text-align:start;text-decoration-line:none;text-decoration-style:solid;text-decoration-color:#000;text-transform:none;text-orientation:mixed;white-space:normal;shape-padding:0;isolation:auto;mix-blend-mode:normal;solid-color:#000;solid-opacity:1" color="#000" font-weight="400" font-family="sans-serif" overflow="visible" fill="#45433e"/><path d="M468.258-54.986l2.96 2.69-.346 1.493-1.285 1.162-1.986-.524-1.548-1.324-1.118-2.76.436-1.125 1.198-.24z" fill="#895a5a"/><path d="M422.3-111.001c2.349 8.488 2.364 18.182 2.413 22.858.029 2.715.09 6.416.182 10.54.087 3.922.056 6.21.551 9.199.349 2.1 1.114 6.122 3.423 9.825 1.37 2.196 2.488 3.705 4.552 5.942 2.168 2.35 5.48 5.88 12.187 11.399 3.354 2.76 6.755 5.459 9.665 7.638 2.91 2.18 5.309 3.837 6.735 4.55 5.503 2.752 7.86 2.633 13.808 1.812 1.546-.213 4.67-1.016 8.626-2.14 3.956-1.122 8.72-2.565 13.464-4.064a538.81 538.81 0 0013.329-4.386c3.861-1.336 6.845-2.45 8.191-3.105 2.638-1.284 6.13-3.593 9.05-5.86 1.46-1.133 2.771-2.254 3.765-3.235.994-.98 1.562-1.803 1.863-2.484.42-.95.044-1.597-.74-.192-.17.305-.699 1.18-1.66 2.129-.96.948-2.26 2.058-3.703 3.178-2.884 2.24-6.357 4.539-8.908 5.78-1.249.609-4.254 1.733-8.107 3.066a537.424 537.424 0 01-13.306 4.381c-4.738 1.497-9.501 2.94-13.447 4.059-3.945 1.12-7.094 1.915-8.518 2.111-5.934.819-7.947.972-13.368-1.738-1.306-.653-3.72-2.308-6.617-4.477-2.896-2.17-6.29-4.856-9.636-7.61-6.693-5.508-10.203-9.291-12.231-11.456-1.822-1.945-3.33-3.926-4.647-6.265-2.298-4.083-2.757-7.358-2.992-8.805-.722-4.442-.452-5.252-.607-9.232a308.79 308.79 0 01-.208-10.454c-.018-5.455.045-15.324-2.636-24.157z" style="line-height:normal;font-variant-ligatures:normal;font-variant-position:normal;font-variant-caps:normal;font-variant-numeric:normal;font-variant-alternates:normal;font-feature-settings:normal;text-indent:0;text-align:start;text-decoration-line:none;text-decoration-style:solid;text-decoration-color:#000;text-transform:none;text-orientation:mixed;white-space:normal;shape-padding:0;isolation:auto;mix-blend-mode:normal;solid-color:#000;solid-opacity:1" color="#000" font-weight="400" font-family="sans-serif" overflow="visible" fill="#987567"/><path d="M462.345 10.57s-2.398 18.241-3.415 29.53c-.653 7.248.08 18.997.97 28.961a518.9 518.9 0 001.948 18.133l.063.49.457-.185s32.457-13.318 61.86-33.031c4.807-3.222 9.494-6.386 13.956-9.416l-.429-.633c-4.461 3.03-9.145 6.196-13.95 9.417-28.974 19.425-60.506 32.428-61.257 32.737-.057-.45-1.02-7.918-1.885-17.58-.89-9.947-1.613-21.703-.971-28.824 1.014-11.256 3.434-29.853 3.434-29.853zm112.691 8.58c-1.376.784-5 3.224-10.29 6.832l.428.632c5.288-3.606 8.959-6.067 10.24-6.797z" style="line-height:normal;font-variant-ligatures:normal;font-variant-position:normal;font-variant-caps:normal;font-variant-numeric:normal;font-variant-alternates:normal;font-feature-settings:normal;text-indent:0;text-align:start;text-decoration-line:none;text-decoration-style:solid;text-decoration-color:#000;text-transform:none;text-orientation:mixed;white-space:normal;shape-padding:0;isolation:auto;mix-blend-mode:normal;solid-color:#000;solid-opacity:1" color="#000" font-weight="400" font-family="sans-serif" overflow="visible" fill="#8e8e62"/><path d="M466.33-224.692c-6.786 0-19.717 1.658-30.67 5.99-6.625 2.62-12.643 5.96-17.128 8.744-4.485 2.785-7.405 4.991-7.937 5.431-.307.254-.608.685-1 1.332a32.366 32.366 0 00-1.349 2.53c-1 2.06-2.181 4.833-3.347 8.084-2.332 6.5-4.909 17.889-5.589 26.251l1.061-2.925c.672-8.266 2.935-16.614 5.25-23.067 1.158-3.226 2.328-5.98 3.314-8.01a31.715 31.715 0 011.315-2.467c.374-.618.697-1.03.83-1.14.43-.357 3.395-2.602 7.853-5.37 4.457-2.767 10.444-6.085 17.01-8.682 10.822-4.28 23.726-5.933 30.388-5.933 7.172 0 26.542-.448 45.828 4.906 20.799 5.774 41.103 17.73 47.63 22.66 5.862 4.428 17.006 18.826 25.98 38.28a934.147 934.147 0 0112.091 27.392 479.322 479.322 0 014.014 9.766c1.001 2.537 1.64 4.305 1.83 5.013-1.507 9.362-6.208 54.038-6.617 70.645-.523 21.223 2.095 56.35 3.041 76.009l.696.366c-.947-19.68-3.496-55.212-2.975-76.352.407-16.524 5.146-61.532 6.622-70.657l.012-.079-.023-.073c-.212-.808-.86-2.578-1.875-5.149a476.426 476.426 0 00-4.02-9.789 935.031 935.031 0 00-12.103-27.413c-9.014-19.542-20.089-33.945-26.21-38.569-6.66-5.03-26.953-16.972-47.89-22.784-19.423-5.392-38.892-4.94-46.031-4.94z" style="line-height:normal;font-variant-ligatures:normal;font-variant-position:normal;font-variant-caps:normal;font-variant-numeric:normal;font-variant-alternates:normal;font-feature-settings:normal;text-indent:0;text-align:start;text-decoration-line:none;text-decoration-style:solid;text-decoration-color:#000;text-transform:none;text-orientation:mixed;white-space:normal;shape-padding:0;isolation:auto;mix-blend-mode:normal;solid-color:#000;solid-opacity:1" color="#000" font-weight="400" font-family="sans-serif" overflow="visible" fill="#45433d"/><path d="M599.606 30.272c-16.786 7.527-25.115 22.47-29.093 35.586-2.011 6.632-2.919 12.805-3.246 17.343-.164 2.269-.184 4.13-.124 5.442.03.656.082 1.17.147 1.546.032.189.064.342.113.475a.76.76 0 00.101.192.446.446 0 00.282.203l.17-.751c.123.026.163.096.175.113.011.017-.001.006-.012-.023a2.248 2.248 0 01-.079-.339c-.055-.323-.1-.82-.13-1.456-.057-1.272-.043-3.109.119-5.352.323-4.487 1.22-10.607 3.212-17.173 3.983-13.133 12.328-28.022 29.231-35.35z" style="line-height:normal;font-variant-ligatures:normal;font-variant-position:normal;font-variant-caps:normal;font-variant-numeric:normal;font-variant-alternates:normal;font-feature-settings:normal;text-indent:0;text-align:start;text-decoration-line:none;text-decoration-style:solid;text-decoration-color:#000;text-transform:none;text-orientation:mixed;white-space:normal;shape-padding:0;isolation:auto;mix-blend-mode:normal;solid-color:#000;solid-opacity:1" color="#000" font-weight="400" font-family="sans-serif" overflow="visible" fill="#8e8e62"/><path d="M565.886 15.764l-.238.728c24.138 7.866 36.085 14.84 43.142 20.284 3.546 2.735 7.363 5.757 10.607 8.53 3.245 2.772 5.926 5.312 7.164 7.005 1.277 1.747 5.095 5.739 5.832 11.585.408 3.241.146 7.075-.294 10.28-.44 3.205-1.074 5.83-1.326 6.503-.598 1.59-6.33 15.756-14.667 29.101-8.354 13.372-29.89 36.297-45.732 50.853-3.614 3.32-14.364 12.668-24.721 21.56a2329.74 2329.74 0 01-14.31 12.193c-4.048 3.416-7.075 5.929-8.085 6.679-1.759 1.306-7.2 5.547-13.803 6.565-4.967.766-10.51-.554-15.552-4.335-11.789-8.842-34.251-35.575-43.322-52.163-4.74-8.667-12.089-20.682-18.907-32.003-6.817-11.32-13.395-22.597-15.975-28.425l-.7.31c2.626 5.934 9.195 17.186 16.015 28.51 6.82 11.324 14.172 23.339 18.895 31.975 9.16 16.75 31.531 43.402 43.536 52.405 5.189 3.892 10.946 5.282 16.129 4.483 6.855-1.058 12.416-5.431 14.141-6.712 1.076-.8 4.074-3.283 8.124-6.701a2343.17 2343.17 0 0014.31-12.2c10.36-8.894 21.1-18.228 24.744-21.576 15.882-14.593 37.404-37.473 45.862-51.011 8.383-13.418 14.098-27.543 14.735-29.237.325-.866.926-3.427 1.371-6.673.446-3.245.717-7.122.294-10.477-.772-6.13-4.805-10.343-5.973-11.94-1.33-1.821-4.027-4.349-7.288-7.136s-7.084-5.813-10.636-8.553c-7.137-5.506-19.18-12.523-43.372-20.407z" style="line-height:normal;font-variant-ligatures:normal;font-variant-position:normal;font-variant-caps:normal;font-variant-numeric:normal;font-variant-alternates:normal;font-feature-settings:normal;text-indent:0;text-align:start;text-decoration-line:none;text-decoration-style:solid;text-decoration-color:#000;text-transform:none;text-orientation:mixed;white-space:normal;shape-padding:0;isolation:auto;mix-blend-mode:normal;solid-color:#000;solid-opacity:1" color="#000" font-weight="400" font-family="sans-serif" overflow="visible" fill="#39554a"/><path d="M565-161.786c-.251-4.976-.776-2.308-.769.006 0 0 1.316 129 1.355 167.095.026 24.775-4.392 58.3-11.102 78.966.955-13.515-1.209-26.699-2.582-30.818l-.274-.994c.983-3.78 1.807-6.468 1.736-9.692-.009-.355-.166-1.614-.416-1.61-.252.006-.355 1.195-.346 1.627.07 3.192-1.025 6.697-2.035 10.509-1.796 6.78-4.531 14.326-8.572 21.336-5.9 10.235-13.23 19.338-19.878 24.342 9.982-17.132 16.925-49.465 16.925-64.875 0-20.915 1.35-165.605 1.35-165.605 0-.596.038-3.974.038-3.974s-.8 3.453-.8 3.969c0 0-1.356 144.662-1.356 165.61 0 15.664-7.418 49.858-17.816 66.185-.11.174-.739 1.041-.607 1.124.13.083.932-.456 1.143-.599 7.144-4.832 15.306-14.768 21.661-25.793 4.026-6.984 6.758-14.13 8.587-20.944 1.406 4.42 3.743 18.657 2.331 32.861-.011.125-.023 1.114.13 1.151.175.043.622-1.04.633-1.071 7.213-20.537 12.039-55.912 12.013-81.71-.038-38.111-1.35-167.095-1.35-167.095v-.001z" style="line-height:normal;font-variant-ligatures:normal;font-variant-position:normal;font-variant-caps:normal;font-variant-numeric:normal;font-variant-alternates:normal;font-feature-settings:normal;text-indent:0;text-align:start;text-decoration-line:none;text-decoration-style:solid;text-decoration-color:#000;text-transform:none;text-orientation:mixed;white-space:normal;shape-padding:0;isolation:auto;mix-blend-mode:normal;solid-color:#000;solid-opacity:1" color="#000" font-weight="400" font-family="sans-serif" overflow="visible" fill="#403d39"/><path d="M399.845-137.086l-2.015-7.105.53-9.192.39-.353.883 9.262.53 6.15z" fill="#544f45"/><path style="line-height:normal;font-variant-ligatures:normal;font-variant-position:normal;font-variant-caps:normal;font-variant-numeric:normal;font-variant-alternates:normal;font-feature-settings:normal;text-indent:0;text-align:start;text-decoration-line:none;text-decoration-style:solid;text-decoration-color:#000;text-transform:none;text-orientation:mixed;white-space:normal;shape-padding:0;isolation:auto;mix-blend-mode:normal;solid-color:#000;solid-opacity:1" d="M402.545-180.834c-4.634 13.297-4.803 29.29-2.456 43.543 2.334 14.176 7.196 26.671 13.244 33.171.422.455.976.402.723-.254-10.4-26.968 1.115-51.31 12.38-66.823.287-.395 5.829-7.311 5.53-7.565-.298-.254-5.77 6.607-6.151 7.113-7.857 10.46-15.61 25.683-16.457 42.84-.357 7.23.809 15.21 3.365 22.936-3.422-4.795-4.718-7.746-6.52-11.955-2.405-5.62-4.154-12.278-5.358-19.588-2.33-14.152-1.885-29.952 2.428-43.17 1.269-3.887 3.191-8.925 3.024-8.99-.145-.055-2.638 5.545-3.752 8.742z" color="#000" font-weight="400" font-family="sans-serif" overflow="visible" fill="#45433e"/><path d="M460.073-167.959l1.5-2.645 2.638 2.81 3.575 4.541 3.636 5.983 3.002 6.76c-2.594-5.74-6.965-11.709-8.805-13.976-1.56-1.922-3.701-3.573-3.701-3.573l3.85 11.416 2.06 8.494c-2.9-9.916-5.71-15.407-5.71-15.407z" fill="#544f45"/><path d="M449.611-118.728l-.125-9.474.6-8.524 1-5.525 1.575-7.924 2.05-6.25 5.4-12.173 1.449-2.4 4.48 3.377 5.925 5.98c-7.388-8.087-8.264-15.543-3.006-21.655 0 0-15.873 6.197-21.223 23.897s-.458 33.176 1.875 40.67zM489.807-116.079l1.85-7.399 2.25-14.848.15-9.6-.75-8.148-2.958-10.893 4.223 5.877c-.515-1.524-3.451-12.798-8.692-19.73-6.68-8.833-12.246-13.219-19.17-17.3 7.63 9.35 10.447 15.58 13.898 22.347 2.97 5.825 5.83 12.683 7.15 18.049 2.849 11.599 5.22 23.477 1.699 41.495zM504.505-128.127l3.6-6.2 2.6-7.949 1.35-6.65.084-8.855 6.11 9.93c-.629-6.581-5.204-19.33-8.392-24.56-4.148-6.806-9.305-11.588-14.922-15.514 0 0 4.85 8.16 8.041 15.47 1.925 4.409 3.696 10.252 4.08 14.58.89 9.9-.032 19.6-2.55 29.748z" fill="#544f45"/><path d="M517.813-136.555c.124-3.483.124-6.735.124-6.735l-1.185-6.876-2.263-3.754-2.358-3.287s-.106 1.554.224 3.045c.14.631.646 1.422.811 1.933.482-.096.537-.093 1.155-.519 1.451 4.16 3.48 10.916 3.492 16.193zM525.166-120.011c.92-3.182 1.59-5.409 1.59-5.409l1.768-9.12 1.202-12.303v-9.65l-1.414-10.818-1.52-6.293-3.181-7.636-2.868-4.614s-4.789-6.113-10.356-10.443c7.45 11.542 9.406 17.815 13.011 31.602 3.606 13.787 3.783 34.079 1.768 44.684zM437.363-163.198s-1.956.619-2.23 3.349c-.106 1.052.331 7.43.264 7.77-.236 1.193-.138 3.763.116 8.553.4 7.55 4.025 19.523 4.025 19.523l-.725-5.8-.95-7.648.25-8.674-.15-3.275z" fill="#544f45"/><path d="M438.505-173.262c-4.322 4.439-11.691 14.688-14.64 26.337-2.95 11.648-2.85 31.546-1.65 35.696l.9-4.45 1.1-9.499 2.749-12.548 2.05-7.55 2.2-5.899 2.8-6.6 3.599-6.398.3-4.7z" fill="#544f45"/><path d="M413.665-104.83l-1.8-5.25-1.05-5.099-.8-5.15-.35-7.698.6-6.95 2-8.799 2.45-7.249 3.85-8.399 6-10.099 9.098-11.249 4.6-5.799c-17.498 11.449-22.448 17.998-26.847 25.947-3.372 6.093-11.35 24.248 2.25 55.794z" fill="#544f45"/><path style="line-height:normal;font-variant-ligatures:normal;font-variant-position:normal;font-variant-caps:normal;font-variant-numeric:normal;font-variant-alternates:normal;font-feature-settings:normal;text-indent:0;text-align:start;text-decoration-line:none;text-decoration-style:solid;text-decoration-color:#000;text-transform:none;text-orientation:mixed;white-space:normal;shape-padding:0;isolation:auto;mix-blend-mode:normal;solid-color:#000;solid-opacity:1" d="M534.81-182.547c-.16.066 1.834 3.443 3.295 6.896.083.195 2.597 5.07 3.641 14.26.988 8.7.545 21.158-4.85 36.33 1.316-19.779-4.084-32.667-7.865-39.537l-.286 1.028c3.95 7.096 9.219 19.748 7.198 41.109 0 0-.047.648.215.688.26.04.524-.513.524-.513 6.348-16.474 6.883-29.894 5.826-39.195-1.056-9.302-3.656-14.384-3.72-14.515-1.513-3.087-3.817-6.617-3.978-6.551z" color="#000" font-weight="400" font-family="sans-serif" overflow="visible" fill="#403d39"/><path style="line-height:normal;font-variant-ligatures:normal;font-variant-position:normal;font-variant-caps:normal;font-variant-numeric:normal;font-variant-alternates:normal;font-feature-settings:normal;text-indent:0;text-align:start;text-decoration-line:none;text-decoration-style:solid;text-decoration-color:#000;text-transform:none;text-orientation:mixed;white-space:normal;shape-padding:0;isolation:auto;mix-blend-mode:normal;solid-color:#000;solid-opacity:1" d="M514.534-192.604c-.14.184 3.725 4.736 3.869 4.906 3.46 4.083 7.534 10.026 9.66 21.503 2.039 11.017 2.067 26.368-2.705 44.883-.855-15.225-7.055-28.898-12.871-36.59-.32-.423-.93.041-.61.463 6.047 7.935 12.572 22.085 12.86 38.11.006.262.006.916.257.957.226.037.314-.206.494-.86 5.421-19.7 5.478-35.503 3.33-47.104-2.148-11.602-5.873-17.508-9.918-21.944-.201-.22-4.2-4.543-4.366-4.324zM398.63-156.948c-1.175 4.023-1.448 11.753-.867 19.47.202 2.687.623 5.432.976 8.142.562 4.322 1.163 8.613 2.722 12.402.346.842.939.813.728-.22-2.22-10.894-1.77-21.276-1.756-21.532l-.826-2.274c-.009.172.035 6.28.336 11.259.147 2.445.579 6.286 1.18 10.06-1.315-4.21-2.392-14.956-2.598-17.888-.539-7.672-.317-15.151.796-18.945-.173-.543-.392-.852-.69-.474zM437.36-164.688s-3.094 4.17-6.538 13.03c-3.337 8.582-7.09 21.916-8.685 39.889-8.5-17.444-6.367-38.662-2.617-48.662.18-.478-.41-.69-.59-.212-3.938 10.501-6.256 32.553 3.17 50.511.655 1.056.617.27.717-.147 1.5-18.809 5.298-32.312 8.716-41.103 3.418-8.791 6.315-12.866 6.315-12.866-.062-.72-.132-.416-.489-.44z" color="#000" font-weight="400" font-family="sans-serif" overflow="visible" fill="#45433e"/><path style="line-height:normal;font-variant-ligatures:normal;font-variant-position:normal;font-variant-caps:normal;font-variant-numeric:normal;font-variant-alternates:normal;font-feature-settings:normal;text-indent:0;text-align:start;text-decoration-line:none;text-decoration-style:solid;text-decoration-color:#000;text-transform:none;text-orientation:mixed;white-space:normal;shape-padding:0;isolation:auto;mix-blend-mode:normal;solid-color:#000;solid-opacity:1" d="M443.876-194.358c-.149-.039-2.995 9.373-3.034 9.522-7.73 29.7-3.673 46.949 8.446 66.53.461.608.624.312.705-.232-2.38-30.526 11.822-52.06 11.822-52.06.305-.43-.457-.873-.734-.424 0 0-6.205 9.376-9.727 24.486-1.766 7.574-2.656 17.136-2.057 27.133-11.45-18.953-15.447-36.366-7.71-65.241.99-3.696 2.662-9.618 2.29-9.714z" color="#000" font-weight="400" font-family="sans-serif" overflow="visible" fill="#45433e"/><path style="line-height:normal;font-variant-ligatures:normal;font-variant-position:normal;font-variant-caps:normal;font-variant-numeric:normal;font-variant-alternates:normal;font-feature-settings:normal;text-indent:0;text-align:start;text-decoration-line:none;text-decoration-style:solid;text-decoration-color:#000;text-transform:none;text-orientation:mixed;white-space:normal;shape-padding:0;isolation:auto;mix-blend-mode:normal;solid-color:#000;solid-opacity:1" d="M481.652-181.579c11.649 15.754 15.533 34.14 8.027 64.069-3.548-24.672-15.167-46.315-27.994-53.63-.444-.253-.823.413-.378.666 12.763 7.279 24.627 29.662 27.899 54.956.078.607.462 1.128.75.046 8.332-31.227 4.628-50.597-7.694-66.57-.33-.427-4.562-5.262-4.761-5.194-.173.06 3.619 4.937 4.151 5.657z" color="#000" font-weight="400" font-family="sans-serif" overflow="visible" fill="#45433e"/><path style="line-height:normal;font-variant-ligatures:normal;font-variant-position:normal;font-variant-caps:normal;font-variant-numeric:normal;font-variant-alternates:normal;font-feature-settings:normal;text-indent:0;text-align:start;text-decoration-line:none;text-decoration-style:solid;text-decoration-color:#000;text-transform:none;text-orientation:mixed;white-space:normal;shape-padding:0;isolation:auto;mix-blend-mode:normal;solid-color:#000;solid-opacity:1" d="M504.962-175.78c-.248.142 2.188 4.205 3.116 5.932 3.866 7.193 4.393 15.436 3.195 23.005-1.127 7.12-3.821 13.473-6.633 17.912-2.338-19.918-8.284-31.23-14.554-39.494-.308-.41-.924.052-.615.463 6.343 8.361 12.367 19.664 14.604 40.268.098.9.419.587.7.175 3.095-4.537 6.038-11.517 7.254-19.206 1.217-7.688.68-16.095-3.274-23.484-1.017-1.9-3.655-5.652-3.793-5.572zM433.331-157.247c-1.944 11.76.84 22.667 6.478 34.887.646 1.102.86.446.74-.192-3.244-12.518-2.407-22.217-2.15-24.426-.228-.322-.391-.573-.696-.593 0 0-1.287 9.437 1.286 21.62-4.38-10.686-6.779-20.86-5.057-31.28-.37-.733-.296-.221-.6-.017z" color="#000" font-weight="400" font-family="sans-serif" overflow="visible" fill="#45433e"/><path style="line-height:normal;font-variant-ligatures:normal;font-variant-position:normal;font-variant-caps:normal;font-variant-numeric:normal;font-variant-alternates:normal;font-feature-settings:normal;text-indent:0;text-align:start;text-decoration-line:none;text-decoration-style:solid;text-decoration-color:#000;text-transform:none;text-orientation:mixed;white-space:normal;shape-padding:0;isolation:auto;mix-blend-mode:normal;solid-color:#000;solid-opacity:1" d="M512.278-154.233a.383.383 0 00-.288.548s4.91 10.777 5.273 19.126c.029.66.189 1.414.322 1.354.154-.07.298-.425.44-1.416 1.279-8.932-1.474-16.838-1.474-16.838-.128-.533-.757-.308-.555.201 0 0 1.85 6.454 1.678 13.426-1.266-7.677-5.103-16.36-5.103-16.36-.07-.159-.122-.066-.293-.041zM460.872-169.453c-.285-.057-.448.35-.288.593.553.87 1.546 2.996 2.642 5.877 1.096 2.88 2.31 6.532 3.365 10.534 1.198 4.545 2.337 11.687 2.725 16.508-.54-4.303-1.68-10.872-2.72-14.95-1.92-7.527-4.377-14.049-6.323-17.399-.255-.444-.922-.06-.666.384 1.869 3.217 4.337 9.73 6.244 17.207s3.262 15.937 2.975 23.095c-.006 1.528.583.684.762-.04 1.332-7.568-.143-16.976-2.258-24.997a107.54 107.54 0 00-3.393-10.613c-1.105-2.906-2.08-5.028-2.71-6.018-.075-.122-.215-.153-.355-.18z" color="#000" font-weight="400" font-family="sans-serif" overflow="visible" fill="#45433e"/><path style="line-height:normal;font-variant-ligatures:normal;font-variant-position:normal;font-variant-caps:normal;font-variant-numeric:normal;font-variant-alternates:normal;font-feature-settings:normal;text-indent:0;text-align:start;text-decoration-line:none;text-decoration-style:solid;text-decoration-color:#000;text-transform:none;text-orientation:mixed;white-space:normal;shape-padding:0;isolation:auto;mix-blend-mode:normal;solid-color:#000;solid-opacity:1" d="M461.498-171.197c.345.168-.543.485-.225.7 1.083.756 2.733 2.508 4.516 4.894 1.783 2.387 3.718 5.418 5.476 8.762 2.328 4.43 4.867 10.666 5.655 16.242-1.484-6.276-4.155-12.598-6.525-16.79-3.417-6.045-7.097-10.43-9.263-11.985-.414-.3-.866.32-.452.621 1.937 1.39 5.67 5.766 9.05 11.743 3.378 5.976 6.418 13.576 7.26 21.491.131 1.244.598 1.463.744-.164.61-6.827-2.264-14.801-5.792-21.514-1.777-3.38-3.734-6.441-5.544-8.863-1.81-2.422-3.452-4.203-4.685-5.064-.063-.046-.284-.107-.215-.073zM417.42-123.794v92.653l.762 2.21v-93.139z" color="#000" font-weight="400" font-family="sans-serif" overflow="visible" fill="#45433e"/><path d="M384.463-49.513l.09.762c12.29-1.41 23.85 3.154 29.818 12.798 4.462 7.21 7.614 18.224 6.464 27.803l.757-.315c1.177-9.81-2.012-20.521-6.571-27.889-6.145-9.928-18.028-14.597-30.558-13.159z" style="line-height:normal;font-variant-ligatures:normal;font-variant-position:normal;font-variant-caps:normal;font-variant-numeric:normal;font-variant-alternates:normal;font-feature-settings:normal;text-indent:0;text-align:start;text-decoration-line:none;text-decoration-style:solid;text-decoration-color:#000;text-transform:none;text-orientation:mixed;white-space:normal;shape-padding:0;isolation:auto;mix-blend-mode:normal;solid-color:#000;solid-opacity:1" color="#000" font-weight="400" font-family="sans-serif" overflow="visible" fill="#333"/><path d="M470.888-50.894l-1.286 1.162-1.765-.042-1.408-1.506c1.775-.405 3.712-.636 4.65-.516z" fill="#be8888"/><path d="M466.891-56.04c-.674-.174-1.384-.135-1.863.344-.45.452-.581 1.084-.52 1.71.063.628.305 1.28.644 1.898.679 1.237 1.705 2.35 2.733 2.72 1.938.698 3.74-.802 3.618-2.517-.038-.537-.382-1.045-.846-1.586a9.641 9.641 0 00-1.734-1.553c-.658-.463-1.358-.842-2.032-1.016zm-.192.74a6.79 6.79 0 011.784.903 8.972 8.972 0 011.592 1.428c.415.484.653.96.666 1.14.083 1.153-1.12 2.276-2.597 1.745-.679-.245-1.719-1.27-2.325-2.377-.304-.553-.506-1.124-.554-1.603-.047-.479.012-.876.305-1.09.43-.311.754-.265 1.13-.146z" style="line-height:normal;font-variant-ligatures:normal;font-variant-position:normal;font-variant-caps:normal;font-variant-numeric:normal;font-variant-alternates:normal;font-feature-settings:normal;text-indent:0;text-align:start;text-decoration-line:none;text-decoration-style:solid;text-decoration-color:#000;text-transform:none;text-orientation:mixed;white-space:normal;shape-padding:0;isolation:auto;mix-blend-mode:normal;solid-color:#000;solid-opacity:1" color="#000" font-weight="400" font-family="sans-serif" overflow="visible" fill="#987567"/><path d="M471.15-16.196c-1.05 1.5-2.274 3.24-3.416 5.131-2.338 3.876-4.325 8.343-3.472 12.476l.012.057.029.045s1.408 2.887 2.26 4.772c.489 1.078.757 1.753 1.27 2.994 3.281 7.95 9.063 22.16 9.035 37.574l.604-.715c.038-21.151-12.377-44.73-12.459-44.885-.78-3.79 1.075-8.11 3.376-11.923 1.151-1.908 2.404-3.685 3.472-5.21 1.036-1.48 1.772-2.66 2.207-3.6l-.463-.56z" style="line-height:normal;font-variant-ligatures:normal;font-variant-position:normal;font-variant-caps:normal;font-variant-numeric:normal;font-variant-alternates:normal;font-feature-settings:normal;text-indent:0;text-align:start;text-decoration-line:none;text-decoration-style:solid;text-decoration-color:#000;text-transform:none;text-orientation:mixed;white-space:normal;shape-padding:0;isolation:auto;mix-blend-mode:normal;solid-color:#000;solid-opacity:1" color="#000" font-weight="400" font-family="sans-serif" overflow="visible" fill="#39554a"/><path style="line-height:normal;font-variant-ligatures:normal;font-variant-position:normal;font-variant-caps:normal;font-variant-numeric:normal;font-variant-alternates:normal;font-feature-settings:normal;text-indent:0;text-align:start;text-decoration-line:none;text-decoration-style:solid;text-decoration-color:#000;text-transform:none;text-orientation:mixed;white-space:normal;shape-padding:0;isolation:auto;mix-blend-mode:normal;solid-color:#000;solid-opacity:1" d="M473.605-20.04S462.79-8.907 458.656-1.407c-5.234 9.5-11.946 24.787-9.275 37.886.01.046.267.718.428.69.195-.034.329-.572.329-.572 1.611-10.207 3.8-18.03 6.181-23.705 2.283-5.44 4.743-8.792 6.978-10.472.702.85 1.789 2.729 3.048 5.595 1.343 3.053 2.846 7.011 4.251 11.415 2.812 8.807 5.312 20.42 5.312 29.224l.684-1.004c0-8.943-2.44-19.597-5.267-28.452a114.779 114.779 0 00-3.727-10.03s-.855-2.21-1.42-3.352c-1.298-2.627-1.963-3.5-2.519-4.287l-.226-.237-.27.186c-2.52 1.738-5.135 5.364-7.548 11.116-2.147 5.115-4.061 12.215-5.612 20.87-1.222-12.103 4.502-25.743 9.326-34.498 2.993-5.431 8.57-11.647 11.822-15.163l2.61-3.168z" color="#000" font-weight="400" font-family="sans-serif" overflow="visible" fill="#39554a"/><path d="M473.167-27.327l-.72.24c.572 1.659.877 5.05 1.016 7.976.139 2.927.146 5.429.146 5.429l.78 1.355s-.02-3.868-.158-6.818c-.14-2.95-.419-6.31-1.064-8.182z" style="line-height:normal;font-variant-ligatures:normal;font-variant-position:normal;font-variant-caps:normal;font-variant-numeric:normal;font-variant-alternates:normal;font-feature-settings:normal;text-indent:0;text-align:start;text-decoration-line:none;text-decoration-style:solid;text-decoration-color:#000;text-transform:none;text-orientation:mixed;white-space:normal;shape-padding:0;isolation:auto;mix-blend-mode:normal;solid-color:#000;solid-opacity:1" color="#000" font-weight="400" font-family="sans-serif" overflow="visible" fill="#987567"/><path d="M575.264 84.615c-11.03 8.05-16.783 14.448-26.585 24.127-20.011 19.758-35.182 37.772-35.182 37.772l.587.497s15.148-17.991 35.131-37.722c9.797-9.673 15.587-15.988 26.5-24.059 1.564-1.157 8.072-6.34 8.072-6.34s-7.062 4.659-8.523 5.725z" style="line-height:normal;font-variant-ligatures:normal;font-variant-position:normal;font-variant-caps:normal;font-variant-numeric:normal;font-variant-alternates:normal;font-feature-settings:normal;text-indent:0;text-align:start;text-decoration-line:none;text-decoration-style:solid;text-decoration-color:#000;text-transform:none;text-orientation:mixed;white-space:normal;shape-padding:0;isolation:auto;mix-blend-mode:normal;solid-color:#000;solid-opacity:1" color="#000" font-weight="400" font-family="sans-serif" overflow="visible" fill="#39554a"/><path d="M443.772 76.513l-.44.626c4.404 3.103 11.76 10.112 18.844 17.264 7.084 7.151 13.915 14.457 17.36 18.206 6.93 7.543 38.355 39.146 38.355 39.146.388.387 6.814 6.203 6.89 6.112.075-.092-5.96-6.265-6.348-6.654 0 0-31.476-31.66-38.333-39.124-3.45-3.754-10.288-11.066-17.382-18.228-7.094-7.162-14.427-14.165-18.946-17.348zM400.315 92.28s-3.716 56.842 4.527 115.813c-.134 9.878-2.732 33.148-5.3 53.913-2.569 20.765-5.104 39.048-5.104 39.048l.756.107s2.535-18.287 5.104-39.06c2.569-20.771 5.176-44.007 5.312-54.002v-.029l-.006-.029c-8.24-58.892-4.521-115.71-4.521-115.71z" style="line-height:normal;font-variant-ligatures:normal;font-variant-position:normal;font-variant-caps:normal;font-variant-numeric:normal;font-variant-alternates:normal;font-feature-settings:normal;text-indent:0;text-align:start;text-decoration-line:none;text-decoration-style:solid;text-decoration-color:#000;text-transform:none;text-orientation:mixed;white-space:normal;shape-padding:0;isolation:auto;mix-blend-mode:normal;solid-color:#000;solid-opacity:1" color="#000" font-weight="400" font-family="sans-serif" overflow="visible" fill="#39554a"/><path d="M399.063 59.343l.103-.91.87 1.176z" fill="#ddddad"/><path d="M386.868-49.338a23.58 23.58 0 00-5.973.045c-7.398.979-13.813 6.836-17.495 12.561-3.72 5.785-5.428 16.077-5.17 27.566.128 5.756.988 10.984 2.093 15.073 1.106 4.089 2.413 7.013 3.63 8.282l.554-.531c-.984-1.026-2.356-3.928-3.444-7.954s-1.939-9.197-2.066-14.887c-.255-11.402 1.494-21.607 5.047-27.131 3.59-5.584 9.894-11.289 16.953-12.222 7.12-.942 16.845.804 26.086 14.53 4.591 6.82 6.571 16.088 6.752 25.122.181 9.034-1.435 17.832-3.946 23.677l.7.305c2.573-5.99 4.191-14.864 4.008-23.999-.183-9.134-2.163-18.534-6.876-25.533-7.023-10.432-14.472-14.121-20.853-14.904z" style="line-height:normal;font-variant-ligatures:normal;font-variant-position:normal;font-variant-caps:normal;font-variant-numeric:normal;font-variant-alternates:normal;font-feature-settings:normal;text-indent:0;text-align:start;text-decoration-line:none;text-decoration-style:solid;text-decoration-color:#000;text-transform:none;text-orientation:mixed;white-space:normal;shape-padding:0;isolation:auto;mix-blend-mode:normal;solid-color:#000;solid-opacity:1" color="#000" font-weight="400" font-family="sans-serif" overflow="visible" fill="#333"/><path d="M370.186-7.568s.329 1.547.643 3.342c.315 1.794.615 3.846.585 4.766 0 0-.006.126.017.187.026.066.124.16.124.16 1.953 1.856 1.92 2.287 2.954 3.518l.587-.496c-.94-1.118-1.13-1.733-2.946-3.49.011-1.13-.264-3.034-.57-4.78-.318-1.81-.661-2.92-.661-2.92-.293-.451-.268-.24-.734-.287z" style="line-height:normal;font-variant-ligatures:normal;font-variant-position:normal;font-variant-caps:normal;font-variant-numeric:normal;font-variant-alternates:normal;font-feature-settings:normal;text-indent:0;text-align:start;text-decoration-line:none;text-decoration-style:solid;text-decoration-color:#000;text-transform:none;text-orientation:mixed;white-space:normal;shape-padding:0;isolation:auto;mix-blend-mode:normal;solid-color:#000;solid-opacity:1" color="#000" font-weight="400" font-family="sans-serif" overflow="visible" fill="#987567"/><path d="M369.678-32.848c-1.907 3.53-4.543 7.356-7.718 10.498 0 0-.152.154-.197.265-.057.142-.05.45-.05.45.043 3.34.974 20.71 1.182 23.199 0 0 .014.155.04.23.03.081.126.222.126.222 2.737 4.19 10.13 15.85 10.13 15.85.206.357 4.864 6.607 4.958 6.56.094-.047-4.152-6.685-4.32-6.978 0 0-7.37-11.609-10.17-15.894-.201-2.475-1.137-20.04-1.179-23.377 3.185-3.187 5.958-7.125 7.87-10.664z" style="line-height:normal;font-variant-ligatures:normal;font-variant-position:normal;font-variant-caps:normal;font-variant-numeric:normal;font-variant-alternates:normal;font-feature-settings:normal;text-indent:0;text-align:start;text-decoration-line:none;text-decoration-style:solid;text-decoration-color:#000;text-transform:none;text-orientation:mixed;white-space:normal;shape-padding:0;isolation:auto;mix-blend-mode:normal;solid-color:#000;solid-opacity:1" color="#000" font-weight="400" font-family="sans-serif" overflow="visible" fill="#987567"/><path d="M369.898-38.087c-.227.11-.349.336-.4.542-.053.207-.06.427-.057.689.006.524.074 1.21.13 2.077.111 1.735.175 4.189-.401 7.317-.184 1-.78 3.391-1.333 5.55-.276 1.078-.545 2.106-.745 2.878l-.243.943c-.06.237-.072.26-.092.377 0 0-.017.11-.014.168.006.076.055.221.055.221 2.359 7.034 4.188 12.585 7.65 21.617l.017.057 11.646 14.708c.246.31 5.578 6.3 5.643 6.244.066-.056-4.759-6.357-5.044-6.718L375.142 3.965c-3.423-8.938-5.288-14.59-7.626-21.565.011-.041.026-.117.073-.3l.243-.942c.2-.772.468-1.799.745-2.88.554-2.16 1.146-4.532 1.344-5.605.59-3.208.531-5.74.417-7.503-.057-.881-.129-1.575-.135-2.038-.003-.23.017-.402.04-.49.023-.09.023-.057-.012-.04.169-.082.529-.081.999.096s1.032.508 1.586.937c1.107.855 2.193 2.115 2.682 3.291.708 1.87.832 5.04.632 8.095-.2 3.059-.706 6.032-1.163 7.52 0 0-.02.131-.002.208.02.077.103.181.103.181.07.066.27.355.475.768.205.413.438.961.688 1.592.5 1.262 1.06 2.87 1.592 4.516a114.823 114.823 0 011.423 4.737c.387 1.41.658 2.57.723 3.088 0 0 .009.082.026.118a.47.47 0 00.07.09c1.086 1.186 2.453 2.175 2.453 2.175l.451-.621s-1.28-.95-2.283-2.022c-.094-.647-.336-1.68-.706-3.032-.39-1.424-.893-3.114-1.428-4.77-.535-1.656-1.1-3.275-1.61-4.561a22.221 22.221 0 00-.716-1.649 3.839 3.839 0 00-.503-.779c.481-1.63.977-4.474 1.175-7.508.202-3.11.114-6.32-.684-8.423l-.006-.006v-.006c-.564-1.365-1.723-2.679-2.924-3.607-.6-.464-1.212-.834-1.784-1.05-.572-.216-1.126-.3-1.603-.068z" style="line-height:normal;font-variant-ligatures:normal;font-variant-position:normal;font-variant-caps:normal;font-variant-numeric:normal;font-variant-alternates:normal;font-feature-settings:normal;text-indent:0;text-align:start;text-decoration-line:none;text-decoration-style:solid;text-decoration-color:#000;text-transform:none;text-orientation:mixed;white-space:normal;shape-padding:0;isolation:auto;mix-blend-mode:normal;solid-color:#000;solid-opacity:1" color="#000" font-weight="400" font-family="sans-serif" overflow="visible" fill="#a78f87"/><path d="M362.353-8.077c-.183 2.619-.477 12.764-.078 15.025 1.827 10.348 5.469 17.105 6.912 19.785.199.37.652.91 1.371 1.733.72.823 1.691 1.886 2.846 3.127 2.308 2.482 5.361 5.678 8.637 9.095 6.552 6.833 14.002 14.545 18.167 19.132l.564-.514c-4.183-4.607-11.627-12.311-18.178-19.143-3.275-3.416-6.329-6.613-8.631-9.09a144.22 144.22 0 01-2.829-3.11c-.71-.812-1.176-1.423-1.27-1.597-1.377-2.557-5.001-9.208-6.822-19.466-.403-2.272-.348-11.805 0-14.482-.585-.556-.506-1.458-.689-.495z" style="line-height:normal;font-variant-ligatures:normal;font-variant-position:normal;font-variant-caps:normal;font-variant-numeric:normal;font-variant-alternates:normal;font-feature-settings:normal;text-indent:0;text-align:start;text-decoration-line:none;text-decoration-style:solid;text-decoration-color:#000;text-transform:none;text-orientation:mixed;white-space:normal;shape-padding:0;isolation:auto;mix-blend-mode:normal;solid-color:#000;solid-opacity:1" color="#000" font-weight="400" font-family="sans-serif" overflow="visible" fill="#987567"/><path d="M426.063 47.594l.024-1.072.552.796z" fill="#baba7d"/><path d="M391.056-37.98c-1.066-.215-2.394.073-3.99.859-.872.429-1.514 1.193-2.033 2.19-.52.997-.934 2.238-1.366 3.703-.865 2.931-1.771 6.725-3.623 11.213 0 0-.037.078-.046.123-.011.06 0 .183 0 .183.669 7.214 1.255 14.675 3.103 22.526 0 0 .04.132.068.196.029.065.097.183.097.183 4.494 7.2 9.755 12.397 9.755 12.397.254.254 5.805 5.762 5.882 5.646.076-.115-5.176-6.019-5.34-6.182 0 0-5.29-5.303-9.698-12.345-1.813-7.73-2.435-15.336-3.1-22.513 1.84-4.487 2.789-8.335 3.636-11.206.428-1.45.834-2.656 1.31-3.568.475-.912 1.005-1.522 1.688-1.857 1.51-.744 2.706-.96 3.511-.796.805.162 1.273.639 1.49 1.54.185.764.187 2.088.046 3.636-.142 1.549-.42 3.336-.768 5.092a62.132 62.132 0 01-1.18 4.917c-.413 1.437-.835 2.598-1.14 3.15 0 0-.052.099-.055.161a.607.607 0 00.038.172c.217.503.5 1.655.762 3.088s.516 3.17.74 4.929c.446 3.518.762 7.162.739 8.654 0 0-.003.113.026.173.03.062.136.149.136.149.145.099.517.44.988.926a80.032 80.032 0 011.733 1.862c1.342 1.479 3.005 3.361 4.703 5.256 1.698 1.895 3.434 3.804 4.917 5.335 1.483 1.53 2.664 2.669 3.466 3.105 1.49.81 3.125.592 4.63-.017 1.503-.61 2.919-1.607 4.092-2.445l.018-.011.017-.018c.636-.562 1.047-1.568 1.417-2.834.37-1.266.663-2.792.903-4.352.481-3.12.75-6.38.915-7.87.154-1.39 1.089-3.69 1.992-5.594.734-1.544 1.194-2.354 1.434-2.789.94 2.214 2.125 4.293 3.15 6.25 1.14 2.176 2.008 4.259 1.976 6.418-.034 2.266-.097 7.416-.299 12.42-.101 2.501-.237 4.967-.418 7.011-.18 2.044-.419 3.688-.677 4.449-1.133 3.33-2.99 6.484-3.337 10.703-.177 2.162.43 5.056 1.062 7.44a59.631 59.631 0 001.342 4.36l.684-.368s-.67-1.84-1.292-4.189c-.624-2.35-1.194-5.22-1.033-7.18.33-4.028 2.13-7.095 3.296-10.523.316-.93.535-2.56.717-4.624.183-2.064.317-4.542.418-7.05.203-5.019.271-10.174.305-12.438.035-2.37-.907-4.574-2.066-6.785-1.16-2.212-2.543-4.443-3.472-6.865-.182-.51-.233-.436-.406-.427-.191.012-.233.187-.333.562 0 0-.823 1.367-1.74 3.297-.916 1.93-1.885 4.216-2.066 5.838-.169 1.522-.433 4.753-.908 7.835-.238 1.541-.528 3.045-.881 4.257-.353 1.21-.8 2.125-1.191 2.473v.005c-1.162.83-2.531 1.775-3.907 2.332-1.388.562-2.74.728-3.974.056-.56-.304-1.817-1.453-3.286-2.97-1.468-1.516-3.198-3.413-4.894-5.306-1.696-1.892-3.356-3.776-4.703-5.261a81.894 81.894 0 00-1.75-1.886 9.137 9.137 0 00-.96-.886c.01-1.662-.282-5.112-.722-8.575a95.844 95.844 0 00-.75-4.968c-.253-1.378-.501-2.413-.769-3.082.36-.69.747-1.75 1.146-3.14.42-1.46.844-3.208 1.197-4.984.353-1.776.634-3.579.78-5.165.144-1.587.159-2.947-.068-3.89-.269-1.114-1.017-1.896-2.083-2.111z" style="line-height:normal;font-variant-ligatures:normal;font-variant-position:normal;font-variant-caps:normal;font-variant-numeric:normal;font-variant-alternates:normal;font-feature-settings:normal;text-indent:0;text-align:start;text-decoration-line:none;text-decoration-style:solid;text-decoration-color:#000;text-transform:none;text-orientation:mixed;white-space:normal;shape-padding:0;isolation:auto;mix-blend-mode:normal;solid-color:#000;solid-opacity:1" color="#000" font-weight="400" font-family="sans-serif" overflow="visible" fill="#987567"/><path d="M426.16 46.827c.085.061.16.113.195.142.16.132-.211.648-.744 1.125-.532.477-1.303 1.04-2.309 1.666-2.012 1.25-4.97 2.739-8.925 4.307-2.057.816-4.867 2.133-7.706 3.235-2.839 1.101-4.946 2.2-7.026 1.99-.204-.021-.308-.262-.374-.5l-.267-.288-.484.954c-.531 1.046-.927 2.684-1.254 4.737-.327 2.052-.575 4.513-.762 7.135-.374 5.246-.496 11.152-.48 15.79.01 2.793 1.845 4.607 4.144 5.555 2.299.948 5.08 1.116 7.249.74 1.104-.192 4.374-1.054 8.693-2.518 4.32-1.464 9.652-3.528 14.757-6.108 8.873-4.485 16.714-10.104 20.092-13.493 1.231-1.235 1.714-2.93 1.637-4.544-.077-1.614-.703-3.166-1.767-4.16-.723-.677-2.352-1.829-4.488-3.264a437.373 437.373 0 00-7.384-4.815c-5.25-3.366-10.519-6.736-11.872-7.689-.39-.274-.74-.344-1.052-.381zm.761.804c1.78.818 6.507 4.245 11.624 7.526a436.598 436.598 0 017.367 4.804c2.127 1.429 3.785 2.61 4.397 3.184.88.822 1.456 2.204 1.525 3.64.068 1.438-.363 2.912-1.417 3.97-3.258 3.267-11.09 8.9-19.894 13.35-5.06 2.558-10.362 4.614-14.655 6.07-4.294 1.455-7.614 2.315-8.581 2.483-2.02.351-4.702.187-6.825-.688-2.124-.876-3.667-2.383-3.676-4.85-.017-4.622.108-10.522.48-15.739.186-2.608.435-5.044.757-7.062.312-1.96.695-3.83 1.14-4.386.426.187 1.172.234 1.86.091 1.797-.37 3.93-1.236 5.925-2.01 2.872-1.115 5.695-2.436 7.711-3.236 3.988-1.58 6.984-3.086 9.05-4.369 1.033-.642 1.83-1.224 2.41-1.744.423-.38.454-1.193.802-1.034z" style="line-height:normal;font-variant-ligatures:normal;font-variant-position:normal;font-variant-caps:normal;font-variant-numeric:normal;font-variant-alternates:normal;font-feature-settings:normal;text-indent:0;text-align:start;text-decoration-line:none;text-decoration-style:solid;text-decoration-color:#000;text-transform:none;text-orientation:mixed;white-space:normal;shape-padding:0;isolation:auto;mix-blend-mode:normal;solid-color:#000;solid-opacity:1" color="#000" font-weight="400" font-family="sans-serif" overflow="visible" fill="#8e8e62"/><path d="M379.365-54.447l-.756.068.496 5.64.763-.068zM388.6-55.835l-.756.084.706 6.323.756-.085z" style="line-height:normal;font-variant-ligatures:normal;font-variant-position:normal;font-variant-caps:normal;font-variant-numeric:normal;font-variant-alternates:normal;font-feature-settings:normal;text-indent:0;text-align:start;text-decoration-line:none;text-decoration-style:solid;text-decoration-color:#000;text-transform:none;text-orientation:mixed;white-space:normal;shape-padding:0;isolation:auto;mix-blend-mode:normal;solid-color:#000;solid-opacity:1" color="#000" font-weight="400" font-family="sans-serif" overflow="visible" fill="#333"/><path d="M382.515-63.423c-2.168.208-5.09.64-7.469 1.412-1.189.386-2.241.853-3.014 1.45-.773.597-1.284 1.376-1.203 2.281.08.89.65 1.63 1.468 2.19.819.561 1.903.975 3.145 1.27 2.483.593 5.596.703 8.422.334 2.809-.367 5.717-1.069 7.915-2.06 1.1-.497 2.026-1.06 2.676-1.723.65-.662 1.029-1.46.926-2.314-.107-.889-.795-1.533-1.705-1.965-.91-.431-2.081-.696-3.37-.858-2.579-.324-5.618-.225-7.79-.017zm.068.757c2.126-.204 5.141-.29 7.627.023 1.242.156 2.353.418 3.138.79.786.373 1.204.81 1.27 1.36.071.586-.165 1.132-.71 1.689-.547.557-1.4 1.092-2.445 1.563-2.09.943-4.944 1.64-7.695 1.999-2.733.357-5.789.241-8.152-.322-1.18-.282-2.188-.677-2.89-1.157-.701-.48-1.08-1.017-1.135-1.626-.053-.593.247-1.102.904-1.609.656-.507 1.647-.956 2.788-1.327 2.284-.74 5.168-1.178 7.3-1.383z" style="line-height:normal;font-variant-ligatures:normal;font-variant-position:normal;font-variant-caps:normal;font-variant-numeric:normal;font-variant-alternates:normal;font-feature-settings:normal;text-indent:0;text-align:start;text-decoration-line:none;text-decoration-style:solid;text-decoration-color:#000;text-transform:none;text-orientation:mixed;white-space:normal;shape-padding:0;isolation:auto;mix-blend-mode:normal;solid-color:#000;solid-opacity:1" color="#000" font-weight="400" font-family="sans-serif" overflow="visible" fill="#333"/><path d="M466.145 6.968c-2.183 1.501-5.77 4.85-9.123 9.829-3.354 4.978-6.466 11.58-7.638 19.55l.756.113c1.153-7.838 4.218-14.334 7.52-19.234 3.301-4.9 6.848-8.205 8.914-9.625z" style="line-height:normal;font-variant-ligatures:normal;font-variant-position:normal;font-variant-caps:normal;font-variant-numeric:normal;font-variant-alternates:normal;font-feature-settings:normal;text-indent:0;text-align:start;text-decoration-line:none;text-decoration-style:solid;text-decoration-color:#000;text-transform:none;text-orientation:mixed;white-space:normal;shape-padding:0;isolation:auto;mix-blend-mode:normal;solid-color:#000;solid-opacity:1" color="#000" font-weight="400" font-family="sans-serif" overflow="visible" fill="#39554a"/><g><path d="M429.157-105.627c.304 5.43 2.306 12.476 4.94 15.733 1.76 2.18 6.691 6.265 8.587 6.302 1.896.037 6.263 1.298 8.7-2.25 2.501-3.641 1.883-16.638 1.181-17.562-.614-.808-5.387-6.1-8.253-8.109-2.596-1.82-3.977-1.595-7.142-1.415-2.5.142-4.911.613-6.423 2.608-1.88 2.48-1.764 1.585-1.59 4.693z" fill="#fff"/><path d="M430.251-99.074c.87-4.063 4.71-8.043 7.431-8.857 4.6-1.377 10.1 2.322 14.567 5.207l-2.95-4.874-6.95-5.2-9.448-.85-2.05 3.675-2.75 5.55z" fill="#e5e5e5"/><path d="M440.462-107.774l-2.25 3.57-.929 3.271-.464 2.937.111 3.402.26 2.844 1.413 4.48 1.804 2.193 3.383 1.58 3.457-.539 2.026-1.766 1.748-3.625.93-4.07-.056-5.02-1.376-5.78-2.156-3.18-2.417-1.877-2.546-.223z" fill="#a0a4f9"/><path d="M28.606 82.136c.304-.454.704-.316 1.74-.362 1.313-.058 1.838.15 1.913.355.043-.222.585-1.03.735-1.942.149-.9.066-1.852.066-1.852l-.292-1.643-.496-1.165-.527-.823-.964-.524-.843.018-.83.558-.868 1.515-.353 1.61v1.451z" fill="url(#d)" transform="matrix(2.89039 0 0 2.89039 356.309 -323.892)"/><path d="M444.453-100.823c1.661.054 2.485 3.043 2.54 6.059.056 3.015-.92 6.45-2.68 6.45-1.759 0-2.52-3.428-2.492-6.353.03-2.924.97-6.21 2.632-6.156z" fill="#292a4d"/><path d="M441.156-106.19c-1.653-.848-2.983 3.638-1.43 4.637 1.552.999 3.084-3.788 1.43-4.637zM448.766-89.183c.809.808-.708 3.341-1.798 2.36-1.09-.98.99-3.169 1.798-2.36z" fill="#fff"/><path d="M444.41-110.062c-2.493-.113-4.349 1.6-5.742 4.197-1.394 2.595-2.245 5.961-2.187 9.171.057 3.173.446 6.447 1.664 8.974 1.217 2.527 3.264 4.338 6.296 4.378 3.045.04 5.15-1.847 6.39-4.416 1.241-2.569 1.585-5.861 1.508-8.843-.076-2.994-.733-6.275-2.079-8.892-1.346-2.617-3.362-4.456-5.85-4.57zm.02.694c2.055.094 3.905 1.709 5.179 4.185 1.273 2.476 1.931 5.762 2.005 8.626.074 2.877-.406 6.176-1.559 8.564-1.153 2.389-2.919 3.973-5.62 3.937-2.713-.035-4.403-1.679-5.533-4.025-1.13-2.345-1.602-5.514-1.658-8.613-.055-3.061.708-6.333 2.018-8.774 1.31-2.441 3.116-3.993 5.167-3.9z" style="line-height:normal;font-variant-ligatures:normal;font-variant-position:normal;font-variant-caps:normal;font-variant-numeric:normal;font-variant-alternates:normal;font-feature-settings:normal;text-indent:0;text-align:start;text-decoration-line:none;text-decoration-style:solid;text-decoration-color:#000;text-transform:none;text-orientation:mixed;white-space:normal;shape-padding:0;isolation:auto;mix-blend-mode:normal;solid-color:#000;solid-opacity:1" color="#000" font-weight="400" font-family="sans-serif" overflow="visible" fill="#2e2e55"/><path d="M436.782-112.903c3.079-.69 4.98-.187 7.47 1.278 4.281 2.522 7.794 7.404 8.06 7.798.42.623 1.408 1.08.845-.382-.342-.89-3.107-6.107-7.065-9.21-3.213-2.518-6.897-2.898-9.184-2.724-2.943.223-5.602 1.627-7.009 3.624-1.247 1.77-2.154 4.415-2.277 5.333-.263 1.953 1.49 5.414 1.87 6.384.38.97 1.538 1.91 1.056.413-.774-2.408-.258-4.637-.08-5.588.322-1.716 1.197-3.012 2.01-4.142 1.176-1.634 2.727-2.431 4.304-2.784z"/></g><path d="M475.02 12.472l-1.218-9.963c.01.513.09 1.763.09 1.763l.495 6.263 1.526 21.453.24 2.23.713 4.086-.334-6.727-1.364-17.983z" style="line-height:normal;font-variant-ligatures:normal;font-variant-position:normal;font-variant-caps:normal;font-variant-numeric:normal;font-variant-alternates:normal;font-feature-settings:normal;text-indent:0;text-align:start;text-decoration-line:none;text-decoration-style:solid;text-decoration-color:#000;text-transform:none;text-orientation:mixed;white-space:normal;shape-padding:0;isolation:auto;mix-blend-mode:normal;solid-color:#000;solid-opacity:1" color="#000" font-weight="400" font-family="sans-serif" overflow="visible" fill="#39554a"/><path d="M486.978-109.74c-.205.348.17.873.744-.054.793-1.282 2.461-2.787 3.152-3.333.304-.24.426-1.227-.69-.307-1.555 1.282-2.265 2.093-3.206 3.693z" fill="#987567"/><g><path d="M489.373-102.936c.117-.822 4.258-5.716 6.037-7.344 2.66-2.436 5.375-3.593 8.805-4.706 2.857-.928 5.057-1.609 7.968-.867 3.112.793 7.649 2.644 7.798 2.718.149.075 1.863 6.638 1.268 8.831-.595 2.194-5.096 11.6-7.65 15.467-1.558 2.358-7.176 8.522-17.486 6.82-3.26-.539-5.396-6.043-5.673-7.601-.292-1.64-1.588-9.652-1.067-13.318z" fill="#fff"/><path d="M520.54-100.512c-1.566-2.675-7.279-8.49-12.668-8.799-7.834-.45-14.796 4.25-18.5 6.375-.424-.919.226-1.192.226-1.192l3.995-5.585 7.99-5.904 11.418-1.06 8.096 7.211.176 6.858z" fill="#e5e5e5"/><path d="M494.38-107.386l-2.445 4.101-1.078 5.547.237 7.44 1.892 4.994 2.787 2.682 2.96.59 4.006-.182 3.066-2.234 1.517-3.369 1.496-4.949.263-7.754-3.092-5.461-1.725-2.667-3.128-1.183-3.287.079z" fill="#a0a4f9"/><path d="M46.67 78.887l.245-2.037.646-1.61.67-.785.764-.528 1.023-.16.939.157 1.04.49.66.858.466 1.465-.068 2.905-.612 2.024-.937.662c-.355-.356-1.13-.228-2.088-.256-.957-.028-1.738-.065-2.034.134l-.568-1.666z" fill="url(#e)" transform="matrix(2.89039 0 0 2.89039 355.766 -323.282)"/><path d="M499.755-100.473c2.331-.027 3.779 3.386 3.693 6.506-.086 3.12-1.735 6.696-4.043 6.69-2.308-.007-3.822-3.419-3.73-6.727.09-3.308 1.75-6.442 4.08-6.47z" fill="#292a4d"/><path d="M495.877-103.949c2.71 1.447.49 6.51-2.269 5.217-2.758-1.294-.441-6.664 2.269-5.217z" fill="#fff"/><path d="M500.794-110.675c-2.36 0-5.413 1.404-7.2 3.873-1.788 2.47-2.992 6.182-3.087 11.221-.094 5.034.876 8.49 2.51 10.737 1.632 2.248 4.257 3.154 6.63 3.271 2.46.122 5.589-.93 7.127-3.641 1.538-2.712 2.975-6.94 2.976-11.67 0-4.721-1.283-8.242-2.652-10.454-1.37-2.212-3.97-3.337-6.304-3.337zm.197.94c2.097 0 4.066.646 5.307 2.65 1.24 2.003 2.773 5.743 2.773 10.374 0 4.62-1.664 8.854-3.102 11.39-1.438 2.537-4.199 3.1-6.283 2.996-2.17-.107-4.502-.972-5.987-3.016-1.484-2.043-2.446-5.31-2.353-10.227.092-4.913 1.273-8.447 2.93-10.737 1.659-2.29 4.643-3.43 6.715-3.43z" style="line-height:normal;font-variant-ligatures:normal;font-variant-position:normal;font-variant-caps:normal;font-variant-numeric:normal;font-variant-alternates:normal;font-feature-settings:normal;text-indent:0;text-align:start;text-decoration-line:none;text-decoration-style:solid;text-decoration-color:#000;text-transform:none;text-orientation:mixed;white-space:normal;shape-padding:0;isolation:auto;mix-blend-mode:normal;solid-color:#000;solid-opacity:1" color="#000" font-weight="400" font-family="sans-serif" overflow="visible" fill="#2e2e55"/><path d="M490.382-103.33c.911-1.621 2.631-3.601 4.683-5.256 2.001-1.614 4.32-2.91 6.3-3.834 2.513-1.172 7.355-2.782 12.808-.092 3.188 1.572 5.516 4.512 6.024 7.057.504 2.53-1.005 7.587-.312 7.444 1.178-.244 4.869-7.677 4.236-9.48-2.377-6.771-9.294-9.374-11.047-9.667-.937-.156-3.849-.534-6.68-.162-2.464.323-4.803 1.307-6.545 2.314-1.748 1.01-4.806 3.474-7.155 5.995-2.212 2.373-3.454 4.936-3.776 5.684-.76 1.771-.003 2.725 1.464-.003z"/></g></g></svg>