<svg xmlns="http://www.w3.org/2000/svg" xmlns:xlink="http://www.w3.org/1999/xlink" height="1130.559" width="620"><defs><linearGradient id="a"><stop offset="0" stop-color="#363765"/><stop offset="1" stop-color="#9a9eef"/></linearGradient><linearGradient gradientTransform="matrix(.32966 -.04411 .04834 .36123 273.6 118.655)" xlink:href="#a" id="b" x1="500.065" y1="-97.003" x2="499.827" y2="-90.061" gradientUnits="userSpaceOnUse"/><linearGradient gradientTransform="matrix(.34497 -.04616 .0483 .36096 266.566 119.495)" xlink:href="#a" id="c" x1="444.865" y1="-97.139" x2="444.924" y2="-90.907" gradientUnits="userSpaceOnUse"/></defs><g transform="matrix(3.85495 0 0 3.85495 -1315.097 20.093)"><path d="M385.41 7.6l80.698-7.777 32.677 75.138-80.698 7.776z" fill="#5ca385"/><path d="M498.785 74.96l-80.698 7.777L385.41 7.6" fill="none" stroke="#5b5b4a" stroke-width=".259" stroke-linecap="round" stroke-linejoin="round"/><path d="M420.221 22.466c8.862-.625 27.31 8.136 27.6 17.17.122 3.825 3.061 16.21 3.061 16.21l2.13 8.949 3.078 12.925 2.962 16.075 2.003 14.826-25.487 32.428 37.64-5.41.058-5.744.186-4.25.275-5.832.138-3.673.215-4.014.252-5.256.078-6.018.009-5.515-.087-5.528.358-5.078.173-6.587.097-4.294.165-7.132-.055-5.133-.426-7.484-.8-4.903-.075-3.175-.266-2.173-.348-2.568-.698-2.25-.74-2.094-.857-1.99-1.38-2.592-.743-1.21-.933-1.438-1.62-2.246-1.178-2.137-1.832-1.502-2.964-1.902-2.698-1.31-2.688-1.038-4.063-1.254-1.785-.441-1.457-.311-2.567-.43-2.214-.214-2.53-.038-2.087.124-2.045.223-1.955.285-1.861.34-1.922.433-1.556.377-2.051.699-1.79.67-1.796.821-1.456.752z" fill="#4d493f"/><path d="M419.437 108.078l22.634-2.84 3.443-28.738-27.814.527z" fill="#4d493f"/><path d="M407.314 39.142c.46-3.765 3.825-10.668 12.084-16.148 4.973-3.3 10.685-5.082 17.496-5.861 3.99-.456 6.98-.333 11.177.546 5.019 1.052 10.249 2.953 13.531 5.062 4.132 2.655 5.818 5.094 8.28 9.225 3.022 5.07 3.527 9.633 3.839 11.403 1.16 6.573 1.156 12.463 1.299 19.562.295 14.721-1.326 62.486-2.331 90.95-.433 12.24-4.08 21.413-6.106 25.322.848-4.237 1.103-5.755 1.193-10.707-.26 5.555-3.507 11.86-5.73 14.345.7-1.663 2.606-7.046 2.203-11.333.122 1.707-.376 6.437-2.6 10.92.417-1.58.316-3.514.184-5.29-.263.2-1.66 5.491-2.817 7.683.432-2.823.46-3.606.26-7.323-.102 3.031-.28 5.565-1.402 7.89-.165-1.547-.178-4.633-.775-5.651.427 2.041-.229 6.598-.833 7.581.228-1.896.197-4.692-.174-6.238-.08 1.538-.766 4.836-1.807 7.746.792-3.57.191-8.973-.319-10.106.742 4.427-.468 8.564-1.754 11.59.376-3.766-.098-6.445-.44-8.448-.011 3.325-.305 5.654-1.158 8.523.089-2.716.013-4.899-.817-9.922.51 4.218 1.154 6.932-.006 11.294-.892-4.884-1.371-6.554-2.693-9.596 1.069 3.722.773 7.095.615 10.119-.594-3.595-1.545-7.583-2.373-9.934.672 2.723 1.446 6.435.504 11.094-.346-5.768-2.352-12.63-2.352-12.63l3.551-141.084" fill="#4d493f" stroke="#423c38" stroke-width=".187" stroke-linecap="round" stroke-miterlimit="100"/><path d="M410.229 45.715c2.39 21.74 3.282 79.66 4.287 108.124.432 12.24 4.079 21.412 6.105 25.322-.847-4.237-1.102-5.756-1.192-10.707.26 5.555 2.68 12.14 4.903 14.625-.701-1.663-1.78-7.327-1.376-11.614-.461 5.054 1.189 9.543 3.847 13.978-.416-1.58-1.564-6.571-1.43-8.348.262.2 1.66 5.492 2.816 7.683-.432-2.823-.46-3.605-.26-7.322.102 3.03.69 7.204 1.811 9.53-.24-2.157-.231-6.273.366-7.292-.427 2.042.229 6.598.833 7.582-.228-1.897-.198-4.693.173-6.238.08 1.538.767 4.835 1.807 7.745-.792-3.569-.19-8.972.32-10.105-.742 4.427.468 8.564 1.754 11.59-.376-3.766.098-6.445.439-8.448.012 3.325-.058 6.195.795 9.065-.089-2.717.35-5.441 1.181-10.464-.51 4.218-.264 8.043.896 12.405.487-4.93.48-7.666 1.802-10.708-1.069 3.723.18 7.096.337 10.12.594-3.595.593-7.583 1.421-9.934-.672 2.722-.494 6.434.448 11.094.205-3.419.659-7.222.995-9.753.062-.469.31 4.809.86 10.188 1.423-5.104.107-14.42.107-14.42l3.16-105.59z" fill="#4d493f" stroke="#423c38" stroke-width=".187" stroke-linecap="round" stroke-miterlimit="100"/><path d="M468.5 131.49c8.533-12.039 3.172-29.677 2.292-30.338-1.157-.678-4.018-3.11-6.501-3.213 0 0 6.483 16.735-1.382 31.81l-.003.005c-10.978-1.331-22.857-.311-30.653-3.57 4.185-9.093 2.455-31.03-.433-31.367-1.823.414-2.173.628-5.803 3.819 4.04-1.67 2.181 23.317.543 26.918-3.077-.825-5.328-1.568-10.94-1.334l1.953 19.773 52.016 3.257 8.151-13.212c.572-.991-6.168-2.547-9.24-2.547z" fill="#6269bb" stroke="#605baa" stroke-width=".187"/><path d="M380.938 252.723c2.116 7.552 21.93 19.988 37.166 14.21 3.26-1.236 18.249-9.549 30.99-1.474 9.147 5.797 30.719-7 31.05-10.594-2.243-2.52-19.857-8.64-29.78-9.59-28.419-2.721-40.176 2.916-40.176 2.916z" fill="#585f98" stroke="#605baa" stroke-width=".187" stroke-linejoin="round"/><path d="M355.403 156.224c-1.155-.124-2.397.11-2.402.878-.005.741 1.054 1.351 1.72 1.536" fill="#e9d8d0" stroke="#967566" stroke-width=".187" stroke-linecap="round"/><path d="M426.011 121.942l-.906 40.382-4.697 6.522c-10.67 2.488-39.365.028-39.365.028l-8.203 1.252c-.402.113-1.405.433-3.485.827-.657.125-2.935-.026-3.547-.884-2.14-.51-2.599-1.162-3.363-2.064-1.214-.01-2.003-.172-2.56-2.238-1.356-.834-2.51-1.947-2.529-3.691l7.9-1.032c-.946-.592-1.646-.298-3.38-.754-4.137-.517-9.067-.588-8.494-3.59.252-1.32 5.436-.699 8.014-.192 2.077.407 4.338.96 4.82 1.218 1.059.565 6.73.415 11.025 3.84 0 0 22.397-8.314 36.11-5.815 0 0 5.437-35.068 6.848-41.046.642-4.637-1.35-7.741 11.62-15.683 6.262-3.835 8.56-5.541 8.56-5.541" fill="#e9d8d0"/><path d="M373.053 166.702l-8.89.382-6.82-4.871.13-1.687 13.971 1.986z" fill="#e9d8d0"/><path d="M368.608 166.893s.751 2.274 2.634 3.66l2.58-.577-3.59-3.153z" fill="#b89e93"/><path d="M426.011 121.942l-.906 40.382-4.697 6.522c-10.67 2.488-39.365.028-39.365.028l-8.203 1.252c-.402.113-1.405.433-3.485.827-.657.125-2.935-.026-3.547-.884-2.14-.51-2.599-1.162-3.363-2.064-1.214-.01-2.003-.172-2.56-2.238-1.356-.834-2.51-1.947-2.529-3.691m7.9-1.032c-.946-.592-1.646-.298-3.38-.754-4.137-.517-9.067-.588-8.494-3.59.252-1.32 5.436-.699 8.014-.192 2.077.407 4.338.96 4.82 1.218 1.059.565 6.73.415 11.025 3.84 0 0 22.397-8.314 36.11-5.815 0 0 5.437-35.068 6.848-41.046.642-4.637-1.35-7.741 11.62-15.683 6.262-3.835 8.56-5.541 8.56-5.541" fill="none" stroke="#967566" stroke-width=".186" stroke-linecap="square" stroke-linejoin="round"/><path d="M342.536 139.272l.268-1.442 43.851-10.626 52.39 53.772-42.683 12.248z" fill="#585858" stroke="#3f3f3f" stroke-width=".187" stroke-linecap="round" stroke-linejoin="round"/><path d="M342.804 137.83l44.046-12.048 52.49 53.873-42.61 12.228z" fill="#877c72"/><path d="M342.804 137.83l44.046-12.048 52.49 53.873-42.61 12.228z" fill="#585858" stroke="#3f3f3f" stroke-width=".187" stroke-linecap="round" stroke-linejoin="round"/><path d="M408.187 189.86l-4.197 1.175 1.436-1.647c.666-1.606 1.6-4.704 4.531-7.854l1.26-.35 2.13-.43.812 7.363zM371.817 161.825l-2.16 1.04 1.476 3.277.789 2.576-2.228-2.012-2.055-4.054-.05-.772 2.376-1.4.482-.168z" fill="#454545"/><path d="M349.44 139.304l37.734-10.321 44.969 46.153-36.504 10.476z" fill="#f0f0f0" stroke="#939393" stroke-width=".187" stroke-linecap="round" stroke-linejoin="round"/><path d="M356.401 135.199l23.88-6.84 3.182 2.73-24.112 6.75z" fill="#b6b6b6" stroke="#787878" stroke-width=".187"/><ellipse cx="378.652" cy="130.119" rx=".64" ry=".379" fill="#b6b6b6" stroke="#787878" stroke-width=".187" stroke-linecap="round" stroke-linejoin="round"/><path d="M349.693 138.973l37.735-10.322 44.968 46.154-36.503 10.475z" fill="#f0f0f0" stroke="#939393" stroke-width=".187" stroke-linecap="round" stroke-linejoin="round"/><path d="M361.035 134.847l.05.153c.833-.129 1.798-.138 2.423.123.683.284.961.89.22 2.012l-.493.151s.336.743.669.687c2.11-.353 17.204-4.453 17.321-5.212 1.162-1.41.845-2.142.166-2.513-.747-.407-1.933-.377-2.071-.324l-.016.288s.751.05 1.329.32c.646.304 1.074.883-.008 1.977-.323.293-16.178 4.447-16.178 4.447.332-.892.22-1.597-.261-2.013-.573-.497-1.667-.585-3.15-.096z" fill="#828282"/><path d="M350.002 138.756l37.686-9.83 45.648 46.25-37.686 9.83z" fill="#f8f8f8" stroke="#939393" stroke-width=".187" stroke-linecap="round" stroke-linejoin="round"/><path d="M374.9 158.983s1.866.075 1.708 1.22l-4.728.797-.02.85-1.768-1.846 5.206-3.633c-.6.873-.398 2.612-.398 2.612z" fill="#8a8a8a" fill-opacity=".643"/><path style="line-height:1.25;-inkscape-font-specification:'DejaVu Sans Bold'" d="M379.67 137.858l3.484-.908-2.242-4.545-3.483.91.436.884 2.22-.579.417.847-1.624.423.437.886 1.624-.424.514 1.041-2.22.58zM382.656 133.152l1.782 3.463 2.598-.678zM388.311 135.604l-5.826-3.61 1.27-.33 1.043.662 1.977-.516-.422-.824 1.271-.332 2.21 4.553zm-.176-1.156l-.929-1.799-1.343.35z" font-weight="700" font-size="4.233" font-family="DejaVu Sans" letter-spacing="0" word-spacing="0" fill="#898ee2" stroke="#d2d1f1" stroke-width=".168"/><path d="M353.7 139.725l20.589-5.37 16.846 17.067-20.59 5.37z" opacity=".998" fill="#e1e9f8" stroke="#5c5bb7" stroke-width=".187" stroke-linecap="round" stroke-linejoin="round"/><path d="M371.46 153.138c5.157-2.189 7.238-3.548 7.447-6.814.091-1.416-2.73-7.815-4.197-9.37" fill="none" stroke="#5c5bb7" stroke-width=".187"/><path d="M358.551 139.854l15.013 15.211M369.183 153.756l17.642-4.602" fill="none" stroke="#000" stroke-width=".187" stroke-dasharray=".373241,.373241"/><path style="line-height:1.25;-inkscape-font-specification:'DejaVu Sans'" d="M382.993 138.555l.339.695.553-.145zm-.28-.137l.231-.06 1.808 1.102-.211.055-.454-.285-.678.177.18.356-.215.056zM385.189 139.346l-1.271-.849.199-.052 1.069.712q.018-.135-.024-.306-.03-.128-.118-.223-.042-.045-.149-.122-.127-.093-.342-.175l.188-.048q.143.056.292.148.136.084.2.15.163.164.17.346.01.238-.017.368zM386.343 138.496l-.235-.182q-.242-.187-.42-.14-.136.035-.106.143.036.136.187.289.182.184.344.252.165.07.287.038.135-.035.031-.232zm-.15-.284l-.142-.271.165-.043.296.562.221.173q.05.039.12.064.08.03.112.021l.09-.023.128.13-.11.03q-.095.024-.25-.024-.075-.024-.165-.094.045.106.022.203-.01.046-.154.084-.237.061-.477-.036-.248-.1-.476-.331-.243-.247-.23-.396.016-.166.215-.218.313-.082.636.17zM387.314 137.768q-.066.017.054.139l.568.575q.095-.025.105-.137.01-.1-.176-.287-.172-.175-.351-.246-.146-.058-.2-.044zm-.13-.131q.14-.037.378.04.255.083.499.33.224.227.22.398-.005.161-.21.214l.333.337-.184.048-.332-.336q-.2.053-.462-.04-.266-.095-.494-.326-.236-.24-.22-.398.013-.118.157-.185l.134.137q-.047.036-.041.117.009.119.166.278.167.17.349.243.162.066.275.037l-.568-.576q-.25-.253 0-.318zM388.455 137.45q-.15.039-.14.158.008.12.175.288.166.168.348.243.181.074.331.035.148-.039.14-.159-.01-.12-.176-.287-.164-.167-.347-.241-.183-.076-.331-.037zm-.13-.131q.242-.063.51.032.266.094.495.326.227.23.22.398-.01.167-.252.23t-.51-.032q-.266-.096-.494-.326-.228-.231-.22-.398.009-.167.252-.23zM389.422 137.272q-.023-.101.055-.216.03-.045.214-.093.205-.054.467.049.263.102.481.323.219.221.224.39.006.17-.2.224-.124.032-.253.015-.13-.018-.27-.086l.491.497-.186.049-.807-.817q-.19-.194-.216-.335zm1.025.113q-.168-.17-.348-.244-.18-.075-.326-.037-.147.038-.136.157.011.119.18.289.167.17.347.245.18.075.327.036.147-.038.135-.156-.011-.12-.18-.29zM391.636 137.115l-.236-.182q-.241-.187-.42-.14-.135.035-.106.144.037.136.187.288.182.184.345.253.165.07.287.038.135-.036.031-.233zm-.15-.283l-.142-.272.165-.043.296.563.221.173q.05.038.119.064.08.03.113.02l.089-.022.129.13-.111.03q-.095.024-.249-.024-.076-.025-.166-.094.046.105.023.203-.01.046-.154.083-.237.062-.478-.035-.248-.101-.475-.332-.243-.246-.23-.395.015-.166.215-.218.313-.082.635.169zm-.86-.63l.2-.053-.017.4-.154.041z" font-weight="400" font-size="7.915" font-family="DejaVu Sans" letter-spacing="0" word-spacing="0"/><path d="M374.222 159.902c4.115.519 1.443-1.763 3.718-.823 2.276.94.175-2.566 3.195-1.215 1.67.747 1.99.405 2.127-.522.15-1.01 2.447 1.277 3.195-.642.66-1.693 1.583-.873 2.855-.833 1.462.045.703-2.23 2.174-1.18 1.404 1.003 1.128-1.344 2.292-.538.59.407 1.409.79 2.569-.925.219-.323.678.604 2.138.565.755-.02.865-1.406 1.71-1.614.776-.192 1.405.832 1.996.854.29.01 1.199-.986 1.505-1.262 1.219-1.096 1.55 1.46 2.164-.619M378.44 163.774c1.056.382.92.212 1.063-.509.228-1.155 1.24.013 1.971-.223 1.002-.323.739-1.953 1.985-.938.477.388 2.082.155 1.863-.625-.23-.819 1.985-1.85 2.867-.656.538.728 1.496.221 1.72-.575.38-1.35.696-1.6 2.774-.651 1.152.526 1.16-1.262 2.11-1.605.925-.334 2.223.456 2.381-.171.308-1.225 2.425.489 2.487-.1.102-.956.343-1.598 2.762-.561 1.4.6.708-1.801 2.274-.477 1.107.936.911-.945 1.497-1.213.565-.259 1.545 1.162 1.69.04.057-.445.65-.81 1.624.064M382.17 167.44c.69.32.391-.972 2.142.355.669.507.658-1.943 1.992-2.305.446-.121.856 1.256 2.246.99 1.09-.209.343-1.916 1.241-2.219.683-.23 1.63.884 2.143.81.707-.103.89-2.445 1.522-1.571.989 1.368 2.555.922 2.388-.172-.145-.95.714-1.64 2.022-.347.839.83 1.73-2.066 2.37-1.368 2.327 2.538 1.784-.627 2.318-.868 1.338-.603 1.919 2.216 2.452.842.772-1.992 1.624-.466 2.366-.586 1.011-.162.366-1.635.946-1.658.745-.028 1.99.258 1.95-.005-.092-.6.746-.722 1.844-.151M386.417 171.955c.066-.935.626-1.926 1.48-.701.41.586 1.023-1.218 1.668-1.43.65-.213 1.438 1.105 1.823 1.018.762-.173 1.378-2.714 2.574-1.113.34.456 2.438.387 2.327-.23-.17-.941.505-1.813 1.614-1.03 2.689 1.903 1.143-2.024 3.295-.81.372.211 1.574.63 1.88.328.347-.342.724-1.504 1.15-1.69.802-.35 2.543 1.306 2.72.385.575-2.982 2.775-1.226 3.227-1.102.876.239.51-1.69 1.016-1.774.61-.1 2.247.84 2.65.671.747-.311-.615-.825.393-1.626.556-.442 1.335.24 1.384.11" fill="none" stroke="#000" stroke-width=".187"/><path d="M409.911 181.521l.015-.304s2.15-6.12 3.15-8.699c1.785-4.595 3.968-8.933 4.807-12.468l2.593.244-5.04 19.584z" fill="#8a8a8a" fill-opacity=".643"/><path d="M390.452 176.108c-.428-1.186.813-1.218 1.304-.765.736.678 1.932 1.207 1.807-.071-.042-.44.775-1.807 1.676-.903.666.669 1.137 1.15 2.217-.45.684-1.014 1.07 1.063 2.884.338.676-.27 1.34-2.065 2.15-1.552 1.895 1.199 2.83.688 2.878-.662.029-.818-.169-.895 1.622-.696.557.062 1.643.607 1.958.019.173-.325.522-1.206 1.414-1.738.724-.433 1.087.842 1.649.662.492-.158.386-1.314 1.198-1.866.802-.544 1.71.94 1.996.44.424-.744 3.295-2.168 4.468-1.36M394.403 179.85s-.362-1.148 1.365-.973c1.727.174.94.812 1.73.668.928-.169.244-1.905 2.068-1.36 1.824.547 2.398.898 2.103-.09-.243-.812.358-2.518 1.538-1.078.46.561 1.49 1.336 1.632-.23.122-1.341.937-.807 1.928-.167.992.64.993-1.882 2.21-.904 1.507 1.213.784-.865 1.572-.961.707-.087 2.233.923 2.209.542-.051-.807.047-1.499.976-.788 1.048.803-.212-1.4 1.1-.586 1.31.815 2.603.704 2.948.221.345-.483-1.24-1.84.632-1.145 1.872.696 1.701-.712 2.018-1.16.317-.45 3.686.137 3.686.137" fill="none" stroke="#000" stroke-width=".187"/><path d="M360.062 161.289c-.045-.79 1.31-3.704.575-4.12.864-.477 3.67-1.827 4.457-2.658 1.518-.413 2.124-.543 4.476-.815.538-.062.93-.515 1.147-1.408 0 0-1.36-.575-1.707-.613-1.615-.178-4.241-.36-5.268-.036-1.107.35-5.693 2.585-5.887 4.154-.173 1.405-.534 3.104-.499 6.283" fill="#e9d8d0" stroke="#967566" stroke-width=".187"/><path d="M363.235 163.049c-.045-.79.907-4.67.801-5.556.864-.477 2.46-.958 3.869-1.74.954-.03 1.399.173 4.62-.308.373-.056.934-.418 1.163-1.232l-1.386-.558c-.54-.094-4.344-.931-5.403-.597-1.107.349-6.014 1.488-6.518 3.346-.49 1.807-.683 3.137-.448 5.3" fill="#e9d8d0" stroke="#967566" stroke-width=".187" stroke-linecap="round"/><path d="M365.65 165.789c-.045-.79.758-5.724.484-6.769.864-.477 2.866-.734 3.654-1.565 1.38-.144 1.944-.118 3.895-.229.427-.024 1.267-.21 1.68-1.185l-.824-.557c-1.61-.29-4.319-1.045-5.374-.712-1.107.35-5.97 1.342-6.385 3.247-.398 1.83-.514 3.103-.23 6.116" fill="#e9d8d0"/><path d="M366.482 158.659c.714-.742 3.903-1.944 3.903-1.944 1.196.131 4.364-.091 4.73-.203l-.547.458-.89.312-2.205.048-3.11.961z" fill="#b89e93"/><path d="M365.65 165.789c-.045-.79.758-5.724.484-6.769.864-.477 2.866-.734 3.654-1.565 1.38-.144 1.944-.118 3.895-.229.42-.024 1.267-.303 1.719-1.271l-1.594-.646c-1.635-.307-3.756-.817-4.643-.537-1.107.35-5.97 1.342-6.385 3.247-.398 1.83-.514 3.103-.23 6.116" fill="none" stroke="#967566" stroke-width=".187" stroke-linecap="round"/><path d="M369.885 166.977c-.046-.79-1.804-3.89-2.268-4.81.864-.478 2.393-1.335 3.181-2.166 1.249-.04 1.737-.002 3.58-.594a3.45 3.45 0 00.82-.988l-1.182-.78c-1.904-.191-3.317-.583-4.397-.245-1.108.347-4.383 1.462-4.511 2.585-.082.72.073 4.197.29 6.832" fill="#e9d8d0"/><path d="M369.885 166.977l-1.256-.025c-.605-2.468-1.647-5.063-1.647-5.063 1.948-.768 3.637-2.42 3.637-2.42 2.07-.066 3.733-.623 4.51-.77l-.23.284-.504.4-.538.185-1.98.392-1.079.04-1.188.969-1.993 1.197 1.063 2.012.649 1.297z" fill="#b89e93"/><path d="M369.885 166.977c-.046-.79-1.804-3.89-2.268-4.81.864-.478 2.393-1.335 3.181-2.166 1.249-.04 1.818-.035 3.58-.594.53-.168.598-.51.772-.986-.057-.399-.998-.81-1.278-.87-1.813-.088-3.224-.48-4.253-.157-1.108.347-4.383 1.462-4.511 2.585-.082.72.073 4.197.29 6.832" fill="none" stroke="#967566" stroke-width=".187" stroke-linecap="round"/><path d="M396.67 191.821l-.27 1.442" fill="none" stroke="#3f3f3f" stroke-width=".187"/><path d="M363.508 135.123c.683.284.961.89.22 2.012l-.493.151s.336.743.669.687c2.11-.353 17.204-4.453 17.321-5.212 1.162-1.41.845-2.142.166-2.513l-.758.285c.646.303 1.074.882-.008 1.976-.323.293-16.178 4.447-16.178 4.447.332-.892.22-1.597-.261-2.013z" fill="#8a8a8a" fill-opacity=".643"/><ellipse ry=".379" rx=".64" cy="135.149" cx="360.362" fill="#b6b6b6" stroke="#787878" stroke-width=".187" stroke-linecap="round" stroke-linejoin="round"/><path d="M360.276 135.366c1.58-.447 2.442.482 2.59 2.284.037.448 17.957-4.497 17.958-5.027-.128-1.609-1.06-2.976-2.63-2.49l.17.208c1.078-.347 1.959.514 1.867 2.172-.85.427-15.718 4.542-16.991 4.76-.068-2.725-2.55-2.54-3.234-1.975z" fill="#b6b6b6" stroke="#787878" stroke-width=".187"/><path d="M369.338 152.598c.543.112 1.697.194 1.792-.031.07-.165-.914-.674-2.1-.87M372.065 154.48c.565.123 1.934.305 1.941.021.006-.217-.914-.693-1.99-.89M373.776 156.256c.428.07 1.795.105 1.822-.205.02-.217-1.146-.611-1.903-.736M374.044 158.524c.701.1 1.304-.077 1.356-.271.05-.19-.62-.66-1.548-.65" fill="#e9d8d0" stroke="#967566" stroke-width=".187" stroke-linecap="round"/><path d="M419.322 109.161s-7.71 19.458-8.994 26.617c-1.285 7.159 5.507 13.583 5.507 13.583s-5.427 27.05-7.006 30.153c-17.574 34.534-6.727 74.39 3.226 108.714h28.127c2.517-31.45 1.114-62.33-4.774-80.454z" fill="#e9d8d0"/><path d="M402.355 249.803c.881 4.542 3.262 14.742 3.173 14.442.777 2.9 9.454 4.006 18.144 3.363.668 2.656 1.242 8.704 1.186 12.391l15.913-.49c.57-10.063.656-24.637.488-34.817-4.373 5.998-39.185 3.632-38.904 5.111z" fill="#bea79d"/><path d="M419.322 109.161s-7.71 19.458-8.994 26.617c-1.285 7.159 5.507 13.583 5.507 13.583s-5.427 27.05-7.006 30.153c-17.574 34.534-6.727 74.39 3.226 108.714h28.127c2.517-31.45 1.114-62.33-4.774-80.454z" fill="none" stroke="#967566" stroke-width=".18652889999999997" stroke-linejoin="round"/><path d="M441.36 270.022c.004.169.027.27-.015.585-.655 4.904-32.032 7.095-33.972 1.303-.06-.182-.083-.382-.117-.554-.203.06-.6.49.041 1.753.876 1.73 2.747 8.635 4.653 15.12h28.315c.874-10.348.977-14.062 1.467-16.848.217-1.235-.164-1.343-.371-1.36z" fill="#c7cdf9"/><path d="M441.357 270.043c-.007 3.672-9.299 4.656-16.53 5.254.174.01.212.107.22.371.148 4.678-.305 9.866-.121 12.56h15.34c.428-5.64.8-11.348 1.43-16.732.066-.56.107-1.312-.339-1.453z" fill="#8a99e5"/><path d="M441.479 273.087c-.656 4.905-31.722 7.098-33.662 1.306" fill="none" stroke="#8a99e5" stroke-width=".187" stroke-linecap="round" stroke-linejoin="round"/><path d="M441.479 273.087c-.327 2.446-8.216 4.217-16.284 4.66" fill="none" stroke="#7b86d1" stroke-width=".187" stroke-linecap="round" stroke-linejoin="round"/><path d="M441.36 270.022c.004.169.027.27-.015.585-.655 4.904-32.032 7.095-33.972 1.303-.06-.182-.083-.382-.117-.554-.203.06-.6.49.041 1.753.876 1.73 2.747 8.635 4.653 15.12h28.315c.874-10.348.977-14.062 1.467-16.848.217-1.235-.164-1.343-.371-1.36z" fill="none" stroke="#6a7098" stroke-width=".18652889999999997" stroke-linecap="round" stroke-linejoin="round"/><path d="M434.358 84.725l.365 4.718-.083 3.37-.396 3.617 8.186-.11 13.58.117-.534-3.185-.296-2.405-.185-3.357.125-2.063.213-1.41.226-1.584.258-1.376.704-2.963.573-1.94.481-1.362 1.249-3.194-4.322 1.698-1.208 1.775-2.276 2.45-1.724.876-4.395 2.275-2.993.99-4.09 1.22-3.567.855z" fill="#e9d8d0"/><path d="M458.692 71.847c-1.53 2.907-3.586 9.65-3.744 15.32-.107 3.832 1.524 11.45 1.524 11.45" fill="none" stroke="#927163" stroke-width=".275" stroke-linejoin="round"/><path d="M442.598 217.469l18.465-117.064-4.505-4.702-22.506.232-14.618 18.41 7.702 100.93" fill="#e9d8d0"/><path d="M434.6 87.6l.045 1.055v2.76l-.412 4.091-.602 6.293.07 9.659 5.897-5.91C435.87 101.098 434.6 87.6 434.6 87.6z" fill="#b89e93"/><path d="M434.252 83.77s1.109 7.638-.295 12.975" fill="none" stroke="#927163" stroke-width=".187" stroke-linecap="round" stroke-linejoin="round"/><path d="M434.038 83.77c12.092-.312 15.304 2.444 14.612 10.483 2.347.187 7.681 4.327 7.681 4.327l-1.42-10.249.308-4.333.32-2.094 1.391-5.402 1.342-3.84-.826-.223-2.744.869-.957.76-1.196 1.363-1.634-.087.01 1.415-1.11 1.23-1.772.684-2.182 1.666-2.641.889-5.299 1.625-1.317.314z" fill="#a18981"/><path d="M453.645 93.69l-32.409 130.353c-.119 12.837 1.392 41.632 3.395 64.185h29.13c2.593-14.504 6.036-34.589 7.244-52.907 8.326-16.177 8.065-39.048-3.77-51.256-11.186-11.538 14.68-32.56 24.09-61.441 3.87-11.88-2.896-14.838-6.15-17.627-2.97-2.547-16.574-9.672-21.53-11.306z" fill="#e9d8d0"/><path d="M460.133 246.785c-6.226 5.479-35.597 4.037-37.915 4.56.205 3.636.958 18.455 1.05 19.37-.3-3.846 17.884-6.483 17.09 7.696-.227 4.077-.424 7.545-.54 9.817h2.997l12.726-10.476c1.162-6.338 3.897-24.294 4.592-30.967z" fill="#bea79d"/><path d="M453.645 93.69l-32.409 130.353c-.119 12.837 1.392 41.632 3.395 64.185h29.13c2.593-14.504 6.036-34.589 7.244-52.907 8.326-16.177 8.065-39.048-3.77-51.256-11.186-11.538 14.68-32.56 24.09-61.441 3.87-11.88-2.896-14.838-6.15-17.627-2.97-2.547-16.574-9.672-21.53-11.306z" fill="none" stroke="#967566" stroke-width=".18652889999999997" stroke-linecap="round" stroke-linejoin="round"/><path d="M456.688 272.393c-.04.218-.098.38-.16.616-1.508 5.792-31.273 7.115-33.09 2.172a1.574 1.574 0 01-.066-.712c-.36.082-.514.599-.288 1.442.231.864.951 7.665 1.405 12.317h29.47c1.002-5.597 2.137-11.726 2.895-14.586.23-.865.026-1.183-.166-1.25z" fill="#c7cdf9"/><path d="M456.774 272.447c-.013-.002-.026.004-.04.021-.706 4.097-12.304 5.43-16.54 5.584.167.014.38.144.366.425-.19 3.516-.457 7.156-.646 9.751h14.068c.53-2.902 1.632-8.93 2.982-14.944-.04-.35-.103-.817-.19-.837z" fill="#8a99e5"/><path d="M423.378 277.902c2.063 4.683 29.562 3.605 32.829-1.624" fill="none" stroke="#8a99e5" stroke-width=".187" stroke-linecap="round" stroke-linejoin="round"/><path d="M440.584 280.74c7.125-.447 14.079-1.991 15.623-4.462" fill="none" stroke="#7b86d1" stroke-width=".187" stroke-linecap="round" stroke-linejoin="round"/><path d="M456.674 272.34c-.04.218-.101.378-.16.615-1.408 5.753-30.934 7.088-33.075 2.226-.056-.125-.109-.393-.067-.712-.36.082-.514.599-.288 1.442.231.864.951 7.665 1.405 12.317h29.466c1.014-5.702 2.147-11.853 2.886-14.64.23-.864.025-1.183-.167-1.249z" fill="none" stroke="#6a7098" stroke-width=".18652889999999997" stroke-linecap="round" stroke-linejoin="round"/><path d="M428.208 97.903s-10.452 5.899-12.118 9.322c-.942 1.935-7.486 24.634-10.044 26.118 5.125 4.715 21.175 3.825 21.175 3.825z" fill="#c7cdf9" stroke="#6a7098" stroke-width=".187" stroke-linejoin="round"/><path d="M434.202 93.976c-4.601 2.913-9.568 6.026-12.571 8.086-4.233 11.533-10.963 25.826-11.785 35.817-.29 3.524 3.748 9.697 5.712 11.562l-6.415 29.037-4.13 9.176s.062 8.174 11.668 10.473c8.156-9.29 19.603-36.254 17.087-48.9-1.874-1.874-4.244-4.634-4.71-7.52-.677-4.21 5.423-19.288 4.847-27.475z" fill="#c7cdf9" stroke="#6a7098" stroke-width=".187" stroke-linecap="round" stroke-linejoin="round"/><path d="M443.033 101.286s-3.615 1.59.788-3.642c1.954 2.302 2.148 4.577 2.87 8.57 3.42-1.762 10.396-9.84 10.367-12.463.12-2.153.281-8.095-1.869-8.341l.025.432s.339-.02.308.44c-.464 1.979-5.71 8.509-11.809 10.747-8.505 9.15-12.136 14.924-17.705 35.689-4.258 15.88.856 11.852 3.666 17.144-.74 13.916-6.674 28.923-7.31 31.481-1.35 5.425-.217 12.952 4.632 17.587 7.553 1.761 33.236-4.939 35.627-7.329-2.188-5.736-7.358-7.753-7.968-13.58-.817-7.805 9.653-21.214 17.98-35.83 6.666-11.7 11.875-23.503 9.393-29.961-3.424-8.911-25.168-17.385-25.168-17.385" fill="#c7cdf9"/><path d="M432.778 112.803c2.297-5.148 11.232-16.514 13.69-7.75l-.32-1.88-.424-1.856-.814-2.082-1.089-1.591-1.579 1.923-3.47 3.95-2.744 3.554-2.066 3.105zM432.854 94.829c-2.003 2.171-3.87 5.41-6.632 11.834-.878 4.56 1.488 12.91 4.51 18.107l-11.699-5.53 6.754-18.625 3.504-4.72 2.59-.489zM455.196 85.802l.27.18.063.313-.78 1.573-1.215 1.655-2.208 2.4-2.615 2.233c2.033.727 2.422 7.108 1.161 9.59l2.47-2.521 1.755-2.08 1.614-2.237 1.209-2.29.2-.965.036-1.324-.128-2.753-.343-2.013-.24-.911-.541-.883-.722-.44z" fill="#8a99e5"/><path d="M456.86 94.845l-6.352 8.378-.893.775-1.64 1.375-1.334.857-.85 8.695c-.347 1.85-4.917 8.756-4.917 8.756-3.317.028-8.256-.934-10.965-1.505l-.755-.21-.96-.275s.372 1.497 2.758 2.065c3.16.754 9.07.765 8.92.973l2.89-.276 4.918.306.527-.982c-1.6.264-5.028.137-5.028.137 1.111-1.235 3.46-3.702 4.465-6.253l.037 6.592 8.64.236 1.719 2.076 1.37 1.517 1.637-1.405 3.703-3.1 4.223-3.555-.851-2.166 2.259-10.621 3.45-3.576-2.997-1.923-2.915-1.673-5.379-2.73zM437.223 108.325c.013.293-.026.763-.192 1.15-.165.389-.459.686-.852.941-.014-.41.104-.954.239-1.233.135-.28.507-.69.805-.858z" fill="#8a99e5"/><path d="M436.413 109.98s.125-.44.24-.673c.115-.233.365-.574.365-.574s-.127.455-.243.689a4.451 4.451 0 01-.362.557z" fill="#6269bb" stroke="#6269bb" stroke-width=".094" stroke-linecap="round" stroke-miterlimit="6.6"/><path d="M433.028 119.083c.383.133.73 1.174.375 1.7-.355.525-.891.472-1.446.357z" fill="#8a99e5"/><ellipse transform="rotate(14.305)" ry="1.205" rx=".997" cy="9.476" cx="448.626" fill="#7a7fc5"/><ellipse cx="448.625" cy="9.468" rx=".742" ry=".897" transform="rotate(14.305)" fill="#8a99e5"/><ellipse transform="rotate(14.305)" ry=".198" rx=".164" cy="9.126" cx="448.371" fill="#7a7fc5"/><ellipse transform="rotate(14.305)" ry=".198" rx=".164" cy="9.161" cx="448.894" fill="#7a7fc5"/><ellipse transform="rotate(14.305)" ry=".198" rx=".164" cy="9.749" cx="448.361" fill="#7a7fc5"/><ellipse transform="rotate(14.305)" ry=".198" rx=".164" cy="9.79" cx="448.865" fill="#7a7fc5"/><path d="M432.228 119.63c.186.43.3.774.3.774M432.01 120.24c.208-.189.586-.405.7-.44" fill="none" stroke="#6a70be" stroke-width=".187" stroke-linecap="round"/><path d="M434.5 113.16c.046.289.06.76-.061 1.164-.121.404-.379.732-.74 1.03-.061-.406-.005-.96.097-1.252.103-.293.427-.744.704-.943z" fill="#8a99e5"/><path d="M433.881 114.894s.075-.45.163-.695c.089-.245.298-.611.298-.611s-.075.466-.164.71a4.452 4.452 0 01-.297.596z" fill="#6269bb" stroke="#6269bb" stroke-width=".094" stroke-linecap="round" stroke-miterlimit="6.6"/><path d="M433.354 111.36c3.028-5.747 6.064-8.484 10.467-13.716 1.954 2.302 2.148 4.577 2.87 8.57 3.42-1.762 10.396-9.84 10.367-12.463.12-2.153.281-8.095-1.869-8.341l.025.432s.339-.02.308.44c-.464 1.979-5.71 8.509-11.809 10.747-8.505 9.15-12.136 14.924-17.705 35.689-4.258 15.88.856 11.852 3.666 17.144-.74 13.916-6.674 28.923-7.31 31.481-1.35 5.425-.217 12.952 4.632 17.587 7.553 1.761 33.236-4.939 35.627-7.329-2.188-5.736-7.358-7.753-7.968-13.58-.817-7.805 9.653-21.214 17.98-35.83 6.666-11.7 11.875-23.503 9.393-29.961-3.424-8.911-25.168-17.385-25.168-17.385" fill="none" stroke="#6a7098" stroke-width=".187" stroke-linecap="round" stroke-linejoin="round"/><path d="M430.889 125.1c.383.132.73 1.173.375 1.699s-.891.473-1.446.357z" fill="#8a99e5"/><ellipse cx="448.04" cy="15.835" rx=".997" ry="1.205" transform="rotate(14.305)" fill="#7a7fc5"/><ellipse transform="rotate(14.305)" ry=".897" rx=".742" cy="15.827" cx="448.039" fill="#8a99e5"/><ellipse cx="447.785" cy="15.484" rx=".164" ry=".198" transform="rotate(14.305)" fill="#7a7fc5"/><ellipse cx="448.308" cy="15.519" rx=".164" ry=".198" transform="rotate(14.305)" fill="#7a7fc5"/><ellipse cx="447.775" cy="16.108" rx=".164" ry=".198" transform="rotate(14.305)" fill="#7a7fc5"/><ellipse cx="448.279" cy="16.149" rx=".164" ry=".198" transform="rotate(14.305)" fill="#7a7fc5"/><path d="M430.09 125.647c.185.429.298.773.298.773M429.871 126.257c.208-.19.586-.406.7-.44" fill="none" stroke="#6a70be" stroke-width=".187" stroke-linecap="round"/><path d="M429.318 131.233c.383.133.731 1.173.376 1.7-.356.525-.892.472-1.447.356z" fill="#8a99e5"/><ellipse cx="448.033" cy="22.166" rx=".997" ry="1.205" transform="rotate(14.305)" fill="#7a7fc5"/><ellipse transform="rotate(14.305)" ry=".897" rx=".742" cy="22.158" cx="448.032" fill="#8a99e5"/><ellipse cx="447.779" cy="21.816" rx=".164" ry=".198" transform="rotate(14.305)" fill="#7a7fc5"/><ellipse cx="448.302" cy="21.851" rx=".164" ry=".198" transform="rotate(14.305)" fill="#7a7fc5"/><ellipse cx="447.769" cy="22.439" rx=".164" ry=".198" transform="rotate(14.305)" fill="#7a7fc5"/><ellipse cx="448.273" cy="22.48" rx=".164" ry=".198" transform="rotate(14.305)" fill="#7a7fc5"/><path d="M428.518 131.78c.186.429.3.774.3.774M428.3 132.39c.209-.189.586-.405.7-.44" fill="none" stroke="#6a70be" stroke-width=".187" stroke-linecap="round"/><path d="M427.955 137.39c.383.133.73 1.173.375 1.7-.355.525-.892.472-1.447.356z" fill="#8a99e5"/><ellipse cx="448.234" cy="28.469" rx=".997" ry="1.205" transform="rotate(14.305)" fill="#7a7fc5"/><ellipse transform="rotate(14.305)" ry=".897" rx=".742" cy="28.461" cx="448.233" fill="#8a99e5"/><ellipse cx="447.979" cy="28.119" rx=".164" ry=".198" transform="rotate(14.305)" fill="#7a7fc5"/><ellipse cx="448.502" cy="28.154" rx=".164" ry=".198" transform="rotate(14.305)" fill="#7a7fc5"/><ellipse cx="447.969" cy="28.742" rx=".164" ry=".198" transform="rotate(14.305)" fill="#7a7fc5"/><ellipse cx="448.473" cy="28.783" rx=".164" ry=".198" transform="rotate(14.305)" fill="#7a7fc5"/><path d="M427.155 137.937c.186.429.299.774.299.774M426.937 138.547c.208-.189.586-.405.7-.44" fill="none" stroke="#6a70be" stroke-width=".187" stroke-linecap="round"/><path d="M427.228 142.44c.316-.019 1.038.775 1.053 1.364.015.589-.364.732-.784.827z" fill="#8a99e5"/><ellipse cx="368.014" cy="213.872" rx=".763" ry="1.189" transform="matrix(.9864 -.16436 .30036 .95383 0 0)" fill="#7a7fc5"/><ellipse transform="matrix(.9864 -.16436 .30036 .95383 0 0)" ry=".885" rx=".569" cy="213.864" cx="368.014" fill="#8a99e5"/><ellipse cx="367.819" cy="213.526" rx=".126" ry=".196" transform="matrix(.9864 -.16436 .30036 .95383 0 0)" fill="#7a7fc5"/><ellipse cx="368.22" cy="213.561" rx=".126" ry=".196" transform="matrix(.9864 -.16436 .30036 .95383 0 0)" fill="#7a7fc5"/><ellipse cx="367.812" cy="214.141" rx=".126" ry=".196" transform="matrix(.9864 -.16436 .30036 .95383 0 0)" fill="#7a7fc5"/><ellipse cx="368.198" cy="214.181" rx=".126" ry=".196" transform="matrix(.9864 -.16436 .30036 .95383 0 0)" fill="#7a7fc5"/><path d="M426.96 143.205c.326.312.564.576.564.576M427.106 143.82c.048-.24.194-.564.253-.636" fill="none" stroke="#6a70be" stroke-width=".161" stroke-linecap="round"/><path d="M431.062 147.04c.297-.109 1.218.44 1.403 1 .185.56-.135.807-.51 1.02z" fill="#8a99e5"/><ellipse transform="matrix(.89632 -.44341 .56411 .8257 0 0)" ry="1.189" rx=".763" cy="327.19" cx="275.37" fill="#7a7fc5"/><ellipse cx="275.369" cy="327.182" rx=".569" ry=".885" transform="matrix(.89632 -.44341 .56411 .8257 0 0)" fill="#8a99e5"/><ellipse transform="matrix(.89632 -.44341 .56411 .8257 0 0)" ry=".196" rx=".126" cy="326.844" cx="275.175" fill="#7a7fc5"/><ellipse transform="matrix(.89632 -.44341 .56411 .8257 0 0)" ry=".196" rx=".126" cy="326.879" cx="275.575" fill="#7a7fc5"/><ellipse transform="matrix(.89632 -.44341 .56411 .8257 0 0)" ry=".196" rx=".126" cy="327.459" cx="275.167" fill="#7a7fc5"/><ellipse transform="matrix(.89632 -.44341 .56411 .8257 0 0)" ry=".196" rx=".126" cy="327.499" cx="275.553" fill="#7a7fc5"/><path d="M431.028 147.85c.402.205.706.388.706.388M431.346 148.397c-.024-.244.021-.597.057-.682" fill="none" stroke="#6a70be" stroke-width=".161" stroke-linecap="round"/><path d="M432.597 153.093c.383.132.73 1.173.375 1.699-.355.525-.891.473-1.446.357z" fill="#8a99e5"/><ellipse transform="rotate(14.305)" ry="1.205" rx=".997" cy="42.538" cx="456.612" fill="#7a7fc5"/><ellipse cx="456.611" cy="42.53" rx=".742" ry=".897" transform="rotate(14.305)" fill="#8a99e5"/><ellipse transform="rotate(14.305)" ry=".198" rx=".164" cy="42.187" cx="456.357" fill="#7a7fc5"/><ellipse transform="rotate(14.305)" ry=".198" rx=".164" cy="42.222" cx="456.88" fill="#7a7fc5"/><ellipse transform="rotate(14.305)" ry=".198" rx=".164" cy="42.81" cx="456.347" fill="#7a7fc5"/><ellipse transform="rotate(14.305)" ry=".198" rx=".164" cy="42.851" cx="456.851" fill="#7a7fc5"/><path d="M431.797 153.64c.186.428.299.773.299.773M431.579 154.25c.208-.19.586-.406.7-.44" fill="none" stroke="#6a70be" stroke-width=".187" stroke-linecap="round"/><path d="M431.503 159.47c.383.132.73 1.173.375 1.698-.355.526-.891.473-1.446.357z" fill="#8a99e5"/><ellipse transform="rotate(14.305)" ry="1.205" rx=".997" cy="48.987" cx="457.127" fill="#7a7fc5"/><ellipse cx="457.126" cy="48.979" rx=".742" ry=".897" transform="rotate(14.305)" fill="#8a99e5"/><ellipse transform="rotate(14.305)" ry=".198" rx=".164" cy="48.636" cx="456.872" fill="#7a7fc5"/><ellipse transform="rotate(14.305)" ry=".198" rx=".164" cy="48.671" cx="457.396" fill="#7a7fc5"/><ellipse transform="rotate(14.305)" ry=".198" rx=".164" cy="49.26" cx="456.862" fill="#7a7fc5"/><ellipse transform="rotate(14.305)" ry=".198" rx=".164" cy="49.301" cx="457.366" fill="#7a7fc5"/><path d="M430.703 160.016c.186.43.3.774.3.774M430.485 160.627c.208-.19.586-.406.7-.441" fill="none" stroke="#6a70be" stroke-width=".187" stroke-linecap="round"/><path d="M430.418 165.471c.383.133.73 1.174.375 1.7-.355.525-.891.472-1.446.357z" fill="#8a99e5"/><ellipse cx="457.559" cy="55.071" rx=".997" ry="1.205" transform="rotate(14.305)" fill="#7a7fc5"/><ellipse transform="rotate(14.305)" ry=".897" rx=".742" cy="55.063" cx="457.558" fill="#8a99e5"/><ellipse cx="457.304" cy="54.72" rx=".164" ry=".198" transform="rotate(14.305)" fill="#7a7fc5"/><ellipse cx="457.827" cy="54.755" rx=".164" ry=".198" transform="rotate(14.305)" fill="#7a7fc5"/><ellipse cx="457.294" cy="55.344" rx=".164" ry=".198" transform="rotate(14.305)" fill="#7a7fc5"/><ellipse cx="457.798" cy="55.385" rx=".164" ry=".198" transform="rotate(14.305)" fill="#7a7fc5"/><path d="M429.618 166.018c.186.43.3.774.3.774M429.4 166.629c.208-.19.586-.406.7-.441" fill="none" stroke="#6a70be" stroke-width=".187" stroke-linecap="round"/><path d="M428.83 171.37c.384.133.731 1.174.376 1.7-.356.525-.892.473-1.447.357z" fill="#8a99e5"/><ellipse transform="rotate(14.305)" ry="1.205" rx=".997" cy="61.18" cx="457.478" fill="#7a7fc5"/><ellipse cx="457.477" cy="61.172" rx=".742" ry=".897" transform="rotate(14.305)" fill="#8a99e5"/><ellipse transform="rotate(14.305)" ry=".198" rx=".164" cy="60.829" cx="457.223" fill="#7a7fc5"/><ellipse transform="rotate(14.305)" ry=".198" rx=".164" cy="60.864" cx="457.747" fill="#7a7fc5"/><ellipse transform="rotate(14.305)" ry=".198" rx=".164" cy="61.452" cx="457.214" fill="#7a7fc5"/><ellipse transform="rotate(14.305)" ry=".198" rx=".164" cy="61.493" cx="457.718" fill="#7a7fc5"/><path d="M428.03 171.917c.187.43.3.774.3.774M427.812 172.528c.209-.19.586-.406.7-.44" fill="none" stroke="#6a70be" stroke-width=".187" stroke-linecap="round"/><path d="M427.018 176.941c.383.133.73 1.174.375 1.7-.355.525-.892.472-1.447.357z" fill="#8a99e5"/><ellipse transform="rotate(14.305)" ry="1.205" rx=".997" cy="67.025" cx="457.098" fill="#7a7fc5"/><ellipse cx="457.097" cy="67.017" rx=".742" ry=".897" transform="rotate(14.305)" fill="#8a99e5"/><ellipse transform="rotate(14.305)" ry=".198" rx=".164" cy="66.675" cx="456.843" fill="#7a7fc5"/><ellipse transform="rotate(14.305)" ry=".198" rx=".164" cy="66.71" cx="457.367" fill="#7a7fc5"/><ellipse transform="rotate(14.305)" ry=".198" rx=".164" cy="67.298" cx="456.834" fill="#7a7fc5"/><ellipse transform="rotate(14.305)" ry=".198" rx=".164" cy="67.339" cx="457.338" fill="#7a7fc5"/><path d="M426.218 177.488c.186.43.299.774.299.774M426 178.099c.208-.19.585-.406.7-.441" fill="none" stroke="#6a70be" stroke-width=".187" stroke-linecap="round"/><path d="M457.929 125.882c-1.257-2.479 6.658-24.102 12.018-24.983.25 0 .5.002.845.253-1.508-1.386-5.709-3.807-7.636-3.174-5.024 1.652-10.894 16.544-14.017 25.73-.786 2.31-30.017-1.738-29.185-4.838 1.849-6.89 9.64-23.757 11.962-23.994-1.123-.92-7.767 3.932-8.663 5.074-2.09 2.664-11.467 24.084-13.583 33.961-.475 2.217-.941 6.436 1.223 10.129 1.166 1.99 3.669 5.602 3.782 6.642.186 1.703-2.516 12.558-5.83 27.913-15.783 25.541-8.784 49.161-27.937 74.021 2.335 2.983 7.747 2.137 13.112 4.242s6.483 3.987 11.272 5.65c4.79 1.664 6.996.68 12.024 1.066 5.028.386 6.669 2.6 12.415 2.708 5.746.107 7.132-2.566 13.862-3.353 6.73-.786 9.86 1.07 14.69-.745s6.123-4.95 10.976-6.117c4.852-1.168 10.42-1.16 10.884-1.247-1.857-10.968-1.552-50.785-23.482-72.715-2.32-2.32-.251-9.343 1.057-12.229 3.241-7.154 20.022-35.838 20.022-35.838-6.554.493-16.835-2.96-19.811-8.156z" fill="#898ee2"/><path d="M455.98 181.013l-.212-.728-.128-.908-.02-1.133.132-1.526.408-2.222.92-3.029.936-2.23 1.26-2.51 1.858-3.49 2.171-3.956 3.554-6.338 3.883-6.812 3.111-5.403 3.887-6.69-.845.041-2.347-.08-2.02-.258-2.681-.57-2.129-.635-2.67-1.046-2.658-1.396-1.471-.997-1.779-1.494-.998-1.228.11-.929.318-2.124.383-1.785.402-1.663.683-2.161.905-2.382.967-2.414.97-2.196 1.317-2.675 1.473-2.515 1.124-1.652.88-1.076.71-.704.584-.39.697-.338.482-.074.332.081.195.102.148.109-.225-.56-.558-.49-1.848-1.234-1.92-.91-1.278-.402-.98-.132-.794.103-1.014.432-1.21 1.02-1.674 1.911-1.333 1.948-1.628 2.992-1.346 2.75-1.725 3.746-2.056 5.347-1.76 4.634-.401 1.079c-3.16 3.739-5.363 15.111-6.033 18.045-.785 3.496 2.273 8.612 4.666 12.705l-2.862 27.947c13.09 50.39 2.81 80.243 2.81 80.243 2.277.096 3.934.391 6.653.253 4.113-.21 7.378-2.37 11.06-5.246 3.454-24.613.258-44.986-5.723-63.798 10.532 18.615 15.91 47.421 14.474 61.227 3.98-.243 5.288-.333 5.99-.386-1.11-8.542-1.16-20-4.849-36.523-2.222-9.952-6.438-19.954-11.56-27.634l-1.46-1.92-1.82-2.42-2.385-2.782-1.578-1.662-.476-.859M420.296 119.584l.224-.935.905-2.727 1.13-3.013 1.12-2.686 1.464-3.426 3.013-6.159 1.942-3.182 1.784-2.019.483-.27-.506-.34-.682-.065-1.954.827-3.174 2.047-2.567 2.034-.817 1.142-1.234 2.403-1.127 2.31-.381 13.554z" fill="#6269bb"/><path d="M457.929 125.882c-1.257-2.479 6.658-24.102 12.018-24.983.25 0 .5.002.845.253-1.508-1.386-5.709-3.807-7.636-3.174-5.024 1.652-10.894 16.544-14.017 25.73-.786 2.31-30.017-1.738-29.185-4.838 1.849-6.89 9.64-23.757 11.962-23.994-1.123-.92-7.767 3.932-8.663 5.074-2.09 2.664-11.467 24.084-13.583 33.961-.475 2.217-.941 6.436 1.223 10.129 1.166 1.99 3.669 5.602 3.782 6.642.186 1.703-2.516 12.558-5.83 27.913-15.783 25.541-8.784 49.233-27.937 74.093 2.211 2.825 7.182 2.216 12.26 3.931.283.096.567.2.852.31 5.365 2.105 6.483 3.988 11.272 5.651 4.79 1.663 6.996.68 12.024 1.066 5.028.385 6.669 2.6 12.415 2.707 5.746.108 7.132-2.566 13.862-3.352 6.73-.787 9.86 1.07 14.69-.746 4.83-1.815 6.123-4.949 10.976-6.116 4.852-1.168 10.42-1.16 10.884-1.247-1.857-10.969-1.552-50.857-23.482-72.787-2.32-2.32-.251-9.343 1.057-12.229 3.241-7.154 20.022-35.838 20.022-35.838-6.554.493-16.835-2.96-19.811-8.156z" fill="none" stroke="#605baa" stroke-width=".186" stroke-linejoin="round"/><path d="M470.888 101.648c-3.458-3.272-12.489 16.89-12.724 24.618M431.88 95.406c-4.482 3.981-11.093 21.6-11.573 24.087" fill="none" stroke="#605baa" stroke-width=".187" stroke-linecap="round"/><path d="M420.419 119.602c-2.545 6.162-6.057 15.67-6.041 19.492.016 3.984 5.064 10.989 5.165 11.768.172 1.32-1.556 10.653-4.854 28.463-11.238 25.762-8.041 55.956-21.397 77.443.23.08.462.162.693.253 2.676 1.05 4.29 2.042 5.838 2.983 1.55.942 3.036 1.834 5.439 2.668 2.404.835 4.167 1.007 5.952 1.018 1.784.01 3.587-.14 6.094.053 2.501.192 4.156.837 5.915 1.453l.221.076c1.145.35 2.313.689 3.512.933.82.135 1.728.226 2.773.246 1.715.032 3.044-.187 4.243-.525.379-.114.761-.236 1.148-.367.405-.144.804-.297 1.207-.456 1.854-.733 3.814-1.564 7.001-1.97 12.66-40.994-3.98-60.397-1.689-81.46 2.008-15.607 3.305-26.914 3.158-28.012-.148-1.109-3.32-9.576-3.15-12.58.117-2.067 3.27-9.608 6.98-17.096-.244.09-.587.162-1.013.213-.864.103-2.064.123-3.48.072-2.833-.103-6.532-.49-10.18-1.044-3.648-.555-7.246-1.28-9.875-2.057-1.314-.388-2.387-.791-3.096-1.188a3.674 3.674 0 01-.564-.38z" style="line-height:normal;font-variant-ligatures:normal;font-variant-position:normal;font-variant-caps:normal;font-variant-numeric:normal;font-variant-alternates:normal;font-variant-east-asian:normal;font-feature-settings:normal;font-variation-settings:normal;text-indent:0;text-align:start;text-decoration-line:none;text-decoration-style:solid;text-decoration-color:#000;text-transform:none;text-orientation:mixed;white-space:normal;shape-padding:0;shape-margin:0;inline-size:0;isolation:auto;mix-blend-mode:normal;solid-color:#000;solid-opacity:1" color="#000" font-weight="400" font-family="sans-serif" overflow="visible" fill="#e5e8fd"/><path d="M457.929 125.882c-1.257-2.479 7.122-23.716 12.481-24.598 0 0-.1-.066.265.075-1.508-1.385-5.854-4.038-7.456-3.107-4.571 2.659-10.957 16.27-14.08 25.456-.786 2.31-30.017-1.738-29.185-4.838 1.849-6.89 9.64-23.757 11.962-23.994-1.123-.92-7.767 3.932-8.663 5.074-2.09 2.664-11.467 24.084-13.583 33.961-.475 2.217-.941 6.436 1.223 10.129 1.166 1.99 3.669 5.602 3.782 6.642.186 1.703-2.516 12.558-5.83 27.913-15.475 25.342-10.785 55.823-28.213 77.99 8.581-3.517 26.917 11.723 32.884 2.106 6.948-11.198 27.3 11.724 43.712 5.333 13.295-5.176 11.005-8.355 22.132-7.678-1.856-10.969-.769-52.311-22.7-74.241-2.32-2.32-.25-9.343 1.058-12.229 3.241-7.154 20.022-35.838 20.022-35.838-6.554.493-16.835-2.96-19.811-8.156z" fill="none"/><path d="M441.374 185.758c2.358.163 4.416.124 4.416.124l-.367-1.643-3.96.189z" fill="#6269bb"/><path d="M422.006 182.991c2.733 1.286 12.313 2.646 19.406 2.778l.05-1.347-4.694-.213-4.83-.208-2.83-.2-3.697-.373z" fill="#bdc2f8"/><path d="M439.836 123.964l-1.327 2.432-3.58 4.04c1.87-.685 5.467-3.398 8.157-6.219a76.73 76.73 0 01-3.25-.253z" fill="#babff8"/><path d="M428.141 122.157l5.465 7.844c-1.694-3.126-2.913-5.412-4.103-7.565-.463-.09-.916-.184-1.362-.28z" fill="#bdc2f8"/><path d="M448.634 123.979c-.039.019-.35.108-.401.118-.274.049-.276.05-.634.104-.202.03-.431.115-.67.13l-1.6 2.606s1.303-.394 3.065-2.478l.24-.48zM421.026 119.934c.723 2.534 1.846 6.245 2.432 7.026-.16-1.76-.223-3.871-.185-6.04a12.98 12.98 0 01-2.247-.986z" fill="#babff8"/><path d="M408.747 178.095c-.767-2.863.68-8.736 1.948-8.684-.02.106-.118.336-.118.556 0 6.389 44.91 9.155 46.445 2.206.02-.092.09-.253.17-.499.805.017.24 7.34-.827 9.162-3.801 6.49-45.999 3.3-47.618-2.741z" fill="#c7cdf9"/><path d="M445.521 176.04c1.742.724 1.671 3.594.777 5.792-.707 1.738-9.754 2.497-24.252 1.277l3.415.473 2.36.26 2.309.206 2.74.186 3.47.145 3.408.037 3.32-.105 5.92-.504 2.927-.572 2.11-.646.84-.437.896-.61.604-.706.236-.51.2-.611.236-.977.255-1.486.145-1.204.129-1.956v-.946l-.068-.83-.306-.642-.227.699-.345.609-.4.405-.934.623-2.044.8-2.471.582-3 .434z" fill="#8a99e5"/><path d="M408.747 178.095c-.767-2.863.68-8.736 1.948-8.684-.02.106-.118.336-.118.556 0 6.389 44.91 9.155 46.445 2.206.02-.092.09-.253.17-.499.805.017.24 7.34-.827 9.162-3.801 6.49-45.999 3.3-47.618-2.741z" fill="none" stroke="#6a7098" stroke-width=".186" stroke-linecap="round" stroke-linejoin="round"/><path style="line-height:normal;font-variant-ligatures:normal;font-variant-position:normal;font-variant-caps:normal;font-variant-numeric:normal;font-variant-alternates:normal;font-variant-east-asian:normal;font-feature-settings:normal;font-variation-settings:normal;text-indent:0;text-align:start;text-decoration-line:none;text-decoration-style:solid;text-decoration-color:#000;text-transform:none;text-orientation:mixed;white-space:normal;shape-padding:0;shape-margin:0;inline-size:0;isolation:auto;mix-blend-mode:normal;solid-color:#000;solid-opacity:1" d="M437.517 193.848c2.007 16.105-7.343 53.932-16.712 70.538.842.246 1.62.529 2.418.808 1.759.616 3.621 1.2 6.506 1.255 1.31.024 2.39-.1 3.365-.31.491-.11.953-.236 1.388-.369.63-.2 1.234-.427 1.845-.669l.515-.201c4.966-14.46 6.925-46.562.675-71.052zM422.19 193.546c-2.272 24.814-12.485 51.253-24.185 65.378.65.367 1.238.727 1.818 1.08 1.55.941 3.036 1.833 5.439 2.667 2.404.835 4.167 1.007 5.952 1.018.466.003.936-.005 1.418-.016 2.661-4.587 12.097-41.455 9.558-70.127z" color="#000" font-weight="400" font-family="sans-serif" overflow="visible" fill="#babff8"/><path d="M434.524 87.614l-1.23 1.122-1.067.971-1.465 1.36-2.286 2.701-2.214 3.352-.911 2.863-.51 2.603s1.792-5.036 4.708-6.614l.898 2.207 1.21 2.901 1.045 2.782 1.154 6.241.197-.3.365-15.858.101-1.546.048-1.294.016-.741-.01-1.237z" fill="#8a99e5"/><path d="M428.956 93.924c.43-2.116 3.834-4.483 5.477-6.298-8.792 7.586-8.718 10.794-9.64 14.903.533-3.037 1.254-6.138 3.76-8.395 1.12 2.138 4.45 8.356 5.32 16.161l.043-.045c-.373-7.427-3.916-14.384-4.96-16.326z" fill="#c7cdf9" stroke="#6a7098" stroke-width=".187" stroke-linecap="square" stroke-linejoin="round"/><path d="M424.793 102.53c.363-1.55 3.404-6.135 4.657-6.519" fill="none" stroke="#6a7098" stroke-width=".187"/><path d="M420.584 110.625c.236 3.963 5.387 13.67 13.435 19.953-16.713-22.826-14.4-56.602-14.792-91.898l-8.84.287 1.719 17.164 3.315 40.78zm-10.197-71.658c.96 39.662-1.795 74.026 13.048 88.173-1.118-4.227-1.975-8.753-2.022-13.198" fill="#6e685a"/><path d="M419.227 38.68l-5.423.176s.371 39.828.995 52.472c.33 6.704 1.568 23.177 8.636 35.811l-.419-1.651-.487-2.15-.557-3.03-.31-2.328-.201-2.492.057-1.288-.726-2.257c3.537 6.576 8.795 14.66 13.227 18.635l-1.109-1.571-1.764-2.763-1.28-2.248-1.335-2.618-.852-1.847-1.083-2.592-.828-2.21-1.13-3.418-1.022-3.635-1.152-5.013-.624-3.332-.577-3.682-.638-5.162-.423-4.528-.367-5.423-.244-5.36-.15-5.18-.086-5.18-.036-3.921-.022-5.228-.009-5.166-.013-5.238z" fill-opacity=".3"/><path d="M420.584 110.625c.236 3.963 5.387 13.67 13.435 19.953-16.713-22.826-14.4-56.602-14.792-91.898" fill="none" stroke="#423c38" stroke-width=".187" stroke-linecap="round" stroke-miterlimit="100"/><path d="M410.387 38.967c.96 39.662-1.795 74.026 13.048 88.173-1.118-4.227-1.975-8.753-2.022-13.198" fill="none" stroke="#423c38" stroke-width=".187" stroke-linecap="round" stroke-linejoin="round"/><path d="M396.626 82.533c-1.375.327-2.157 1.99-1.746 3.714.411 1.724 1.86 2.856 3.234 2.528 1.375-.328 2.157-1.991 1.746-3.715-.411-1.724-1.859-2.855-3.234-2.527zm.18.792c1.023-.244 2.1.598 2.406 1.88.306 1.283-.275 2.52-1.298 2.764-1.023.243-1.787-.705-2.092-1.987-.306-1.282-.038-2.413.985-2.657z" fill="#6c6c6c"/><path d="M398.96 87.197l.316-.77.05-.429s.475-1.111-.401-2.17-2.033-1.319-2.894-1.06l.508-.217.752-.08.673.21.924.605.55.763.343.771.215 1.171-.073.655-.23.69-.386.68z" fill="#585858"/><path d="M396.626 82.533c-1.375.327-2.157 1.99-1.746 3.714.411 1.724 1.86 2.856 3.234 2.528 1.375-.328 2.157-1.991 1.746-3.715-.411-1.724-1.859-2.855-3.234-2.527zm.18.792c1.023-.244 2.1.598 2.406 1.88.306 1.283-.275 2.52-1.298 2.764-1.023.243-1.787-.705-2.092-1.987-.306-1.282-.038-2.413.985-2.657z" fill="none" stroke="#3c3c3c" stroke-width=".187" stroke-linecap="square" stroke-linejoin="round"/><path d="M400.938 88.855l1.313-.077 1.55.173 1.09.328 1.042.508 1.01.717.938.916.836 1.08.934 1.618.642 1.586.601 1.829.33 1.652.141 1.39.01 1.336-.176 1.584-.295 1.184-.544 1.317-.746 1.167-1.13 1.163-1.38.828-1.408.694-1.588.365-1.613-.011-1.274-.306-.971-.429-.886-.557-.845-.7-1.035-1.126-.805-1.133-.59-1.016-.693-1.466-.51-1.35-.428-1.406-.276-1.18-.222-1.467-.068-1.32.12-1.626.23-1.08.371-1.04.508-.956.639-.847 1.01-.906 1.185-.653-1.017-2.763-.335.194-.277-.778 2.39-.85.277.778-.393.14 1.053 2.733z" fill="#6c6c6c"/><path d="M397.013 86.92l1.026 2.675.982-.268.815-.065.99.078 1.148.275.717.268 1.4.75.979.733.86.823.467.537.488.646.438.676.43.777.454 1 .44 1.235.303 1.084.209.96.195 1.244.095 1.008.038 1.106-.035 1.041-.079.895-.112.601-.176.76-.378 1.092-.339.688-.27.433-.284.381-.378.413-.333.388.551-.228.452-.306.379-.294.408-.364.435-.453.555-.714.477-.8.344-.756.237-.684.257-1.06.089-.796.1-1.384-.068-1.342-.13-1.01-.157-.836-.244-1-.388-1.069-.34-1.012-.409-.928-.418-.788-.516-.83-.524-.71-.644-.726-.946-.923-.922-.596-1.044-.453-1.107-.194-.775-.097-1.06-.013-1 .11-1.042.194-1.031-2.775.371-.098-.277-.778-1.274.453c.177.2-.254.682-.318.966z" fill="#585858"/><path d="M404.09 90.634c-.365.157-.325.61-.73 1.542.417 1.864.764 3.067 1.092 5.384 2.168 2.136 5.016 4.349 5.016 4.349l-.095 2.489-3.202-.304-8.502-4.479-1.633-8.01 1.291-1.75 1.481-.49 3.59-.458z" fill="#585858"/><path d="M396.937 86.875l1.018 2.763" fill="none" stroke="#3c3c3c" stroke-width=".198"/><path d="M398.508 89.444c2.6-.773 7.36.857 9.615 6.18 2.009 4.74 2.274 12.67-2.513 14.253-4.975 1.646-9.168-2.182-11.07-8.867-1.904-6.685.675-10.589 3.968-11.566zM398.622 86.317l1.03 2.775" fill="none" stroke="#3c3c3c" stroke-width=".187"/><path d="M396.326 86.291l2.39-.85.277.778-2.39.85z" fill="none" stroke="#3c3c3c" stroke-width=".187" stroke-linecap="square" stroke-linejoin="round"/><path d="M398.462 89.453c5.388-1.866 8.916-.086 11.27 4.833 2.339 4.883 3.23 13.429-4.471 15.698" fill="none" stroke="#3c3c3c" stroke-width=".187"/><path d="M477.81 150.163l-1.083-1.188-.53-.707-.42-1.108-.462-1.177-1.859-3.445-2.66-3.605-2.815-2.846-2.768-2.021-2.602-1.238-2.672-.744-2.642.076-2.39.594-1.82.991-1.142 1.024-.361.791.042.702.462 1.333 1.19 1.545 3.224 2.835 4.29 2.88 3.82 2.083 2.806 1.437 3.773 1.585 3.312 1.06 1.716.319 1.35.127 1.092-.174.39-.215z" fill="#7b86d1"/><path d="M479.016 151.107c-4.13 2.804-31.088-11.513-27.004-16.328M478.283 150.957c-1.512 1.338-12.942-3.72-18.034-6.848-5.346-3.284-9.11-7.16-7.756-9.09" fill="none" stroke="#6a7098" stroke-width=".187" stroke-linecap="round" stroke-linejoin="round"/><path d="M435.781 165.721l-2.273-2.402-3.43-4.382-6.505-9.509-6.369-10.102-6.103-10.02-6.022-9.758-3.328-4.373-4.161-5.464-2.444-3.194-1.344-2.68-.959-2.616-.084-2.532-.023-1.083-.01-3.072-.555-2.982.706-.762 1.134-1.479 1.26-1.469.147.105 1.063-1.88.256-.182.295-.16.886.635.288.638-.038.984-.285 1.138-.518 1.326-.779 1.519.928 2.286.809 2.887.859.836-.5-3.085-.202-3.399.986-2.858.576-1.89.391-.762.824-.526.603-.106.604.26.22.7-.062 1.447-.448 2.304-.619 1.89.26.937.494 3.7.06 1.226 5.438 5.72 1.697.67 1.31.017.344-.201-.265-2.57.302-2.152-.9-.63-.963-1.111-.573-1.124-.242-1.1.11-1.08.669.045 1.237.723 3.814 3.187.4 2.709.085 3.603-.708 3.35-.439 2.278-.15 1.755.233 1.363.285.959 6.03 6.654 2.914 2.883 7.115 6.622 3.028 2.648 4.234 3.742 3.556 3.47 1.997 2.3 1.74 2.39 2.301-3.102 2.623-3.24 1.7-1.971 2.406-2.646 4.935-4.935 11.127 1.877 3.92 9.975-5.472 5.755-8.856 8.514-6.966 6.169-3.729 2.856-2.466 1.292-1.862.795-2.23.676-1.867.24-1.676-.138-1.55-.532z" fill="#e9d8d0"/><path d="M394.578 100.396s.667 1.99 1.007 2.57c.343.587 2.673 3.034 2.673 3.034z" fill="#bea79d"/><path d="M398.258 106c-.896-1.259-4.465-6.847-4.67-7.113-.235-1.826-1.393-6.476-1.417-7.335.639-.568 1.815-2.163 2.493-3.182l.716-.65c.072.112.038.227.038.227" fill="none" stroke="#967566" stroke-width=".187" stroke-linecap="round" stroke-linejoin="round" stroke-miterlimit="100"/><path d="M395.552 87.685c-.451-.018-1.003.755-1.344 1.35" fill="#e9d8d0" stroke="#967566" stroke-width=".187"/><path d="M394.349 93.9c.008.75.82 4.341.82 4.341 1.406 2.153 3.369 4.59 5.807 6.559l-2.921-3.6-1.408-1.741-.776-.967zM399.182 97.974l-.86-.836-.16-.775-.357-1.22-.397-1.201-.358-.834-.464-1.143.546-1.021.492-1.161.402-1.232.173-.787.007-.766-.288-.638-.332-.25c.038 1.01-1.654 4.734-1.955 5.526.251.819 1.43 4.744 1.766 5.997.896.82 4.531 4.576 4.531 4.576l-1.44-2.021z" fill="#bea79d"/><path d="M399.179 97.956c-.254-.224-.856-.818-.856-.818-.048-.738-1.339-4.666-1.737-5.173.765-1.318 1.653-3.303 1.645-4.71-.005-.886-.888-1.27-1.493-1.37-.506.43-.768.68-.999 1.286-.64 1.65-1.39 3.017-2.003 4.721.226.668 1.399 4.786 2.135 6.6.932 1.173 5.105 6.308 5.105 6.308" fill="none" stroke="#967566" stroke-width=".187" stroke-linecap="round" stroke-linejoin="round" stroke-miterlimit="100"/><path d="M469.55 119.764c-13.801 10.351-22.103 21.222-24.882 25.167" fill="none" stroke="#ad9285" stroke-width=".187" stroke-linecap="round" stroke-linejoin="round"/><path d="M461.275 132.456s-14.957 18.492-14.739 15.928l-1.306-2.51-1.433-2.138-1.61-2.091-2.395-2.513-2.383-2.326-2.735-2.42-8.142-7.23-4.96-4.766-5.858-6.13-1.66-2.037-.286-.959-.232-1.363.075-.878.294-2.016.927-4.489-.01-2.268-.275-2.69-.2-1.354-1.627-1.332-2.48-2.18-.917-.514-.624-.143-.181 1.293.287 1.223.527 1.002.964 1.112.9.629-.282 1.528.029 1.808.215 1.386-.344.2-1.045.035-1.394-.433-.568-.288-1.864-1.857-2.164-2.38-1.41-1.483-.06-1.227-.16-1.499-.263-1.807-.33-1.33.309-.945.476-1.641.193-.994.119-1.338-.076-1.287-.476-.377s-1.769 5.52-1.796 6.346c-.028.827.41 5.392.872 6.413.46 1.02 4.298 5.85 4.586 6.326.61 1.012 1.176 5.134 5.156 10.12 9.543 11.958 27.109 31.414 29.665 35.882 5.244 9.164-2.435 14.622-8.79 10.674l2.85 3.392 1.137 1.201 1.224.796 1.193.449 1.182.2 1.25-.03.798-.063 1.006-.204.931-.263 1.894-.733 1.778-.807 1.175-.609 1.633-1.108 3.554-2.876 2.452-2.138 1.581-1.42 2.334-2.14 3.69-3.48 4.107-4.03 4.318-4.394 1.72-1.762-4.94-7.475z" fill="#bea79d"/><path d="M474.468 104.434c3.313 2.385 8.63 6.872 10.435 11.463 1.418 3.608-3.901 17.3-12.987 26.937-6.839 7.253-20.313 19.86-23.926 21.745-4.222 2.203-9.223 4.299-12.85.551-8.497-8.78-24.095-36.417-30.06-45.582 0 0-9.16-12.04-9.934-13.03-.69-1.084-1.755-3.445-2.303-5.297-.081-1.506-.168-6.031-.117-6.687M414.12 114.386c17.512 20.122 28.498 23.172 33.227 35.967" fill="none" stroke="#967566" stroke-width=".187" stroke-linecap="round" stroke-linejoin="round"/><path d="M403.468 103.88c-2.444-2.373-3.318-4.32-4.286-5.906-.678-2.856-.593-5.334-.702-6.484.944-2.166 1.41-4.877 1.91-5.462.593-.694 2.124-1.132 2.275.08.196 1.57-.584 4.672-1.11 5.841.261.274.841 4.533.815 5.863.76.738 4.07 4.547 5.437 5.72.98.567 2.689 1.113 3.35.486-.328-1.38-.39-3.61.038-4.722-1.608-.835-3.178-3.193-2.54-5.136l.653-.012.911.523c2.034 2.152 3.513 2.734 4.122 3.527.385.5.619 5.79.47 6.475-.175.803-.996 4.462-1.25 6.253-.17 1.198.316 2.734.558 3.46" fill="none" stroke="#967566" stroke-width=".187" stroke-linecap="round" stroke-linejoin="round" stroke-miterlimit="100"/><path d="M401.394 87.137c.778-.914.675-2.394.25-2.324-.637.104-1.374 1.627-1.439 2.12M397.101 87.354c.396-.437.697-1.71.32-1.771-.688-.111-1.549 1.322-1.604 1.841" fill="#e9d8d0" stroke="#967566" stroke-width=".187" stroke-linecap="round"/><path d="M411.147 95.67c-.225-.578-2.366-2.236-2.65-1.924-.212.23.524 1.872 1.79 2.254" fill="#bea79d" stroke="#967566" stroke-width=".187" stroke-linecap="round"/><path d="M470.848 102.103c10.038 5.43 12.708 10.732 14.063 13.224 1.933 3.557-1.868 18.29-5.89 35.78-5.067-2.417-6.588-13.424-15.505-17.439-5.231-2.355-9.412-.572-11.089 1.286 0 0-.11.112-.25.532l-.49.54c-.033-.3.027-.649.198-.909.249-.377.804-1.161 1.866-2.162 5.132-4.84 15.342-13.18 15.342-13.18" fill="#c7cdf9"/><path d="M463.019 124.88l6.074-5.104c-6.424 9.35-8.104 13.041-8.104 13.041l1.043.282 1.549.57 1.274.589 1.6 1.033 2.153 2.068.935 1.167 1.133 1.59 1.116 1.74.764 1.263 1.438 2.42 1.572 2.474.882 1.188.761.857 1.074.899.755.171.322-1.511 1.264-5.43 1.457-6.466 1.43-6.462 1.1-5.376.753-5.282.112-2.91-.174-1.517-.477-1.211-.88-1.604-1.293-1.991-1.394-1.747-1.044-1.123-1.552-1.462-1.601-1.314-1.392-1.022-3.059-1.953-2.064-.986z" fill="#8a99e5"/><path d="M471.13 101.915c10.037 5.43 12.489 10.828 13.843 13.32 1.934 3.558-1.936 18.383-5.957 35.872-5.224-3.295-6.464-13.848-15.381-17.863-6.1-2.747-10.554.074-11.623 1.535 1.166-1.766 17.081-15.004 17.081-15.004" fill="none" stroke="#6a7098" stroke-width=".187" stroke-linecap="round" stroke-linejoin="round"/><path d="M452.493 135.018c.696-.978 5.186-4.37 12.277-.804 6.3 3.168 9.385 14.038 13.513 16.743" fill="none" stroke="#6a7098" stroke-width=".186" stroke-linecap="round" stroke-linejoin="round"/><path d="M458.824 71.598c22.583-25.745 7.656-57.77-24.508-52.415-21.263 3.54-27.814 24.878-21.142 40.896.098.234.446 1.393.726 2.601.677 2.93 1.075 6.738 1.631 9.824.2 1.113.744 2.82 1.827 4.153.75.925 1.62 1.73 2.473 2.402a35.139 35.139 0 002.283 1.684c1.353.899 3.402 2.197 5.417 3.295 2.6 1.416 3.879 2.01 5.706 1.695 3.37-.582 13.453-5.694 16.16-7.27.534-.311 4.07-3.347 4.267-4.538" fill="#e9d8d0"/><path d="M413.344 60.371c11.14.855 30.131-3.38 35.846-4.97l-2.898-22.156-34.286 4.79-.378 1.676-.445 2.058-.268 1.76-.196 2.226-.045 2.533.096 1.63.197 1.841.224 1.453.433 2.086.454 1.694.519 1.59z" fill="#a18981"/><path d="M445.927 53.264c2.805 16.762.319 23.62-12.052 32.385l1.563-.555 2.687-1.078 2.703-1.2 2.323-1.105 2.318-1.153 1.976-1.024 1.745-.952.932-.675 1.112-.981.896-.874.897-1.007 6.809-5.606-9.069-27.833-6.658 1.236z" fill="#a18981"/><path d="M458.692 71.847c22.72-26.217 7.788-58.02-24.376-52.664-21.263 3.54-27.814 24.878-21.142 40.896.098.234.446 1.393.726 2.601.677 2.93 1.075 6.738 1.631 9.824.2 1.113.744 2.82 1.827 4.153.75.925 1.62 1.73 2.473 2.402a35.139 35.139 0 002.283 1.684c1.353.899 3.402 2.197 5.417 3.295 2.6 1.416 3.879 2.01 5.706 1.695 3.37-.582 13.453-5.694 16.16-7.27 1.206-.703 4.07-3.347 4.267-4.538" fill="none" stroke="#927163" stroke-width=".187" stroke-linecap="round" stroke-linejoin="round"/><path d="M431.008 76.26l.509.268.364.313.238.439-.162.54-.246.183-.408.08-.392-.114-.5-.407-.327-.41-.202-.52.128-.444.44-.089z" fill="#835656"/><path d="M432.136 77.543l-.179.278-.246.182-.288.056-.32.01-.333-.18-.26-.246c.592-.22 1.285-.415 1.613-.417z" fill="#b68282"/><path d="M423.444 58.282c.014.14-.08.349-.258.016-.239-.445-.745-.987-.95-1.131-.11-.077-.1-.463.276-.107.285.271.877.67.932 1.222zM434.97 56.953c-.054.129.099.292.253-.053.214-.477.717-1.07.93-1.29.093-.096.09-.44-.251-.073-.476.512-.683.823-.932 1.416z" fill="#7c6459"/><path d="M436.05 59.39c-.02-.478-.058-.827-.03-1.55l1.854-1.391 2.866-1.459 3.117-.237 2.323 1.357 1.302 1.248c.186.806-.835 4.492-1.904 5.864-.63.81-1.933 1.804-4.849 2.271-1.995.32-3.23-1.16-3.521-1.656-.653-1.113-1.083-2.68-1.157-4.448z" fill="#f5f5f5"/><path d="M446.951 59.954c-.693-.889-2.179-2.087-4.137-1.938-2.848.216-5.53.428-6.763 1.373-.198-.31-.038-1.357-.038-1.357l1.233-1.29 3.024-1.508 3.749-.617 2.794 1.88.76 1.471z" fill="#dcdcdc"/><path d="M439.699 57.316c-1.97.25-3.42 2.249-3.079 4.414.34 2.166 1.95 3.799 4.215 3.523 2.265-.275 3.292-2.77 2.992-4.643-.3-1.873-2.159-3.544-4.128-3.294z" fill="url(#b)" stroke="#2c2c51" stroke-width=".275"/><path d="M439.815 59.632c-1.123.143-1.95 1.283-1.755 2.517.194 1.234 1.11 2.165 2.402 2.008 1.292-.157 1.877-1.579 1.706-2.647-.171-1.068-1.23-2.02-2.353-1.878z" fill="#27284a"/><path d="M438.4 59.328c.964.403.477 2.33-.495 1.985-.972-.346-.468-2.388.495-1.985z" fill="#f5f5f5"/><path d="M446.205 56.657c-3.711 1.033-9.005 2.026-10.252 2.226v-.107l.002-.122.01-.16.004-.064.045-.398.673-.705 1.188-.878 1.562-.8 1.303-.659 2.435-.185 2.32.805z" fill-opacity=".3"/><path d="M437.584 56.895c.61-.455 1.078-.71 1.793-.935 1.213-.382 2.708-.714 4.804-.007 1.226.414 2.208 1.362 2.514 2.255.304.889.004 2.785.247 2.7.413-.145 1.385-3.004 1.07-3.624-1.184-2.327-3.766-2.835-4.451-2.953-.341-.06-1.584-.033-2.6.185-.838.179-1.15.265-1.937.593-.694.29-1.557.936-2.013 1.32-.952.803-1.324 1.453-1.484 1.702-.374.58-.218 1.064.375.384.602-.69.913-1.046 1.682-1.62z"/><path d="M429.895 76.35c-.226.65 1.2 2.479 2.124 1.404.745-.866-1.837-2.23-2.124-1.404z" fill="none" stroke="#905353" stroke-width=".267"/><path d="M428.226 66.767c1.037 1.002 1.703 2.033 1.764 2.69.065.696-1.047 1.548-1.33 1.697l-.458-.84-.507-.299-.148-.24.14-.39.238-.47.372-.74z" fill="#bea79d"/><path d="M428.288 67.691c.092.587-.087.847-.287 1.194-.188.325-.426.565-.449.973-.025.446.837.228 1.103 1.085" fill="none" stroke="#927163" stroke-width=".187" stroke-linecap="round"/><path d="M412.863 54.21c3.011-2.253 8.512-1.47 10.403.053M433.777 53.136c.974-1.599 10.167-4.889 14.024-3.008" fill="none" stroke="#7c6459" stroke-width=".366" stroke-linecap="round"/><path d="M415.137 61.959c.372 1.944.986 2.813 1.956 4.009.61.751 2.096 2.083 4.371 2.02.898-.025 1.955-.67 2.59-1.638.882-1.344-.225-5.62-.543-6.089l-1.558-1.46-1.898-.592-2.36-.033-2.032 1.295z" fill="#f5f5f5"/><path d="M415.81 64.229c.119-1.508 1.692-3.39 2.634-3.815 1.593-.718 3.668-.005 5.418.82l-.14-.506-.175-.416-.92-1.055-1.46-.854-1.597-.43-2.211.418-1.826 1.523-.703 1.63z" fill="#dcdcdc"/><path d="M420.84 59.83c1.448-.128 2.895.96 3.34 3.795.313 1.993-.637 3.936-2.298 4.164-1.62.223-3.33-1.317-3.589-3.628-.267-2.378 1.058-4.197 2.548-4.33z" fill="url(#c)" stroke="#2c2c51" stroke-width=".269"/><path d="M419.802 61.242c-.909-.45-1.355 1.32-.503 1.672.853.354 1.413-1.223.503-1.672z" fill="#f5f5f5"/><path d="M420.355 58.53c1.374-.118 2.494 1.08 3.12 1.828.176.21.448.217.175-.283-.167-.305-.767-1.186-2.272-1.94-1.575-.79-2.842-.514-3.744-.257-1.033.295-1.693.949-2.202 1.504-.533.581-.948 1.97-.948 2.307 0 .717.947 2.201 1.13 2.533.185.331.647.615.402.098-.396-.831-.297-1.681-.285-2.033.028-.862.435-1.757.749-2.155.47-.597 1.04-1.01 1.643-1.215.803-.275 1.226-.301 2.232-.388z"/><path d="M415.263 60.963c.71-.003 7.752-.44 8.37-.479l-.385-.637-.93-.797-1.217-.514-1.046-.327-2.36-.033-2.032 1.295z" fill-opacity=".3"/><path d="M421.171 62.271c.951-.13 1.79.89 1.92 2.002.133 1.112-.33 2.087-1.155 2.273-.824.185-1.933-.247-2.254-1.627-.32-1.38.539-2.517 1.49-2.648z" fill="#27284a"/><path d="M407.314 39.142c.46-3.765 3.825-10.668 12.084-16.148 4.973-3.3 10.685-5.082 17.496-5.861 3.99-.456 6.98-.333 11.177.546 5.019 1.052 10.249 2.953 13.531 5.062 4.132 2.655 5.818 5.094 8.28 9.225 3.022 5.07 3.527 9.633 3.839 11.403 1.16 6.573 1.156 12.463 1.299 19.562l-19.703-27.602" fill="#6e685a"/><path d="M416.948 24.768c10.046-1.955 23.753-2.175 30.872 15.46l9.257 54.224 5.307 2.133 10.737-1.872 1.384-19.251.55-8.015-.094-7.647-.243-7.482-.554-6.067-.804-4.988-.642-2.715-.695-2.116-1.63-3.571-2.027-3.35-1.799-2.474-2.398-2.437-4.257-2.919-4.466-1.883-3.36-1.11-4.567-1.121-5.24-.667-3.036.027-3.749.38-5.21.966-3.58 1.135-2.483.957-2.37 1.16-2.453 1.47z" fill="#4d493f"/><path d="M447.58 110.757c-.21 3.965-5.294 13.708-13.299 20.045 16.556-22.94 14.01-56.7 14.16-91.997l8.843.226-1.602 17.176-3.035 40.8zm9.704-71.726c-.689 39.668 2.303 74.012-12.442 88.26 1.088-4.234 1.914-8.765 1.931-13.21" fill="#6e685a"/><path d="M457.284 39.031l-8.843-.226.058 20.1c.849 5.376 3.55 16.639 2.37 32.355-1.358 18.09-10.628 34.42-16.588 39.542l1.885-1.6 1.052-.992 1.694-1.757 1.343-1.548 1.052-1.322.888-1.2.98-1.429 1.021-1.63.71-1.24.814-1.573.95-2.172.444-1.342c.965 2.513-.95 13.269-2.272 14.294l1.663-1.779 1.1-1.393 1.172-1.726 1.12-1.935.92-1.859.914-2.148 1.32-3.846.567-2.031.57-2.366.536-2.63.489-2.872.357-2.513.312-2.606.435-4.67.325-4.975.232-5.415.147-5.75.076-5.554.03-4.535.015-5.405.008-4.853.02-6.365.038-5.348z" fill-opacity=".3"/><path d="M457.284 39.031c-.689 39.668 2.303 74.012-12.442 88.26 1.088-4.234 1.914-8.765 1.931-13.21" fill="none" stroke="#423c38" stroke-width=".187" stroke-linecap="round" stroke-miterlimit="100"/><path d="M447.58 110.757c-.21 3.965-5.294 13.708-13.299 20.045 16.175-22.411 14.118-55.149 14.154-89.559" fill="none" stroke="#423c38" stroke-width=".187" stroke-linecap="round" stroke-miterlimit="100"/><path d="M446.67 34.748c3.775 9.333 3.938 15.466 3.868 18.309-.37.062-2.915.495-3.323.563-.194-1.68-1.115-7.329-3.23-12.687 1.708 4.996 2.751 11.298 2.778 12.765-.8.148-5.707.894-6.647 1.023-.108-2.313-1.426-9.03-3.934-13.953 1.846 5.098 2.544 11.083 2.608 14.163-1.335.218-6.135.875-8.502 1.255-.319-2.005-1.843-12.24-5.271-17.219-.466 4.43 1.114 13.217 2.699 17.828-2.22.397-6.343.893-7.15.987-1.53-3.071-3.306-10.12-2.85-16.16-.89 5.946.85 12.983 1.993 16.22-1.035.13-4.228.365-4.228.365-1.533-2.887-3.488-10.41-2.615-16.254-1.202 6.471 1.388 15.01 2.136 16.258-1.532.115-4.921-.116-6.588-.175-1.386-6.768-2.2-14.507-1.039-18.946" fill="#6e685a"/><path d="M410.781 36.073c-1.325 6.69-1.462 15.538.88 22.023-2.892-6.417-4.181-12.5-.88-22.023z" fill="#4d493f"/><path d="M411.875 35.497c-1.326 6.69.057 16.261 2.399 22.746-2.58-6.542-4.818-13.573-2.4-22.746zM420.912 34.438c-1.325 6.69.057 16.26 2.399 22.745-2.892-6.417-5.7-13.221-2.4-22.745z" fill="#4d493f"/><path d="M422.29 36.3c-.732 6.307.935 14.85 3.371 20.82-2.646-6.013-4.898-12.147-3.37-20.82z" fill="#4d493f"/><path d="M421.109 33.798c-1.325 6.69.058 16.261 2.4 22.745-2.581-6.54-4.819-13.572-2.4-22.745zM418.703 36.089c-.502 1.647-.96 4.514-1.01 5.604l-.188 3.502.365 4.826.518 3.055.673 2.705.648 2.06-1.149.117c-2.273-7.706-2.69-15.826.143-21.87z" fill="#4d493f"/><path d="M415.544 35.109c-1.046 6.738.733 16.244 3.342 22.626-2.85-6.429-5.378-13.36-3.342-22.626zM410.781 36.073c-1.098 6.73-.912 15.247 1.648 21.648-2.8-6.45-3.755-12.398-1.648-21.648zM426.172 34.012c4.369 5.236 7.742 14.299 8.795 21.112-.87-6.977-2.276-14.22-8.795-21.112z" fill="#4d493f"/><path d="M429.197 34.417c3.513 4.547 6.486 12.5 7.62 18.508-1.007-6.156-2.425-12.538-7.62-18.508z" fill="#4d493f"/><path d="M429.409 36.92c2.93 3.944 5.598 10.945 6.753 16.27-1.064-5.461-2.456-11.11-6.753-16.27zM433.88 33.25c3.931 5.087 6.947 13.813 7.871 20.345-.457-6.719-1.147-13.728-7.871-20.344zM441.465 29.341c4.135 5.885 5.618 14.173 5.888 24.256l3.185-.54-.008-1.947-.155-2.303-.2-1.626-.233-1.445-.336-1.686-.328-1.394-.335-1.273-.418-1.56-.538-1.534-.477-1.203-.218-.742-.61-1.556c-1.828-2.69-3.324-4.232-5.218-5.447z" fill="#4d493f"/><path d="M430.819 33.913c4.178 5.73 5.758 16.748 5.666 21.36l2.305-.342-.122-2.204-.194-1.882-.204-1.505-.25-1.515-.385-1.936-.434-1.816-.358-1.64c-1.868-4.711-2.52-5.85-6.024-8.52zM438.932 32.555c4.577 6.112 4.336 16.476 4.515 21.669l3.316-.526-.227-2.056-.32-1.904-.29-1.485-.35-1.883-.847-2.937-.944-3.046c-2.14-5.642-3.524-6.502-4.853-7.832zM425.04 39.08l-.08 2.819.169 2.355.249 2.088.328 2.128.577 2.99.592 2.499.841 2.836-1.473.24c-2.78-7.423-3.883-15.493-.662-22.065-.138.422-.397 2.232-.54 4.11zM414.09 36.357a152.064 152.064 0 00-1.089 5.733l-.41 3.502.364 4.826.552 3.076.724 2.711.713 1.955-1.26.113c-4.22-11.094-.82-19.267.407-21.916z" fill="#4d493f"/><path d="M446.67 34.748c3.775 9.333 3.938 15.466 3.868 18.309-.37.062-2.915.495-3.323.563-.194-1.68-1.115-7.329-3.23-12.687 1.708 4.996 2.751 11.298 2.778 12.765-.8.148-5.707.894-6.647 1.023-.108-2.313-1.426-9.03-3.934-13.953 1.846 5.098 2.544 11.083 2.608 14.163-1.335.218-6.135.875-8.502 1.255-.319-2.005-1.843-12.24-5.271-17.219-.466 4.43 1.114 13.217 2.699 17.828-2.22.397-6.343.893-7.15.987-1.53-3.071-3.306-10.12-2.85-16.16-.89 5.946.85 12.983 1.993 16.22-1.035.13-4.228.365-4.228.365-1.533-2.887-3.488-10.41-2.615-16.254-1.202 6.471 1.388 15.01 2.136 16.258-1.532.115-4.986-.109-6.653-.168-1.372-6.924-2.036-13.714-1.035-18.901" fill="none" stroke="#423c38" stroke-width=".187" stroke-linecap="round" stroke-miterlimit="100"/><path d="M409.992 35.234c-2.173 6.463-2.031 16.133-.542 22.865-1.719-6.819-3.034-14.079.542-22.865z" fill="#4d493f"/><path d="M416.075 45.368c-1.842.138-2.343.178-3.394-.065l.258-2.613c1.078.421 1.335.551 3.274.793-.156.77-.209 1.213-.138 1.885zm-4.573-.535c-.359-.136-.432-.172-.72-.27-4.347-1.466-4.23 2.013-2.952 10.95-.987-4.972-1.256-10.19-1.009-13.28.3-3.737.811-5.971 2.669-9.16-1.32 5.27-2.587 6.5 1.238 8.41.474.236.692.52 1.146.72m5.922 1.275c1.726.17 2.603.405 4.796.263-.09.535-.111.955-.118 1.352-2.118.272-2.875.349-4.609.371m9.243-2.61a77.767 77.767 0 007.264-1.311l.258.87a79.891 79.891 0 01-7.052 1.656m8.875-3.022c1.785-.446 3.65-.963 5.592-1.553l.115.378a78.21 78.21 0 01-5.376 1.899m6.617-2.697c.853-.27 1.72-.552 2.6-.85a70.46 70.46 0 01-2.519 1.11" fill="#afaa9d"/><path d="M407.314 39.142c.46-3.765 3.825-10.668 12.084-16.148 4.973-3.3 10.685-5.082 17.496-5.861 3.99-.456 6.98-.333 11.177.546 5.019 1.052 10.249 2.953 13.531 5.062 4.132 2.655 5.818 5.094 8.28 9.225 3.022 5.07 3.527 9.633 3.839 11.403 1.16 6.573 1.156 12.463 1.299 19.562" fill="none" stroke="#423c38" stroke-width=".187" stroke-linecap="round" stroke-miterlimit="100"/><path d="M400.84 12.698s4.046-3.985 6.027-4.175c21.562-2.068 60.49-5.83 60.49-5.83l27.859 64.06-10.131.94-15.567-36.487-33.663-19.555z" fill="#406555" fill-opacity=".996"/><path d="M398.771 17.352l53.714-5.181 1.31-.017 1.124.156 1.138.309 1.168.474 1.22.68.705.494.735.608.583.568.783.925.527.782.466.882 2.413 5.546 19.07 43.85.448 1.342.144 1-.032.997-.146.71-.117.434 1.171-2.066 1.184-2.029.297-.584.278-.953.079-.962-.086-.93-.192-.812-.178-.519-21.554-49.58-.61-1.165-.722-1.007-.768-.84-.617-.562-.817-.627-.526-.345-.657-.375-.69-.332-.739-.291-.86-.26-.821-.166-.9-.09-.893.01-53.964 5.23-.594.087-.716.266-.877.389-.676.578-1.026 3.668.432-.134z" fill="#979797" fill-opacity=".996"/><path d="M395.01 19.776l1.026-1.801 1.263-2.217.55-.967.967-1.084.74-.485 1.29-.48c-2.604 2.494-2.478 3.518-2.075 4.61l-.79.158-1.052.4-.7.432-.563.503z" fill="#e2e2e2"/><path d="M397.862 14.771c.754-1.193 2.094-2.004 3.883-2.177l53.482-5.153c3.813-.368 8.177 2.31 9.783 6.004l21.432 49.279c.79 1.82.721 3.547.032 4.865" fill="none" stroke="#6f6f6f" stroke-width=".259" stroke-linecap="round" stroke-linejoin="round"/><path d="M407.43 53.108l-12.372-28.456c-1.607-3.694.17-6.963 3.983-7.33l53.482-5.155c3.813-.367 8.177 2.31 9.783 6.005l21.432 49.279c1.606 3.694-.172 6.952-3.984 7.33l-4.662.464s.036-5.009.002-9.883c-.022-3.183-.205-8.805-.922-10.522-9.412-22.549-29.516-32.323-49.232-29.086-7.704 1.265-16.222 7.086-17.681 15.372-.784 4.448-.43 7.029.171 11.982z" fill="#e2e2e2"/><path d="M425.861 25.609c20.375-2.832 41.071 11.826 49.267 42.627l.018.13 9.24-.647-11.784-25.776-4.667-13.782c-11.364-2.273-21.72-5.58-42.074-2.552z" fill="#979797"/><path d="M475.084 75.25l4.67-.468c3.814-.367 5.59-3.637 3.984-7.331l-21.432-49.28c-1.606-3.693-5.97-6.371-9.783-6.004l-53.482 5.154c-3.813.368-5.589 3.637-3.983 7.331l12.345 28.41" fill="none" stroke="#6f6f6f" stroke-width=".259" stroke-linejoin="round"/><path d="M397.85 14.791l-2.948 5.175M486.676 67.232l-3.087 5.447" fill="none" stroke="#6f6f6f" stroke-width=".259"/><path d="M385.41 7.6l80.698-7.777 32.677 75.138 1.766-3.61-32.678-75.137-80.698 7.777z" fill="#99996a" fill-opacity=".996" stroke="#000" stroke-width=".086"/><path d="M387.175 3.99l80.698-7.776 32.678 75.138" fill="none" stroke="#5b5b4a" stroke-width=".259" stroke-linecap="round" stroke-linejoin="round"/><path d="M385.41 7.6l80.698-7.777 32.677 75.138" fill="none" stroke="#5b5b4a" stroke-width=".259" stroke-linecap="round" stroke-linejoin="round"/><path d="M387.175 3.99L385.41 7.6M467.873-3.786l-1.765 3.61M500.55 71.352l-1.765 3.609" fill="none" stroke="#5b5b4a" stroke-width=".259"/></g></svg>