<svg xmlns="http://www.w3.org/2000/svg" xmlns:xlink="http://www.w3.org/1999/xlink" width="330" height="580"><defs><linearGradient id="e"><stop offset="0" stop-color="#55504b"/><stop offset="1" stop-color="#3e3b37"/></linearGradient><linearGradient id="d"><stop offset="0" stop-color="#6d71b2"/><stop offset="1" stop-color="#4d507d"/></linearGradient><linearGradient id="b"><stop offset="0" stop-color="#7c84c3"/><stop offset="1" stop-color="#6a7098"/></linearGradient><linearGradient id="c"><stop offset="0" stop-color="#927163"/><stop offset="1" stop-color="#7c6459"/></linearGradient><linearGradient id="a"><stop offset="0" stop-color="#363765"/><stop offset="1" stop-color="#9a9eef"/></linearGradient><linearGradient gradientUnits="userSpaceOnUse" y2="-90.907" x2="444.924" y1="-97.139" x1="444.865" id="v" xlink:href="#a" gradientTransform="matrix(1.00421 0 0 1.05078 -.43 8.44)"/><linearGradient gradientUnits="userSpaceOnUse" y2="-90.061" x2="499.827" y1="-97.003" x1="500.065" id="u" xlink:href="#a" gradientTransform="matrix(1.05 0 0 1.05 -24.207 7.521)"/><linearGradient gradientUnits="userSpaceOnUse" y2="391.737" x2="227.512" y1="397.837" x1="208.961" id="r" xlink:href="#b"/><linearGradient gradientUnits="userSpaceOnUse" y2="414.905" x2="219.502" y1="412.108" x1="205.825" id="s" xlink:href="#b"/><linearGradient xlink:href="#c" id="t" x1="465.36" y1="-35.757" x2="482.473" y2="-30.795" gradientUnits="userSpaceOnUse"/><linearGradient xlink:href="#c" id="o" x1="122.035" y1="454.511" x2="151.054" y2="496.861" gradientUnits="userSpaceOnUse" gradientTransform="matrix(1.05653 0 0 1.05653 -16.699 -16.88)"/><linearGradient xlink:href="#c" id="p" x1="21.933" y1="300.627" x2="24.98" y2="300.221" gradientUnits="userSpaceOnUse"/><linearGradient xlink:href="#c" id="q" x1="53.483" y1="341.555" x2="60.869" y2="335.92" gradientUnits="userSpaceOnUse"/><linearGradient xlink:href="#b" id="i" x1="44.028" y1="263.517" x2="78.055" y2="270.271" gradientUnits="userSpaceOnUse"/><linearGradient xlink:href="#b" id="k" x1="21.445" y1="524.579" x2="42.031" y2="524.592" gradientUnits="userSpaceOnUse"/><linearGradient xlink:href="#d" id="j" x1="16.613" y1="524.263" x2="62.295" y2="525.151" gradientUnits="userSpaceOnUse" gradientTransform="translate(118.955 10.355)"/><linearGradient xlink:href="#c" id="g" x1="88.357" y1="908.869" x2="151.45" y2="906.677" gradientUnits="userSpaceOnUse" gradientTransform="translate(1.503 -19.11)"/><linearGradient xlink:href="#c" id="h" x1="176.588" y1="903.546" x2="233.434" y2="880.772" gradientUnits="userSpaceOnUse" gradientTransform="translate(1.503 -19.11)"/><linearGradient xlink:href="#e" id="m" x1="803.854" y1="783.601" x2="801.848" y2="782.093" gradientUnits="userSpaceOnUse"/><linearGradient xlink:href="#e" id="n" x1="821.267" y1="769.472" x2="819.384" y2="769.481" gradientUnits="userSpaceOnUse"/><linearGradient gradientUnits="userSpaceOnUse" y2="258.03" x2="-2.111" y1="261.727" x1="2.307" id="l" xlink:href="#b"/><linearGradient gradientTransform="translate(2.003)" xlink:href="#e" id="f" x1="-53.314" y1="96.948" x2="47.335" y2="99.821" gradientUnits="userSpaceOnUse"/><linearGradient gradientTransform="translate(2.003 1.585)" xlink:href="#e" id="x" x1="58.388" y1="146.995" x2="189.842" y2="148.071" gradientUnits="userSpaceOnUse"/><linearGradient xlink:href="#e" id="w" x1="812.85" y1="754.28" x2="817.075" y2="756.597" gradientUnits="userSpaceOnUse"/></defs><path d="M15.084 15.25h233.92l73.055 224.84H88.139z" fill="#5ca385"/><path d="M322.059 240.09H88.139L15.084 15.25" fill="none" stroke="#5b5b4a" stroke-width=".748" stroke-linecap="round" stroke-linejoin="round"/><path d="M66.262 107.296c12.499 73.567 17.78 179.612 9.596 281.883-1.787 22.333 5.874 107.708 78.185 109.98 46.887 1.473 113.813-41.528 107.238-103.981-3.546-33.684-52.44-309.164-52.44-309.164z" fill="#6e685a"/><path d="M260.762 390.392l.422 3.902.398 4.513.143 3.948-.032 3.384-.194 3.59-.477 4.5-.962 5.579-1.404 5.638-1.981 5.981-2.547 6.053-2.907 5.662-3.073 5.089-4.445 6.276-4.438 5.375-3.238 3.499-3.916 3.85-4.456 3.957-21.251-16.863 1.446-49.672 2.48-35.188 48.813 10.14.658 4.43.452 3.146z" fill="#4d493f"/><path d="M66.262 107.296c12.499 73.567 17.78 179.612 9.596 281.883-1.787 22.333 5.874 107.708 78.185 109.98 46.887 1.473 113.813-41.528 107.238-103.981-3.546-33.684-52.44-309.164-52.44-309.164z" fill="none" stroke="#3e3b37" stroke-width=".793" stroke-linecap="round" stroke-linejoin="round"/><path d="M65.89 97.607c1.593-4.751 12.648-31.418 45.98-47.377 15.534-7.437 33.804-13.508 53.58-13.129 11.586.223 20.089 1.72 31.753 5.84 13.952 4.929 27.864 13.046 36.445 20.335 10.8 9.174 15.98 16.782 21.44 29.538 6.701 15.657 7.108 29.464 7.417 33.477 1.48 19.2-3.438 39.653-5.747 60.007-4.79 42.214-4.783 77.242-1.005 120.95 2.057 23.796 8.586 85.616 8.586 85.616l-54.847-37.911L184.84 111.04" fill="#6e685a"/><path d="M116.83 47.949c25.584 1.604 72.896 37.184 70.265 63.129-1.115 10.987 2.552 47.533 2.552 47.533l2.67 26.405 3.854 38.143 4.597 45.478 4.285 42.396 4.44 43.92 54.846 37.911-1.953-18.687-1.913-18.565-3.141-31.393-2.478-28.203-1.155-19.389-.657-27.103.28-16.268.658-15.267 1.444-18.606 1.624-15.517 3.192-22.2 1.855-14.826.522-7.902.144-7.12-.377-7.3-.618-6.645-1.032-6.518-1.454-6.352-1.862-6.13-3.214-8.084-4.682-9.23-2.328-3.677-4.751-6.014-4.722-4.953-5.9-5.14-5.632-4.13-6.827-4.237-8.794-4.81-6.974-3.152-6.768-2.62-6.956-2.246-7.334-1.716-5.873-.912-5.875-.641-5.543-.213-5.442.068-5.67.464-6.195.822-6.185 1.133-5.496 1.37-5.323 1.59-5.349 1.852-4.299 1.666z" fill="#4d493f"/><path d="M-51.062 87.252c1.593-4.75 12.648-31.418 45.98-47.376 15.534-7.437 33.804-13.509 53.58-13.13 11.585.223 20.089 1.72 31.753 5.84 13.951 4.93 27.864 13.046 36.445 20.336 10.8 9.174 15.98 16.782 21.44 29.538 6.701 15.656 7.107 29.463 7.417 33.476 1.479 19.201-3.439 39.653-5.748 60.007-4.789 42.214-4.783 77.242-1.004 120.95 2.057 23.796 8.586 85.617 8.586 85.617L92.54 344.598 67.887 100.686" fill="none" stroke="url(#f)" stroke-width=".793" stroke-linecap="round" stroke-linejoin="round" transform="translate(116.952 10.355)"/><path d="M91.374 308.186l54.172-1.697 1.465-82.774-55.852-1.45z" fill="#4d493f"/><g><path d="M85.61 544.184C79.391 554.447 74.473 566.579 70.655 580h31.094z" fill="#e9d8d0"/><path d="M87.613 544.184C81.394 554.447 76.476 566.579 72.658 580h31.094z" transform="translate(-2.003)" fill="none" stroke="url(#g)" stroke-width=".793" stroke-linecap="round" stroke-linejoin="round"/><path d="M206.306 548.803L186.226 580h41.67c-6.722-13.85-14.337-25.122-21.59-31.197z" fill="#e9d8d0"/><path d="M208.309 548.803L188.229 580h41.67c-6.722-13.85-14.337-25.122-21.59-31.197z" transform="translate(-2.003)" fill="none" stroke="url(#h)" stroke-width=".793" stroke-linecap="round" stroke-linejoin="round"/><path d="M85.61 544.184L97.284 580h91.645l17.377-31.197zM118.056 284.23l-6.676 2.924-6.125 2.678-6.397 2.828-8.37 3.84-10.555 5.324-3.229 1.826-3.853 2.395-4.704 3.465-1.76 1.58-2.695 3.129-1.091 1.914-.9 2.705-3 14.176-2.764 17.275-1.637 11.74-1.72 13.207-1.503 13.256-1.48 14.02-1.172 12.355-.928 10.988-.416 5.463-.447 6.446-.444 7.326-.455 9.767-.261 13.946.353 12.89.266 5.694 1.058 9.4.264 7.02-1.059 5.56-2.648 5.164-2.912 10.858-2.582 15.756-1.252 10.562-1.016 10.81-1.174 15.28-.173 2.703h37.048l1.032-4.99 1.816-8.846 2.758-13.547 2.705-13.443 2.15-10.842 1.114-5.676.986-6.502.842-5.978.896-6.473 1.719-12.562 1.238-9.262 1.135-8.647 1.1-8.533 1.13-8.986 1.42-11.598.938-7.91.867-7.533.781-7.012.838-7.844.883-8.734.594-6.281.967-11.461.547-7.916.341-6.62.137-4.316.035-3.722-.093-3.875-.182-2.485-.38-2.453-.64-1.738z" fill="#e9d8d0"/><path d="M48.968 409.14l-.295 3.116c7.819.62 16.533 1.388 17.467 15.207.42 6.21 3.556 55.265 5.295 81.193.284 4.25-7.75 42.577-9.957 52.487-.397 1.78-2.008 9.253-4.196 19.357h14.36l1.37-6.617 1.481-7.211 3.66-18.016 3.371-16.861 1.332-6.768.67-3.601.844-5.92 1.334-9.547 1.49-10.83 1.543-11.498 1.951-14.934.997-7.824 1.11-8.963 1.16-9.51 1.116-9.527.713-6.289 1.082-9.93.697-6.812-16.439.312-5.678.309-6.021.121-9.07-.256-1.569-.105-4.639-.438z" fill="#a18981"/><path d="M118.056 284.23c-25.467 11.236-52.258 21.849-55.86 32.942-3.367 10.373-8.636 46.422-12.36 82.959-3.074 30.174-5.093 60.68-4.118 77.33-.42 14.428 4.106 25.138-.42 33.76-5.823 11.09-8.645 38.918-10.703 69.279h37.047c4.498-21.743 8.845-43.282 11.789-58.422 0 0 1.37-9.427 3.336-23.812 6.05-44.282 17.75-135.558 12.552-143.553z" fill="none" stroke="#927163" stroke-width=".793" stroke-linecap="round" stroke-linejoin="round"/><path d="M128.46 247.156l1.158 35.713 23.054.495 47.308.34-1.542-9.19-.853-6.94-.536-9.686.362-5.951.615-4.07 1.085-4.857.939-3.514 2.817-7.684 2.223-5.134 2.676-5.518 2.637-5.07-21.254 4.613-1.488 2.332-8.106 6.709-5.451 3.238-14.307 5.234-8.636 2.859-11.8 3.518z" fill="#e9d8d0"/><path d="M202.799 290.393l-3.013-7.7-24.45-.42-45.718-.526-.113-2.35-37.884 15.896-2.893 24.465-3.369 8.664 15.991 1.916 96.817-3.589z" fill="#e9d8d0"/><path d="M88.728 319.758s-22.245 56.141-25.952 76.797c-3.708 20.656 15.889 39.193 15.889 39.193l6.946 108.435 120.695 4.62c-1.059-3.707 58.79-157.015 65.145-192.5 6.356-35.486-7.03-41.21-16.418-49.256-8.573-7.348-40.753-18.63-55.053-23.344m-70.475-4.305l-17.562 7.365" fill="#e9d8d0" stroke="#927163" stroke-width=".793" stroke-linejoin="round"/><path d="M128.918 251.67c3.774 5.793 19.289 29.425 21.013 35.287L138.08 323.2l-21.34-2.4 1.316-36.57 6.943-2.94 4.507-1.892-.1-5.96z" fill="#a18981"/><path d="M210.403 216.09c-4.415 8.386-12.879 24.172-13.334 40.534-.307 11.058 2.911 27.08 2.911 27.08M128.46 247.156l1.158 35.713" fill="none" stroke="#927163" stroke-width=".793" stroke-linejoin="round"/><path d="M128.46 247.156c34.889-.903 42.825 6.999 40.827 30.195 6.772.539 29.332-1.758 29.332-1.758l-4.764-55.534-5.172 1.318-1.022 1.658-2.64 2.576-2.885 2.288-4.177 2.913-2.865 1.738-4.525 1.808-7.997 2.898-7.621 2.564-15.288 4.69-3.8.905z" fill="#a18981"/><g><path d="M99.89 290.091s-34.112 16.9-36.898 21.727c-3.104 5.376-26.485 84.79-33.865 89.07 14.787 13.606 55.985 8.916 55.985 8.916z" fill="#c7cdf9" stroke="#7c84c3" stroke-width=".793" stroke-linejoin="round"/></g><g><path d="M123.144 344.452c-7.469 22.673-14.186 47.07-13.659 55.765 1.553 25.575 11.017 30.955 10.912 38.837-.283 21.229-3.495 106.327-3.495 106.327" fill="none" stroke="#858dc8" stroke-width=".794" stroke-linecap="round" stroke-linejoin="round"/><path d="M161.98 275.902l-8.438 7.095-6.694 7.5-3.912 4.494-4.175 7.94-6.264 14.559-1.549 2.459-5.425-31.526-2.117-2.73a147.907 147.907 0 015.33-7.343c-9.714 3.198-22.011 7.94-31.018 12.902l-11.989 31.68c-18.29 49.064-27.258 78.234-22.344 91.382 2.348 6.283 8.698 17.203 14.365 22.586l6.649 106.942 123.5 4.548s33.622-92.27 49.32-138.792c10.48-31.055 30.272-73.04 7.57-97.754-7.115-7.746-34.881-19.691-62.025-27.853z" fill="#c7cdf9"/><path d="M121.748 280.767l-4.855 1.833-.33 3.196-1.105 8.406-1.26 8.29-.995 6.78-1.003 10.24.058 8.251.575 4.897.95 4.498 1.34 4.354 1.83 4.47 2.929 5.278 1.602 2.848-1.191-4.07c-1.937-3.396-3.79-8.927-4.246-10.837-.903-3.778-1.891-10.431-1.8-14.114.486-19.525 3.677-26.652 4.548-29.017.589-1.598 3.487-3.118 5.001.185 2.512 5.483 5.885 28.126 5.885 28.126l.04-3.412-.318-4.364-.755-6.215-.928-5.869-.968-5.182-1.061-4.958-1.362-5.528-1.643-5.612zM220.04 289.663l-8.189-2.808-9.087-2.864-5.686-1.128c-4.942 7.633-36.707 48.912-75.594 71.245l141.91 38.066 2.94-8.406 2.034-6.179 2.262-7.544 1.63-6.263 1.459-6.871.684-4.197.645-5.934.198-5.403-.556-7.983-1.488-6.75-1.941-5.109-2.703-4.866-2.967-3.926-3.631-3.415-4.782-3.208-6.872-3.781-6.415-3.092-6.375-2.808-5.092-2.098-6.08-2.366z" fill="#8c90af"/><path d="M202.764 283.99c27.143 8.163 54.91 20.108 62.026 27.854 22.701 24.713 2.909 66.7-7.57 97.754-15.699 46.521-49.321 138.792-49.321 138.792l-123.5-4.548-6.65-106.942c-5.666-5.383-12.015-16.303-14.364-22.586-4.914-13.148 4.053-42.318 22.344-91.382l11.989-31.68c9.007-4.962 21.305-9.704 31.018-12.902" fill="none" stroke="#6a7098" stroke-width=".793" stroke-linecap="round" stroke-linejoin="round"/><path d="M128.637 251.67l.076 6.16.06 4.94.074 5.966.053 4.28.258 3.561.228 3.692.412 5.945.418 6.04.412 5.936.398 5.747.391 5.656.552 7.963.048.696-.97 2.408-.363-1.239-.351-4.336-.433-3.83-.445-3.282-.865-5.26-1.05-5.186-1.498-6.726-1.546-5.712-1.396-4.219-1.651-4.349-1.205-2.695-.984-1.745-.128-1.63.395-2.769.956-3.121 1.324-2.902 1.471-2.61 1.935-3.075 1.544-2.112.895-1.274z" fill="#8c90af"/><path d="M129.68 324.38l1.116-2.846-.393-5.716-.63-5.564-.898-5.944-.824-4.502-.822-3.953-.665-2.91-1.14.355.745 3.316.788 3.82.58 3.048.616 3.777.522 3.354.376 3.09.479 4.632.192 2.632z" fill="#c7cdf9"/><path d="M173.392 300.103c-4.748-11.59-18.719-17.719-31.693 6.204-10.298 18.987-19.723 43.31-20.986 46.593l-.831-1.64 2.012-5.875 5.104-14.004 4.642-11.978 6.296-14.553 3.976-7.47 4.494-6.4 2.99-3.617 4.146-4.366 3.97-3.663 3.632-2.85.837-.582 1.99 1.09 3.22 2.824 2.384 3.485 1.826 4.31 1.312 5.435.457 3.52z" fill="#8c90af"/><path d="M197.123 254.681s1.55.443 1.462 1.772c-.13 1.954-5.19 4.739-5.19 4.739-13.115 7.178-25.167 11.963-31.725 12.938-7.796 5.422-16.908 14.548-24.468 32.029 7.031-15.704 19.063-26.402 24.778-30.257 14.622 6.602 11.61 33.542 10.191 38.637 9.09-6.65 27.515-25.024 32.181-33.362.346-6.212-1.159-26.496-7.362-27.205" fill="#c7cdf9"/><path d="M197.295 253.838l1.7 1.149 1.417 1.9 1.298 3.006 1.045 3.796.738 3.99.627 5.4.247 4.26-.015 3.838-1.447 2.291-3.597 4.696-4.484 5.143-9.276 9.537-6.325 5.887-4.112 3.52-2.94 2.288c17.084-17.018 21.026-45.052 7.488-46.506l5.339-2.494 6.743-3.451 3.999-2.387 2.244-1.99.59-1.15-.159-.908-.664-.677z" fill="#8c90af"/><path d="M80.17 244.327s1.552.443 1.463 1.772c-.13 1.953-5.19 4.738-5.19 4.738-13.116 7.178-25.168 11.963-31.725 12.938-7.796 5.422-16.909 14.548-24.468 32.03 7.03-15.705 19.062-26.403 24.778-30.257 14.622 6.602 11.609 33.541 10.191 38.637 9.09-6.651 27.514-25.024 32.18-33.363.346-6.212-1.158-26.495-7.361-27.204" fill="none" stroke="url(#i)" stroke-width=".794" stroke-linejoin="round" transform="translate(116.952 10.355)"/><path d="M139.95 300.21c-3.517 6.47-14.334 33.631-20.536 52.46" fill="none" stroke="#7c84c3" stroke-width=".793" stroke-linecap="round" stroke-linejoin="round"/><path d="M130.796 321.534c-.37-8.731-2.013-19.789-4.754-30.733m-1.09.476c3.27 13.179 5.224 28.289 4.729 33.104" fill="none" stroke="#7c84c3" stroke-width=".793" stroke-linejoin="round"/></g><g><path d="M115.563 282.078c-7.068.296-16.557 6.253-18.98 9.342-6.03 7.687-32.113 92.03-34.496 98.121-2.383 6.09-5.723 20.711 5.031 34.691 5.297 6.886 7.68 13.507 8.475 16.42.794 2.913 6.904 98.512 6.904 98.512-6.33 12.746-11.993 26.557-17.12 40.836h170.749c-7.154-15.19-14.941-27.63-23.316-35.367-4.436-4.098 51.707-145.315 51.707-145.315l-50.694-25.35s8.898-65.68 29.121-76.353c-3.183-3.838-17.61-10.502-22.845-7.865-20.044 10.096-57.42 51.373-98.616 64.357-16.084-24.65-7.185-43.276-4.54-72.01-.447-.032-.908-.039-1.38-.019z" fill="#898ee2"/><path style="mix-blend-mode:normal" d="M97.726 561.775L93.175 580h3.637z" fill="#60649f"/><path d="M116.954 345.981l4.53 8.127 10.509 25.74-3.441-5.248-2.989-4.993-3.594-6.447-2.849-6.07-3.916-8.238-3.196-8.217-1.677-4.805-1.693-5.762-2.077-6.51-1.475-5.884-1.059-4.23-.942-4.595-.789-3.952-.808-4.048-.646-3.363-.562-3.65-.39-3.745-.262-1.43 2.156-1.472 2.318-1.363 2.599-1.301 2.718-1.11 3.06-.903 2.767-.417 1.696.002-.23 2.338-.973 7.846-.897 5.997-1.863 12.706-.771 8.293-.106 3.494.156 4.992.575 4.897.95 4.498 1.34 4.354z" fill="#60649f"/><path d="M96.106 331.322C83.132 357.56 68.42 390.56 68.48 405.166c.048 11.495 8.42 19.759 12.909 28.031 7.554 13.925 13.016 35.222 12.265 104.446-.037 3.451-3.824 19.78-9.441 42.357h10.402c5.494-22.936 9.215-39.51 9.272-42.969 1.124-69.008-4.757-92.094-12.157-105.877-4.564-8.502-11.935-16.495-11.935-25.57 0-10.825 8.634-32.957 16.978-51.818z" opacity=".999" fill="#e5e8fd"/><path style="mix-blend-mode:normal" d="M224.108 289.182l-2.414.078-2.095.746-3.563 2.053-3.84 2.543-4.613 3.35-8.291 6.458-12.879 10.363-10.017 7.87c-14.372 25.246-26.958 44.907-47.418 71.117 5.131 24.7-1.855 36.475-29.147 42.722 22.913 40.48 44.906 85.599 54.598 131.334.358 1.898.886 6.23 1.527 12.184h80.135l-1.496-3.19-2.658-5.242-4.086-7.332-3.012-4.85-3.033-4.41-2.93-3.818-3.27-3.746-2.828-2.81-.16-1.051 1.553-.205 1.008-.463 1.252-1.031.818-1.077.88-1.789.534-1.521.469-1.875.324-1.946.207-2.308.033-1.9-.144-2.358-.377-2.11-.432-1.238-.478-.906 7.576-22.152 4.75-13.035 13.888-36.89 2.502-6.519 6.403-16.544 4.924-12.61 6.209-15.756-50.694-25.35 1.408-8.769 1.559-8.215 1.348-6.318 2.086-8.684 1.886-6.888 3.22-10.02 3.296-8.34 2.5-5.205 1.89-3.355 2.522-3.758 2.621-3.094 2.367-2.136 2.418-1.57-1.609-1.495-3.273-2.137-4.045-2.015-3.72-1.436-3.054-.863z" fill="#60649f"/><path d="M204.73 300.127l-25.424 20.266s-40.539 70.342-40.366 84.222c.497 39.778 25.163 12.544 21.588 115.656-.272 7.86.867 30.644 2.67 59.729h14.426c-1.873-26.8-3.03-47.544-2.77-55.072 3.502-101.006-18.543-86.02-20.615-117.862-.9-13.852 50.49-106.939 50.49-106.939z" fill="#a1a3b2"/><path d="M102.044 342.5l-3.941 6.854 2.47 13.34.744 4.458 1.863 1.835c-.674-4.77-.943-16.999-1.136-26.488z" fill="#60649f"/><path d="M115.458 294.202s-10.564 19.037-21.672 41.851l2.269 19.343.718-1.63 1.465-3.283c7.256-16.15 13.887-29.129 13.887-29.129l1.366-14.147z" opacity=".999" fill="#a1a3b2"/><path d="M117.566 282.078c-7.068.296-16.557 6.253-18.98 9.342-6.03 7.687-32.113 92.03-34.496 98.121-2.384 6.09-5.723 20.711 5.031 34.691 5.296 6.886 7.68 13.507 8.475 16.42.794 2.913 6.904 98.512 6.904 98.512C78.17 551.91 72.506 565.721 67.38 580H238.13c-7.154-15.19-14.941-27.63-23.317-35.367-4.435-4.098 51.708-145.315 51.708-145.315l-50.694-25.35s8.898-65.68 29.121-76.353c-3.183-3.838-17.61-10.502-22.845-7.865-20.044 10.096-57.42 51.373-98.616 64.357-16.084-24.65-7.185-43.276-4.54-72.01-.448-.032-.908-.039-1.38-.019z" transform="translate(-2.003)" fill="none" stroke="url(#j)" stroke-width=".794"/><path d="M213.375 543.49c-74.125 6.023-108.407 2.958-131.235-4.508-4.873-1.594-5.79-23.618-.342-21.604 27.21 10.058 65.702 10.803 135.58 5.183 3.566-.286 3.597 20.31-4.003 20.928z" fill="#c7cdf9"/><path d="M142.534 526.04c5.868 1.167 9.201 19.104 6.588 20.721l10.95-.132 12.17-.527 11.151-.543 11.803-.72 12.028-.864 6.15-.486 1.805-.607 1.252-1.03 1.178-1.807 1.054-2.58.793-3.82.233-3.022-.062-2.736-.278-2.15-.606-2.006-.478-.906-.533-.221-1.587.056-4.625.363-5.036.381-3.95.288-3.857.27-5.017.335-5.865.365-8.525.473-6.592.312-6.805.264-7.854.222-7.183.11-4.891.018z" fill="#8c90af"/><path d="M96.422 533.134c-74.124 6.024-108.407 2.96-131.234-4.507-4.873-1.594-5.791-23.618-.343-21.604 27.21 10.058 65.702 10.803 135.581 5.184 3.566-.287 3.597 20.31-4.004 20.927z" fill="none" stroke="url(#k)" stroke-width=".794" stroke-linecap="round" stroke-linejoin="round" transform="translate(116.952 10.355)"/></g><g><path d="M120.617 277.988l-2.489 2.088-2.833 2.95-2.263 2.844-1.58 2.294-2.224 3.8-1.32 2.698-1.506 3.731.058-1.59.333-1.58 1.994-6.07 3.347-8.465 1.875-3.417 1.84-2.543 2.247-2.04 1.366 2.41z" fill="#c7cdf9"/><path d="M120.617 277.988l-1.711 1.435-4.023 4.087-2.08 2.892-1.698 2.355-1.877 3.207-1.74 3.655-1.062 2.106.822-3.888 1.028-3.13 1.55-4.603 1.896-4.373 1.632-3.267 1.946-3.06 1.747-1.909 1.05-.808 1.093 1.876z" fill="#8c90af"/><path d="M126.042 290.8c-1.672-6.673-3.66-13.16-6.782-18.719-1.036-5.805 4.416-14.403 8.972-20.245-6.298 6.297-15.935 18.826-18.669 25.971-1.483 3.877-6.211 17.414-5.299 28.939 1.527-8.995 6.807-29.502 13.832-34.059 2.63 4.045 4.976 11.01 6.857 18.59" fill="#c7cdf9"/><path d="M119.722 266.78c-2.344.79-7.89 6.393-7.89 6.393l2.651-4.276 2.968-4.243 2.64-3.479 3.027-3.719 4.534-4.868-3.142 4.503-1.694 2.778-1.37 2.58-1.181 2.824z" fill="#8c90af"/><path d="M120.617 277.988c-6.14 4.574-13.302 14.268-15.895 26.289" fill="none" stroke="#6a7098" stroke-width=".794" stroke-linejoin="round"/><path d="M9.09 280.446c-1.673-6.674-3.66-13.162-6.783-18.72-1.036-5.804 4.417-14.402 8.972-20.245-6.297 6.297-15.934 18.827-18.668 25.972-1.483 3.877-6.212 17.413-5.299 28.938 1.527-8.994 6.807-29.502 13.832-34.058 2.63 4.045 4.975 11.009 6.856 18.59" fill="none" stroke="url(#l)" stroke-width=".793" stroke-linecap="square" stroke-linejoin="round" transform="translate(116.952 10.355)"/></g><g><path d="M94.908 321.179c.35 11.45 14.395 39.88 37.085 58.669-46.3-67.227-36.807-164.45-34.993-266.28l-25.521.09 3.526 49.648 6.158 117.89zm-23.43-207.52c-.538 114.47-11.353 213.35 30.274 255.39-2.87-12.285-4.965-25.408-4.73-38.232" fill="#6e685a"/><path d="M97 113.569l-15.657.055s-2.252 114.9-1.508 151.418c.394 19.362 2.588 66.977 21.917 104.006l-1.07-4.799-1.224-6.24-1.354-8.787-.7-6.738-.373-7.204.273-3.71L95.4 325c9.65 19.259 24.14 43.016 36.594 54.848l-3.068-4.624-4.857-8.115-3.503-6.59-3.633-7.662-2.303-5.398-2.907-7.568-2.205-6.44-2.974-9.955-2.645-10.569-2.904-14.554-1.521-9.66-1.357-10.667-1.41-14.941-.84-13.097-.606-15.67-.257-15.479v-14.951l.184-14.948.225-11.314.372-15.078.404-14.902.399-15.108z" fill-opacity=".3"/><g fill="none" stroke-width=".793" stroke-linecap="round" stroke-linejoin="round"><path d="M820.963 746.339c-.35 11.45-14.395 39.879-37.084 58.669 46.298-67.227 36.807-164.45 34.992-266.28" stroke="url(#m)" transform="matrix(-1 0 0 1 915.871 -425.16)"/><path d="M844.392 538.818c.54 114.471 11.355 213.35-30.273 255.39 2.871-12.284 4.965-25.407 4.73-38.231" stroke="url(#n)" transform="matrix(-1 0 0 1 915.871 -425.16)"/></g></g><g><path d="M41.676 239.91l5.181.92 5.876 2.112 3.939 2.287 3.587 2.947 3.27 3.731 2.802 4.437 2.252 4.985 2.137 7.166 1.026 6.773.041 7.897-.747 6.485-1.162 5.458-1.575 5.145-2.185 5.293-2.268 4.243-3.32 4.79-3.448 3.745-4.477 3.517-5.77 2.841-6.125 1.396-6.524-.052-6.268-1.543-4.68-2.373-3.384-2.57-2.933-2.993-2.638-3.508-2.987-5.35-2.083-5.158-1.355-4.505-1.337-6.353-.734-5.73-.36-5.873.02-4.852.5-5.917.96-5.207 1.974-6.218 1.905-3.992 2.408-3.708 2.864-3.25 3.274-2.704 4.779-2.59 3.345-1.23-.711-6.418-2.431-.173-1.532-.296-1.48-.48-1.429-.823-.757-.834-.36-.863.061-.898.703-.968 1.029-.73 1.396-.672 3.855-1.152 4.093-.678 4.02-.29 2.917.03 2.914.316 1.388.315 1.282.477 1.252.956.344 1.005-.413 1.23-1.25 1.18-5.557 2.268.755 6.771z" fill="#6c6c6c"/><path d="M40.127 252.824c2.608-1.436 4.292-1.01 5.61 3.041.802 2.466-.93 13.69-3.2 16.51 1.457 3.517 2.772 12.063 1.882 16.713 5.49 1.6 16.098 14.164 16.81 15.77-.04.129-2.632 6.71-2.632 6.71L38.398 290.51l-.853-17.804z" fill="#4c4c4c"/><path d="M30.625 225.337c2.147 1.087 2.15 7.371 1.048 8.488 1.616 1.956 1.145 4.75.532 6.1l1.566.043 3.232.505 3.784 1.223L45 243.831l2.546 1.71 4.751 4.222 3.134 3.763 2.584 4.001 1.323 2.528 1.299 2.965 1.08 3.04.95 3.426.84 4.315.572 5.22.168 4.5-.076 3.935-.396 5.023-.563 4.014-.881 4.342-1.103 4.024-1.138 3.41 1.902 1.565 4.183-4.623.985-2.25 1.857-5.041 1.343-5.069.758-3.887.451-3.513.286-4.12-.025-4.585-.382-4.258-.73-3.993-.897-3.459-1.24-3.707-1.381-3.257-1.832-3.421-3.076-4.3-3.15-3.2-3.433-2.48-3.982-2.188-2.926-1.098-4.115-1.033-3.998-.498-3.144-.179-.755-6.771 1.86-.545 1.979-.77 1.717-.953 1.25-1.18.414-1.23-.344-1.005-1.252-.956-1.282-.477-2.116-.43-2.186-.2-1.76-.02-2.319.072z" fill="#4c4c4c"/><path d="M31.664 239.946c10.844-.593 27.865 10.172 31.707 32.997 3.42 20.324-2.907 51.447-23.022 53.169-20.9 1.79-33.674-17.01-34.878-44.81-1.204-27.8 12.464-40.606 26.193-41.356zM36.79 232.904l.755 6.771M26.745 233.984l.774 6.561M18.755 230.515c-1.179-5.176 24.221-7.744 25.222-2.6 1.064 5.467-23.714 9.22-25.222 2.6z" fill="none" stroke="#313131" stroke-width=".794"/><path d="M31.476 239.938c21.31-2.121 34.8 7.945 39.405 29.285 4.572 21.187-6.421 55.636-31.99 56.98" fill="none" stroke="#313131" stroke-width=".794"/><path d="M21.718 254.507c-.023-2.186 2.259-4.262 5.528.866 1.763 2.765 1.054 13.656-.092 17.62 0 0 1.422 2.307 1.892 4.675l.695 5.873 1.387 8.845-1.636.883-3.235-3.553-4.703-15.683z" fill="#4c4c4c"/></g><g><path d="M270.56 437.892l1.613-.104-2.481-.82-1.747-.78-1.626-.863-2.344-1.441-2.338-1.637-2.2-1.695-2.29-1.89-2.99-2.62-4.163-3.843-4.177-3.956-5.31-4.987-5.186-4.63-5.542-4.465-4.651-3.213-4.048-2.3-4.275-2.034-4.085-1.634-3.67-1.162-3.726-.819-3.844-.367-2.895.14-2.943.44-2.621.142-.965.596-.107.662-.012 1.288.183 1.168.8 2.282 1.536 2.664 2.228 2.845 2.323 2.443 1.963 1.829 2.412 2.049 3.32 2.565 3.322 2.344 3.464 2.26 3.607 2.19 3.525 2 4.084 2.162 4.204 2.066 3.24 1.487 3.385 1.46 3.501 1.407 4.482 1.646 3.067 1.023 4.08 1.221 4.027 1.035 3.77.797 4.196.659 4.94.399z" fill="#8c90af"/><path d="M272.173 437.788c-27.423 2.433-83.467-28.553-80.117-43.838" fill="none" stroke="#6a7098" stroke-width=".793" stroke-linejoin="round"/><path d="M269.692 436.969c-13.15.26-33.243-6.98-51.47-17.364-14.846-8.457-26.307-18.55-25.36-24.927" fill="none" stroke="#6a7098" stroke-width=".793" stroke-linecap="round" stroke-linejoin="round"/></g><g><path d="M17.702 284.448s.348 1.635.68 3.53c.333 1.897.65 4.065.618 5.036 0 0-.007.134.018.198.028.07.131.17.131.17 2.063 1.96 2.027 2.415 3.121 3.717l.62-.525c-.992-1.181-1.193-1.83-3.113-3.686.012-1.194-.278-3.207-.602-5.052-.336-1.911-.698-3.085-.698-3.085-.31-.476-.283-.254-.776-.303z" style="line-height:normal;font-variant-ligatures:normal;font-variant-position:normal;font-variant-caps:normal;font-variant-numeric:normal;font-variant-alternates:normal;font-feature-settings:normal;text-indent:0;text-align:start;text-decoration-line:none;text-decoration-style:solid;text-decoration-color:#000;text-transform:none;text-orientation:mixed;white-space:normal;shape-padding:0;isolation:auto;mix-blend-mode:normal;solid-color:#000;solid-opacity:1" color="#000" font-weight="400" font-family="sans-serif" overflow="visible" fill="#927163"/><path d="M18.359 252.421l-.848.128-.149.738.234 2.39-.144 2.488-.12 3.05-.462 2.747-.793 3.474-.664 2.586-.578 2.297-.351 1.548 1.421 4.172 1.374 3.988 1.282 3.678.95 2.691 1.194 3.32 1.866 4.965-1.522-1.9-1.667-1.827-.306-2.786-.515-4.463-1.282-3.678-1.374-3.988-1.421-4.172.35-1.548.58-2.297.663-2.586.793-3.474.463-2.748.119-3.05-1.635 2.656-1.52 2.228-1.701 2.329-1.54 1.939-1.865 1.993.323 7.27.378 7.708-.34 6.86.002 4.587.228 2.33.377 2.065 1.047 4.528 1.004 3.675.994 3.216 1.283 3.604 1.415 3.271 1.283 2.275 2.572 2.895 3.744 4.045 4.697 5.017 5.18 5.5 6.794 7.186 4.77 5.031 3.982 4.193.268.124.467.649 2.344 3.63 4.127 6.559 3.676 5.95 4.476 7.322 3.874 6.37 3.47 5.714 3.985 6.56 3.834 6.294 5.755 9.394 6.13 9.902 5.145 8.202 6.973 10.904 6.614 10.051 8.458 12.29 7.785 10.553 8.75 10.427 4.717 4.204 2.218 1.261 3.17 1.173 3.169.568 3.257.074 3.328-.361 3.734-.837 6.65-2.359 5.894-2.747 3.527-1.895 2.919-2.037 3.282-2.564 4.832-4.044 9.88-8.79 8.99-8.353 10.802-10.33 8.795-8.601 8.013-7.982 8.06-8.187 4.719-4.889 4.978-5.324 6.733-8.058 6.984-9.653 3.856-6 5.136-8.93 5.069-10.27 2.388-5.625 2.121-5.734 1.784-5.866.994-4.319.524-3.453.164-2.471-.133-2.655-.355-1.643-.714-1.774-1.39-2.745-2.262-3.577-2.764-3.591-1.56-1.798-3.916-4.045-5.998-5.358-5.319-4.232-3.764-2.811-3.12-2.365-14.498 46.775-7.326 5.65-9.412 7.725-9.385 8.269-8.384 7.902-9.066 9.265-5.634 5.932-5.758 6.488-4.8 5.684-5.188 6.466-4.473 5.88-5.448 7.852-5.312-7.523-4.124-4.994-3.803-4.119-9.317-8.921-5.53-4.998-7.429-6.486-5.892-5.146-6.59-5.852-8.368-7.672-6.742-6.438-7.212-7.182-7.343-7.654-4.633-5.018-4.42-4.926-2.65-3.087-.678-2.218-.518-2.207-.309-2.113-.062-2.247.324-2.424.49-2.045.684-2.103 1.21-2.993.813-2.03.399-1.6.415-3.482.27-3.616.276-5.454.127-3.692.1-5.55-.033-3.326-.253-1.848-.634-1.733-.867-1.87-1.172-2.277-1.253-2.37-.799-1.583-.728-1.682-.897 1.648-.627 1.213-.906 1.87-.914 2.153-.576 1.838-.287 2.77-.48 3.946-.521 3.5-.621 3.22-.397 1.479-.42 1.007-1.706 1.486-2.573 1.509-3.314.806-1.403-.236-1.31-.891-1.956-1.893-1.93-1.983-3.863-4.132-3.378-3.81-3.765-3.978-.953-.98-.175-3.626-.587-5.38-.686-4.633-1.025-4.167 1.092-2.978.774-2.714.886-3.952.6-4.154.065-3.482-.29-1.356-1.242-1.152-1.599-.164-1.974.534-1.957 1.25-.91 1.3-1.23 3.5-.567 1.926-1.347 4.503-1.646 4.648-.452 1.08.259 2.818.406 4.095.421 3.704.804 5.836.56 4.28-1.414-1.296-1.067-1.038-.833-3.597-1.278-4.136-1.825-5.127-1.338-2.853.843-3.758.372-3.245.126-3.906-.189-2.92-.415-2.173-.999-2.172-1.16-1.406-1.733-1.348z" fill="#e9d8d0"/><path d="M239.95 353.242c-49.786 37.34-74.875 77.113-74.875 77.113" fill="none" stroke="#927163" stroke-width=".794" stroke-linecap="round" stroke-linejoin="round"/><path d="M40.127 252.824s-4.553 14.367-5.522 18.101c.267 1.882 1.118 16.04 2.51 21.272 2.312 3.378 14.677 15.261 18.989 21.67 4.417 6.568 5.913 23.229 9.31 28.323 3.396 5.094 86.888 89.175 90.438 108.18 4.823 25.823-20.796 35.09-20.796 35.09l3.239 3.123 2.57 1.753 2.942 1.343 2.885.761 2.858.309 3.395-.108 3.607-.578 3.914-1.067 4.832-1.813 4.453-2.075 3.567-1.815 3.415-2.124 3.812-2.936 9.14-7.771 9.356-8.494 7.477-7.03 7.754-7.413 9.54-9.303 9.762-9.733 7.737-7.891 4.191-4.359-6.822-6.344-2.883-2.54-4.458-3.937-2.652-2.011-2.395-1.655-2.795-1.729-2.417-1.376-3.387-1.735-3.234-1.43-4.285-1.522c-8.063 4.672-30.002 27.707-41.214 43.895l-1.803-3.611-2.082-3.889-2.58-3.777-2.732-3.746-2.174-2.714-3.16-3.632-2.928-3.088-3.081-3.11-2.52-2.415-2.82-2.538-2.85-2.606-2.649-2.394-3.74-3.284-3.274-2.858-3.687-3.22-3.684-3.225-3.924-3.484-5.595-5.066-4.018-3.667-3.862-3.638-3.684-3.548-6.432-6.4-5.46-5.648-4.492-4.75-3.178-3.449-3.134-3.481-3.06-3.524-.646-.754-.868-3.024-.638-3.514-.024-2.798.476-2.754.718-2.51 1.462-3.717.827-2.063.28-.978.308-2.21.326-3.241.336-5.265.189-4.597.132-5.428.001-4.393-.077-1.54-.414-1.518-.615-1.591-1.214-2.492-1.167-2.219-1-1.922-.799-1.676-.438-1.013-.726 1.335-1.387 2.724-1.231 2.825-.576 1.838-.212 2.043-.425 3.609-.826 5.47-.71 3.348-.553 1.452-.69.69-1.016.796-1.174.689-1.4.82-1.606.578-1.707.228-1.094-.142-.95-.388-.67-.597-2.952-2.908-2.103-2.204-2.531-2.72-2.779-3.127-3.026-3.222-1.892-2.027-.561-.567-.1-2.07-.194-2.855-.342-3.088-.603-4.215-.435-2.666-.43-1.958-.37-.955.741-2.019.918-2.891.618-2.459.476-2.275.495-3.168.198-2.39-.028-2.078-.29-1.356z" fill="#a18981"/><path d="M254.913 325.655c9.559 6.882 25.469 18.503 30.677 31.75 4.093 10.41-11.255 49.918-37.472 77.723-19.73 20.927-63.723 63.81-74.149 69.25-12.181 6.355-26.609 12.402-37.074 1.589-24.517-25.332-69.522-105.076-86.736-131.52 0 0-30.239-31.78-32.474-34.64-3.687-5.514-7.226-20.109-7.54-23.705-.304-3.481.145-14.762.145-14.762" fill="none" stroke="url(#o)" stroke-width=".794" stroke-linecap="round" stroke-linejoin="round" transform="translate(-.5 -19.11)"/><path d="M13.831 299.503c1.618 8.166 8.714 16 12.194 18.616l-2.262-3.346-4.09-6.252z" fill="#a18981"/><path d="M17.617 257.836c-.735 1.617-5.78 9.12-8.426 11.473.074 2.61.92 19.48 1.213 24.957.625.808 12.901 20.03 15.62 23.853" fill="none" stroke="#927163" stroke-width=".794" stroke-linecap="round" stroke-linejoin="round"/><path d="M14.901 275.097l.208 17.188s11.425 14.507 24.882 26.408l-3.668-4.638-3.678-4.65-6.639-8.391-3.435-4.333-2.265-2.773-.924-.954-.44-3.953-.778-4.436-1.668-4.804z" fill="#a18981"/><path d="M22.57 296.681c-1.534-1.974-2.7-3.328-3.188-3.727-.063-1.848-1.03-7.48-1.434-9.003" fill="none" stroke="#7c6459" stroke-width=".794" stroke-linejoin="round"/><path d="M20.801 253.644c1.504 8.422-.969 20.52-.969 20.52l4.993 16.625c6.69 8.27 14.139 17.025 23.015 23.85l-7.496-7.898-2.505-2.967-3.492-4.535-2.569-3.833-.65-3.02-2.714-2.586-.833-3.597-1.176-3.805-1.197-3.513-1.297-3.32-.771-1.478.485-2.164.56-3.08.17-1.76.126-3.905-.189-2.92-.415-2.173-.999-2.172-1.16-1.406z" fill="#a18981"/><path d="M31.628 311.496c-.772-.68-2.714-2.587-2.714-2.587-.147-2.242-4.065-14.171-5.274-15.712 1.306-3.924 2.021-13.01.448-16.853-1.538-3.757-6.567-6.21-6.237-4.024 1.161 7.698-1.61 14.69-2.867 20.656.686 2.029 5.876 17.331 8.111 22.84 2.83 3.566 17.396 21.986 17.396 21.986" fill="none" stroke="url(#p)" stroke-width=".794" stroke-linecap="round" stroke-linejoin="round" transform="translate(-.5 -19.11)"/><path d="M48.34 333.748c-7.424-7.204-13.121-14.418-16.061-19.233-2.059-8.674-3.003-20.513-3.333-24.005 2.866-6.579 4.28-14.812 5.8-16.59 1.802-2.107 6.906-3.622 7.365.06.595 4.767-1.772 14.19-3.37 17.74.793.832 2.555 13.766 2.474 17.808 2.308 2.241 12.362 13.807 16.515 17.373 2.978 1.72 7.448-1.135 9.458-3.04 1.397-1.323 2.794-14.629 2.794-15.29 0-2.5 4.03-9.586 4.03-9.586 1.103 3.088 5.399 9.612 5.66 12.552.294 3.308-.22 22.163-1.25 26.647-.558 2.433-2.903 5.918-3.675 11.357-.516 3.639.761 7.807 1.496 10.013 50.53 58.058 82.228 66.86 95.873 103.777" fill="none" stroke="url(#q)" stroke-width=".794" stroke-linecap="round" stroke-linejoin="round" transform="translate(-.5 -19.11)"/></g><g><path d="M245.547 300.016c25.876 11.786 36.583 27.426 40.49 34.616 5.58 10.264 4.956 59.506-13.864 103.156l-2.481-.82-3.975-1.992-3.177-2.097-3.133-2.35-2.716-2.266-3.378-2.828-2.68-2.442-3.222-3.236-2.864-2.46-3.115-2.91-3.15-2.88-2.336-2.07-2.6-2.219-2.49-2.018-2.7-2.049-3.028-2.203-4.048-2.3-4.275-2.034-2.983-1.386-3.648-1.268-3.444-.868-2.177-.21-3.073-.25-2.895.14-2.162.323-1.806.697-2.561.158c3.363-5.095 47.391-41.219 47.391-41.219" fill="#c7cdf9"/><path d="M234.202 357.057l5.245-4.326c-20.18 27.944-20.445 43.065-20.445 43.065l-4.545-2.05-7.727-.654 3.444.868 3.648 1.268 4.437 2.077 2.82 1.342 4.049 2.301 2.717 1.977 3.928 3.018 5.307 4.499 4.688 4.26 4.75 4.449 3.83 3.555 4.791 4.344 2.581 2.071 3.853 3.127 4.144 2.728 2.228 1.211 1.747.782 2.481.819 1.183-2.807 2.027-5.142 1.715-4.729 1.981-5.985 2.01-6.792 2.049-7.944 1.526-6.875 1.532-8.205 1.314-8.911.866-8.027.491-6.914.22-6.362-.093-7.85-.522-6.777-.922-5.478-.689-2.432-.845-1.967-1.867-3.167-3.83-5.39-3.039-3.599-3.665-3.793-3.964-3.592-3.419-2.763-4.688-3.272-4.35-2.885-5.394-3.044-3.937-1.963-2.316-1.107z" fill="#8c90af"/><path d="M246.047 319.125c25.877 11.786 36.583 27.426 40.491 34.616 5.58 10.264 4.956 59.506-13.864 103.156-21.67-11.994-27.966-26.61-47.511-38.797-19.05-11.877-29.972-7.708-32.607-5.04 3.363-5.095 47.391-41.22 47.391-41.22" fill="none" stroke="url(#r)" stroke-width=".793" stroke-linecap="round" stroke-linejoin="round" transform="translate(-.5 -19.11)"/><path d="M193.362 413.787c2.735-1.616 10.952-5.492 28.566 4.148 17.214 9.421 33.962 32.398 48.264 38.143" fill="none" stroke="url(#s)" stroke-width=".793" stroke-linecap="round" stroke-linejoin="round" transform="translate(-.5 -19.11)"/></g></g><g opacity=".999"><path d="M210.277 216.282c80.35-70.695 38.725-170.09-55.307-167.083-62.164 1.988-89.735 68.721-76.784 117.084.189.706.743 4.156 1.08 7.718.816 8.64.497 19.68.907 28.719.147 3.258 1.047 8.35 3.633 12.576 1.793 2.931 3.97 5.568 6.155 7.815 1.85 1.902 3.758 3.827 5.883 5.69 3.526 3.088 8.889 7.584 14.232 11.495 6.892 5.044 10.323 7.236 15.67 7.032 9.86-.375 40.651-11.135 48.997-14.608 1.645-.685 12.92-8.014 13.94-11.343" fill="#e9d8d0"/><path d="M78.559 167.184c31.535 6.71 87.464 1.863 104.416-.494l.193-64.473-100.605.332-1.723 4.645-1.821 5.845-1.25 4.906-1.269 6.422-.952 7.241-.35 4.7-.141 5.338.084 4.24.44 6.133.652 5.017.875 4.744z" fill="#a18981"/><path d="M174.463 159.33c1.606 49.008-8.128 67.669-46.862 88.001l4.682-.988 8.098-2.054 8.19-2.398 7.065-2.272 7.07-2.41 6.045-2.172 5.353-2.055 2.923-1.573 3.556-2.382 2.897-2.155 2.952-2.536 21.617-13.426-15.283-83.07-19.514.988z" fill="#a18981"/><path d="M555.54-58.087c80.35-70.695 38.726-170.09-55.307-167.082-62.164 1.988-89.735 68.721-76.784 117.083.19.707.743 4.157 1.08 7.718.817 8.64.498 19.68.907 28.72.147 3.258 1.048 8.35 3.633 12.576 1.793 2.93 3.97 5.568 6.155 7.815 1.85 1.902 3.758 3.827 5.884 5.69 3.526 3.088 8.888 7.583 14.232 11.495 6.892 5.044 10.322 7.236 15.67 7.032 9.859-.375 40.65-11.135 48.996-14.608 3.718-1.548 12.92-8.015 13.94-11.343" fill="none" stroke="url(#t)" stroke-width=".793" stroke-linecap="round" stroke-linejoin="round" transform="translate(-345.263 274.368)"/><path d="M122.995 219.383l1.354.962.922 1.035.512 1.345-.67 1.486-.774.425-1.198.073-1.076-.476-1.276-1.354-.776-1.299-.38-1.564.537-1.219 1.291-.087z" fill="#835656"/><path d="M125.73 223.484l-.617.727-.774.425-.844.052-.922-.094-.88-.644-.65-.801c1.775-.406 3.834-.696 4.772-.576z" fill="#b68282"/><path d="M108.244 165.075c.147.377-.361.967-.744-.053-.512-1.365-1.752-3.107-2.284-3.598-.284-.263-.107-1.361.83-.2.712.884 1.616 2.361 2.198 3.851zM141.715 165.684c-.205.35.17.874.743-.053.794-1.282 2.462-2.787 3.152-3.333.304-.241.427-1.227-.689-.307-1.556 1.282-2.266 2.093-3.206 3.693z" fill="#7c6459"/><path d="M143.873 173.067c.044-1.38.15-2.386.503-4.442l5.837-3.27 8.753-3.075 9.005.514 6.125 4.77 3.248 4.066c.221 2.376-4.109 12.528-7.69 16.043-2.115 2.075-6.218 4.42-14.736 4.64-5.828.15-8.821-4.542-9.437-6.085-.621-1.559-1.73-9.275-1.608-13.161z" fill="#f5f5f5"/><path d="M174.831 178.853c-1.644-2.808-5.433-6.802-11.091-7.127-8.226-.473-15.978-.89-19.867 1.34-.445-.965.411-3.897.411-3.897l4.02-3.219 9.225-3.154 10.958-.328 7.272 6.443 1.61 4.5z" fill="#dcdcdc"/><path d="M501.369-106.876c-6.267-.04-11.641 5.117-11.482 11.43.159 6.314 4.508 11.592 11.713 11.671 7.204.08 11.46-6.65 11.306-12.116-.153-5.465-5.27-10.945-11.537-10.985z" fill="url(#u)" stroke="#2c2c51" stroke-width=".828" transform="matrix(.91396 0 0 1.00148 -303.129 275.566)"/><path d="M154.566 176.29c2.793.212 4.597 2.341 4.873 5.216.276 2.875-2.092 6.11-5.218 5.907-3.127-.203-4.802-2.738-4.897-5.61-.095-2.871 2.45-5.726 5.242-5.514z" fill="#27284a"/><path d="M150.617 173.79c2.6 1.522.47 6.847-2.178 5.486-2.647-1.36-.423-7.007 2.178-5.485z" fill="#f5f5f5"/><path d="M173.958 169.137c-11.009 1.534-26.526 2.349-30.171 2.444l.039-.307.055-.349.086-.454.038-.179.28-1.123 2.195-1.758 3.733-2.056 4.772-1.69 3.981-1.385 7.034.402 6.328 3.189z" fill-opacity=".3"/><path d="M149.212 166.52c1.917-1.068 3.354-1.618 5.486-1.988 3.616-.628 8.017-1.005 13.742 1.819 3.348 1.651 5.792 4.738 6.325 7.41.53 2.658-1.055 7.966-.327 7.816 1.237-.256 5.112-8.061 4.448-9.954-2.497-7.11-9.686-9.548-11.6-10.15-.952-.299-4.516-.698-7.506-.465-2.463.192-3.391.317-5.766.956-2.096.564-4.81 2.08-6.26 3.005-3.03 1.93-4.343 3.647-4.898 4.298-1.29 1.516-1.03 2.958.926 1.241 1.985-1.743 3.012-2.64 5.43-3.988z"/><path d="M119.778 219.215c-.895 1.773 2.482 7.548 5.539 4.828 2.46-2.19-4.401-7.08-5.539-4.828z" fill="none" stroke="#927163" stroke-width=".793"/><path d="M117.942 193.147c2.58 3.262 4.822 4.49 4.746 6.39-.08 2.018-3.764 3.186-4.63 3.504l-.81-1.736-1.338-1.049-.331-.744.64-1.025.928-1.249.576-1.974z" fill="#a18981"/><path d="M117.878 193.002c-.01 1.261-.121 2.737-.537 3.807-.624 1.604-1.81 1.927-1.779 2.944.023.732 2.218 1.092 2.446 3.237" fill="none" stroke="#927163" stroke-width=".793" stroke-linecap="round"/><path d="M79.541 149.38c9.475-5.29 24.906-.948 29.73 4.134M139.764 154.312c3.396-4.2 30.946-10.09 41.259-3.235" fill="none" stroke="#7c6459" stroke-width="1.057" stroke-linecap="round"/><path d="M83.079 172.41c.32 5.703 1.744 8.423 4.062 12.215 1.456 2.382 5.196 6.76 11.726 7.45 2.577.272 5.846-1.168 8.032-3.693 3.038-3.506 1.509-16.157.78-17.622l-3.898-4.769-5.2-2.42-6.737-.999-6.307 2.927z" fill="#f5f5f5"/><path d="M84.138 179.16c.914-4.265 6.134-9.045 8.99-9.9 4.83-1.446 10.493 1.388 15.182 4.418l-.208-1.503-.341-1.256-2.227-3.368-3.846-3-4.405-1.842-6.484.348-5.803 3.658-2.635 4.393z" fill="#dcdcdc"/><path d="M445.47-105.86c4.187.184 7.908 3.852 8.098 12.13.133 5.817-3.33 11.012-8.165 11.03-4.719.016-9.018-5.043-8.877-11.752.146-6.902 4.632-11.598 8.943-11.408z" fill="url(#v)" stroke="#2c2c51" stroke-width=".775" transform="translate(-345.263 274.368)"/><path d="M100.264 176.065c1.707.06 3.746 1.957 3.893 5.03.146 3.073-1.016 6.7-3.823 6.604-2.806-.095-4.19-2.997-4.118-6.094.071-3.096 2.34-5.6 4.048-5.54z" fill="#27284a"/><path d="M96.697 172.146c-2.429-1.634-4.381 3.254-2.08 4.591 2.303 1.337 4.508-2.958 2.08-4.591z" fill="#f5f5f5"/><path d="M99.314 164.6c3.898.796 6.719 4.045 8.225 6.424.423.666 1.198.793.607-.743-.36-.934-1.738-3.686-5.754-6.418-4.204-2.861-7.931-2.557-10.61-2.166-3.067.447-5.204 2.064-6.873 3.458-1.745 1.458-3.463 5.27-3.593 6.234-.276 2.05 1.866 6.658 2.264 7.677.399 1.018 1.614 2.006 1.109.434-.813-2.529-.205-4.921-.036-5.924.411-2.454 1.915-4.857 2.965-5.876 1.575-1.527 3.364-2.489 5.167-2.847 2.401-.476 3.675-.835 6.53-.253z"/><path d="M83.821 169.612c2.034.263 22.338 1.71 24.118 1.833l-.853-1.969-2.355-2.635-3.286-1.937-2.865-1.333-6.736-.999-6.307 2.927z" fill-opacity=".3"/></g><g><path d="M76.394 105.783l57.14-.493 48.113 16.753 5.217 18.113 16.799 94.776 38.09-1.589 15.976-89.401-7.124-45.15-22.058-34.433L180.11 42.53l-65.432 10.616-29.943 30.079z" fill="#6e685a"/><path d="M125.672 49.57c26.267 7.464 63.774 38.33 61.423 61.508l12.319 140.859 44.64-10.99 5.644-17.2 6.172-44.666 1.859-35.14-1.579-35.84-6.465-16.638-10.982-19.515-20.274-16.465-24.64-10.216-13.258-6.714z" fill="#4d493f"/><path d="M182.382 319.792c-.35 11.45-14.396 39.88-37.085 58.67 46.299-67.227 36.807-164.45 34.992-266.28l25.522.09-3.526 49.647-6.158 117.89zm23.429-207.52c.539 114.471 11.354 213.35-30.273 255.39 2.87-12.285 4.965-25.407 4.73-38.232" fill="#6e685a"/><path d="M205.81 112.272l-25.52-.09 1.445 57.98c2.791 15.451 11.3 47.769 8.897 93.18-2.766 52.27-28.469 99.964-45.335 115.12l5.335-4.736 2.972-2.928 4.774-5.176 3.775-4.552 2.952-3.88 2.484-3.516 2.739-4.186 2.841-4.765 1.968-3.624 2.248-4.59 2.6-6.326 1.196-3.898c2.945 7.186-1.893 38.335-5.643 41.377l4.685-5.238 3.082-4.09 3.272-5.051 3.107-5.655 2.539-5.419 2.498-6.256 3.56-11.177 1.508-5.897 1.493-6.86 1.38-7.618 1.228-8.318.87-7.273.734-7.536.957-13.5.62-14.37.327-15.637.059-16.597-.136-16.025-.202-13.083-.3-15.592-.286-14-.35-18.363-.23-15.428z" fill-opacity=".3"/><g fill="none" stroke-width=".793" stroke-linecap="round" stroke-linejoin="round"><path d="M205.81 112.272c.54 114.471 11.355 213.35-30.272 255.39 2.87-12.285 4.965-25.407 4.73-38.232" stroke="#3e3b37"/><path d="M820.963 746.339c-.35 11.45-14.395 39.879-37.084 58.669 46.298-67.227 36.807-164.45 34.992-266.28" stroke="url(#w)" transform="translate(-638.582 -426.546)"/></g><path d="M185.674 106.659c7.226 28.135 5.345 45.737 4.058 53.841-1.082.036-8.528.3-9.72.34.088-4.877-.385-21.387-4.383-37.52 2.975 14.942 3.545 33.363 3.061 37.569-2.347.117-16.664.373-19.402.383.577-6.658-.623-26.369-5.912-41.409 3.33 15.286 3.037 32.67 2.04 41.503-3.901.11-17.879.154-24.794.335-.146-5.856-.588-35.71-8.486-51.262-3.028 12.493-1.872 38.225.897 52.018-6.502.285-18.48.127-20.824.087-3.2-9.368-5.583-30.206-1.97-47.309-4.818 16.667-2.537 37.456-.504 47.15-3.012-.022-12.234-.573-12.234-.573-3.279-8.841-5.989-31.102-1.258-47.483-5.913 18.046-1.773 43.456-.11 47.314-4.428-.258-15.527-1.7-20.271-2.508-9.732-20.212-4.818-47.077.028-61.528" fill="#6e685a"/><g fill="#4d493f"><path d="M78.464 94.068c-6.35 18.622-6.059 46.525-1.844 65.965-5.816-19.459-11.243-39.992 1.844-65.965z"/><path d="M85.88 95.487c-6.35 18.623-6.06 46.525-1.844 65.966-4.876-19.695-8.584-40.658 1.843-65.966zM112.13 95.916c-6.35 18.623-6.059 46.525-1.843 65.966-5.816-19.46-11.244-39.993 1.843-65.966z"/><path d="M115.36 101.769c-4.51 17.755-3.01 42.828 1.672 60.832-5.268-18.209-9.358-36.614-1.671-60.832z"/><path d="M112.938 94.162c-6.35 18.622-6.058 46.525-1.843 65.966-4.876-19.695-8.584-40.658 1.843-65.966zM105.18 99.791c-2.066 4.518-4.473 12.543-5.032 15.641l-1.878 9.943-.802 13.943.313 8.933.887 7.993 1.067 6.141-3.33-.105c-3.554-22.908-1.638-46.29 8.775-62.489z"/><path d="M96.521 95.78c-5.57 18.87-4.12 46.736.9 65.985-5.69-19.475-10.266-40.266-.9-65.986zM78.575 93.266c-5.718 18.827-4.485 46.703.384 65.99-5.538-19.518-9.952-40.344-.384-65.99zM127.335 96.71c10.49 16.645 16.671 43.856 17.074 63.744.182-20.288-1.067-41.54-17.074-63.744z"/><path d="M135.832 99.027c8.307 14.348 13.765 38.23 14.709 55.846-.524-17.992-2.138-36.784-14.709-55.846z"/><path d="M135.48 106.264c6.869 12.403 11.821 33.446 13.088 49.115-.953-16.025-2.774-32.71-13.088-49.115zM149.67 97.484c9.297 16.05 14.582 42.157 14.726 61.191 1.263-19.388 1.971-39.697-14.725-61.191zM172.858 89.205c9.574 18.411 10.644 42.68 7.557 71.622l9.317-.327.723-5.57.436-6.645.054-4.728-.116-4.22-.317-4.953-.402-4.11-.474-3.768-.597-4.624-.95-4.592-.906-3.623-.339-2.206-1.148-4.68c-4.198-8.395-7.887-13.378-12.837-17.576z"/><path d="M139.495 99.016c9.757 17.988 11.226 49.29 9.198 62.447l6.724-.097.495-6.352.165-5.456-.01-4.382-.133-4.427-.36-5.686-.549-5.358-.396-4.828c-2.655-10.175-6.557-15.812-15.135-25.861zM68.75 96.272c-4.522 17.825-3.547 44.22.304 62.481-4.38-18.48-7.871-38.199-.304-62.48zM162.04 98.465c12.433 18.904 8.44 47.74 6.964 62.658l9.686-.234.138-5.966-.187-5.567-.261-4.358-.282-5.519-1.238-10.66-.941-5.69c-3.545-15.773-13.878-24.664-13.878-24.664zM122.16 110.77l-1.306 8.031-.421 6.801-.087 6.065.125 6.214.506 8.77.736 7.373 1.32 8.433-4.303.12c-5.114-22.289-5.178-45.792 6.548-63.353-.554 1.154-1.987 6.23-3.117 11.547zM90.973 99.045c-2.066 4.518-4.473 12.543-5.033 15.641l-1.877 9.944-.803 13.942.4 9.007 1.033 8.031 1.293 5.862-3.648-.156c-3.553-22.908-1.779-46.072 8.635-62.27z"/></g><path d="M186.174 125.768c7.226 28.136 5.345 45.738 4.058 53.841-1.082.037-8.528.3-9.72.34.088-4.877-.385-21.387-4.383-37.519 2.975 14.941 3.545 33.362 3.061 37.568-2.346.117-16.664.374-19.402.383.577-6.657-.623-26.368-5.912-41.409 3.33 15.286 3.037 32.67 2.04 41.503-3.901.11-17.879.154-24.793.335-.146-5.856-.588-35.71-8.486-51.261-3.028 12.492-1.873 38.225.896 52.018-6.502.285-18.48.126-20.823.086-3.2-9.368-5.583-30.205-1.97-47.309-4.82 16.668-2.538 37.456-.505 47.15-3.012-.021-12.234-.573-12.234-.573-3.278-8.841-5.989-31.101-1.258-47.483-5.913 18.046-1.773 43.456-.11 47.314-4.428-.258-15.526-1.7-20.271-2.507-9.732-20.213-4.818-47.078.028-61.529" fill="none" stroke="url(#x)" stroke-width=".793" stroke-linecap="round" stroke-linejoin="round" transform="translate(-.5 -19.11)"/></g><g><path d="M70.596 87.44c-2.981 9.007-2.068 12.402 4.87 15.81 3.322 1.632 40.848 8.967 96.96 2.254-62.825 9.639-92.494 5.517-96.81 4.54-11.704-2.652-15.05 21.762-11.97 42.703-4.573-13.615-3.356-30.23-1.898-38.23 2.547-13.978 4.121-18.252 8.848-27.076z" fill="#afaa9d"/></g><g><path d="M57.992 34.164s12.72-10.326 18.463-10.323c62.498.027 175.34 0 175.34 0l62.285 191.692-29.357-.107-34.61-109.099-91.27-65.48z" fill="#406555" fill-opacity=".996"/><path d="M50.76 46.958l155.702-.015 3.765.313 3.188.76 3.183 1.201 3.221 1.686 3.314 2.292 1.892 1.614 1.94 1.948 1.518 1.792 1.993 2.875 1.296 2.392 1.095 2.66 5.397 16.599 42.634 131.212.913 3.98.138 2.911-.368 2.855-.617 2-.454 1.213 3.934-5.61 3.962-5.498 1.013-1.594 1.064-2.66.492-2.742.012-2.696-.328-2.386-.366-1.538L242.11 54.159l-1.431-3.512-1.795-3.093-1.972-2.626-1.617-1.784-2.173-2.027-1.415-1.135-1.784-1.259-1.89-1.145-2.04-1.041-2.4-.982-2.311-.706-2.558-.51-2.569-.217-156.434.088-1.73.083-2.13.567-2.625.873-2.101 1.473-3.964 10.251 1.277-.265z" fill="#979797" fill-opacity=".996"/><path d="M39.288 52.878l3.445-4.889 4.24-6.017 1.85-2.625 3.076-2.847 2.26-1.186 3.833-1.02c-8.165 6.44-8.088 9.416-7.231 12.664l-2.312.234-3.133.856-2.128 1.05-1.76 1.287z" fill="#e2e2e2"/><path d="M48.864 39.294c2.494-3.22 6.569-5.178 11.754-5.178h155.028c11.054 0 22.844 8.899 26.435 19.952l47.914 147.463c1.769 5.444 1.09 10.387-1.254 13.98" fill="none" stroke="#6f6f6f" stroke-width=".748" stroke-linecap="round" stroke-linejoin="round"/><path d="M60.153 134.846l-22.079-67.95c-3.591-11.054 2.416-19.953 13.47-19.953h155.028c11.054 0 22.844 8.899 26.435 19.952l47.914 147.463c3.591 11.053-2.416 19.948-13.47 19.952l-13.836.004s.35-14.316 1.502-28.332c.752-9.152 1.23-23.009-.353-28.14-20.79-67.365-61.168-99.088-131.173-99.512-20.338-.123-61.163 3.697-63.438 56.516z" fill="#e2e2e2"/><path d="M129.349 78.461c78.391 7.401 115.51 46.072 126.244 121.783l24.24-.275-23.836-61.952-9.588-40.874c-32.007-9.674-42.943-15.866-117.06-18.682z" fill="#979797"/><path d="M60.153 134.846l-22.079-67.95c-3.591-11.054 2.416-19.953 13.47-19.953h155.028c11.054 0 22.844 8.899 26.435 19.952l47.914 147.463c3.591 11.053-2.416 19.955-13.47 19.952l-13.854-.004" fill="none" stroke="#6f6f6f" stroke-width=".748" stroke-linejoin="round"/><path d="M48.823 39.347l-9.898 14.046M289.419 214.544l-10.373 14.789" fill="none" stroke="#6f6f6f" stroke-width=".748"/><path d="M15.084 15.25h233.92l73.055 224.84 6.07-9.876-73.055-224.84H21.154z" fill="#99996a" fill-opacity=".996" stroke="#000" stroke-width=".249"/><path d="M21.154 5.374h233.92l73.055 224.84" fill="none" stroke="#5b5b4a" stroke-width=".748" stroke-linecap="round" stroke-linejoin="round"/><path d="M15.084 15.25h233.92l73.055 224.84" fill="none" stroke="#5b5b4a" stroke-width=".748" stroke-linecap="round" stroke-linejoin="round"/><path d="M21.154 5.374l-6.07 9.877M255.074 5.374l-6.07 9.877M328.129 230.214l-6.07 9.877" fill="none" stroke="#5b5b4a" stroke-width=".748"/></g></svg>