<svg xmlns="http://www.w3.org/2000/svg" width="193.551" height="38.638" viewBox="0 0 51.21 10.223"><g fill="#424377" font-weight="700" font-size="4.233" font-family="DejaVu Sans" letter-spacing="0" word-spacing="0"><path d="M0 0h7.265l.007 1.993H2.636v1.903h4.638v1.993H2.636V8.23h4.629v1.993H0z" style="line-height:1.25;-inkscape-font-specification:'DejaVu Sans Bold'"/><path d="M7.265 0v10.223L11.052 0zm6.93 0l3.786 10.223h2.636v-8.23h3.89v8.23h2.636V0zm-1.568 2.397l-2.712 7.826h5.416zM29.779 0v10.223L33.569 0zm6.93 0l3.786 10.223h2.65l.643-1.862h4.122l.65 1.862h2.65L47.424 0zm-1.576 2.397L33.148 8.23h3.998zm10.716 0l1.404 4.067h-2.8z" style="line-height:1.25;-inkscape-font-specification:'DejaVu Sans Bold'"/></g></svg>