<?xml version="1.0" encoding="UTF-8" standalone="no"?>
<svg
   xmlns:dc="http://purl.org/dc/elements/1.1/"
   xmlns:cc="http://creativecommons.org/ns#"
   xmlns:rdf="http://www.w3.org/1999/02/22-rdf-syntax-ns#"
   xmlns:svg="http://www.w3.org/2000/svg"
   xmlns="http://www.w3.org/2000/svg"
   xmlns:xlink="http://www.w3.org/1999/xlink"
   xmlns:sodipodi="http://sodipodi.sourceforge.net/DTD/sodipodi-0.dtd"
   xmlns:inkscape="http://www.inkscape.org/namespaces/inkscape"
   inkscape:version="1.0 (1.0+r73+1)"
   sodipodi:docname="Elpida.svg"
   id="svg375"
   version="1.1"
   width="621.975"
   height="1070.239">
  <metadata
     id="metadata379">
    <rdf:RDF>
      <cc:Work
         rdf:about="">
        <dc:format>image/svg+xml</dc:format>
        <dc:type
           rdf:resource="http://purl.org/dc/dcmitype/StillImage" />
      </cc:Work>
    </rdf:RDF>
  </metadata>
  <sodipodi:namedview
     inkscape:current-layer="svg375"
     inkscape:window-maximized="1"
     inkscape:window-y="0"
     inkscape:window-x="3840"
     inkscape:cy="233.45007"
     inkscape:cx="313.83216"
     inkscape:zoom="38.481124"
     showgrid="false"
     id="namedview377"
     inkscape:window-height="2043"
     inkscape:window-width="3840"
     inkscape:pageshadow="2"
     inkscape:pageopacity="0"
     guidetolerance="10"
     gridtolerance="10"
     objecttolerance="10"
     borderopacity="1"
     bordercolor="#666666"
     pagecolor="#ffffff" />
  <defs
     id="defs9">
    <linearGradient
       gradientTransform="matrix(1.23653 -.16546 .18131 1.35495 -234.787 464.753)"
       xlink:href="#a"
       id="b"
       x1="500.065"
       y1="-97.003"
       x2="499.827"
       y2="-90.061"
       gradientUnits="userSpaceOnUse" />
    <linearGradient
       id="a">
      <stop
         id="stop3"
         stop-color="#363765"
         offset="0" />
      <stop
         id="stop5"
         stop-color="#9a9eef"
         offset="1" />
    </linearGradient>
    <linearGradient
       gradientTransform="matrix(1.29394 -.17315 .18118 1.35395 -261.173 467.904)"
       xlink:href="#a"
       id="c"
       x1="444.865"
       y1="-97.139"
       x2="444.924"
       y2="-90.907"
       gradientUnits="userSpaceOnUse" />
  </defs>
  <path
     id="path11"
     fill="#5ca385"
     d="M487.295 19.023l-302.693 29.17 122.57 281.834 302.694-29.17z" />
  <path
     id="path13"
     stroke-linejoin="round"
     stroke-linecap="round"
     stroke-width=".973"
     stroke="#5b5b4a"
     fill="none"
     d="M184.602 48.193l122.57 281.834 302.694-29.17" />
  <path
     id="path15"
     fill="#6e685a"
     d="M440.676 119.426l-161.19 50.44 4.696 35.277-6.328 8.437 2.045 11.104 7.69 14.714 2.02 15.561 1.124 9.957 1.685 17.416 1.668 21.563 1.172 19.433 1.031 22.348.637 18.408.488 18.814.352 18.551.238 17.934.162 18.031.098 16.52.065 16.64.04 14.428.053 22.088.115 30.074 28.98 87.482 94.772 59.008c70.226-4.66 87.006-130.155 67.766-209.494-10.377-42.79-49.379-354.734-49.379-354.734z" />
  <path
     id="path17"
     stroke-linejoin="round"
     stroke-linecap="round"
     stroke="#3e3b37"
     fill="none"
     d="M440.676 119.426l-167.863 50.728c28.79 92.638 24.806 239.313 25.793 378.006.207 29.125 38.47 133.88 123.683 135.494z" />
  <path
     id="path19"
     fill="#6e685a"
     d="M393.746 75.797c-4.993-.005-10.078.33-15.69.973-25.548 2.92-48.735 9.503-66.936 22.54-30.799 22.062-43.261 54.602-44.127 66.999l148.795 2.388 73.82 310.033 24.318 49.729s6.103-69.146-.65-99.453c-12.405-55.667 9.262-120.519 8.154-175.738-.534-26.625 2.277-53.825-2.94-78.311-1.09-5.118-3.995-22.84-15.33-41.857-9.234-15.495-17.221-24.405-32.718-34.364-12.313-7.912-31.638-15.972-50.465-19.918-9.837-2.061-17.907-3.013-26.23-3.021z" />
  <path
     id="path21"
     fill="#4d493f"
     d="M392.65 75.932l-7.68.187-7.179.68-7.002 1.027-7.224 1.574-7.842 2.13-7.773 2.525-6.846 2.713-6.584 2.968-6.572 3.307-5.254 2.887-5.416 3.199c33.242-2.344 100.339 35.343 101.422 69.226.458 14.35 11.484 60.81 11.484 60.81l7.992 33.562 11.545 48.484 11.11 60.293 7.511 55.613-9.254 135.938-36.799 120.6 10.98-1.52 7.753-2.211 8.082-3.64 10.402-5.83 9.434-6.977 8.125-7.586 7.242-8.328 5.723-7.946 5.091-8.43 3.948-7.724 4.082-9.537 3.537-10.162 2.38-8.405 2.64-11.904 1.453-8.736 1.22-10.051.791-10.19.453-11.005.643-16.844.836-20.238.697-15.942 1.033-21.877.518-13.775.807-15.059.943-19.715 1.078-22.593.97-20.733.94-20.87.817-19.33.955-25.642.285-16.347.617-26.752-.207-19.254-1.594-28.07-1.994-18.805-1.539-10.748-1.504-8.723-1.896-9.463-1.944-8.455-2.453-8.22-2.969-7.934-3.457-7.578-5.535-9.861-7.623-11.088-3.633-4.336-7.16-6.93-6.937-5.568-8.49-5.606-7.967-4.351-9.528-4.282-12.162-4.681-9.529-2.858-9.172-2.209-9.35-1.695-9.746-.947z" />
  <path
     id="path23"
     stroke-linejoin="round"
     stroke-linecap="round"
     stroke-width=".7"
     stroke="#423c38"
     fill="none"
     d="M393.746 75.797c-4.993-.005-10.078.33-15.69.973-25.548 2.92-46.972 9.605-65.628 21.984-30.977 20.555-43.936 53.63-45.666 67.75l149.025 2.193 70.323 307.574-63.82 207.383c34.933-2.405 89.693-37.178 93.142-134.808 3.771-106.768 12.377-239.404 11.27-294.623-.535-26.625-2.995-54.78-8.211-79.266-1.09-5.118-3.996-22.84-15.33-41.857-9.235-15.495-17.222-24.405-32.72-34.364-12.312-7.912-31.637-15.972-50.464-19.918-9.837-2.061-17.907-3.013-26.23-3.021z" />
  <path
     id="path25"
     fill="#4d493f"
     d="M384.748 307.518l-79.027 1.093 6.514 116.467 84.898-10.652z" />
  <path
     id="path27"
     fill="#c7cdf9"
     d="M343.862 1033.514c-38.237-.09-81.756 6.664-79.196 14.629 4.552 14.158 132.795 25.79 134.663.648.817-11-25.727-15.208-55.467-15.277z" />
  <path
     id="path29"
     fill="#a3aeeb"
     d="M396.78 1043.574l-1.145 1.787.635 4.092 1.531-.361 1.479-.05.18-1.82-.85-2.273z" />
  <path
     id="path31"
     stroke="#989cc1"
     fill="none"
     d="M343.862 1033.514c-38.237-.09-81.756 6.664-79.196 14.629 4.552 14.158 132.795 25.79 134.663.648.817-11-25.727-15.208-55.467-15.277z" />
  <path
     id="path33"
     stroke="#605baa"
     fill="#898ee2"
     d="M358.684 375.338c-6.84 1.551-8.152 2.355-21.768 14.324 15.151-6.264 2.797 87.163-3.347 100.672l-31.649-8.096 3.323 77.555 195.109 12.217 29.871-49.778-33.957-9.334c32.008-45.157 11.6-110.432 8.3-112.914-4.338-2.544-15.14-11.582-24.456-11.968 0 0 24.694 61.82-4.826 118.369-41.178-4.995-85.736-1.167-114.975-13.39 15.695-34.11 9.206-116.394-1.625-117.657z" />
  <path
     id="path35"
     stroke-linejoin="round"
     stroke-width=".7"
     stroke="#605baa"
     fill="#585f98"
     d="M422.903 964.613c-107.543.067-250.598 15.174-250.598 15.174l-5.623 2.328c13.745 15.533 27.538 56.19 131.496 26.725 40.339-11.434 14.55-54.294 87.834-17.236 82.536 41.736 146.17 3.204 150.992-10.383-11.18-12.552-57.77-16.643-114.101-16.608z" />
  <path
     id="path37"
     fill="#e9d8d0"
     d="M372.356 370.326s-8.62 6.402-32.108 20.783c-48.654 29.792-41.178 41.435-43.587 58.827-5.292 22.424-25.688 153.962-25.688 153.962-51.434-9.374-135.445 21.815-135.445 21.815-16.108-12.85-37.382-12.29-41.352-14.408-1.81-.967-10.29-3.04-18.08-4.569-9.672-1.898-29.116-4.228-30.062.725-2.15 11.256 16.342 11.522 31.859 13.46 6.506 1.712 9.133.61 12.678 2.831l-29.63 3.87c.074 6.542 4.402 10.717 9.487 13.845 2.087 7.748 5.048 8.354 9.602 8.392 2.867 3.384 4.588 5.834 12.615 7.746 2.294 3.218 10.839 3.782 13.303 3.315 7.802-1.48 11.564-2.678 13.072-3.102l30.77-4.697s107.635 9.225 147.656-.105l17.617-24.463 3.4-151.473z" />
  <path
     id="path39"
     fill="#e9d8d0"
     d="M61.381 621.809l-.49 6.326 25.584 18.273 33.346-1.433-6.037-15.72z" />
  <path
     id="path41"
     stroke-linejoin="round"
     stroke-linecap="square"
     stroke-width=".699"
     stroke="#967566"
     fill="none"
     d="M372.356 370.326s-8.62 6.402-32.108 20.783c-36.402 22.29-41.382 34.42-42.591 46.399zm-83.809 124.242c3.424-20.353 6.497-37.782 8.114-44.632.606-4.38.588-8.396.996-12.428M60.942 627.62c.073 6.543 4.4 10.718 9.486 13.846 2.087 7.748 5.048 8.354 9.602 8.392 2.867 3.384 4.588 5.834 12.615 7.746 2.294 3.218 10.839 3.782 13.303 3.315 7.802-1.48 11.564-2.678 13.072-3.102l30.77-4.697s107.635 9.225 147.656-.105l17.617-24.463 3.4-151.473-29.916 17.488c-7.783 46.277-17.574 109.33-17.574 109.33-51.434-9.374-135.445 21.815-135.445 21.815-11.04-8.806-24.384-11.288-33.043-12.676l30.818-27.717-42.48 24.834c-3.61-1.034-9.31-2.354-14.727-3.418-9.672-1.898-29.116-4.228-30.062.725-1.941 10.163 12.933 11.373 27.263 12.937" />
  <path
     id="path43"
     fill="#b89e93"
     d="M109.239 645.43l-6.09.261s2.815 8.528 9.877 13.73l9.678-2.165z" />
  <path
     id="path45"
     stroke-linejoin="round"
     stroke-linecap="round"
     stroke-width=".7"
     stroke="#3f3f3f"
     fill="#585858"
     d="M170.84 496.82L6.356 536.678l-1.006 5.408 201.898 202.371 160.1-45.941z" />
  <path
     id="path47"
     fill="#877c72"
     d="M171.57 491.486L6.357 536.678l202.277 202.748 159.824-45.863z" />
  <path
     id="path49"
     stroke-linejoin="round"
     stroke-linecap="round"
     stroke-width=".7"
     stroke="#3f3f3f"
     fill="#585858"
     d="M171.57 491.486L6.357 536.678l202.277 202.748 159.824-45.863z" />
  <path
     id="path51"
     fill="#454545"
     d="M270.961 697.678l-7.988 1.617-4.728 1.312c-10.994 11.818-14.497 23.434-16.997 29.46l-5.386 6.18 15.742-4.407 22.4-6.54zM110.043 621.006l-1.806.633-8.912 5.248.187 2.894 7.707 15.207 8.356 7.55-2.955-9.663-5.536-12.295 8.1-3.9z" />
  <path
     id="path53"
     stroke-linejoin="round"
     stroke-linecap="round"
     stroke-width=".7"
     stroke="#939393"
     fill="#f0f0f0"
     d="M172.788 503.492l-141.54 38.715L204.54 715.902l136.922-39.29z" />
  <path
     id="path55"
     stroke-width=".7"
     stroke="#787878"
     fill="#b6b6b6"
     d="M146.932 501.15L57.36 526.807l11.062 9.906 90.444-25.322z" />
  <path
     id="path57"
     stroke-linejoin="round"
     stroke-linecap="round"
     stroke-width=".7"
     stroke="#787878"
     fill="#b6b6b6"
     d="M140.788 506.33a2.4 1.423 0 00-2.366 1.424 2.4 1.423 0 002.4 1.422 2.4 1.423 0 002.4-1.422 2.4 1.423 0 00-2.4-1.424 2.4 1.423 0 00-.035 0z" />
  <path
     id="path59"
     stroke-linejoin="round"
     stroke-linecap="round"
     stroke-width=".7"
     stroke="#939393"
     fill="#f0f0f0"
     d="M173.739 502.248L32.198 540.965l173.29 173.695 136.923-39.293z" />
  <path
     id="path61"
     fill="#828282"
     d="M144.364 506.914c-.534.015-.91.058-1.04.107l-.058 1.079s2.818.188 4.984 1.205c2.422 1.136 4.03 3.309-.029 7.412-1.212 1.102-60.684 16.681-60.684 16.681 1.247-3.346.823-5.99-.98-7.552-2.147-1.862-6.25-2.191-11.816-.358l.185.575c3.126-.484 6.746-.517 9.092.46 2.56 1.067 3.602 3.338.826 7.547l-1.851.569s1.26 2.782 2.507 2.574c7.918-1.322 64.534-16.703 64.973-19.55 4.357-5.286 3.169-8.035.621-9.425-2.102-1.147-5.13-1.368-6.73-1.324z" />
  <path
     id="path63"
     stroke-linejoin="round"
     stroke-linecap="round"
     stroke-width=".7"
     stroke="#939393"
     fill="#f8f8f8"
     d="M174.713 503.281L33.356 540.152l171.22 173.477 141.36-36.87z" />
  <path
     id="path65"
     fill-opacity=".643"
     fill="#8a8a8a"
     d="M128.24 606.225l-19.529 13.627 6.635 6.921.074-3.187 17.735-2.988c.59-4.297-6.409-4.577-6.409-4.577s-.754-6.525 1.495-9.796z" />
  <g
     id="g69"
     word-spacing="0"
     letter-spacing="0"
     font-family="DejaVu Sans"
     font-size="4.233"
     font-weight="700"
     stroke-width=".628"
     stroke="#d2d1f1"
     fill="#898ee2">
    <path
       id="path67"
       style="line-height:1.25;-inkscape-font-specification:'DejaVu Sans Bold'"
       d="M149.299 516.328l-13.067 3.414 1.635 3.317 8.328-2.172 1.565 3.174-6.092 1.59 1.639 3.322 6.093-1.59 1.926 3.906-8.328 2.172 1.64 3.322 13.069-3.408zM155.84 519.13l6.683 12.99 9.743-2.544zM174.473 509.76l-4.766 1.244 1.58 3.094-7.414 1.933-3.91-2.486-4.768 1.244 21.858 13.54 5.71-1.491zm-1.567 7.484l3.485 6.746-8.522-5.431z" />
  </g>
  <path
     id="path71"
     stroke-linejoin="round"
     stroke-linecap="round"
     stroke-width=".7"
     stroke="#5c5bb7"
     fill="#e1e9f8"
     opacity=".998"
     d="M124.455 523.64l-77.23 20.145 63.188 64.02 77.228-20.145z" />
  <path
     id="path73"
     stroke-width=".7"
     stroke="#5c5bb7"
     fill="none"
     d="M113.846 594.094c19.34-8.21 27.15-13.306 27.934-25.557.34-5.31-10.242-29.315-15.746-35.15" />
  <path
     id="path75"
     stroke-dasharray="1.4,1.4"
     stroke-width=".7"
     stroke="#000"
     fill="none"
     d="M65.422 544.27l56.315 57.054zM171.477 579.152l-66.176 17.262z" />
  <g
     id="g79"
     stroke-width=".989"
     word-spacing="0"
     letter-spacing="0"
     font-family="DejaVu Sans"
     font-size="7.915"
     font-weight="400"
     aria-label="Αναφορά"
     style="line-height:1.25;-inkscape-font-specification:'SF Mono'">
    <path
       id="path77"
       style="-inkscape-font-specification:'DejaVu Sans'"
       d="M156.92 538.658l-.865.225 2.479 5.256.804-.211-.674-1.338 2.543-.662 1.702 1.07.795-.207zm.184.738l3.344 2.065-2.075.541zM163.659 538.375l-.704.184c.538.205.967.42 1.284.652.267.194.452.346.556.459.222.237.37.518.446.838.104.426.133.808.088 1.146l-4.01-2.67-.748.196 4.767 3.183.742-.193c.07-.324.09-.783.065-1.377-.02-.456-.231-.89-.637-1.3-.161-.164-.412-.352-.754-.563a6.95 6.95 0 00-1.095-.555zM169.194 536.93l-.62.162.536 1.02c-.807-.628-1.602-.84-2.385-.635-.499.13-.766.403-.803.818-.034.373.251.866.86 1.482.569.577 1.163.99 1.783 1.243.601.243 1.199.289 1.79.134.361-.094.553-.2.579-.314.057-.244.03-.497-.084-.76.225.173.43.29.621.352.385.12.697.151.934.09l.416-.11-.485-.49-.332.086c-.08.02-.223-.004-.426-.078a1.616 1.616 0 01-.445-.24l-.83-.649zm-1.635 1.004c.365.021.776.208 1.229.558l.882.682.33.629c.26.493.22.785-.117.873-.305.08-.663.031-1.076-.143-.406-.17-.836-.486-1.291-.947-.376-.382-.612-.742-.703-1.082-.074-.27.059-.45.396-.537.112-.03.228-.04.35-.033zM173.11 535.91c-.103.005-.2.02-.287.043-.625.163-.625.56 0 1.194l2.132 2.16c-.282.073-.628.026-1.035-.139-.454-.185-.89-.489-1.308-.912-.393-.398-.6-.746-.621-1.043-.016-.202.037-.348.156-.44l-.506-.511c-.36.168-.556.398-.588.693-.04.395.235.893.826 1.492.57.577 1.187.983 1.852 1.221.654.233 1.231.285 1.732.154l1.244 1.26.692-.18-1.246-1.263c.511-.134.77-.404.781-.807.012-.427-.262-.924-.822-1.492-.61-.618-1.235-1.03-1.871-1.236-.445-.145-.822-.21-1.131-.194zm.2.535c.137-.035.386.02.75.164.45.179.889.486 1.32.922.46.468.68.826.658 1.076-.025.28-.156.454-.395.516l-2.129-2.158c-.3-.304-.367-.477-.203-.52zM178.036 534.672a2.933 2.933 0 00-.93.088c-.607.158-.923.446-.945.863-.02.416.257.914.828 1.492.569.577 1.186.985 1.853 1.225.668.237 1.305.275 1.912.117.605-.158.92-.444.942-.861.02-.42-.256-.918-.825-1.494-.57-.579-1.19-.986-1.857-1.223a3.59 3.59 0 00-.978-.207zm-.16.533c.294-.019.612.042.956.184.457.186.892.489 1.303.906.414.42.633.778.656 1.078.024.3-.15.497-.521.594-.375.098-.79.054-1.244-.131-.454-.187-.89-.49-1.305-.912-.416-.421-.635-.78-.656-1.078-.023-.3.152-.499.525-.596a1.51 1.51 0 01.285-.045zM182.623 533.361c-.137.01-.27.03-.398.063-.458.12-.725.235-.8.347-.195.288-.263.56-.206.813.063.353.333.772.81 1.256l3.026 3.064.7-.181-1.844-1.868a3.4 3.4 0 001.013.325c.324.042.642.022.951-.059.514-.134.764-.41.748-.834-.012-.424-.293-.913-.84-1.467a5.149 5.149 0 00-1.804-1.213c-.491-.192-.944-.273-1.356-.246zm.194.547c.29-.018.604.042.941.184.45.186.885.492 1.305.918.42.425.643.787.672 1.086.029.295-.14.49-.508.586-.368.096-.777.05-1.227-.135-.449-.189-.882-.495-1.302-.92-.42-.426-.645-.787-.674-1.082-.029-.298.142-.496.51-.592.091-.024.186-.039.283-.045zM186.487 530.373l-.752.195.11 1.46.577-.153zm2.56 1.379l-.62.162.534 1.02c-.806-.628-1.601-.841-2.384-.637-.5.13-.767.403-.803.818-.035.373.253.868.861 1.485.569.576 1.162.99 1.781 1.242.602.243 1.2.289 1.791.135.36-.094.554-.2.58-.315a1.195 1.195 0 00-.085-.76c.224.174.432.29.623.352.385.12.695.15.931.088l.416-.108-.484-.49-.332.086c-.08.021-.221-.004-.424-.078a1.616 1.616 0 01-.445-.24l-.832-.649zm-1.634 1.004c.365.022.773.206 1.226.557l.883.683.332.629c.26.494.218.785-.12.873-.304.08-.663.032-1.075-.143-.407-.17-.836-.486-1.291-.947-.377-.381-.61-.742-.702-1.082-.073-.27.057-.45.395-.539.112-.03.23-.038.352-.031z" />
  </g>
  <path
     id="path81"
     fill-opacity=".643"
     fill="#8a8a8a"
     d="M287.975 620.021c-3.15 13.26-11.338 29.533-18.03 46.768-3.755 9.673-11.816 32.63-11.816 32.63l-.058 1.142 20.726-6.165 18.903-73.458z" />
  <path
     id="path83"
     stroke-width=".7"
     stroke="#967566"
     fill="#e9d8d0"
     d="M71.092 624.67c-.17-2.961 4.914-13.893 2.156-15.451 3.24-1.79 13.764-6.854 16.72-9.97 5.691-1.554 7.966-2.038 16.788-3.06 2.42-.28 5.011-3.93 5.285-8.242-3.015.419-10.927-.091-17.648-.15-4.033-.036-7.637.09-9.498.678-4.153 1.309-21.356 9.694-22.082 15.58-.65 5.27-2.004 11.642-1.871 23.566" />
  <path
     id="path85"
     stroke-linecap="round"
     stroke-width=".7"
     stroke="#967566"
     fill="#e9d8d0"
     d="M82.993 631.27c-.17-2.961 3.4-17.516 3.005-20.836 3.24-1.79 9.226-3.594 14.51-6.526 3.579-.112 5.25.645 17.332-1.158 1.725-.257 4.971-2.457 4.969-7.145-4.192.468-15.507-2.051-22.266-2.173-1.56-.029-2.877.07-3.808.363-4.153 1.31-22.558 5.583-24.448 12.55-1.838 6.782-2.563 11.768-1.68 19.884" />
  <path
     id="path87"
     fill="#e9d8d0"
     d="M108.973 599.887c-1.515-.045-2.807.046-3.738.34-4.153 1.309-22.395 5.032-23.95 12.177-1.493 6.865-1.926 11.639-.86 22.94l11.624 6.203c-.17-2.961 2.847-21.467 1.819-25.387 3.24-1.79 10.75-2.754 13.705-5.87 5.178-.54 7.29-.445 14.607-.858 1.826-.104 6.242-1.639 7.434-6.786-3.356.18-14.076-2.563-20.64-2.76z" />
  <path
     id="path89"
     fill="#b89e93"
     d="M127.557 606.752c-1.375.418-13.258 1.254-17.744.762 0 0-11.963 4.509-14.64 7.29l7.052-1.378 11.643-2.908 8.298-.877 3.334-1.17z" />
  <path
     id="path91"
     stroke-linecap="round"
     stroke-width=".7"
     stroke="#967566"
     fill="none"
     d="M92.05 641.547c-.17-2.961 2.846-21.467 1.818-25.387 3.24-1.79 10.75-2.754 13.705-5.87 5.178-.54 7.29-.445 14.607-.858 1.826-.104 6.242-1.639 7.434-6.786-3.356.18-14.076-2.563-20.64-2.76-1.516-.044-2.808.047-3.74.34-4.152 1.31-22.394 5.033-23.948 12.178-1.494 6.865-1.927 11.639-.862 22.94" />
  <path
     id="path93"
     fill="#e9d8d0"
     d="M111.11 609.508c-1.56.021-2.96.175-4.172.555-4.155 1.3-16.439 5.48-16.92 9.695-.308 2.7.274 15.741 1.092 25.625l16.824.623c-.17-2.961-6.765-14.592-8.504-18.045 3.24-1.79 8.976-5.007 11.932-8.123 4.683-.153 6.512-.007 13.424-2.227 2.386-1.983 3.79-2.332 3.998-7.402-6.861.343-12.993-.766-17.674-.701z" />
  <path
     id="path95"
     fill="#b89e93"
     d="M127.604 614.959c-2.91.549-9.148 2.637-16.914 2.887 0 0-6.336 6.194-13.645 9.076 0 0 4.168 10.406 6.438 19.662l4.451-.578-2.084-5.633-2.434-4.865-3.986-7.547 7.473-4.49 4.459-3.633 4.05-.154 7.42-1.467 2.02-.694 1.894-1.502z" />
  <path
     id="path97"
     stroke-linecap="round"
     stroke-width=".7"
     stroke="#967566"
     fill="none"
     d="M107.934 646.006c-.17-2.961-6.765-14.592-8.504-18.045 3.24-1.79 8.976-5.007 11.932-8.123 4.683-.153 6.512-.007 13.424-2.227 2.386-1.983 3.79-2.332 3.998-7.402-6.861.343-12.993-.766-17.674-.701-1.56.021-2.96.175-4.172.555-4.155 1.3-16.439 5.48-16.92 9.695-.308 2.7.274 15.741 1.092 25.625" />
  <path
     id="path99"
     stroke-width=".7"
     stroke="#3f3f3f"
     fill="none"
     d="M208.4 739.193l-1.005 5.41z" />
  <path
     id="path101"
     fill-opacity=".643"
     fill="#8a8a8a"
     d="M151.094 508.238l-2.844 1.067c2.422 1.136 4.03 3.309-.029 7.412-1.212 1.102-60.684 16.681-60.684 16.681 1.247-3.346.823-5.99-.98-7.552l-2.539.677c2.56 1.067 3.602 3.338.826 7.547l-1.851.569s1.26 2.782 2.507 2.574c7.918-1.322 64.534-16.703 64.973-19.55 4.357-5.286 3.169-8.035.621-9.425z" />
  <path
     id="path103"
     stroke-linejoin="round"
     stroke-linecap="round"
     stroke-width=".7"
     stroke="#787878"
     fill="#b6b6b6"
     d="M72.182 525.2a2.4 1.423 0 00-2.365 1.421 2.4 1.423 0 002.398 1.424 2.4 1.423 0 002.4-1.424 2.4 1.423 0 00-2.4-1.422 2.4 1.423 0 00-.033 0z" />
  <path
     id="path105"
     stroke-width=".7"
     stroke="#787878"
     fill="#b6b6b6"
     d="M141.198 507.436c-.66.022-1.36.141-2.096.369l.637.78c4.046-1.3 7.35 1.928 7.006 8.147-3.193 1.604-58.96 17.037-63.735 17.86-.254-10.224-9.565-9.529-12.13-7.412l1.013.256c5.927-1.676 9.159 1.806 9.715 8.566.138 1.682 67.356-16.869 67.36-18.857-.42-5.28-3.148-9.865-7.77-9.71z" />
  <path
     id="path107"
     fill="#e9d8d0"
     d="M311.805 429.143s-28.919 72.983-33.738 99.836c-4.82 26.852 20.656 50.95 20.656 50.95S278.37 681.39 272.446 693.032c-63.302 124.395-38.595 255.233 1.355 377.858h122.06c8.854-104.823-6.42-186.585-27.448-251.317z" />
  <path
     id="path109"
     fill="#b29389"
     d="M343.288 960.898l-67.573 9.957-23.314 26.272 4.892 18.834c9.443 8.032 35.158 12.819 61.725 12.893 34.482.096 79.365-9.424 79.365-9.424l.03-13.444z" />
  <path
     id="path111"
     stroke-linejoin="round"
     stroke-width=".7"
     stroke="#967566"
     fill="none"
     d="M311.805 429.143s-28.919 72.983-33.738 99.836c-4.82 26.852 20.656 50.95 20.656 50.95S278.37 681.39 272.446 693.032c-63.302 124.395-38.595 255.233 1.355 377.858h122.06c8.854-104.823-6.42-186.585-27.448-251.317z" />
  <path
     id="path113"
     fill="#c7cdf9"
     d="M266.315 1047.604l-1.918.484a984.348 984.348 0 007.584 22.8h125.447c.625-7.37 1.16-14.76 1.613-22.097l-1.328.133c-2.065 23.368-125.61 15.662-131.398-1.32z" />
  <path
     id="path115"
     fill="#8a99e5"
     d="M399.393 1048.436l-1.68.488-1.09 3.119-2.24 2.447-3.836 2.389-2.87 1.39-5.557 1.731-6.756 1.285-8.729 1.2-7.728.726-10.686.373-24.642-.695c.788 2.326 1.557 5.02 2.273 8h71.768l.369-3.828.996-12.985z" />
  <path
     id="path117"
     stroke-linejoin="round"
     stroke-linecap="round"
     stroke-width=".7"
     stroke="#6a7098"
     fill="none"
     d="M264.627 1048.07c2.798 8.764 5.05 15.681 7.446 22.819h125.57a781.503 781.503 0 001.686-22.098z" />
  <path
     id="path119"
     stroke-linecap="round"
     stroke="#989cc1"
     fill="none"
     d="M266.2 1047.586c5.646 16.489 129.699 25.179 131.513 1.338z" />
  <path
     id="path121"
     fill="#c7cdf9"
     d="M280.807 1037.303c-8.627-.024-14.432 1.154-15.553 3.904-3.398 8.338-1.143 19.66 5.37 29.682h129.689c-8.035-14.81-85.583-33.493-119.506-33.586z" />
  <path
     id="path123"
     stroke-width=".7"
     stroke="#6a7098"
     fill="none"
     d="M280.807 1037.303c-8.627-.024-14.432 1.154-15.553 3.904-3.398 8.338-1.143 19.66 5.37 29.682h129.689c-8.035-14.81-85.583-33.493-119.506-33.586z" />
  <path
     id="path125"
     fill="#e9d8d0"
     d="M440.55 371.113l-74.036 480.03c-17.19 21.75-89.383 142.832-108.611 219.746h143.22c27.399-46.782 66.862-109.798 87.254-174.1 31.23-60.68 10.029-140.894-34.365-186.685-41.958-43.28 55.064-122.138 90.36-230.465 14.518-44.56-10.86-55.657-23.065-66.118-11.144-9.551-62.167-36.28-80.758-42.408z" />
  <path
     id="path127"
     fill="#b29389"
     d="M300.39 964.766l-12.612 26.257-2.334 5.4c17.911-18.473 75.694 18.706 72.81 30.03-4.913 19.297-9.863 33.643-14.056 44.436h56.974l11.385-19.407 18.402-31.503 5.506-9.704-92.873-43.517z" />
  <path
     id="path129"
     stroke-width=".7"
     stroke="#000"
     fill="none"
     d="M185.084 680.256c-1.608-4.45-3.877-5.524 3.285-3.273 7.162 2.25 5.862 3.067 8.606-.893 2.743-3.96-1.63-5.357 6.283-3.386s3.828 2.953 10.067-.719c6.239-3.671 13.675-9.07 17.619-7.227 3.944 1.842.638 8.681 6.16.783 5.522-7.9 10.669-6.524 12.722-6.08 2.054.444 6.956 1.168 8.136-1.039 1.179-2.207 7.163-5.219 10.875-4.193 3.712 1.026 8.48-.917 10.638-4.701 1.59-2.79 10.814-4.578 15.211-1.549" />
  <path
     id="path131"
     stroke-linejoin="round"
     stroke-linecap="round"
     stroke-width=".7"
     stroke="#967566"
     fill="none"
     d="M440.55 371.113l-74.036 480.03c-17.19 21.75-89.383 142.832-108.611 219.746h143.22c27.399-46.782 66.862-109.798 87.254-174.1 31.23-60.68 10.029-140.894-34.365-186.685-41.958-43.28 55.064-122.138 90.36-230.465 14.518-44.56-10.86-55.657-23.065-66.118-11.144-9.551-62.167-36.28-80.758-42.408z" />
  <path
     id="path133"
     fill="#e9d8d0"
     d="M459.973 288.244l-16.21 6.371-4.53 6.656-8.54 9.192-6.466 3.287-16.482 8.531-11.229 3.717-15.34 4.572-12.974 6.912 1.37 17.698-.31 12.642-1.486 13.567 30.705-.416 50.94.441-2.005-11.947-1.109-9.02-.697-12.592.47-7.738.801-5.29.846-5.938.969-5.164 2.64-11.114 2.147-7.277 1.808-5.11z" />
  <path
     id="path135"
     stroke-linejoin="round"
     stroke-width="1.03"
     stroke="#927163"
     fill="none"
     d="M459.477 289.18c-5.74 10.903-13.45 36.192-14.041 57.463-.4 14.374 5.715 42.949 5.715 42.949z" />
  <path
     id="path137"
     fill="#e9d8d0"
     d="M451.473 378.662l-84.416.867-54.832 69.059 28.89 378.578 57.997 8.23L468.373 396.3z" />
  <path
     id="path139"
     fill="#b89e93"
     d="M369.114 348.266l.166 3.959.004 10.35-1.551 15.349-2.254 23.605.258 36.229 22.123-22.168c-13.988-16.694-18.746-67.324-18.746-67.324z" />
  <path
     id="path141"
     stroke-linejoin="round"
     stroke-linecap="round"
     stroke-width=".7"
     stroke="#927163"
     fill="none"
     d="M366.7 382.572c5.265-20.021 1.107-48.67 1.107-48.67" />
  <path
     id="path143"
     fill="#a18981"
     d="M454.803 291.402l-10.29 3.256-3.589 2.856-4.486 5.11-6.131-.327.041 5.307-4.166 4.617-6.646 2.562-8.184 6.25-9.908 3.334-19.875 6.096-4.94 1.178-9.625 2.261c45.356-1.173 55.752 8.91 53.155 39.065 8.803.7 30.464 16.488 30.464 16.488l-5.328-38.443 1.157-16.256 1.2-7.854 5.22-20.263 5.03-14.399z" />
  <path
     id="path145"
     fill="#c7cdf9"
     d="M265.127 1041.197c-2.726 7.642-5.774 17.952-8.459 29.692h20.653c-2.982-2.386-5.52-4.947-7.403-7.717-4.562-6.716-5.568-14.487-3.53-21.623z" />
  <path
     id="path147"
     stroke-linejoin="round"
     stroke-linecap="round"
     stroke-width=".7"
     stroke="#6a7098"
     fill="none"
     d="M265.254 1041.207c-2.726 7.641-5.814 17.946-8.533 29.682" />
  <path
     id="path149"
     stroke-linecap="round"
     stroke-width=".7"
     stroke="#6a7098"
     fill="none"
     d="M266.588 1041.475c-3.464 12.311 1.398 21.95 10.43 29.414" />
  <path
     id="path151"
     stroke-linejoin="round"
     stroke-width=".7"
     stroke="#6a7098"
     fill="#c7cdf9"
     d="M345.133 386.916s-39.202 22.125-45.451 34.965c-3.532 7.257-28.08 92.4-37.674 97.965 19.223 17.688 79.424 14.347 79.424 14.347z" />
  <path
     id="path153"
     fill="#c7cdf9"
     d="M421.53 369.438l-2.696 2.306-4.545 3.797-3.86 3.117-3.638 2.787-3.496 2.192-6.011 6.603-8.44 9.944-5.824 7.683-9.639 14.81-6.885 12.893 1.776-63.8c-17.438 11.045-36.401 22.917-47.807 30.746-15.878 43.257-41.121 96.87-44.205 134.345-1.087 13.218 14.057 36.371 21.424 43.37l-24.06 108.914c43.694 19.356 126.64 7.965 171.472-.397-1.224-22.101 29.745-77.495 66.8-137.447C534.3 515.057 570.9 448.49 526.78 416.8c-17.457-12.54-45.118-28.187-73.889-42.62z" />
  <path
     id="path155"
     fill="#8a99e5"
     d="M362.563 375.383l-3.652 2.164-9.711 1.832-13.145 17.709-25.334 69.86 43.883 20.741c-11.335-19.496-20.211-50.817-16.918-67.918 10.363-24.098 17.363-36.244 24.877-44.388z" />
  <path
     id="path157"
     stroke-width=".7"
     stroke="#000"
     fill="none"
     d="M199.903 694.292s-2.64-4.366 3.838-3.71c6.478.655 9.021 2.936 9.75 2.298.73-.638-5.774-6.863 1.068-4.814 6.841 2.049 7.063 4.244 9.626 1.342 2.562-2.903-.721-9.071 5.367-5.65 6.088 3.422.969.642 9.945-1.505s8.258-4.331 11.977-1.93c3.72 2.4 2.81-5.46 8.286-3.392 5.477 2.069 9.18 3.305 8.99.28-.191-3.024-3.193-3.62 1.707-2.908 4.9.712 1.159-5.3 6.077-2.243 4.918 3.058 9.767 2.639 11.062.829 1.295-1.81-4.655-6.905 2.368-4.294 7.024 2.61 6.381-2.672 7.57-4.355 1.19-1.683 13.828.515 13.828.515" />
  <path
     id="path159"
     stroke-linejoin="round"
     stroke-linecap="round"
     stroke-width="1.03"
     stroke="#6a7098"
     fill="none"
     d="M367.618 372.184c-17.257 10.927-35.89 22.601-47.153 30.332-15.878 43.257-41.121 96.87-44.205 134.345-1.087 13.218 14.057 36.371 21.424 43.37l-24.06 108.914c20.186 7.505 82.624 19.853 171.472-.397-1.224-22.101 29.745-77.495 66.8-137.447C534.3 515.057 570.9 448.49 526.78 416.8c-18.84-13.532-49.563-30.686-80.74-46.024" />
  <path
     id="path161"
     fill="#8a99e5"
     d="M403.7 385.941l-6.418 7.442-13.02 14.81-9.9 13.323-6.469 11.629-4.395 9.994c8.616-19.309 41.005-62.114 50.227-29.24l-1.275-7.11-1.606-7.05-3.074-7.856zM446.08 340.117l.137 1.07 1.19 1.176-.022 1.375-5.805 7.06-11.12 10.722-9.678 8.56c7.625 2.73 10.113 29.808 5.384 39.115l9.266-9.455 6.58-7.804 6.053-8.39 4.535-8.59.75-3.616.135-4.967-.48-10.326-1.288-7.553-2.474-5.9z" />
  <path
     id="path163"
     fill="#8a99e5"
     d="M452.891 374.182l-23.389 31.806-3.338 3.207-6.189 5.278-5.51 3.619-2.926 31.748c-1.3 6.936-18.44 33.775-18.44 33.775-12.443.105-30.971-3.502-41.132-5.646l-.746.537c-1.544-.348-5.096-2.196-5.685-2.354 0 0 1.396 5.613 10.345 7.746 11.855 2.827 34.017 2.867 33.453 3.647l10.846-1.035 18.445 1.148 1.02-1.898 31.389-.045 6.449 7.787 5.137 5.687 6.144-5.269 13.889-11.627 15.84-13.336-10.073-4.4c1.97-19.17 9.267-23.11 15.354-43.563 2.43.342 1.328.032.191-.203l11.506-12.107-10.398-6.016-29.909-16.941zm-34.4 85.92l.129 24.117c-6.42.657-16.643.316-16.643.316 4.169-4.635 12.745-14.866 16.514-24.433z" />
  <path
     id="path165"
     stroke-linejoin="round"
     stroke-width=".7"
     stroke="#6a7098"
     fill="none"
     d="M445.514 340.102l.174.921s2.015.575 1.9 2.303c-3.407 7.617-41.221 39.764-44.293 40.31-31.903 34.32-43.574 56.66-62.203 134.3-7.617 31.748-8.79 43.728-6.955 48.638.498-8.32 2.959-22.964 8.535-48.404 21.438-97.802 32.2-97.973 61.028-132.229 7.33 8.636 8.056 17.168 10.767 32.15 12.822-6.613 38.99-36.913 38.883-46.751.45-8.076.228-30.317-7.836-31.238zM334.137 566.574c-1.081 18.053 7.141 6.104 13.277 8.453-4.903-6.588-11.136-2.727-13.277-8.453zm13.277 8.453c1.174 1.578 2.275 3.726 3.221 6.782-2.78 52.196-17.378 107.7-19.474 117.363 2.152-9.492 17.77-63.988 21.023-116.46-1.157-4.84-2.862-6.954-4.77-7.685z" />
  <path
     id="path167"
     fill="#898ee2"
     d="M499.495 398.563c-16.847 8.91-50.391 76.978-50.391 76.978l3.86 20.346 4.45-2.174 1.13-9.59 2.197-8.58 4.088-12.318 6.203-15.938 8.433-16.924 7.274-12.709 5.623-7.263 2.826-3.944 1.75-1.722 3.057-2.262 2.26-.93 1.267-.105 1.1-.205zM355.053 375.467l-13.728 7.088-30.604 84.392 4.78 1.631 4.83-15.65 6.294-15.76 6.26-15.316 6.832-14.327 8.149-15.392 4.29-6.795 3.124-3.906 3.521-4.77z" />
  <path
     id="path169"
     fill="#898ee2"
     d="M357.346 375.129c-6.999.267-27.752 15.58-30.797 19.463-7.838 9.993-43.009 90.34-50.947 127.387-1.781 8.313-3.532 24.139 4.586 37.992 4.375 7.465 13.762 21.012 14.187 24.914.697 6.388-9.438 47.104-21.873 104.697-58.042 95.057-40.449 209.391-105.82 292.533 32.187-13.188 100.964 43.974 123.346 7.9 26.06-42.002 102.396 43.978 163.96 20.008 49.867-19.414 41.277-31.34 83.016-28.802-6.964-41.143-2.886-196.212-85.144-278.471-8.704-8.704-.942-35.045 3.963-45.87 12.159-26.835 75.103-134.429 75.103-134.429-24.582 1.851-63.145-11.102-74.31-30.59-4.714-9.299 26.714-88.958 46.818-92.263 0 0-.376-.251.99.28-5.656-5.196-21.957-15.145-27.963-11.653-17.148 9.97-41.102 61.025-52.816 95.48-2.947 8.668-112.59-6.517-109.469-18.146 6.934-25.84 36.16-89.11 44.865-90-.394-.324-.97-.458-1.695-.43z" />
  <path
     id="path171"
     fill="#6269bb"
     d="M480.62 387.541l-2.932.186-2.963 1.627-3.729 3.166-7.046 8.175-4.92 7.065-7.242 12.05-4.903 9.149L440.041 443l-8.54 19.707-6.604 17.385-1.502 4.047c-11.853 14.024-20.116 56.68-22.629 67.683-2.946 13.114 8.523 32.306 17.5 47.658l-10.732 104.827c28.123 161.028-36.96 294.148-36.96 294.148l15.417 6.264 6.916 2.48 9.004 2.805 7.343 1.852 6.55 1.26 7.028.882 7.747.324 6.99-.377 4.37-.597 3.265-.645 5.99-1.67 5.177-1.949 6.09-2.518 7.998-3.6 6.891-3.421 5.693-3.08c12.958-92.319 2.609-176.783-19.824-247.344 39.505 69.823 50.225 200.798 45.715 233.85l5.654-1.246 5.797-.64 4.31-.18 5.928.029 6.381.287-.763-5.268-.82-7.455-.706-7.732-1.23-15.01-1.156-13.852-1.59-16.935-1.93-17.295-1.656-12.668-1.89-12.623-1.593-9.461-2.008-10.75-2.017-9.736-2.766-11.963-3.222-12.368-4.051-13.681-3.201-9.647-4.514-12.218-6.25-14.784-4.64-9.693-7.528-13.87-5.676-9.202-5.015-7.385-6.83-9.078-8.946-10.438-5.92-6.234-1.783-3.22-.793-2.731-.476-3.408-.08-4.25.498-5.721 1.529-8.336 3.45-11.361 3.513-8.368 4.726-9.41 6.969-13.093 8.143-14.84 13.332-23.77 14.564-25.554 11.67-20.266 14.578-25.096-3.168.156-8.803-.302-7.58-.965-10.054-2.143-7.987-2.379-10.015-3.922-9.971-5.234-5.518-3.742-6.238-5.5-4.178-4.707.41-3.486 1.198-7.967 1.719-6.717 2.045-6.158 2.828-8.174 3.267-8.709 4.084-9.307 3.686-7.65 5.49-10.28 5.45-8.915 4.013-5.657 3.584-4.246 1.75-1.722 2.17-1.721 2.017-1.006 1.762-.518 1.012.358 1.176.83.96-.057-1.61-2.732-3.876-3.098-5.701-3.695-6.734-3.418-4.534-1.586z" />
  <path
     id="path173"
     stroke-linejoin="round"
     stroke-width=".7"
     stroke="#605baa"
     fill="none"
     d="M357.346 375.129c-6.999.267-27.752 15.58-30.797 19.463-7.838 9.993-43.009 90.34-50.947 127.387-1.781 8.313-3.532 24.139 4.586 37.992 4.375 7.465 13.762 21.012 14.187 24.914.697 6.388-9.438 47.104-21.873 104.697-58.042 95.057-40.449 209.391-105.82 292.533 32.187-13.188 100.964 43.974 123.346 7.9 26.06-42.002 102.396 43.978 163.96 20.008 49.867-19.414 41.277-31.34 83.016-28.802-6.964-41.143-2.886-196.212-85.144-278.471-8.704-8.704-.942-35.045 3.963-45.87 12.159-26.835 75.103-134.429 75.103-134.429-24.582 1.851-63.145-11.102-74.31-30.59-4.714-9.299 26.714-88.958 46.818-92.263 0 0 .527.044.99.28-5.656-5.196-21.957-15.145-27.963-11.653-17.148 9.97-41.102 61.025-52.816 95.48-2.947 8.668-112.59-6.517-109.469-18.146 6.934-25.84 36.16-89.11 44.865-90-.394-.324-.97-.458-1.695-.43z" />
  <path
     id="path175"
     stroke-linecap="round"
     stroke-width=".7"
     stroke="#605baa"
     fill="none"
     d="M505.264 402.807c-.789-.881-1.74-1.247-2.824-1.16-12.8 1.023-44.144 65.132-44.957 91.855M358.91 377.547c-16.812 14.932-41.61 81.023-43.412 90.35" />
  <path
     id="path177"
     fill="none"
     d="M357.346 375.129c-6.999.267-27.752 15.58-30.797 19.463-7.838 9.993-43.009 90.34-50.947 127.387-1.781 8.313-3.532 24.139 4.586 37.992 4.375 7.465 13.762 21.012 14.187 24.914.697 6.388-9.438 47.104-21.873 104.697-58.042 95.057-40.449 209.391-105.82 292.533 32.187-13.188 100.964 43.974 123.346 7.9 26.06-42.002 102.396 43.978 163.96 20.008 49.867-19.414 41.277-31.34 83.016-28.802-6.964-41.143-2.886-196.212-85.144-278.471-8.704-8.704-.942-35.045 3.963-45.87 12.159-26.835 75.103-134.429 75.103-134.429-24.582 1.851-63.145-11.102-74.31-30.59-4.714-9.299 26.714-88.958 46.818-92.263 0 0-.376-.251.99.28-5.656-5.196-21.957-15.145-27.963-11.653-17.148 9.97-41.102 61.025-52.816 95.48-2.947 8.668-112.59-6.517-109.469-18.146 6.934-25.84 36.16-89.11 44.865-90-.394-.324-.97-.458-1.695-.43z" />
  <path
     id="path179"
     fill="#e5e8fd"
     d="M314.688 465.846c-13.278 28.662-21.492 60.601-21.43 75.574.063 14.944 18.997 41.215 19.377 44.14.644 4.95-5.837 39.958-18.209 106.76-42.651 97.78-31.504 227.934-74.46 298.514 3.99 1.408 7.912 2.987 11.888 4.334 12.024 4.072 23.766 7.33 33.982 7.41 10.217.081 18.812-3.132 24.508-12.312 3.204-5.164 7.197-8.38 11.783-10.053 4.587-1.674 9.94-1.883 15.772-1.002 11.664 1.761 25.61 7.755 40.627 14.379 8.585 3.787 17.552 7.75 26.697 11.223 49.946-157.111 1.612-223.9 10.293-303.682 7.53-58.542 12.395-100.954 11.844-105.072-.557-4.16-12.45-35.92-11.815-47.186.443-7.853 12.491-36.095 26.643-64.545a4.96 4.96 0 01-.486.215c-.895.336-2.19.61-3.801.803-3.223.385-7.718.46-13.024.267-10.612-.385-24.482-1.833-38.16-3.914-13.677-2.08-27.169-4.797-37.013-7.709-4.923-1.455-8.937-2.963-11.575-4.437-1.319-.737-2.29-1.47-2.851-2.135-.511-.604-.669-1.094-.59-1.572z" />
  <path
     id="path181"
     fill="#c7cdf9"
     d="M278.916 656.08c-6.67-.807-12.585 30.15-6.658 32.711 33.678 14.555 96.775 24.3 177.66 11.566 9.793-1.541 5.445-35.767.846-35.072-84.359 12.756-136.954 5.873-171.2-9.027a2.318 2.318 0 00-.648-.178z" />
  <path
     id="path183"
     fill="#6d74c0"
     d="M408.301 705.207l-13.275.707-.334 4.988c8.843.61 14.984.467 14.984.467z" />
  <path
     id="path185"
     fill="#8a99e5"
     d="M450.85 665.277l-6.947 1.012-7.783 1.057-9.004 1.105-8.559.93-7.543.724c6.533 2.712 6.66 19.018 3.305 27.264-2.653 6.52-34 9.938-88.385 5.361l6.348.985 8.162.719 8.3.681 10.846.752 13.842.317 12.81-.088 12.178-.364 20.66-1.488 11.58-1.23 10.237-1.317 9.299-1.431 1.886-.938 1.782-2.478 1.197-3.69.713-6.078-.108-6.287-.515-4.783-.871-4.51-1.125-3.557-1.557-2.414z" />
  <path
     id="path187"
     fill="#bdc2f8"
     d="M321.983 702.072c10.252 4.825 46.104 8.355 72.709 8.852l.328-5.008-17.555.36-18.228-.417-10.614-.752-13.939-1.148z" />
  <path
     id="path189"
     stroke-linejoin="round"
     stroke-linecap="round"
     stroke-width=".7"
     stroke="#6a7098"
     fill="none"
     d="M278.916 656.08c-6.67-.807-12.585 30.15-6.658 32.711 33.678 14.555 96.775 24.3 177.66 11.566 9.793-1.541 5.445-35.767.846-35.072-84.359 12.756-136.954 5.873-171.2-9.027a2.318 2.318 0 00-.648-.178z" />
  <path
     id="path191"
     fill="#babff8"
     d="M408.163 866.664c-8.091 35.64-20.88 76.78-40.186 131.07 5.663 2.455 11.44 4.886 17.303 7.112 17.806-56.011 23.013-100.42 22.883-138.182zM356.278 780.225c-39.095 111.321-93.771 215.862-102.512 221.127 4.194.82 8.247 1.24 12.078 1.24 7.736 0 13.946-1.67 19.19-6.053l4.744-11.094s54.818-142.042 66.5-205.22zM422.188 484.328a4.96 4.96 0 01-.486.215c-.895.336-2.19.61-3.801.803-.76.09-1.604.162-2.5.218l-6.047 10.256s5.25-1.685 11.861-9.5c.33-.666.641-1.325.973-1.992zM388.948 484.484l-5.176 9.307-13.43 15.15c7.016-2.568 20.783-12.919 30.873-23.5a291.665 291.665 0 01-12.267-.957z" />
  <path
     id="path193"
     fill="#bdc2f8"
     d="M344.858 477.744l20.523 29.567c-6.352-11.724-10.953-20.446-15.414-28.52-1.738-.34-3.439-.69-5.11-1.047z" />
  <path
     id="path195"
     fill="#babff8"
     d="M318.211 469.596c2.712 9.502 6.91 23.38 9.106 26.308-.6-6.604-.778-14.723-.637-22.86-3.496-1.142-6.403-2.305-8.469-3.448z" />
  <path
     id="path197"
     fill="#8a99e5"
     d="M368.829 348.318l-4.62 4.211-3.998 3.643-5.496 5.1-8.574 10.132-8.305 12.57-3.418 10.743-1.914 9.762s6.725-18.89 17.66-24.81l3.372 8.28 4.537 10.883 2.713 10.647 5.595 26.037.698-1.862 1.273-61.857.478-6.492.133-3.677.058-2.985-.043-4.751z" />
  <path
     id="path199"
     stroke-linejoin="round"
     stroke-linecap="square"
     stroke-width=".7"
     stroke="#6a7098"
     fill="#c7cdf9"
     d="M368.483 348.363c-22.98 19.83-29.8 31.681-33 42.262 2.113-6.595 5.328-12.79 10.945-17.85 4.323 8.25 15.593 34.01 19.953 62.74-1.953-25.022-14.394-56.006-18.44-63.527 1.611-7.936 14.382-16.817 20.542-23.625zm-33 42.262c-1.423 4.44-2.353 9.06-3.158 13.643 1.049-4.674 1.765-9.04 3.158-13.643z" />
  <path
     id="path201"
     stroke-width=".7"
     stroke="#6a7098"
     fill="none"
     d="M349.793 379.818c-4.7 1.438-16.108 18.635-17.468 24.45" />
  <path
     id="path203"
     fill="#6e685a"
     d="M311.45 164.771l-33.16 1.077c3.604 148.77-6.733 277.667 48.94 330.73-4.192-15.855-7.405-32.828-7.583-49.502l-.016-.107c6.67 17.694 23.648 44.044 47.303 62.506-62.691-85.618-54.013-212.312-55.484-344.704z" />
  <path
     id="path205"
     fill-opacity=".3"
     d="M311.45 164.771l-20.344.66s1.394 149.395 3.734 196.819c1.241 25.146 5.881 86.937 32.39 134.328l-1.57-6.195-1.824-8.063-2.091-11.369-1.163-8.728-.755-9.348.214-4.832-2.722-8.465c13.264 24.664 32.988 54.99 49.615 69.897l-4.16-5.895-6.617-10.361-4.8-8.432-5.009-9.82-3.195-6.928-4.063-9.725-3.107-8.287-4.238-12.822-3.834-13.635-4.323-18.802-2.34-12.497-2.164-13.81-2.394-19.363-1.582-16.987-1.38-20.34-.915-20.103-.56-19.43-.325-19.43-.133-14.71-.084-19.608-.035-19.38-.05-19.647z" />
  <path
     id="path207"
     stroke-miterlimit="100"
     stroke-linecap="round"
     stroke-width=".7"
     stroke="#423c38"
     fill="none"
     d="M311.45 164.771c.66 59.416-.706 117.67 3.234 171.592m1.853 98.268c.885 14.866 20.207 51.28 50.397 74.844-34.556-47.194-47.41-106.883-52.25-173.112" />
  <path
     id="path209"
     stroke-linejoin="round"
     stroke-linecap="round"
     stroke-width=".7"
     stroke="#423c38"
     fill="none"
     d="M278.29 165.848c3.604 148.77-6.733 277.667 48.94 330.73-4.192-15.855-7.405-32.828-7.583-49.502" />
  <path
     id="path211"
     fill="#6c6c6c"
     d="M228.612 329.049a7.764 7.764 0 00-1.938.21c-5.158 1.23-8.09 7.469-6.549 13.934 1.542 6.467 6.973 10.711 12.131 9.48 5.158-1.23 8.089-7.467 6.547-13.933-1.349-5.657-5.676-9.614-10.191-9.691zm.181 3.027c3.36.057 6.579 3 7.582 7.21 1.147 4.809-1.036 9.45-4.873 10.364-3.836.914-6.699-2.642-7.845-7.45-1.147-4.81-.143-9.05 3.693-9.966a5.79 5.79 0 011.443-.158z" />
  <path
     id="path213"
     fill="#585858"
     d="M229.166 329.033l-2.82.299-1.906.813c3.232-.973 7.57.003 10.857 3.974 3.287 3.971 1.504 8.14 1.504 8.14l-.187 1.612-1.188 2.887 1.303 3.072 1.445-2.553.865-2.59.274-2.453-.807-4.394-1.287-2.893-2.062-2.86-3.465-2.273z" />
  <path
     id="path215"
     stroke-linejoin="round"
     stroke-linecap="square"
     stroke-width=".7"
     stroke="#3c3c3c"
     fill="none"
     d="M228.612 329.049a7.764 7.764 0 00-1.938.21c-5.158 1.23-8.09 7.469-6.549 13.934 1.542 6.467 6.973 10.711 12.131 9.48 5.158-1.23 8.089-7.467 6.547-13.933-1.349-5.657-5.676-9.614-10.191-9.691zm.181 3.027c3.36.057 6.579 3 7.582 7.21 1.147 4.809-1.036 9.45-4.873 10.364-3.836.914-6.699-2.642-7.845-7.45-1.147-4.81-.143-9.05 3.693-9.966a5.79 5.79 0 011.443-.158z" />
  <path
     id="path217"
     fill="#6c6c6c"
     d="M234.514 340.17l-8.967 3.187 1.037 2.92 1.256-.73 3.819 10.365-4.444 2.45-3.793 3.398-2.396 3.176-1.905 3.584-1.388 3.902-.87 4.053-.447 6.095.256 4.955.83 5.5 1.037 4.428 1.604 5.276 1.914 5.062 2.6 5.498 2.213 3.813 3.02 4.248 3.884 4.226 3.166 2.625 3.324 2.09 3.643 1.607 4.78 1.147 6.048.043 5.957-1.371 5.281-2.602 5.182-3.105 4.234-4.362 2.799-4.38 2.039-4.94 1.105-4.44.663-5.94-.036-5.014-.533-5.21-1.232-6.199-2.256-6.859-2.406-5.95-3.506-6.066-3.135-4.054-3.518-3.436-3.79-2.69-3.91-1.906-4.087-1.228-5.814-.648-4.922.287-4.824.888-3.95-10.25 1.475-.525z" />
  <path
     id="path219"
     fill="#585858"
     d="M234.514 340.17l-4.78 1.7c.663.747-.953 2.557-1.193 3.622l-.416.22 3.85 10.04 3.684-1.006 3.054-.242 3.713.29 4.307 1.032 2.691 1.006 5.248 2.814 3.674 2.749 3.225 3.085 1.754 2.016 1.828 2.422 1.644 2.535 1.612 2.916 1.703 3.75 1.654 4.633 1.133 4.066.785 3.602.73 4.664.358 3.781.142 4.149-.132 3.906-.295 3.355-.422 2.254-.66 2.852-1.414 4.098-1.274 2.58-1.01 1.623-1.068 1.43-1.418 1.55-1.248 1.453 2.064-.855 1.696-1.147 1.422-1.103 1.533-1.365 1.63-1.702 2.079-2.677 1.79-2.998 1.292-2.838.89-2.565.963-3.976.332-2.985.375-5.193-.251-5.031-.49-3.787-.589-3.137-.918-3.754-1.455-4.008-1.273-3.797-1.531-3.48-1.57-2.957-1.936-3.11-1.967-2.668-2.412-2.72-3.55-3.463-3.458-2.236-3.918-1.7-4.15-.728-2.907-.364-3.974-.048-3.752.416-3.912.724-3.867-10.41 1.392-.365z" />
  <path
     id="path221"
     fill="#585858"
     d="M248.325 353.168l-13.467 1.719-5.553 1.838-4.844 6.568 6.123 30.043 31.891 16.799 12.012 1.14.357-9.336s-10.685-8.301-18.818-16.312c-1.23-8.689-2.53-13.204-4.094-20.195 1.517-3.498 1.371-5.196 2.74-5.786z" />
  <path
     id="path223"
     stroke-width=".744"
     stroke="#3c3c3c"
     fill="none"
     d="M227.84 345.547l3.819 10.365z" />
  <path
     id="path225"
     stroke-width=".7"
     stroke="#3c3c3c"
     fill="none"
     d="M238.83 354.504c-1.852-.006-3.573.227-5.097.68-12.35 3.666-22.025 18.307-14.887 43.382 7.138 25.076 22.866 39.434 41.525 33.262 17.959-5.94 16.962-35.68 9.428-53.46-7.138-16.848-20.963-23.833-30.969-23.864zM234.159 343.453l3.867 10.41z" />
  <path
     id="path227"
     stroke-linejoin="round"
     stroke-linecap="square"
     stroke-width=".7"
     stroke="#3c3c3c"
     fill="none"
     d="M234.514 340.17l-8.967 3.187 1.037 2.92 8.967-3.19z" />
  <path
     id="path229"
     stroke-width=".7"
     stroke="#3c3c3c"
     fill="none"
     d="M259.063 432.229c28.884-8.512 25.543-40.567 16.773-58.883-6.625-13.837-15.724-21.052-28.386-20.842-4.221.07-8.838.963-13.891 2.713" />
  <path
     id="path231"
     fill="#7b86d1"
     d="M464.157 515.125l-9.91.285-8.965 2.225-6.828 3.72-4.282 3.84-1.357 2.967.162 2.633 1.728 5.002 4.47 5.793 12.09 10.635 16.093 10.798 14.328 7.819 10.521 5.387 14.155 5.947 12.424 3.976 6.435 1.196 5.063.476 4.097-.652 1.461-.805-4.65-3.43-4.065-4.457-2.361-2.699-1.2-4.11-1.734-4.411-6.974-12.922-9.975-13.525-10.56-10.674-10.385-7.58-9.76-4.643z" />
  <path
     id="path233"
     stroke-linejoin="round"
     stroke-linecap="round"
     stroke-width=".7"
     stroke="#6a7098"
     fill="none"
     d="M434.286 525.24c-15.32 18.061 85.935 71.757 101.427 61.239M436.172 526.204c-5.077 7.241 9.093 21.704 29.147 34.023 19.098 11.731 61.975 30.708 67.646 25.687" />
  <path
     id="path235"
     fill="#e9d8d0"
     d="M246.305 339.82l-2.26.397-3.091 1.974-3.63 9.95-3.695 10.718.758 12.748 1.873 11.575-3.22-3.137-3.036-10.83-3.48-8.574 2.924-5.698 1.941-4.976 1.07-4.268.141-3.69-1.082-2.392-3.32-2.385-2.961.313-3.096 8.025-.986-1.443-4.291 6.56-4.252 5.545-2.649 2.86 2.082 11.185.037 11.524.086 4.058.317 9.5 3.595 9.813 5.043 10.053 9.164 11.982 15.612 20.49 12.482 16.405 22.586 36.601 22.895 37.586 23.888 37.893 24.403 35.664 12.863 16.44 8.525 9.009 4.59 2.986 5.817 1.994 6.287.514 7-.896 8.367-2.538 6.984-2.98 9.25-4.846 13.985-10.713 26.13-23.138 33.221-31.938 20.524-21.586-14.705-37.416-41.739-7.039-27.533 28.434-6.377 7.396-9.838 12.153-8.63 11.63-6.53-8.964-7.488-8.623-13.338-13.016-15.883-14.035-11.36-9.934-37.616-35.652-22.618-24.96-1.07-3.595-.871-5.115.562-6.58 1.647-8.545 2.654-12.566-.318-13.516-1.5-10.162-14.307-11.953-5.474-6.25-1.676 3.367-.41 4.05.906 4.132 2.148 4.21 3.616 4.174 3.373 2.36-1.133 8.074.994 9.637-1.291.754-4.912-.065-6.365-2.51-20.397-21.455-.226-4.603-1.856-13.875-.973-3.514 2.323-7.092 1.677-8.642.235-5.43-.824-2.623z" />
  <path
     id="path237"
     fill="#bea79d"
     d="M218.131 371.898c.03 2.815 3.078 16.284 3.078 16.284 5.271 8.075 12.635 17.213 21.782 24.601l-10.96-13.504-5.279-6.529-2.912-3.629zM230.274 342.676c.143 3.79-6.204 17.76-7.332 20.73.94 3.073 5.362 17.796 6.623 22.494 3.362 3.077 16.996 17.166 16.996 17.166l-10.3-15.884-3.222-3.137-.607-2.908-1.338-4.578-1.488-4.502-1.342-3.13-1.738-4.286 2.045-3.832 1.847-4.354 1.506-4.621.65-2.951.026-2.873-1.082-2.393z" />
  <path
     id="path239"
     stroke-miterlimit="100"
     stroke-linejoin="round"
     stroke-linecap="round"
     stroke-width=".7"
     stroke="#967566"
     fill="none"
     d="M236.39 387.24c-.954-.84-3.35-3.195-3.35-3.195-.182-2.769-5.02-17.5-6.514-19.404 2.868-4.942 6.2-12.39 6.168-17.668-.023-3.76-3.882-6.14-6.156-5.996-.759.047-1.342.376-1.547 1.027-2.674 8.465-6.314 14.443-9.157 22.363.847 2.506 5.246 17.95 8.006 24.754 3.495 4.403 19.15 23.662 19.15 23.662" />
  <path
     id="path241"
     stroke-linejoin="round"
     stroke-linecap="round"
     stroke-width=".7"
     stroke="#ad9285"
     fill="none"
     d="M500.205 468.912c-51.768 38.826-82.906 79.604-93.332 94.4" />
  <path
     id="path243"
     fill="#bea79d"
     d="M248.573 340.795s-7.999 19.798-8.102 22.9c-.103 3.103 1.542 20.226 3.272 24.055 1.73 3.829 16.123 21.94 17.2 23.729 2.287 3.795 4.416 19.257 19.343 37.96 35.795 44.853 101.682 117.832 111.271 134.59 19.668 34.374-9.134 54.845-32.973 40.037l10.694 12.725 4.263 4.504 4.59 2.986 4.475 1.682 4.435.748 4.686-.111 2.994-.235 3.774-.765 3.494-.985 7.105-2.75 6.67-3.03 4.404-2.282 6.127-4.157 13.33-10.789 9.198-8.02 5.931-5.321 8.754-8.028 13.842-13.052 15.402-15.12 16.198-16.48 6.449-6.611-18.531-28.036-27.702-4.42s-56.1 69.362-55.283 59.745l-4.898-9.412-5.375-8.022-6.04-7.846-8.982-9.423-8.941-8.725-10.26-9.078-30.537-27.117-18.607-17.88-21.971-22.993-6.23-7.64-1.07-3.595-.872-5.115.281-3.291 1.104-7.563 3.478-16.837-.04-8.508-1.028-10.088-.75-5.082-6.106-4.994-9.298-8.178-4.377-5.031-1.407 2.564-.68 4.854 1.079 4.586 1.976 3.755 3.616 4.174 3.373 2.36-1.055 5.732.11 6.78.806 5.199-1.291.754-3.92.128-5.226-1.625-2.131-1.078-6.994-6.968-8.116-8.926-5.287-5.56-.226-4.604-.6-5.623-.988-6.78-1.24-4.986 1.162-3.547 1.785-6.156.722-3.729.448-5.017-.295-4.026z" />
  <path
     id="path245"
     stroke-linejoin="round"
     stroke-linecap="round"
     stroke-width=".7"
     stroke="#967566"
     fill="none"
     d="M212.045 374.277c-.19 2.46.135 19.434.44 25.082 2.053 6.948 6.046 15.8 8.638 19.866 2.906 3.716 37.258 48.877 37.258 48.877 22.377 34.377 80.884 138.045 112.756 170.976 13.605 14.057 32.361 6.196 48.197-2.066 13.554-7.072 64.096-54.36 89.746-81.565 34.082-36.147 54.034-87.507 48.713-101.04-6.77-17.221-26.712-34.05-39.138-42.997" />
  <path
     id="path247"
     fill="#bea79d"
     d="M218.993 396.264s2.499 7.464 3.775 9.642c1.289 2.2 10.025 11.38 10.025 11.38z" />
  <path
     id="path249"
     stroke-miterlimit="100"
     stroke-linejoin="round"
     stroke-linecap="round"
     stroke-width=".7"
     stroke="#967566"
     fill="none"
     d="M222.141 349.57s.298-1.014-.986-1.443c-.908 1.997-7.923 12.06-11.192 14.965.091 3.223 4.433 20.662 5.313 27.512.771.998 14.158 21.96 17.517 26.681" />
  <path
     id="path251"
     stroke-linejoin="round"
     stroke-linecap="round"
     stroke-width=".7"
     stroke="#967566"
     fill="none"
     d="M292.29 448.74a602.861 602.861 0 0024.513 26.535zm124.634 134.91c-15.418-41.715-48.576-55.837-100.12-108.375" />
  <path
     id="path253"
     stroke-miterlimit="100"
     stroke-linejoin="round"
     stroke-linecap="round"
     stroke-width=".7"
     stroke="#967566"
     fill="none"
     d="M292.29 448.74c-.908-2.723-2.734-8.483-2.096-12.976.953-6.718 4.034-20.444 4.69-23.455.559-2.572-.319-22.415-1.76-24.29-2.696-3.505-9.93-5.915-19.76-18.173-5.655 7.65 1.056 18.71 7.957 22.293-1.606 4.17-1.372 12.537-.139 17.71-2.483 2.353-8.89.304-12.568-1.82-5.13-4.403-17.546-18.687-20.397-21.455.1-4.992-2.076-20.965-3.055-21.992 1.972-4.386 4.897-16.022 4.163-21.908-.249-1.99-1.486-2.796-2.987-2.854-1.93-.074-4.295 1.088-5.547 2.551-1.877 2.196-3.621 12.363-7.162 20.488.409 4.313.09 13.61 2.631 24.323 3.632 5.946 6.91 13.251 16.078 22.148" />
  <path
     id="path255"
     fill="#c7cdf9"
     d="M505.075 402.668l-6.582 66.287s-38.297 31.28-57.55 49.434c-8.077 7.616-8.073 9.657-7.861 11.678l1.903-2.128c.425-1.308.82-1.782.82-1.782 6.288-6.97 22.147-13.926 41.77-5.09 33.448 15.06 39.15 56.345 58.16 65.413 15.082-65.602 29.343-120.867 22.09-134.21-5.081-9.348-15.098-29.234-52.75-49.602z" />
  <path
     id="path257"
     fill="#8a99e5"
     d="M505.075 402.668l-29.366 85.437 22.784-19.148c-24.096 35.076-30.399 48.918-30.399 48.918l3.914 1.057 5.809 2.14 4.78 2.205 6 3.875 8.077 7.76 3.506 4.375 4.25 5.965 4.186 6.527 2.867 4.737 5.392 9.076 5.897 9.281 3.308 4.455 2.856 3.217 4.03 3.37 2.83.642 1.206-5.668 4.74-20.37 5.467-24.253 5.364-24.237 4.129-20.164 2.824-19.814.418-10.912-.65-5.692-1.792-4.543-3.398-5.908-5.178-7.473-5.543-6.523-4.392-4.445-5.381-4.828-6.184-4.914-5.217-3.739-6.738-4.39z" />
  <path
     id="path259"
     stroke-linejoin="round"
     stroke-linecap="round"
     stroke-width=".7"
     stroke="#6a7098"
     fill="none"
     d="M498.493 468.955s-59.836 49.662-64.207 56.285c4.008-5.48 20.85-16.068 43.732-5.765 33.448 15.06 38.1 54.644 57.695 67.004 15.083-65.603 29.597-121.21 22.344-134.553-5.08-9.347-15.33-28.89-52.982-49.258" />
  <path
     id="path261"
     stroke-linejoin="round"
     stroke-linecap="round"
     stroke-width=".7"
     stroke="#6a7098"
     fill="none"
     d="M532.965 585.914c-15.487-10.146-27.056-50.917-50.687-62.8-9.144-4.599-17.156-6.113-23.84-5.971-12.76.27-20.552 6.654-22.266 9.06" />
  <path
     id="path263"
     fill="#e9d8d0"
     d="M394.803 78.732c-8.763-.076-17.883.632-27.308 2.202-79.757 13.28-103.776 104.02-78.75 164.103.365.878 1.672 5.227 2.72 9.758 2.543 10.992 4.036 25.273 6.121 36.85.752 4.173 2.79 10.578 6.85 15.578 2.816 3.467 6.075 6.489 9.28 9.007 2.71 2.132 5.502 4.284 8.562 6.317 5.075 3.372 12.76 8.239 20.32 12.357 9.75 5.312 14.547 7.544 21.402 6.36 12.64-2.184 50.46-21.356 60.614-27.27 2.002-1.166 15.268-12.555 16.007-17.02l26.946-10.288c84.205-96.747 30.64-207.048-72.764-207.954z" />
  <path
     id="path265"
     fill="#a18981"
     d="M412.97 144.387L283.394 162.16l-1.418 6.283-1.34 7.846-.764 6.535-.529 8.494.024 9.495.359 6.115.738 6.902.84 5.45 1.623 7.827 1.707 6.352 1.943 5.963 2.801 6.713c41.79 3.208 113.022-12.681 134.457-18.64z" />
  <path
     id="path267"
     fill="#a18981"
     d="M429.754 175.748l-24.974 4.635 6.82 39.094c10.52 62.872 1.194 88.595-45.209 121.472l5.861-2.08 10.08-4.045 10.14-4.502 8.712-4.144 8.695-4.324 7.414-3.842 6.543-3.57 3.496-2.532 4.17-3.681 3.362-3.278 3.367-3.775 25.537-21.028z" />
  <path
     id="path269"
     stroke-linejoin="round"
     stroke-linecap="round"
     stroke-width=".7"
     stroke="#927163"
     fill="none"
     d="M394.803 78.732c-8.763-.076-17.883.632-27.308 2.202-79.757 13.28-103.776 104.02-78.75 164.103.365.878 1.672 5.227 2.72 9.758 2.543 10.992 4.036 25.273 6.121 36.85.752 4.173 2.79 10.578 6.85 15.578 2.816 3.467 6.075 6.489 9.28 9.007 2.71 2.132 5.502 4.284 8.562 6.317 5.075 3.372 12.76 8.239 20.32 12.357 9.75 5.312 14.547 7.544 21.402 6.36 12.64-2.184 50.46-21.356 60.614-27.27 4.523-2.635 15.268-12.555 16.007-17.02l26.946-10.288c84.205-96.747 30.64-207.048-72.764-207.954z" />
  <path
     id="path271"
     fill="#835656"
     d="M353.545 305.129l-1.648.334-.483 1.664.76 1.95 1.225 1.538 1.875 1.526 1.469.427 1.53-.3.925-.682.607-2.03-.89-1.644-1.368-1.174-1.91-1.008z" />
  <path
     id="path273"
     fill="#b68282"
     d="M359.82 309.355c-1.229.007-3.83.737-6.048 1.565l.974.92 1.247.678 1.203-.038 1.078-.212.924-.682.67-1.043z" />
  <path
     id="path275"
     fill="#7c6459"
     d="M322.957 233.174c-.585-.143-.529.724-.22.941.769.542 2.667 2.572 3.562 4.242.67 1.249 1.019.465.967-.058-.205-2.07-2.426-3.57-3.496-4.584-.352-.334-.617-.493-.813-.541zM374.946 227.387c-.171-.045-.472.096-.951.613-1.784 1.92-2.56 3.089-3.497 5.313-.204.484.37 1.095.95-.198.8-1.789 2.69-4.016 3.486-4.84.219-.226.297-.814.012-.888z" />
  <path
     id="path277"
     fill="#f5f5f5"
     d="M403.832 225.06l-11.691.891-10.75 5.47-6.957 5.222c-.1 2.71.044 4.016.12 5.808.278 6.628 1.892 12.509 4.34 16.682 1.094 1.863 5.725 7.41 13.208 6.213 10.937-1.751 15.821-5.48 18.187-8.518 4.01-5.147 7.838-18.975 7.143-21.998l-4.885-4.68z" />
  <path
     id="path279"
     fill="#dcdcdc"
     d="M404.44 224.553l-14.063 2.31-11.341 5.655-4.625 4.841s-.598 3.925.142 5.092c4.626-3.545 14.686-4.342 25.367-5.152 7.347-.557 12.917 3.936 15.52 7.271l2.332-7.449-2.85-5.521z" />
  <path
     id="path281"
     stroke-width="1.03"
     stroke="#2c2c51"
     fill="url(#b)"
     d="M389.615 234.58c-.457.004-.917.035-1.379.094-7.387.936-12.824 8.436-11.547 16.558 1.278 8.122 7.311 14.248 15.81 13.215 8.497-1.032 12.346-10.388 11.222-17.416-1.054-6.588-7.249-12.508-14.106-12.451z" />
  <path
     id="path283"
     fill="#27284a"
     d="M389.557 244.752a7.528 7.528 0 00-.67.01c-3.635.208-6.422 4.324-5.805 8.008.617 3.683 3.214 6.66 7.278 6.383 4.063-.278 6.556-4.854 5.705-8.51-.799-3.428-3.214-5.782-6.508-5.89z" />
  <path
     id="path285"
     fill="#f5f5f5"
     d="M382.71 242.043c-3.173-.4-4.62 6.407-1.202 7.623 3.646 1.297 5.473-5.932 1.86-7.443a2.524 2.524 0 00-.659-.18z" />
  <path
     id="path287"
     fill-opacity=".3"
     d="M401.274 225.256l-9.133.695-4.89 2.473-5.858 2.998-4.455 3.293-2.527 2.644-.166 1.495-.018.236-.031.601-.012.46.002.402c4.68-.751 24.533-4.477 38.453-8.352l-2.662-3.928z" />
  <path
     id="path289"
     d="M401.196 223.377c-2.03-.027-5.366.183-8.225.795-3.141.672-4.316.994-7.266 2.226-2.604 1.089-5.838 3.508-7.548 4.95-3.571 3.01-4.966 5.45-5.569 6.384-1.401 2.176-.817 3.99 1.407 1.44 2.257-2.588 3.424-3.923 6.308-6.076 2.286-1.707 4.043-2.663 6.727-3.508 4.55-1.433 10.155-2.677 18.02-.026 4.597 1.55 8.28 5.107 9.427 8.458 1.14 3.332.016 10.448.928 10.128 1.55-.542 5.196-11.268 4.013-13.593-4.442-8.73-14.125-10.634-16.695-11.078-.32-.056-.851-.091-1.527-.1z" />
  <path
     id="path291"
     stroke="#905353"
     fill="none"
     d="M352.838 305.127c-.668.07-1.173.363-1.375.943-.848 2.439 4.5 9.296 7.969 5.264 2.27-2.637-3.698-6.51-6.594-6.207z" />
  <path
     id="path293"
     fill="#bea79d"
     d="M345.204 270.125l.265 5.28-1.394 2.777-.895 1.763-.525 1.461.554.9 1.905 1.122 1.716 3.152c1.06-.56 5.235-3.754 4.99-6.37-.23-2.46-2.729-6.326-6.616-10.085z" />
  <path
     id="path295"
     stroke-linecap="round"
     stroke-width=".7"
     stroke="#927163"
     fill="none"
     d="M345.438 273.592c.343 2.201-.33 3.178-1.08 4.476-.705 1.221-1.595 2.119-1.682 3.65-.095 1.672 3.138.857 4.137 4.07" />
  <path
     sodipodi:nodetypes="cccccc"
     id="path297"
     stroke-linecap="round"
     stroke-width="1.374"
     stroke="#7c6459"
     fill="none"
     d="m 326.598,223.225 c -3.99,-3.216 -12.264,-5.551 -20.75,-5.475 -6.6,0.06 -13.33,1.577 -18.271,5.273 m 131.052,-15.31 c -3.165,-1.543 -7.287,-2.159 -11.836,-2.115 -16.244,0.155 -37.916,8.712 -40.77,13.396" />
  <path
     id="path299"
     fill="#f5f5f5"
     d="M305.704 237.9l-7.624 4.86-1.974 9.33c1.395 7.292 3.7 10.551 7.34 15.037 2.287 2.818 7.861 7.815 16.394 7.578 3.367-.094 7.331-2.515 9.713-6.144 3.309-5.043-.843-21.079-2.035-22.84l-5.846-5.473-7.117-2.223z" />
  <path
     id="path301"
     fill="#dcdcdc"
     d="M312.735 237.139l-8.295 1.566-6.846 5.715-2.639 6.113 3.678 10.07c.442-5.653 6.346-12.712 9.88-14.306 5.974-2.696 13.757-.02 20.321 3.074l-.527-1.9-.656-1.56-3.45-3.956-5.472-3.203z" />
  <path
     id="path303"
     stroke-width="1.008"
     stroke="#2c2c51"
     fill="url(#c)"
     d="M318.518 244.07a9.596 9.596 0 00-1.018.037c-5.588.5-10.557 7.323-9.555 16.24.975 8.67 7.386 14.447 13.463 13.612 6.227-.855 9.794-8.146 8.62-15.62-1.567-9.967-6.435-14.18-11.51-14.269z" />
  <path
     id="path305"
     fill="#27284a"
     d="M319.301 253.82c-.143-.004-.284 0-.422.014-2.21.217-4.703 3.835-4.261 7.838.441 4.003 2.724 7.501 6.357 7.14 3.633-.36 4.506-5.233 3.787-9.167-.674-3.69-3.313-5.76-5.46-5.825z" />
  <path
     id="path307"
     fill="#f5f5f5"
     d="M312.414 249.13c-2.561.16-3.492 5.384-.695 6.544 3.197 1.325 5.298-4.588 1.887-6.274-.426-.21-.826-.292-1.192-.27z" />
  <path
     id="path309"
     d="M311.547 235.791c-2.35.009-4.384.51-6.076.992-3.874 1.106-6.347 3.557-8.258 5.64-1.997 2.18-3.553 7.39-3.554 8.653-.002 2.69 3.55 8.259 4.24 9.502.69 1.243 2.426 2.306 1.504.367-1.484-3.118-1.112-6.304-1.069-7.625.107-3.233 1.631-6.59 2.809-8.084 1.766-2.24 3.905-3.787 6.166-4.558 3.012-1.028 4.595-1.128 8.37-1.451 5.152-.442 9.353 4.052 11.704 6.857.66.786 1.68.817.655-1.06-.625-1.143-2.875-4.451-8.52-7.28-2.955-1.48-5.621-1.962-7.97-1.953z" />
  <path
     id="path311"
     fill-opacity=".3"
     d="M305.704 237.9l-7.624 4.86-1.501 5.595c2.666-.011 29.077-1.648 31.392-1.796l-1.44-2.391-3.488-2.988-4.566-1.93-3.922-1.225z" />
  <path
     id="path313"
     fill="#6e685a"
     d="M397.883 81.236l-76.205 15.748-10.014 6.948-20.98 21.736-8.678 24.45-9.193 20.036 73.424-10.566 67.334 23.836 9.845 22.441 37.987 119.223 48.806-8.613 5.17-117.952-16.963-56.947-34.359-40.564z" />
  <path
     id="path315"
     fill="#4d493f"
     d="M397.739 76.04l-25.176 1.526-19.469 3.303-11.959 3.604-15.658 6.757-16.203 9.735c37.679-7.334 82.72 3.464 109.426 69.611l34.597 203.238 18.725 9.73 41.58-8.597 5.19-72.209.251-58.617-3.664-45.598-8.213-45.908-11.199-20.324-17.515-23.252-15.211-12.176-23.348-11.416-21.764-5.883z" />
  <path
     id="path317"
     fill="#6e685a"
     d="M421.03 165.24c-.561 132.399 8.986 259.03-53.116 345.076 23.528-18.624 40.326-45.09 46.873-62.83l-.015.108c-.063 16.674-3.16 33.669-7.244 49.552 55.308-53.444 44.086-182.266 46.668-331.058z" />
  <path
     id="path319"
     fill-opacity=".3"
     d="M421.03 165.24l.215 75.397c3.185 20.163 13.317 62.409 8.892 121.36-5.094 67.856-39.867 129.106-62.223 148.32l7.07-6.003 3.948-3.72 6.352-6.59 5.037-5.809 3.947-4.959 3.33-4.498 3.68-5.361 3.83-6.111 2.66-4.653 3.055-5.902 3.56-8.147 1.666-5.033c3.48 9.055-3.012 46.635-7.928 52.98l5.645-6.036 4.125-5.229 4.396-6.47 4.202-7.26 3.455-6.971 3.426-8.059 4.947-14.425 2.129-7.622 2.136-8.873 2.014-9.86 1.834-10.776 1.34-9.428 1.168-9.773 1.63-17.518 1.22-18.658.873-20.315.552-21.568.282-20.832.113-17.01.058-20.273.03-18.203.07-23.877.145-20.059.285-21.328zM408.12 496.512l-.593.634c.194-.15.393-.375.593-.634z" />
  <path
     id="path321"
     stroke-miterlimit="100"
     stroke-linecap="round"
     stroke-width=".7"
     stroke="#423c38"
     fill="none"
     d="M414.772 447.594c-.063 16.674-3.16 33.669-7.244 49.552 55.308-53.444 44.086-182.266 46.668-331.058" />
  <path
     id="path323"
     stroke-miterlimit="100"
     stroke-linecap="round"
     stroke-width=".7"
     stroke="#423c38"
     fill="none"
     d="M419.008 336.514c3.357-51.08 1.937-106.008 1.996-162.127m-1.996 162.127c-4.364 66.399-16.803 126.29-51.094 173.802 30.028-23.77 49.098-60.317 49.881-75.189" />
  <path
     id="path325"
     fill="#6e685a"
     d="M414.383 150.023l-147.39 16.286c-4.357 16.65-1.301 45.678 3.896 71.066 6.253.222 18.963 1.09 24.713.658-2.807-4.684-12.523-36.712-8.016-60.984-3.271 21.923 4.06 50.14 9.809 60.967 0 0 11.978-.88 15.863-1.371-4.291-12.14-10.814-38.533-7.478-60.84-1.708 22.66 4.954 49.097 10.693 60.617 3.026-.353 18.487-2.213 26.816-3.701-5.945-17.295-11.87-50.252-10.123-66.871 12.858 18.676 18.574 57.067 19.772 64.588 8.879-1.426 26.882-3.892 31.89-4.708-.239-11.553-2.86-34.003-9.785-53.125 9.408 18.468 14.354 43.659 14.758 52.336 3.526-.484 21.93-3.282 24.934-3.837-.102-5.503-4.013-29.14-10.422-47.88 7.933 20.097 11.388 41.289 12.117 47.589 1.528-.259 11.078-1.882 12.465-2.116.261-10.663-.35-33.667-14.512-68.674z" />
  <path
     id="path327"
     fill="#4d493f"
     d="M279.77 154.994c-12.384 35.723-7.55 58.535 3.299 82.606-8.783-24.323-8.27-57.515-3.3-82.606z" />
  <path
     id="path329"
     fill="#4d493f"
     d="M283.87 152.834c-9.073 34.408-.68 60.78 9 85.316-8.784-24.323-13.97-60.226-9-85.316zM317.768 148.861c-12.384 35.723-1.851 61.246 8.998 85.317-8.783-24.323-13.969-60.226-8.998-85.317z" />
  <path
     id="path331"
     fill="#4d493f"
     d="M322.94 155.846c-5.73 32.53 2.715 55.54 12.642 78.093-9.136-22.39-15.392-54.437-12.642-78.093z" />
  <path
     id="path333"
     fill="#4d493f"
     d="M318.508 146.46c-9.072 34.409-.68 60.782 8.998 85.317-8.783-24.323-13.968-60.226-8.998-85.316zM309.48 155.053c-10.624 22.668-9.06 53.126-.532 82.031l4.31-.44-2.433-7.728-2.522-10.146-1.943-11.457-1.371-18.104.705-13.135c.186-4.088 1.904-14.843 3.787-21.021z" />
  <path
     id="path335"
     fill="#4d493f"
     d="M297.633 151.377c-7.634 34.755 1.845 60.755 12.535 84.867-9.786-23.937-16.458-59.592-12.535-84.867zM279.77 154.994c-7.906 34.695-4.324 57.006 6.178 81.201-9.6-24.012-10.299-55.957-6.178-81.2zM337.496 147.262c16.388 19.639 29.044 53.634 32.993 79.191-3.265-26.173-8.54-53.34-32.993-79.191z" />
  <path
     id="path337"
     fill="#4d493f"
     d="M348.846 148.781c13.177 17.056 24.327 46.889 28.58 69.424-3.777-23.093-9.096-47.03-28.58-69.424z" />
  <path
     id="path339"
     fill="#4d493f"
     d="M349.64 158.168c10.988 14.797 20.998 41.059 25.331 61.03-3.99-20.485-9.214-41.671-25.332-61.03zM366.41 144.408c14.747 19.077 26.056 51.806 29.524 76.307-1.715-25.2-4.304-51.49-29.523-76.307zM394.86 129.742c15.51 22.073 21.075 53.16 22.088 90.983l11.947-2.028-.03-7.3-.581-8.637-.746-6.102-.877-5.418-1.264-6.326-1.227-5.228-1.26-4.774-1.566-5.853-2.015-5.754-1.793-4.512-.817-2.785-2.287-5.832c-6.857-10.093-12.468-15.878-19.57-20.434z" />
  <path
     id="path341"
     fill="#4d493f"
     d="M354.928 146.89c15.673 21.497 21.598 62.82 21.254 80.124l8.647-1.284-.458-8.27-.726-7.058-.77-5.644-.935-5.682-1.444-7.263-1.63-6.811-1.342-6.152c-7.006-17.673-9.452-21.946-22.596-31.96zM385.36 141.799c17.17 22.926 16.264 61.8 16.935 81.275l12.44-1.97-.852-7.713-1.201-7.141-1.088-5.57-1.314-7.06-3.176-11.02-3.54-11.424c-8.026-21.162-13.217-24.39-18.204-29.377zM335.28 150.855c-12.081 24.65-7.946 54.924 2.486 82.762l5.523-.896-3.154-10.64-2.22-9.372-2.165-11.213-1.232-7.986-.934-7.83-.629-8.836.3-10.573c.538-7.045 1.51-13.833 2.025-15.416zM292.182 156.059c-4.599 9.937-17.354 40.59-1.525 82.207l4.726-.428-2.676-7.33-2.714-10.17-2.069-11.537-1.369-18.104 1.541-13.134c.657-4.12 2.61-14.555 4.086-21.504z" />
  <path
     id="path343"
     stroke-miterlimit="100"
     stroke-linecap="round"
     stroke-width=".7"
     stroke="#423c38"
     fill="none"
     d="M266.762 166.504c-3.753 19.456-1.263 44.928 3.885 70.898 6.253.222 19.205 1.063 24.955.631-2.807-4.684-12.523-36.712-8.016-60.984-3.271 21.923 4.06 50.14 9.809 60.967 0 0 11.978-.88 15.863-1.371-4.291-12.14-10.814-38.533-7.478-60.84-1.708 22.66 4.954 49.097 10.693 60.617 3.026-.353 18.487-2.213 26.816-3.701-5.945-17.295-11.87-50.252-10.123-66.871 12.858 18.676 18.574 57.067 19.772 64.588 8.879-1.426 26.882-3.892 31.89-4.708-.239-11.553-2.86-34.003-9.785-53.125 9.408 18.468 14.354 43.659 14.758 52.336 3.526-.484 21.93-3.282 24.934-3.837-.102-5.503-4.013-29.14-10.422-47.88 7.933 20.097 11.388 41.289 12.117 47.589 1.528-.259 11.078-1.882 12.465-2.116.261-10.663-.35-33.667-14.512-68.674" />
  <path
     id="path345"
     fill="#4d493f"
     d="M276.81 151.846c-13.416 32.957-8.481 60.188-2.034 85.763-5.586-25.25-6.117-61.52 2.035-85.763z" />
  <path
     id="path347"
     fill="#afaa9d"
     d="M273.948 143.38c-5.902 12.642-7.752 20.696-8.873 34.712-.929 11.596-.076 31.171 3.623 49.818-4.793-33.52-5.233-46.57 11.076-41.068 1.078.363 1.354.499 2.7 1.012l1.394-9.864c-1.702-.75-2.52-1.82-4.297-2.707-14.348-7.163-10.576-12.137-5.623-31.902zm137.927 19.684a525.598 525.598 0 01-9.752 3.186l.305.979a264.193 264.193 0 009.447-4.165zm-14.837 4.762a433.517 433.517 0 01-20.975 5.822l1.24 2.717a293.342 293.342 0 0020.164-7.12zm-28.782 7.684c-9.784 2.22-18.872 3.846-27.244 4.922l1.76 4.554a299.694 299.694 0 0026.451-6.215zm-80.396 4.304l-.967 9.801c3.944.912 5.824.76 12.734.242-.267-2.518-.07-4.182.516-7.07-7.272-.906-8.237-1.394-12.283-2.973zm18.222 2.956l.258 7.449c6.505-.085 9.342-.37 17.29-1.39.024-1.492.101-3.068.44-5.073-8.224.534-11.514-.349-17.988-.986z" />
  <path
     id="path349"
     fill-opacity=".996"
     fill="#406555"
     d="M491.977 29.791s-146.014 14.108-226.89 21.865c-7.433.713-22.604 15.66-22.604 15.66l131.336-3.93 126.267 73.352 58.39 136.86 38-3.522z" />
  <path
     id="path351"
     fill-opacity=".996"
     fill="#979797"
     d="M450.495 47.5l-3.352.04-202.416 19.62-2.229.324-2.683.998-3.29 1.457-2.534 2.168-3.852 13.76 1.62-.502 2.962-.592 201.477-19.435 4.91-.065 4.22.586 4.268 1.159 4.379 1.779 4.574 2.553 2.649 1.851 2.756 2.281 2.187 2.13 2.936 3.47 1.976 2.934 1.748 3.306 9.053 20.805 71.531 164.475 1.678 5.035.54 3.75-.118 3.74-.55 2.664-.437 1.627 4.393-7.75 4.441-7.607 1.112-2.19 1.045-3.576.295-3.61-.323-3.49-.72-3.045-.666-1.945L483.227 70.23l-2.29-4.365-2.708-3.78-2.879-3.151-2.314-2.108-3.067-2.35-1.97-1.292-2.467-1.407-2.586-1.248-2.772-1.091-3.228-.971-3.078-.625z" />
  <path
     id="path353"
     fill="#e2e2e2"
     d="M242.498 67.484l-4.832 1.797-2.777 1.819-3.625 4.066-2.066 3.629-4.737 8.314-3.847 6.756 2.457-3.494 2.117-1.885 2.623-1.623 3.947-1.498 2.963-.592c-1.514-4.096-1.986-7.937 7.777-17.289z" />
  <path
     id="path355"
     stroke-linejoin="round"
     stroke-linecap="round"
     stroke-width=".973"
     stroke="#6f6f6f"
     fill="none"
     d="M563.686 273.207c2.586-4.942 2.847-11.423-.121-18.248L483.178 70.117c-5.649-12.99-20.386-22.63-33.992-22.648-.907-.001-1.81.04-2.703.127L245.875 66.928c-6.709.646-11.738 3.686-14.564 8.164" />
  <path
     id="path357"
     fill="#e2e2e2"
     d="M439.043 65.2c-.907-.002-1.809.038-2.703.124L235.733 84.656c-14.304 1.379-20.967 13.643-14.942 27.498l46.407 106.737c-2.255-18.58-3.582-28.26-.643-44.944 5.475-31.078 37.427-52.917 66.32-57.66 73.954-12.14 149.366 24.522 184.668 109.1 2.69 6.443 9.332 26.806 9.414 38.744.126 18.285-.441 37.205-.441 37.205l11.965-1.148c14.304-1.375 20.967-13.643 14.941-27.499L473.036 87.848c-5.65-12.99-20.387-22.63-33.993-22.649z" />
  <path
     id="path359"
     fill="#979797"
     d="M392.77 111.184c-16.458.05-34.965 1.366-56.438 4.56 76.424-10.624 159.782 44.359 190.524 159.893l.068.488 28.93-2.43-44.201-96.683-17.504-51.696c-30.636-6.129-59.32-14.26-101.379-14.132z" />
  <path
     id="path361"
     stroke-linejoin="round"
     stroke-width=".973"
     stroke="#6f6f6f"
     fill="none"
     d="M526.434 301.344l12.047-1.156c14.304-1.375 20.967-13.643 14.941-27.499L473.036 87.848c-5.65-12.99-20.387-22.63-33.993-22.649-.907-.001-1.809.04-2.703.125L235.733 84.656c-14.304 1.379-20.963 13.641-14.942 27.498l46.307 106.563" />
  <path
     id="path363"
     stroke-width=".973"
     stroke="#6f6f6f"
     fill="none"
     d="M231.264 75.166l-11.057 19.41zM564.444 271.871l-11.578 20.43z" />
  <path
     id="path365"
     stroke-width=".324"
     stroke="#000"
     fill-opacity=".996"
     fill="#99996a"
     d="M493.918 5.486l-302.693 29.17-6.623 13.537 302.693-29.17 122.57 281.834 6.624-13.537z" />
  <path
     id="path367"
     stroke-linejoin="round"
     stroke-linecap="round"
     stroke-width=".973"
     stroke="#5b5b4a"
     fill="none"
     d="M616.489 287.32L493.919 5.486l-302.694 29.17" />
  <path
     id="path369"
     stroke-linejoin="round"
     stroke-linecap="round"
     stroke-width=".973"
     stroke="#5b5b4a"
     fill="none"
     d="M609.866 300.857L487.296 19.023l-302.694 29.17" />
  <path
     id="path371"
     stroke-width=".973"
     stroke="#5b5b4a"
     fill="none"
     d="M191.225 34.656l-6.623 13.537zM493.918 5.486l-6.623 13.537zM616.489 287.32l-6.623 13.537z" />
  <path
     id="path373"
     stroke-width=".7"
     stroke="#000"
     fill="none"
     d="M124.203 619.467c15.436 1.945 5.412-6.614 13.949-3.086 8.536 3.527 2.015-7.88 14.127-5.171 12.113 2.709 17.467.172 20.736-1.123 3.27-1.295-4.405-5.905 8.623-7.342 13.03-1.438 3.886.806 16.468 1.512 5.477.308 6.3-5.533 12.833-7.355 4.664-1.3 12.457.537 17.767.556 4.335.015 2.76-4.552 4.297-4.822 6.055-1.065 8.908 5.608 11.213-2.189M140.025 633.993c3.96 1.432 2.135 1.412 3.986-1.91 1.85-3.322 10.625-.857 12.759-1.06 2.133-.204 4.029-1.903 6.183-4.05 2.154-2.146 3.824-8.06 10.452-4.14 6.628 3.92 5.572 6.72 9.476 1.734 3.904-4.986-9.967-7.383 7.958-5.905 17.926 1.48 17.527.212 20.874-3 3.347-3.212-8.783-4.605 7.058-4.708 15.84-.104 13.638-.237 21.209-1.598 7.571-1.36 7.566-4.948 6.605-4.79-1.664.273 4.702-4.062 8.357-.785M154.016 647.74c5.554 2.582 11.736-4.939 13.427-5.322 1.692-.383 5.413 3.227 10.506 1.722 5.092-1.505 6.335-7.188 8.555-8.106 2.22-.92 8.144 1.12 15.598 2.083 7.454.963 3.338 2.904 8.284-3.133 4.946-6.036-3.992-8.285 7.282-6.362 11.273 1.924 11.476 2.721 14.04-.919 2.565-3.64-2.383-.8 8.614-2.321 10.996-1.522 14.028-2.98 15.842-5.18 1.814-2.2 3.38-3.79 8.309-2.44M169.946 664.677c.248-3.507-6.86-3.436 5.555-2.63 12.414.806 10.999.447 11.504-2.462.504-2.91-2.31-4.47 5.048-3.035 7.358 1.435 12.022-.808 12.022-.808s-6.542-5.092 5.98-3.628c12.272 1.435 3.563-2.5 12.832-2.463 9.268.037 7.03 1.322 10.038.008 3.007-1.314-2.734-4.57 6.977-3.75 9.712.822 9.97 2.364 11.66-1.058 1.69-3.422-3.875-6.023 3.364-4.035 7.238 1.99 10.75.508 12.152-2.151 1.402-2.659-10.209-6.165 2.929-3.34 13.137 2.827 10.53-1.317 10.816-2.08" />
</svg>
