<svg xmlns="http://www.w3.org/2000/svg" xmlns:xlink="http://www.w3.org/1999/xlink" viewBox="0 0 330.729 572.823" height="2165" width="1250"><defs><linearGradient y2="88.579" x2="235.71" y1="85.517" x1="235.906" gradientTransform="matrix(1.1 0 0 1.1 -209.724 -15.455)" gradientUnits="userSpaceOnUse" id="d" xlink:href="#a"/><linearGradient id="a"><stop offset="0" stop-color="#383969"/><stop offset="1" stop-color="#292a4d" stop-opacity="0"/></linearGradient><linearGradient y2="88.221" x2="213.95" y1="85.831" x1="213.985" gradientTransform="matrix(1.1 0 0 1.1 -204.858 -15.466)" gradientUnits="userSpaceOnUse" id="c" xlink:href="#b"/><linearGradient id="b"><stop offset="0" stop-color="#373868"/><stop offset="1" stop-color="#292a4d" stop-opacity="0"/></linearGradient></defs><path d="M1.906 8.018l2.627-6.5 252.98.25 70.983 226.291-2.354 5.938-11.085-2.483-67.345-216.917L7.817 11.486z" fill="#9f9f6e"/><path d="M257.194 1.708l-2.573 6.56h.763l2.572-6.56z" style="line-height:normal;font-variant-ligatures:normal;font-variant-position:normal;font-variant-caps:normal;font-variant-numeric:normal;font-variant-alternates:normal;font-feature-settings:normal;text-indent:0;text-align:start;text-decoration-line:none;text-decoration-style:solid;text-decoration-color:#000;text-transform:none;text-orientation:mixed;white-space:normal;shape-padding:0;isolation:auto;mix-blend-mode:normal;solid-color:#000;solid-opacity:1" color="#000" font-weight="400" font-family="sans-serif" overflow="visible" fill="#5f5f4e"/><path d="M15.058 47.063l210.977.5 62.393 183.18 1.53 3.174 13.928.319 21.74-.106-.07-1.238-70.49-224.517-2.546.035L1.885 8.23z" fill="#60a98b"/><path d="M72.652 222.544l180.98 13.398 28.847.05 9.499-3 8.299-5.899 3.5-5.549.7-4.2-.15-2.8L252.943 52.53 249.87 45.6l-4.88-7.742-4.913-5.585-7.6-5.55-6.54-2.9-6.364-1.802-7.318-.955H33.881l-3.075.475-3.024 1.6-3.05 2.5-2.975 3.274-2.474 2.8-2.062 3.244-.778 1.91-.92 5.514-.353 4.631.212 5.515.92 5.55 53.84 161.132.848 2.121z" fill="#ececec"/><path d="M263.98 37.18l5.835 19.488 53.464 170.03-23.86.547 1.022-1.038 3.086-4.12.943-5.699-1.551-5.77L254.922 58.78l-2.993-8.191-2.866-5.77-2.875-4.761-5.593-7.16-5.761-4.693-11.954-5.375-9.779-1.886-180.127.1-2.344.672-5.012 3.03s3.427-5.372 11.3-7.277l220.776-.667z" fill="#426959"/><path d="M223.48 23.087l7.346 2.858 7.121 4.737 5.29 5.305 4.165 5.879 3.494 6.383 4.93 13.555 48.32 153.07-.132 4.575-1.598 3.995-3.166 3.89-5.933 4.578-4.12 1.968-3.273.864 3.363-3.574 2.43-4.369 1.232-5.921-.206-4.346c-17.507-10.68-36.371-12.963-36.371-12.963l3.159-25.87-5.997-15.286-9.406-21.647-8.485-16.895-5.536-9.22-9.218-12.685-9.605-8.14-22.582-11.899-11.055-4.84-8.388-2.724-8.616-2.003-10.49-1.761-8.561-.928-9.603-.605-11.04-.047c18.139-2.882 97.502-1.054 128.442 14.533L244.634 68.1l-2.21-6.254-3.368-8.353-5.283-7.215-6.295-5.166-7.085-2.973-8.771-.97-8.577-.158-169.998-.255c-6.164-5.03-4.52-10.325-.106-15.714l126.134-.09 54.804.298z" fill="#9d9d9d"/><path d="M33.264 36.545c-1.414-.048-3.896.587-6.594 1.903-2.697 1.315-5.573 3.32-7.587 6.074-1.78 2.434-2.73 5.509-3.082 8.451-.353 2.943-.113 5.753.542 7.7l53.969 160.62 2.258 2.196.536-.547-2.128-2.067L17.265 60.431c-.6-1.788-.843-4.524-.502-7.368.34-2.843 1.26-5.8 2.935-8.09 1.913-2.615 4.691-4.561 7.305-5.836 2.614-1.275 5.103-1.868 6.238-1.83 1.663.057 13.062.086 29.458.096 16.395.01 37.738.002 59.14-.01 42.804-.028 85.843-.086 89.963-.086 4.664 0 12.925 1.58 18.708 6.182 6.223 4.952 10.07 13.199 11.517 17.67l50.226 155.189c.937 3.503.134 8.392-1.942 12.357-2.077 3.967-5.378 6.972-9.354 6.972H253.12v.768h27.837c4.36 0 7.873-3.263 10.031-7.384 2.159-4.121 3.016-9.14 2.005-12.916v-.012L242.755 60.922c-1.484-4.585-5.34-12.918-11.765-18.031-5.992-4.77-14.355-6.346-19.188-6.346-4.127 0-47.16.052-89.963.08-21.402.013-42.745.021-59.14.01-16.396-.01-27.888-.037-29.435-.09z" style="line-height:normal;font-variant-ligatures:normal;font-variant-position:normal;font-variant-caps:normal;font-variant-numeric:normal;font-variant-alternates:normal;font-feature-settings:normal;text-indent:0;text-align:start;text-decoration-line:none;text-decoration-style:solid;text-decoration-color:#000;text-transform:none;text-orientation:mixed;white-space:normal;shape-padding:0;isolation:auto;mix-blend-mode:normal;solid-color:#000;solid-opacity:1" color="#000" font-weight="400" font-family="sans-serif" overflow="visible" fill="#737373"/><path d="M4.2 1.323L1.32 7.888l.769.38 2.878-6.945z" style="line-height:normal;font-variant-ligatures:normal;font-variant-position:normal;font-variant-caps:normal;font-variant-numeric:normal;font-variant-alternates:normal;font-feature-settings:normal;text-indent:0;text-align:start;text-decoration-line:none;text-decoration-style:solid;text-decoration-color:#000;text-transform:none;text-orientation:mixed;white-space:normal;shape-padding:0;isolation:auto;mix-blend-mode:normal;solid-color:#000;solid-opacity:1" color="#000" font-weight="400" font-family="sans-serif" overflow="visible" fill="#5f5f4e"/><path d="M1.323 7.884l13.588 40.86.587-.649L2.384 8.646h252.34l70.594 225.14h-36.311l-.438.762h37.793L255.282 7.884z" style="line-height:normal;font-variant-ligatures:normal;font-variant-position:normal;font-variant-caps:normal;font-variant-numeric:normal;font-variant-alternates:normal;font-feature-settings:normal;text-indent:0;text-align:start;text-decoration-line:none;text-decoration-style:solid;text-decoration-color:#000;text-transform:none;text-orientation:mixed;white-space:normal;shape-padding:0;isolation:auto;mix-blend-mode:normal;solid-color:#000;solid-opacity:1" color="#000" font-weight="400" font-family="sans-serif" overflow="visible" fill="#39554a"/><path d="M33.941 20.66c-2.808 0-5.957 1.696-8.964 4.284-3.008 2.589-5.874 6.09-8.034 9.795-.588 1.009-1.048 2.609-1.405 4.59-.357 1.98-.594 4.331-.683 6.808-.178 4.952.238 10.379 1.603 14.231l.723-.254c-1.306-3.684-1.74-9.06-1.564-13.95.088-2.443.328-4.765.677-6.7.349-1.935.815-3.492 1.31-4.341 2.117-3.632 4.939-7.075 7.87-9.597 2.93-2.523 5.974-4.104 8.467-4.104h176.45c11.444 0 20.882 4.3 27.16 9.27 8.093 6.407 13.604 17.81 15.846 24.867l50.164 157.95c1.728 5.443-.929 10.673-5.555 14.74-4.627 4.065-11.21 6.895-17.083 7.428l.067.763c6.064-.552 12.754-3.43 17.518-7.616 4.763-4.186 7.62-9.752 5.78-15.547l-50.164-157.95c-2.278-7.173-7.794-18.659-16.1-25.234-6.401-5.068-15.998-9.434-27.634-9.434z" style="line-height:normal;font-variant-ligatures:normal;font-variant-position:normal;font-variant-caps:normal;font-variant-numeric:normal;font-variant-alternates:normal;font-feature-settings:normal;text-indent:0;text-align:start;text-decoration-line:none;text-decoration-style:solid;text-decoration-color:#000;text-transform:none;text-orientation:mixed;white-space:normal;shape-padding:0;isolation:auto;mix-blend-mode:normal;solid-color:#000;solid-opacity:1" color="#000" font-weight="400" font-family="sans-serif" overflow="visible" fill="#737373"/><path d="M4.582 1.324v.768H257.37l70.876 225.955.752-.047-71.07-226.676z" style="line-height:normal;font-variant-ligatures:normal;font-variant-position:normal;font-variant-caps:normal;font-variant-numeric:normal;font-variant-alternates:normal;font-feature-settings:normal;text-indent:0;text-align:start;text-decoration-line:none;text-decoration-style:solid;text-decoration-color:#000;text-transform:none;text-orientation:mixed;white-space:normal;shape-padding:0;isolation:auto;mix-blend-mode:normal;solid-color:#000;solid-opacity:1" color="#000" font-weight="400" font-family="sans-serif" overflow="visible" fill="#5f5f4e"/><path d="M48.056 246.183l5.846 3.47 5.1 4.727 4.729 6.312 2.989 7.19 2.433 10.536.368 10.005-1.677 12.43-2.454 7.423-46.579-1.636-2.6-7.224-1.703-6.154-.298-5.452-.34-4.513.103-5.62.599-4.626.803-5.916 1.615-5.915 1.981-3.675 2.35-3.273 2.692-3.358 3.048-2.511 4.42-2.638 3.054-.978-.554-6.14-2.664-.181-3.706-1.35-1.22-1.799.642-1.597 2.215-1.495 3.514-1.016 4.54-.852 4.975-.053 4.404.55 2.771.996.922 1.473-1.507 2.242-5.587 2.472.72 6.26z" fill="#707070"/><path style="line-height:normal;font-variant-ligatures:normal;font-variant-position:normal;font-variant-caps:normal;font-variant-numeric:normal;font-variant-alternates:normal;font-feature-settings:normal;text-indent:0;text-align:start;text-decoration-line:none;text-decoration-style:solid;text-decoration-color:#000;text-transform:none;text-orientation:mixed;white-space:normal;shape-padding:0;isolation:auto;mix-blend-mode:normal;solid-color:#000;solid-opacity:1" d="M328.231 228.003l-2.642 6.546h.768l2.64-6.549z" color="#000" font-weight="400" font-family="sans-serif" overflow="visible" fill="#5f5f4e"/><path d="M105.267 250.534l6.586 4.48 32.547 8.695-1.051 37.029-38.696 12.123z" fill="#544f45"/><path d="M105.406 248.304l8.082-.009-.543 63.778-8.153-1.442z" fill="#7e7768"/><path style="line-height:normal;font-variant-ligatures:normal;font-variant-position:normal;font-variant-caps:normal;font-variant-numeric:normal;font-variant-alternates:normal;font-feature-settings:normal;text-indent:0;text-align:start;text-decoration-line:none;text-decoration-style:solid;text-decoration-color:#000;text-transform:none;text-orientation:mixed;white-space:normal;shape-padding:0;isolation:auto;mix-blend-mode:normal;solid-color:#000;solid-opacity:1" d="M104.543 249.464v64.328h.754v-64.328z" color="#000" font-weight="400" font-family="sans-serif" overflow="visible" fill="#45433e"/><path d="M88.676 136.886l-2.15 4.589-1.897 5.428-2.839 10.274-1.69 7.267-1.352 8.956-.934 8.654.454 1.661.79 3.37.644 4.302.287 5.64.023 2.485-.048 4.565-.55 2.963-.31 2.557.023 5.808.24 5.879.597 3.226 1.338 4.923 2.342 5.712 2.557 3.37 3.8 3.919 5.258 4.684 14.434 11.662 6.19 4.421 3.895 1.936 3.466 1.1h4.54l.383.573.669 3.728.394 5.162.084 4.995-4.84 18.428 3.866 41.611 10.842-2.179c19.365-26.25 25.482-37.296 47.738-49.392l5.29-2.82 1.984-2.088.106-9.7.778-92.232.202-21.901-1.892 5.678-1.589 4.19.102-3.176.135-6.253-.338-6.793-.845-6.084-1.724-7.232-1.791-4.935-2.602-5.407-.541-.372.44 3.92.405 7.233-.338 8.044-.507 6.354-.98 6.252-1.116 5.982-1.723 5.78-.17-3.617-1.149-7.401-1.182-5.34-1.893-5.475-2.028-4.969-1.791-3.717.372 2.94.439 3.312.27 3.414-.135 4.495-.845-2.805-.913-4.36-1.216-3.955-2.23-5.982-.271-.101-.338 3.447-.744 5.306-1.216 4.698-1.792 5.036-3.785 7.131-.473-2.771-1.284-8.145-2.096-8.28-2.298-6.186-2.298-5.17-3.008-5.34-3.042-3.786 2.13 5.949.54 3.21.946 6.456.372 5.813-.034 5.441-.845 7.334-1.385 8.754-2.231 8.179-.642-3.414-1.115-6.557-1.69-6.15-2.84-8.687-2.433-5.711-4.09-7.977-4.055-5.61-3.042-3.82-6.083-5.271 1.52 2.332 2.704 3.819 2.299 3.65 1.52 2.805 1.792 3.447 1.42 3.481 1.453 4.293.574 2.568.575 3.211-.237 2.366-1.555-6.658-1.859-5.577-2.737-5.678-3.448-5.813-2.467-3.447-3.346-3.549.102.913 1.25 3.109 1.386 3.853 1.42 3.954 1.351 5.002 1.318 5.982.186 1.707.778 4.41.101 4.58-.524.321-.591-3.751-1.437-9.43-1.994-7.182-2.484-7.384-2.653-5.712-3.836 7.232-2.687 8.061-2.334 9.182-1.242 7.935-.31 6.051-.102 5.881.17 4.9-.947-1.115-2.94-5.272-3.346-6.962-2.873-8.078-1.285-5.78-.473 2.333-.033 4.731.54 6.016.778 5.036.54 3.042-1.115-1.25-2.569-7.436-2.129-7.976-.642-6.861.102-6.219z" fill="#f3e1d8"/><path d="M97.315 161.395s.41 4.795 2.644 13.11c-3.975-6.9-6.672-15.556-6.672-15.556l-.067-10.787 1.445 4.535 1.605 4.855zM88.557 150.814c-1.375 4.925-5.527 22.04-5.927 32.139-3.45-12.4-2.154-20.103-2.13-20.528.027-.425 3.725-14.398 3.725-14.398l2.85-7.874 1.25-2.25.225 1.225-.3 3.375z" fill="#a78f87"/><path d="M83.29 167.17c1.759-1.006 5.839-2.133 8.911-2.15 3.073-.017 8.433 1.895 9.935 2.731 1.166.65 1.067.014.615-.256-2.168-1.297-6.231-3.38-10.328-3.448-3.009-.05-7.505.756-10.003 2.44-.586.396-1.43 2.001.87.684z" fill="#3f3d38"/><path d="M122.945 266.036c22.447-7.4 36.079-23.044 42.768-30.578 5.316-5.986 10.751-17.588 14.426-42.68.653-4.454 1.848-18.082 2.142-22.387 1.263-18.424 2.37-39.88 2.37-39.88s1.587 2.803 2.957 6.546c1.566 4.28 2.968 9.754 3.449 13.111.93 6.5.904 13.613.904 13.613.484 2.315-.896 5.335-.268 6.398.313.531 2.692-8.716 3.345-8.715.935 0 .15 9.086.15 9.086l-1.098 104.374-.002 9-1.802 1.07-7.721 4.033c-10.15-7.45-44.23-22.803-61.62-22.991zM155.164 144.533s1.818 18.488-6.856 34.923c1.078-10.829-2.55-43.957-2.55-43.957l.213-8.13.726.277 3.374 5.025z" fill="#a78f87"/><path d="M176.87 154.484s-.394 6.946-1.623 8.84c.189-4.556-1.816-9.91-1.816-9.91l-.992-9.377zM126.48 131.448s2.55 2.73 5.206 7.611c3.738 6.869 7.978 17.447 8.165 25.866-.954-9.227-15.066-30.544-15.066-30.544l-6.258-10.19 3.374 2.313z" fill="#a78f87"/><path d="M96.492 312.882l8.787-5.238 2.775-1.815 3.828-8.554 3.031-5.66 2.58-4.11 2.02-2.731 5.296-6.193 2.938-2.596 1.286-.868.053 3.242.202 8.067.055 4.064.002 3.942.86 7.667.404 8.969.644 10.635c.883 1.81 1.471 13.938 1.678 17.002.604-1.038 2.465-5.661 5.09-10.557 4.399-8.2 10.176-17.867 10.176-17.867l5.813-6.424 5.313-4.528 3.18-2.502 4.553-1.018 9.263-3.006 6.883-3.089 5.895-2.794 4.833-2.65.136 4.55.014 24.783-.287 18.354-.956 8.173-1.003 7.17-1.53 7.552-2.007 8.22-3.203 10.803-2.676 7.313-2.294 5.114-3.394 6.5h1.052l7.121-6.643 7.934-9.99 6.166-10.228 3.92-8.604 3.537-10.802.717 1.338.812 4.493.765 4.637.43 5.687.335 5.736-.096 10.42.86-1.339 3.757-14.03 2.839-14.195 2.298-16.628 1.487-16.629.338-6.76 3.177 1.623 13.722 4.867 7.03 2.974 11.964 6.084 6.962 4.934 6.624 5.07 6.49 5.543 4.664 4.46 3.988 5.611 1.825 4.056.743 3.515.068 4.224-.44 5.543-.676 3.65-.71 2.704-3.21 7.267-2.197 5.373-2.974 5.374-3.617 6.76-4.833 7.84-9.666 12.303-8.01 9.193-.743 2.298-15.974 40.324-9.392 23.85-8.102 21.39-4.397 11.59-4.565 12.236-.98 4.015.024 3.178 1.505 2.82 5.688 9.631 7.839 14.459 5.688 11.83 4.086 9.248 5.115 11.615 3.059 7.647 4.062 11.52 1.96 6.094 3.441 10.443 3.49 11.041 2.604 8.34 3.035 10.23 2.343 7.79 2.533 8.556 2.629 8.603 5.21 17.876 3.25 11.233 2.676 10.754-261.162-8.795 2.585-4.257 5.644-12.066 8.584-23.895 2.84-10.24 3.21-12.235 3.008-12.573 3.008-12.81 1.555-7.975 1.352-5.543 1.859-7.807 2.365-8.145 2.94-8.146 3.009-7.368-8.788-.642 2.502-18.926 2.129-16.054 4.529-38.732 1.149-15.31.135-4.292-1.284-8.89-1.386-14.836-1.386-15.75-.642-14.736-.44-9.632-.135-7.368v-10.308l.183-21.979.525-11.519 2.964.67 4.875-.43 6.835-1.865 15.2-6.261 8.91-5.155 4.26-2.636 5.491 4.495 3.076 3.008-.676-2.602-2.569-6.794-.473-1.892 2.13-1.826 1.385-2.737.101-2.94-.98-2.062-2.602-2.298-4.292-2.84-.947-5.407-1.25-7.064-1.002-14.09.311-6.667z" fill="#60a98b"/><path d="M110.125 309.51l-2.496 8.98-2.593 9.812 3.547-13.973 9.365-10.381-.484 1.704-.509 5.36-1.933 17.27-.9 10.574 1.475 24.847 1.75 16.924 2.774-1.05 17.623-8.2 13.549-6.849 13.449-7.749 18.098-11.549 10.248-6.849 23.073-15.848 14.248-9.45 9.424 3.35 12.349 5.65 3.25 1.95-2.5.95-6.05 3.8-6.549 5.749-5 5.849-3.599 6.1-3.8 7.698-2.15 6.7-2.299 10.149-.9 9.249.5 3.95-16.911 16.302-12.16 12.125-7.425 7.92-7.848 8.519-9.827 11.065-3.783-3.535-20.237-20.45-11.999-12.549-14.348-15.248-11.4-11-1.949-6.048-1.55-5.05 3.35-3.15.55-2.2-.95-4.049-3.8-2.9-3.2-2.05-2.25-12.548 3.15-3.95 3.75-5.799 1.2-2.4 2.45-9.249.7-4.674.658-1.773z" fill="#ddddad"/><path d="M235.272 314.868l6.03 2.54 6.384 2.837 6.983 3.41.294.37-7.788 4.413-7.712 6.534-6.478 8.607-4.407 8.548-2.451 7.393-2.607 11.11-.901 8.344.137 5.637-5.623 4.9-6.567 6.447-7.751 7.262-5.014 5.225-9.8 10.422-5.954 6.034-9.975 11.52-3.363 3.393c9.464-11.028 10.94-36.84 7.163-47.842-3.17-9.236-15.948-24.493-41.436-18.768l41.243-23.053 16.844-11.398 37.788-25.799z" fill="#aeae78"/><path d="M168.242 141.155l2.933 9.403s-1.747 11.617-7.898 18.298c1.12-7.504 2.12-11.846 2.384-17.944l1.128-3.04.817-7.247z" fill="#a78f87"/><path d="M153.417 167.191c4.054-1.816 10.163-2.752 14.58-3.066 3.878-.275 12.506-.169 15.837 3.38.398.423 1.173-.175.483-1.014-3.114-3.79-13.06-3.428-16.512-3.331-3.453.096-13.71 2.016-15.861 3.886-.938.816-2.208 1.794 1.473.145z" fill="#3f3d38"/><path d="M55.732 155.682l1.028 5.975 2.366 8.914 2.653 7.241 2.891 5.616 3.705 5.02-.287-1.889-2.103-7.432-1.076-8.747.12-6.978.884-6.979 2.342-9.679 2.246-5.568 3.275-6.572-1.1 4.612-1.008 5.287-.321 5.104-.186 4.039.017 4.748.44 4.394.49 4.14 1.436 5.475 2.873 8.213 1.149 2.028.76-4.952 2.079-14.6 2.653-10.697 2.01-6.607 2.234-6.285 1.22-1.983-.048 2.796-.12 6.787.67 4.899 1.17 5.043 2.008 6.476 2.366 5.401.12-1.577-1.005-5.449-.62-6.524.166-7.863.717 1.816 1.267 5.425 1.816 5.139 2.103 4.755 2.51 4.947 3.25 5.234.048-1.649-.192-7.36.168-4.541.669-6.5 1.171-6.238.687-3.46 1.96-6.353 2.096-5.509 2.602-5.847 1.15-2.028.81 1.96 1.116 2.4 1.25 2.907 1.386 4.292 2.13 7.503 1.419 6.962 1.183 7.74.405-2.569-1.284-9.564-1.555-6.929-2.433-7.368-2.974-7.672 2.061 1.86 5.273 7.164 2.737 4.935 2.13 4.866 1.993 5.543 1.319 5.273.27-2.096-1.318-6.286-2.434-6.016-2.737-5.577-3.076-4.934-2.805-3.752-1.014-1.52 2.535 1.79 3.515 3.38 3.042 3.65 3.447 5.07 2.467 4.428 2.759 6.091 2.294 5.784 1.936 5.496 1.458 5.473 1.553 7.648.55 4.158.908-2.342 2.127-10.253 1.434-11.71-.096-10.109-1.243-8.699-2.103-7.384 1.1.573 3.178 5.162 2.94 5.88 2.092 5.212 1.757 5.644 1.116 5.205 1.42 7.84.37 2.941 1.15-1.453 3.11-6.388 2.568-8.044 1.081-7.74.17-2.06.642 1.79 1.791 5.07 1.453 5.002 1.217 5.915.473-2.535-.372-6.151-.676-4.901 1.082 1.69 2.4 5.61 2.082 6.447 1.41 5.975.74 5.377.43 4.756.67-1.769 1.362-6.166 1.219-6.739.932-8.126.358-5.998-.119-8.364-.55-6.477 1.004 1.29 1.84 4.016 2.342 6.739 1.124 4.947.836 4.97.502 5.282v7.29l-.31 4.946.931-1.075 2.581-7.672.168 2.581-1.434 163.991-.359 7.958-1.004 6.812-2.055 12.044-2.246 8.89-2.772 9.512-3.06 8.269-2.772 6.453-3.441 6.5 2.246-1.769 3.394-2.82 4.493-4.923 4.11-5.018 4.876-6.93 4.397-7.935 3.25-6.93 2.151-6.405 1.338-4.637.813 1.72 1.147 5.832.621 5.449.478 6.214.096 7.026-.335 6.739 1.387-2.82 2.867-11.232 2.39-11.041 1.912-11.472 1.29-9.846.957-10.276.573-6.692.547-6.552 3.819 1.403 16.76 6.201 14.1 7.313-1.338-20.505-1.1-24.902-.716-17.685-.048-13.383.908-15.056 1.96-22.464 1.96-18.163 1.96-15.008-2.82-7.027-5.115-12.283-5.018-11.567-6.835-14.96-6.023-11.28-5.496-8.46-5.545-7.696-4.97-5.162-4.063-3.298-10.181-6.261-8.078-4.302-8.03-3.728-7.552-3.06-10.754-3.632-9.607-2.437-10.468-1.626-10.42-1.051-12.594-.287-9.463.215-5.45.574-7.742 1.505-10.062 2.773-8.245 3.465-5.735 3.154-6.995 4.029-6.658 5.002-3.177 6.185-3.583 10.071-2.027 8.788-.474 3.988-1.487 9.733-.304 8.45-.946 3.582-.338 10.613.473 7.705.575 4.732.777 5.103.811 4.225.98 2.23-.405-3.92-.778-6.455-.203-8.145z" fill="#726c5e"/><path d="M73.106 171.12l-.103 91.455.405 1.892 1.251 3.33 1.69 7.215.389 4.884-.136 4.664 1.37-2.738.76.964 1.115 2.5 2.653 4.715 1.081 3.211-.033 5.374-.17 9.058-.608 9.835-1.892 5.576-1.555 4.462-.54 3.312.607 3.886 1.758 6.084.423.052.49-.187 12.606 8.246 4.9 3.076-.202-1.758-1.656-9.26-.88-6.827-.472-7.57.135-11.627v-20.076l-.135-22.239.118-24.452-1.538-1.555-6.156-6.43-3.061-3.418-2.627-4.873-2.143-6.139-.274-4.753-.12-4.43-.216-5.443.205-6.6-.437-4.45-.24-7.6-.955-5.712-.693-3.632-.813-.909-1.577-2.915-1.84-5.114zM103.577 366.586l3.25 8.866.717 2.08-1.577-1.172-3.203-3.01-2.963-2.247-1.004-.765 2.151-1.65z" fill="#7e7768"/><path d="M81.495 341.373l-1.578-4.804-.908-5.95.43-3.872 2.127-5.568 1.076-2.748.454-5.425.478-10.3.143-9.13-.788-3.059-1.96-3.393-2.605-5.401-1.482 2.366-1.696 4.014-.646 1.984-.502 3.872-1.218 8.46-1.076 2.844-2.963 1.911-3.609 1.339-2.199-.24-3.202-3.226-8.102-8.794-3.823-3.848-.574-1.028-.215-3.226-1.147-9.511-1.028-3.872 2.08-6.022 1.17-7.433.096-3.322-.884-1.744-2.055-.645-2.653.932-1.386 1.075-1.219 2.462-3.99 12.594-.55 1.267 1.672 13.789.885 5.258-1.673-.908-.908-1.554-1.602-6.31-2.294-6.38-1.051-1.888.788-2.438.614-7.209-.338-4.833-.879-2.18-2.348-2.517-2.316-1.2-.76.186-.135.844.101 4.546-.98 1.454-4.613 6.522-2.4 2.687.102 1.555.726 14.55-.405 4.258.033 4.428v3.177l1.319 5.914 1.656 5.442 1.69 4.326 2.5 4.934 2.197 2.603 28.83 30.147 2.4-.575 8.854-3.515 8.111-3.38 4.8-2.805z" fill="#f3e1d8"/><path d="M118.989 135.171c-2.228 5.41-7.215 19.651-4.726 39.528-7.487-15.86-7.88-21.575-8.022-24.191 2.025-7.682 4.38-17.677 8.726-24.837l.955 1.379zM116.706 125.61l1.333.43 5.088 7.028c2.9 5.425 8.418 28.599 7.46 37.484-1.15-14.324-9.524-33.872-9.874-34.772-.35-.9-4.007-10.17-4.007-10.17z" fill="#a78f87"/><path d="M191.83 170.075l2.358-6.55 2.875-12.123.725-9.85-.65-12.248-2.1-8.774-4.05-7.65s-3.315-9.475-8.449-14.732c-5.478-5.61-31.647-26.351-61.465-28.74 25.975 7.597 50.024 28.77 56.3 40.465 3.501 6.526 4.977 14.047 6.538 18.445.97 2.729 1.595 3.218 2.746 5.807.317.715 1.102 2.922 1.102 2.922l2.016 6.48 1.24 5.648.823 6.518.288 7.871z" fill="#544e43"/><path d="M173.382 316.341l.748 6.08-.105 5.624-.8 6.252-.64 2.805c-1.226-5.21-8.156-20.584-18.658-19.792-5.534.417-22.98 27.499-26.293 33.592l8.612-19.123 5.247-10.265 6.678-9.272 7.647-8.548 6.69-4.943 1.064.456 3.81 2.818 3.875 6.359z" fill="#426959"/><path d="M129.046 69.16c8.499 0 18.869 1.292 18.869 1.292l15.484 2.475 15.2 4.808 15.273 6.54 11.56 6.328 9.004 5.455 4.4 4.05 5.25 5.999 3.549 4.9 5.45 8.498 5.099 9.05 5.199 11.048 4.45 9.999 8.699 20.198 3 7.749-3.25 26.247-1.7 17.498-1.8 22.797-.3 12.8.75 19.647 1.1 23.947 1.45 23.598-2.45-1.1-5.55-2.95-7.149-3.1-7.349-3-5.95-2.249-6.248-2.15.2-17.298-.3-35.996-1.342-125.66c-8.908-15.483-24.428-32.191-39.104-41.072-14.676-8.88-41.242-16.741-62.453-20.206z" fill="#544f45"/><path d="M220.206 125.358l.992 172.05-.07 9.864-.99 16.721-3.323 24.675-1.662 9.44-3.43 13.963s-.954 4.03-2.297 7.636c.664-2.949.516-12.533-.49-20.715-.924-7.511-2.688-13.79-2.688-13.79l-23.576 42.574-6.009 5.571 5.043-10.156 2.254-5.261 4.484-15.152 1.116-3.902 1.202-5.666.884-5.144 1.46-7c-.335-68.98 4.651-153.135.626-222.023-11.787-18.334-24.856-34.464-61.5-48.223l40.528 11.1 27.323 18.427z" fill="#544f45"/><path d="M177.054 393.219l3.2-2.75 6.198-6.199 7.35-9.749 5.699-9.299 4.6-10.549 2.95-9.599 1.649-7.799s.45-11.299.2-25.247c-.35 10.849-2.894 28.418-7.8 40.795-4.904 12.378-24.046 40.396-24.046 40.396z" fill="#544e43"/><path d="M87.676 239.114l4.666 5.09 3.924 3.642.177 20.362-.035 59.744.707 9.298 2.439 14.706-8.184-5.364s-1.517.986-3.747-17.181.053-90.297.053-90.297z" fill="#544f45"/><path d="M118.467 211.894s3.594 3.973 3.641 6.115c.047 2.143-3.5 4.278-3.5 4.278l-.954-2.05-1.343-1.167-.283-.955 1.343-1.237.672-2.44z" fill="#d3b7a4"/><path d="M65.864 252.48l5.245 6.592 3.52 9.101 1.654 7.37.316 7.329-.48 3.178-2.008 6.211-.756 6.147-.952 5.081-1.294 2.244-1.934 1.247-3.474 1.615.273-1.353 1.958-5.293 1.25-9.621.183-7.443-.552-8.915-1.59-6.95-2.904-6.995-3.581-5.477-4.266-4.727-7.036-5.244-10.168-2.413c.506-1.75.21-3.558-.543-5.399 1.712-2.71 3.61-5.421-.818-8.132l5.155-.089 3.5.082 2.84 1.17.932 1.59-1.94 2.332-3.012 1.79-1.847-.062.443 6.301 8.935 1.553 8.12 3.19z" fill="#444"/><path d="M44.705 256.09s-4.086 16.177-4.077 17.504c.009 1.327 2.408 16.872 2.818 18.327.41 1.454 10.522 15.429 16.265 18.2 5.743 2.771 7.876 7.056 7.937 12.734.06 5.678-1.903 6.812.554 16.726.8 1.8 3.8 7.2 3.8 7.2l5.7-2.6 3.749-2.6-1.05-2.95-1.3-5.9.05-4.699 1.55-4.8 1.95-4.399.35-3.75.55-8.798.05-12.999-.65-2.3-1.75-3.25-2.2-4.249-.55-1.7-2.1 3.7-1.45 3.4-.5 2.8-.6 5.349-1.05 5.1-.65 2.599-2.999 2.5-3.45 1.55-2.15-.35-3.099-2.5-5.35-5.8-6.349-6.999-1.55-1.7-.5-7.849-1.35-7.999-.4-1.15 1.35-3 1.9-9.448.1-3.6-.75-2.05z" fill="#a78f87"/><path d="M28.918 257.33l2.488 3.21.45 5.899-.45 6.45-.9 3.049.85 1.4 2.1 5.9 1.95 6.798.2 1.2 2.25 1.75.7 2.8 1.5 2.65 4.649 6.249 7.649 8.149c-4.9-2.95-17.477-17.188-18.698-19.009-1.22-1.82-6.317-16.325-6.525-18.05-.207-1.723 2.352-10.314 1.787-18.445z" fill="#af8c7f"/><path d="M24.609 267.148c-1.131 4.1-2.192 8.661-2.192 8.661l1.732 4.914 2.192 6.893.743 5.056-.142 1.378 1.945 2.05 1.343 1.768 16.509 20.469c-8.696-8.626-22.415-21.032-23.014-23.155-.598-2.123-2.529-19.21-2.227-21.035.302-1.825 1.467-2.563 3.111-7z" fill="#a78f87"/><path d="M22.107 300.935l11.174 16.823s-7.282-7.892-8.298-9.5c-1.016-1.609-2.876-7.323-2.876-7.323z" fill="#d3b7a4"/><path d="M81.05 341.98l-3.549 2.5-8.199 3.7-7.999 3.35-4.7 1.75-2.75-.1-1.1 6.049-1.049 15.748.05 5.85.4 2.2 1.9 1.899 3.15 1.55 5.399.15 6.05-1.65 6.948-2.3 9.05-4.1 10.898-5.999 9.2-6.849 2.399-2.55.5-2.95-.75-2.899-2.7-2.25-21.747-14.248h-.5z" fill="#ddddad"/><path d="M72.302 347.28c7.949 15.348 3.35 34.946 3.35 34.946l5.299-2.05 8.999-4.349 9.949-6.4 6.549-5.449 1.1-3.6-.75-2.849-2.3-2.05-11.448-7.799L82 340.63l-1.4 1.9-5.299 2.95z" fill="#aeae78"/><path d="M71.252 386.026l12.199 21.398 19.947 33.546 6.45 11.349 7.699 10.749 7.749 9.698 10.549 12.15 9.149 9.048 6.1 4.5 4.999 2.45 5.949.85 6.15-.9 6.699-3.2 9.754-7.52 38.462-33.23 16.191-15.342 12.656-13.363-.707 2.05-22.625 57.623-20.645 55.573-.023 3.47 3.544 6.718 5.932 9.72 16.62 34.836-176.201-.348 6.642-16.304 10.065-22.153 9.337-17.353.565-13.504-.353-20.434-1.697-30.614-1.344-15.555-1.767-11.595-1.556-3.464-7.07-9.899-6.292-12.231-2.122-6.93v-4.878l2.475-9.615 3.465-10.04z" fill="#ddddad"/><path d="M183.522 329.56l-6.353 5.866-4.179 1.834.006-.557 1.138-15.486c12.39-14.209 13.422-27.98 11.729-32.645l8.27-4.669-.164 32.145-.211 1.183-.694 1.016-4.295 5.402zM115.602 363.592l-.951-11.054-.403-9.208.1-6.15.453-6.318 1.19-10.632 2.075-15.843 1.135-1.592c-1.386 11.041-3.352 31.494-3.415 38.053-.065 6.675 1.151 24.72 2.68 33.18l-1.115 3.095-.93-6.527z" fill="#426959"/><path d="M180.979 346.325L159.59 359.54l-17.42 9.695-24.843 11.235c9.081-5.83 28.115-17.645 40.813-27.78 16.176-11.03 24.087-21.31 35.785-35.163l-.14 12.126-.473 4.686-.207 4.208zM129.173 323.88l1.295 7.087.84 9.065c-2.112-13.108-7.234-29.785-11.663-37.99l1.666-1.328 4.857 11.626z" fill="#426959"/><path style="line-height:normal;font-variant-ligatures:normal;font-variant-position:normal;font-variant-caps:normal;font-variant-numeric:normal;font-variant-alternates:normal;font-feature-settings:normal;text-indent:0;text-align:start;text-decoration-line:none;text-decoration-style:solid;text-decoration-color:#000;text-transform:none;text-orientation:mixed;white-space:normal;shape-padding:0;isolation:auto;mix-blend-mode:normal;solid-color:#000;solid-opacity:1" d="M162.335 298.412c-13.485 8.573-22.228 24.23-26.713 33.651a147.255 147.255 0 00-1.524 3.314c-1.43 3.205-9.665 19.595-17.117 42.052l.433 1.037c7.434-22.402 15.9-39.464 17.378-42.778.436-.977.942-2.086 1.519-3.297 4.437-9.32 13.11-24.722 26.25-33.178 4.424 1.695 7.908 6.935 9.738 13.927 1.854 7.079 2.034 15.853-.029 24.202l-.135.536.548-.068c1.84-.22 4.038-1.644 6.39-3.613 2.352-1.968 4.838-4.498 7.113-7.005 4.551-5.015 7.853-9.405 7.853-9.405l-.21-.983s-3.69 4.89-8.213 9.874c-2.262 2.492-4.727 5.007-7.034 6.938-2.111 1.767-4.002 2.805-5.482 3.144 1.9-8.248 1.771-16.811-.062-23.811-1.89-7.216-5.484-12.81-10.365-14.571-.106-.052-.243-.026-.338.034z" color="#000" font-weight="400" font-family="sans-serif" overflow="visible" fill="#39554a"/><path d="M114.23 307.995c-3.124 6.678-5.077 7.779-5.426 9.531-.8.25-1.6 2.925-1.6 2.925l1.675-7.824 1.75-4.55 2.575-5.999 4.424-5.95 1.187-.835 2.837 5.396-3.938 3.98z" fill="#426959"/><path d="M129.403 291.914l.339 7.062 1.079 14.021 1.29 23.77.004 3.443-.528.649-1.648-13.994-3.016-12.735-5.172-14.123-1.856-5.395-.002-2.944.697-2.898 1.43-3.424 2.069-3.783 4.669-6.936.268 4.791z" fill="#426959"/><path d="M144.574 316.035l-4.652 7.83-4.125 7.957-3.184 6.992-.345-5.962-.303-2.338-.233-4.383-.767-8.77-.218-5.633-.643-6.825-.462-8.759-.332-6.24-.236-17.914c3.193 13.93 6.559 30.756 15.5 44.045z" fill="#a78f87"/><path style="line-height:normal;font-variant-ligatures:normal;font-variant-position:normal;font-variant-caps:normal;font-variant-numeric:normal;font-variant-alternates:normal;font-feature-settings:normal;text-indent:0;text-align:start;text-decoration-line:none;text-decoration-style:solid;text-decoration-color:#000;text-transform:none;text-orientation:mixed;white-space:normal;shape-padding:0;isolation:auto;mix-blend-mode:normal;solid-color:#000;solid-opacity:1" d="M97.67 340.025c1.659-2.726 4.807-6.747 6.386-9.527.062-.11.444-.616.598-.885a3.577 3.577 0 00-.247-.916s-.819 1.09-1.045 1.484c-1.484 2.58-4.985 7.39-6.015 8.973m-26.38 46.177a197.208 197.208 0 00-4.955 12.869c-1.539 4.484-2.693 8.484-3.41 11.725-.716 3.24-1.005 5.697-.756 7.215 1.787 10.855 11.87 25.44 15.756 30.326.234.294.529.932.808 1.83.278.897.554 2.058.824 3.443.54 2.769 1.054 6.427 1.53 10.68.95 8.508 1.754 19.397 2.32 30.384.566 10.987.897 22.07.92 30.97.012 4.45-.056 8.353-.209 11.42-.153 3.065-.405 5.314-.717 6.363v.006c-5.62 9.477-27.701 53.748-33.668 78.565-4.81 20.006-13.67 70.309-30.519 102.795l.678.35c16.947-32.675 25.794-83.035 30.586-102.964 5.922-24.631 28.119-69.187 33.617-78.442l.03-.04.011-.044c.363-1.218.597-3.46.75-6.549.155-3.088.216-7.002.204-11.46-.023-8.916-.354-20.011-.92-31.01-.567-10.998-1.366-21.896-2.32-30.428-.477-4.265-.995-7.939-1.542-10.743-.273-1.401-.555-2.59-.846-3.528-.292-.939-.58-1.628-.938-2.077-3.823-4.807-13.875-19.467-15.603-29.971-.211-1.282.043-3.726.75-6.927.708-3.2 1.856-7.177 3.388-11.64a195.708 195.708 0 014.726-12.323" color="#000" font-weight="400" font-family="sans-serif" overflow="visible" fill="#8e8e62"/><path style="line-height:normal;font-variant-ligatures:normal;font-variant-position:normal;font-variant-caps:normal;font-variant-numeric:normal;font-variant-alternates:normal;font-feature-settings:normal;text-indent:0;text-align:start;text-decoration-line:none;text-decoration-style:solid;text-decoration-color:#000;text-transform:none;text-orientation:mixed;white-space:normal;shape-padding:0;isolation:auto;mix-blend-mode:normal;solid-color:#000;solid-opacity:1" d="M194.44 283.282l-.463.232c-.077.038-.125.073-.248.147l-.508.304c-.428.256-1.034.617-1.812 1.056a108.25 108.25 0 01-6.594 3.41c-5.61 2.672-13.514 5.89-22.886 8.18l-.079.023-.062.045s-8.98 6.792-13.65 13.233c-5.004 6.901-11.601 18.5-15.22 28.502l1.332-1.569c3.581-9.897 9.53-19.63 14.503-26.488 4.524-6.24 13.372-12.967 13.453-13.029 9.39-2.304 17.311-5.523 22.937-8.202a108.537 108.537 0 006.639-3.438c.784-.443 1.402-.81 1.834-1.067.075-.045.112-.07.175-.108.023.446.05.941.045 1.587-.006.887-.029 1.682-.029 1.682v.006l-.282 29.767.465-.341.381-29.41.062-1.715.092-2.292z" color="#000" font-weight="400" font-family="sans-serif" overflow="visible" fill="#39554a"/><path style="line-height:normal;font-variant-ligatures:normal;font-variant-position:normal;font-variant-caps:normal;font-variant-numeric:normal;font-variant-alternates:normal;font-feature-settings:normal;text-indent:0;text-align:start;text-decoration-line:none;text-decoration-style:solid;text-decoration-color:#000;text-transform:none;text-orientation:mixed;white-space:normal;shape-padding:0;isolation:auto;mix-blend-mode:normal;solid-color:#000;solid-opacity:1" d="M129.602 279.827l-.755-.09s-.07 4.293 0 8.745c.035 2.225.073 4.541.153 6.48.08 1.947.214 3.364.335 4.131.06.387.262 2.778.262 2.778.279.11.588 5.657.82 5.358 0 0-.419-7.618-.458-8-.108-1.06-.13-2.358-.197-4.29a345.328 345.328 0 01-.153-6.469c-.124-2.843.082-5.886-.006-8.643z" color="#000" font-weight="400" font-family="sans-serif" overflow="visible" fill="#987567"/><path d="M169.085 440.609l19.164-21.601 18.57-18.917 16.5-16.132-.823-.914.1-6.15 1.195-7.203 2.068-10.127 3.447-8.924 3.524-6.003 4.107-6.442 7.099-7.58 10.341-6.3 1.238-.345 6.307 4.233 7.029 5.53 10.276 8.697 6.94 9.068 2.036 7.536-.372 7.531-1.079 5.902-3.494 8.809-5.313 10.832-6.48 11.394-10.68 14.354-11.314 12.466-13.62 14.287-12.076 11.493-8.372 7.578-26.192 22.174-11.287 9.518-6.024 3.829-7.428 2.31-3.914.138-5.858-1.401-7.422-4.415-10.19-9.597-16.903-19.762-8.287-11.652c28.468 37.32 56.745 27.635 62.152 20.897 5.408-6.738 4.526-27.111-35.987-55.881zM230.262 312.732l-9.798 6.67.62-9.773z" fill="#426959"/><path d="M130.447 401.039l11.058 11.459 16.498 17.212 21.618 21.23c-32.643-22.794-79.752-61.324-102.297-69.106l4.458-2.002 10.873-5.71 5.78-3.854 6.067 4.59 6.987 6.847z" fill="#426959"/><path d="M243.572 448.934l-6.183 16.232-11.555 29.092-2.707 7.44-1.262 3.553-6.899 18.214-4.204 11.165-3.107 9.585.42 4.215 4.967 7.864 4.748 8.548 5.834 11.16 7.183 15.832 2.93 6.453-35.428 17.125-27.363 4.445s1.73-34.386-23.507-72.72c4.604-19.227 2.411-38.78-3.002-46.272-4.61-7.715-24.322-32.02-26.965-37.455l11.564 14.15 5.674 6.268 4.184 4.021 3.758 4.126 6.518 5.492 3.636 2.286 4.925 1.454 5.543.61 7.694-2.362 8.317-5.078 15.286-12.48 11.414-9.746 13.55-12.078 12.506-11.492 19.746-19.724z" fill="#aeae78"/><path style="line-height:normal;font-variant-ligatures:normal;font-variant-position:normal;font-variant-caps:normal;font-variant-numeric:normal;font-variant-alternates:normal;font-feature-settings:normal;text-indent:0;text-align:start;text-decoration-line:none;text-decoration-style:solid;text-decoration-color:#000;text-transform:none;text-orientation:mixed;white-space:normal;shape-padding:0;isolation:auto;mix-blend-mode:normal;solid-color:#000;solid-opacity:1" d="M251.844 427.742c-7.075 17.497-17.08 43.018-25.692 65.316-8.612 22.297-15.818 41.34-17.33 45.98-.83 2.543-2.616 6.628-.153 10.642 1.686 2.747 7.4 11.59 13.56 24.06a546.983 546.983 0 0115.378 34.007c1.402 3.413 5.588 14.06 9.873 27.33 5.877 18.192 13.157 42.127 19.076 62.16 2.96 10.016 5.583 19.058 7.514 25.917 1.93 6.86 3.18 11.588 3.376 12.792l.75-.118c-.224-1.388-1.46-6.019-3.392-12.883-1.932-6.864-4.554-15.904-7.514-25.923-5.92-20.037-13.202-43.979-19.081-62.183-4.294-13.293-8.485-23.95-9.897-27.385a547.54 547.54 0 00-15.4-34.053c-6.18-12.509-11.928-21.408-13.594-24.122-2.256-3.676-.621-7.386.232-10.003 1.48-4.546 8.703-23.647 17.314-45.942 8.61-22.294 18.72-48.152 25.793-65.642z" color="#000" font-weight="400" font-family="sans-serif" overflow="visible" fill="#8e8e62"/><path d="M81.488 465.966l1.053 15.852.816 13.63.933 18.522-.08 14.987-.373 12.657-5.087 9.129-5.15 10.27-8.165 17.815-4.968 11.219c5.225-16.879 12.511-32.692 14.909-50.897 2.839-21.555-.445-46.371-2.53-67.29-2.6-26.067-4.606-33.796-7.995-45.79l3.78 7.154 5.787 9.272 4.056 5.948 1.63 6.502z" fill="#426959"/><path d="M58.091 303.2l-7.902-8.685-2.936-3.235-2.265-16.458.637-1.332 1.357-5.112.66-3.925.482-2.927.03-3.006-.67-2.088-1.517-.898c1.19-.555 3.887-.197 4.99 1.568 1.083 1.733.547 11.914-1.785 18.538.913.71 2.5 12.092 2.196 15.607 0 0 11.402 11.63 15.458 13.49l-1.51 3.752-2.624-.678zM36.822 286.993l1.042 5.825-2.076-1.537-.73-3.01-2.698-8.443-1.907-3.76.596-2.924.665-3.689.148-6.023-.77-3.502-1.845-2.125s2.406-1.42 3.566-.515c4.42 3.448 1.978 18.419 1.978 18.419zM27.182 293.88l-.628-4.763 2.975 7.073z" fill="#444"/><path d="M107.26 376.959l-8.12-6.848 4.28-3.629z" fill="#544e43"/><path style="line-height:normal;font-variant-ligatures:normal;font-variant-position:normal;font-variant-caps:normal;font-variant-numeric:normal;font-variant-alternates:normal;font-feature-settings:normal;text-indent:0;text-align:start;text-decoration-line:none;text-decoration-style:solid;text-decoration-color:#000;text-transform:none;text-orientation:mixed;white-space:normal;shape-padding:0;isolation:auto;mix-blend-mode:normal;solid-color:#000;solid-opacity:1" d="M118.41 211.68c-.28-.014-.42.503-.4.921.112 2.438-.83 4.156-1.703 4.927-.287.253-.476.508-.57.785-.094.277-.068.566.034.801.204.47.623.753 1.005.988.683.421 1.02.927 1.232 1.586.15.464.414.845.64.766.227-.078.194-.51.088-.907-.203-.758-.627-1.52-1.56-2.094-.34-.21-.629-.467-.705-.643a.302.302 0 01-.012-.255c.036-.105.135-.262.356-.457 1.157-1.022 1.922-2.838 1.922-5.522 0-.363-.046-.881-.327-.896z" color="#000" font-weight="400" font-family="sans-serif" overflow="visible" fill="#987567"/><path d="M108.744 183.128c.147.377-.36.967-.744-.053-.512-1.365-1.752-3.107-2.283-3.598-.284-.263-.108-1.362.83-.2.711.883 1.615 2.36 2.197 3.85z" fill="#987567"/><path style="line-height:normal;font-variant-ligatures:normal;font-variant-position:normal;font-variant-caps:normal;font-variant-numeric:normal;font-variant-alternates:normal;font-feature-settings:normal;text-indent:0;text-align:start;text-decoration-line:none;text-decoration-style:solid;text-decoration-color:#000;text-transform:none;text-orientation:mixed;white-space:normal;shape-padding:0;isolation:auto;mix-blend-mode:normal;solid-color:#000;solid-opacity:1" d="M107.837 305.885s-.55.305-1.294.712c-3.42 1.872-10.165 5.783-10.165 5.783l.367.666 10.261-5.752.66-.606z" color="#000" font-weight="400" font-family="sans-serif" overflow="visible" fill="#39554a"/><path style="line-height:normal;font-variant-ligatures:normal;font-variant-position:normal;font-variant-caps:normal;font-variant-numeric:normal;font-variant-alternates:normal;font-feature-settings:normal;text-indent:0;text-align:start;text-decoration-line:none;text-decoration-style:solid;text-decoration-color:#000;text-transform:none;text-orientation:mixed;white-space:normal;shape-padding:0;isolation:auto;mix-blend-mode:normal;solid-color:#000;solid-opacity:1" d="M100.11 352.263c-2.574-11.708-3.32-21.44-3.32-26.752v-76.943l-.762-.657v77.6c0 5.282.72 14.8 3.188 26.267m4.035 15.067c1.12 3.47 2.402 7.015 3.868 10.588l1.193.873a144.752 144.752 0 01-4.41-11.948" color="#000" font-weight="400" font-family="sans-serif" overflow="visible" fill="#45433e"/><path d="M123.495 238.492l2.96 2.69-.346 1.493-1.286 1.162-1.985-.524-1.548-1.325-1.118-2.76.436-1.125 1.198-.24z" fill="#895a5a"/><path style="line-height:normal;font-variant-ligatures:normal;font-variant-position:normal;font-variant-caps:normal;font-variant-numeric:normal;font-variant-alternates:normal;font-feature-settings:normal;text-indent:0;text-align:start;text-decoration-line:none;text-decoration-style:solid;text-decoration-color:#000;text-transform:none;text-orientation:mixed;white-space:normal;shape-padding:0;isolation:auto;mix-blend-mode:normal;solid-color:#000;solid-opacity:1" d="M77.538 182.476c2.348 8.488 2.363 18.182 2.412 22.858.028 2.716.09 6.416.181 10.541.088 3.921.057 6.21.552 9.198.349 2.1 1.114 6.123 3.423 9.825 1.37 2.197 2.488 3.706 4.551 5.942 2.169 2.35 5.48 5.88 12.188 11.4 3.354 2.76 6.755 5.458 9.665 7.638 2.91 2.179 5.309 3.837 6.735 4.55 5.503 2.751 7.86 2.632 13.808 1.812 1.546-.213 4.67-1.017 8.626-2.14 3.956-1.123 8.72-2.566 13.464-4.064a538.81 538.81 0 0013.329-4.387c3.861-1.336 6.845-2.45 8.19-3.105 2.64-1.284 6.131-3.593 9.05-5.86 1.46-1.133 2.772-2.254 3.766-3.234.994-.981 1.562-1.803 1.863-2.484.42-.951.044-1.597-.74-.192-.17.304-.699 1.18-1.66 2.128-.96.948-2.26 2.059-3.703 3.179-2.884 2.24-6.357 4.538-8.908 5.78-1.249.608-4.254 1.733-8.107 3.066a537.424 537.424 0 01-13.306 4.38c-4.738 1.497-9.501 2.94-13.447 4.06-3.945 1.12-7.094 1.914-8.519 2.11-5.933.82-7.946.973-13.368-1.738-1.305-.653-3.72-2.307-6.616-4.477-2.896-2.17-6.29-4.856-9.636-7.61-6.693-5.507-10.204-9.29-12.231-11.456-1.822-1.945-3.33-3.925-4.647-6.264-2.299-4.084-2.757-7.359-2.992-8.805-.723-4.443-.452-5.253-.608-9.233a308.79 308.79 0 01-.207-10.454c-.018-5.455.044-15.324-2.636-24.156z" color="#000" font-weight="400" font-family="sans-serif" overflow="visible" fill="#987567"/><path style="line-height:normal;font-variant-ligatures:normal;font-variant-position:normal;font-variant-caps:normal;font-variant-numeric:normal;font-variant-alternates:normal;font-feature-settings:normal;text-indent:0;text-align:start;text-decoration-line:none;text-decoration-style:solid;text-decoration-color:#000;text-transform:none;text-orientation:mixed;white-space:normal;shape-padding:0;isolation:auto;mix-blend-mode:normal;solid-color:#000;solid-opacity:1" d="M117.582 304.048s-2.398 18.24-3.415 29.53c-.653 7.247.08 18.997.97 28.96a518.9 518.9 0 001.948 18.133l.062.491.458-.186s32.457-13.318 61.86-33.03c4.807-3.222 9.494-6.386 13.956-9.417l-.43-.632c-4.46 3.03-9.144 6.195-13.949 9.416-28.974 19.425-60.506 32.428-61.257 32.737-.057-.45-1.02-7.917-1.885-17.58-.89-9.946-1.613-21.702-.971-28.824 1.014-11.256 3.434-29.852 3.434-29.852zm112.691 8.58c-1.376.783-5.001 3.224-10.291 6.831l.429.632c5.288-3.605 8.958-6.067 10.24-6.796z" color="#000" font-weight="400" font-family="sans-serif" overflow="visible" fill="#8e8e62"/><path style="line-height:normal;font-variant-ligatures:normal;font-variant-position:normal;font-variant-caps:normal;font-variant-numeric:normal;font-variant-alternates:normal;font-feature-settings:normal;text-indent:0;text-align:start;text-decoration-line:none;text-decoration-style:solid;text-decoration-color:#000;text-transform:none;text-orientation:mixed;white-space:normal;shape-padding:0;isolation:auto;mix-blend-mode:normal;solid-color:#000;solid-opacity:1" d="M121.568 68.786c-6.788 0-19.719 1.657-30.671 5.99-6.625 2.62-12.643 5.959-17.128 8.744-4.485 2.785-7.405 4.99-7.937 5.43-.307.254-.608.686-1 1.333a32.366 32.366 0 00-1.349 2.529c-1.001 2.06-2.181 4.834-3.347 8.084-2.333 6.5-4.909 17.89-5.589 26.252l1.061-2.926c.672-8.265 2.935-16.614 5.25-23.066 1.158-3.226 2.328-5.98 3.314-8.01a31.715 31.715 0 011.315-2.468c.374-.618.697-1.03.83-1.14.43-.356 3.395-2.601 7.853-5.369 4.457-2.768 10.444-6.086 17.009-8.682 10.823-4.281 23.727-5.934 30.389-5.934 7.171 0 26.542-.448 45.828 4.906 20.799 5.774 41.103 17.73 47.63 22.66 5.862 4.428 17.005 18.827 25.979 38.281a934.147 934.147 0 0112.092 27.391 479.322 479.322 0 014.014 9.766c1.001 2.537 1.64 4.306 1.83 5.013-1.507 9.362-6.208 54.038-6.617 70.646-.523 21.223 2.095 56.349 3.041 76.008l.696.367c-.947-19.681-3.496-55.212-2.975-76.353.407-16.523 5.146-61.531 6.622-70.656l.011-.08-.023-.073c-.211-.807-.86-2.578-1.874-5.148a476.426 476.426 0 00-4.02-9.79 935.031 935.031 0 00-12.103-27.413c-9.014-19.541-20.089-33.944-26.21-38.568-6.66-5.03-26.953-16.972-47.89-22.785-19.423-5.392-38.892-4.94-46.032-4.94z" color="#000" font-weight="400" font-family="sans-serif" overflow="visible" fill="#45433d"/><path style="line-height:normal;font-variant-ligatures:normal;font-variant-position:normal;font-variant-caps:normal;font-variant-numeric:normal;font-variant-alternates:normal;font-feature-settings:normal;text-indent:0;text-align:start;text-decoration-line:none;text-decoration-style:solid;text-decoration-color:#000;text-transform:none;text-orientation:mixed;white-space:normal;shape-padding:0;isolation:auto;mix-blend-mode:normal;solid-color:#000;solid-opacity:1" d="M254.843 323.75c-16.786 7.527-25.115 22.47-29.093 35.586-2.011 6.631-2.92 12.804-3.246 17.342-.164 2.269-.184 4.13-.124 5.442.03.656.082 1.17.146 1.547.033.188.065.342.113.474a.76.76 0 00.102.192.446.446 0 00.282.203l.17-.75c.122.025.163.096.174.112.012.018 0 .006-.011-.023a2.248 2.248 0 01-.079-.338c-.056-.323-.1-.821-.13-1.457-.058-1.272-.043-3.108.119-5.352.323-4.486 1.22-10.606 3.212-17.173 3.983-13.132 12.327-28.022 29.231-35.35z" color="#000" font-weight="400" font-family="sans-serif" overflow="visible" fill="#8e8e62"/><path style="line-height:normal;font-variant-ligatures:normal;font-variant-position:normal;font-variant-caps:normal;font-variant-numeric:normal;font-variant-alternates:normal;font-feature-settings:normal;text-indent:0;text-align:start;text-decoration-line:none;text-decoration-style:solid;text-decoration-color:#000;text-transform:none;text-orientation:mixed;white-space:normal;shape-padding:0;isolation:auto;mix-blend-mode:normal;solid-color:#000;solid-opacity:1" d="M221.122 309.241l-.237.728c24.138 7.866 36.084 14.84 43.142 20.284 3.546 2.735 7.362 5.757 10.607 8.53 3.245 2.773 5.926 5.312 7.164 7.006 1.277 1.747 5.095 5.738 5.832 11.584.408 3.242.146 7.075-.294 10.28-.44 3.205-1.074 5.83-1.327 6.503-.597 1.59-6.328 15.757-14.666 29.102-8.354 13.371-29.89 36.296-45.733 50.853-3.613 3.32-14.363 12.667-24.72 21.56a2329.74 2329.74 0 01-14.311 12.193c-4.047 3.416-7.074 5.928-8.084 6.678-1.76 1.307-7.2 5.547-13.803 6.566-4.967.766-10.51-.555-15.553-4.336-11.788-8.841-34.25-35.575-43.322-52.162-4.74-8.668-12.088-20.683-18.906-32.003-6.817-11.321-13.396-22.597-15.975-28.426l-.7.31c2.626 5.934 9.195 17.187 16.015 28.51 6.82 11.324 14.171 23.339 18.895 31.976 9.16 16.749 31.53 43.401 43.536 52.405 5.189 3.891 10.945 5.282 16.129 4.482 6.855-1.057 12.416-5.43 14.141-6.712 1.076-.799 4.074-3.283 8.124-6.701a2343.17 2343.17 0 0014.31-12.2c10.36-8.894 21.1-18.228 24.744-21.576 15.882-14.593 37.404-37.472 45.862-51.01 8.383-13.418 14.098-27.543 14.734-29.238.326-.865.927-3.427 1.372-6.672.446-3.246.716-7.122.294-10.478-.773-6.13-4.805-10.342-5.973-11.94-1.33-1.82-4.027-4.349-7.288-7.135-3.261-2.787-7.084-5.813-10.636-8.553-7.138-5.506-19.18-12.524-43.373-20.408z" color="#000" font-weight="400" font-family="sans-serif" overflow="visible" fill="#39554a"/><path style="line-height:normal;font-variant-ligatures:normal;font-variant-position:normal;font-variant-caps:normal;font-variant-numeric:normal;font-variant-alternates:normal;font-feature-settings:normal;text-indent:0;text-align:start;text-decoration-line:none;text-decoration-style:solid;text-decoration-color:#000;text-transform:none;text-orientation:mixed;white-space:normal;shape-padding:0;isolation:auto;mix-blend-mode:normal;solid-color:#000;solid-opacity:1" d="M220.236 131.691c-.25-4.975-.775-2.307-.768.006 0 0 1.316 129 1.355 167.095.026 24.775-4.392 58.3-11.102 78.966.955-13.514-1.21-26.698-2.582-30.817l-.274-.994c.983-3.78 1.807-6.468 1.736-9.693-.009-.354-.166-1.614-.416-1.61-.252.007-.355 1.196-.346 1.628.07 3.191-1.025 6.696-2.035 10.508-1.797 6.78-4.531 14.326-8.572 21.337-5.9 10.234-13.23 19.338-19.878 24.342 9.982-17.132 16.925-49.465 16.925-64.875 0-20.915 1.35-165.605 1.35-165.605 0-.597.037-3.974.037-3.974s-.8 3.453-.8 3.968c0 0-1.355 144.663-1.355 165.61 0 15.664-7.418 49.859-17.816 66.186-.111.174-.739 1.041-.608 1.124.132.082.933-.456 1.144-.6 7.144-4.831 15.306-14.768 21.661-25.792 4.026-6.984 6.757-14.13 8.586-20.944 1.407 4.42 3.744 18.657 2.332 32.86-.012.126-.023 1.114.13 1.152.175.042.621-1.04.633-1.072 7.213-20.537 12.039-55.911 12.013-81.71-.038-38.111-1.35-167.095-1.35-167.095z" color="#000" font-weight="400" font-family="sans-serif" overflow="visible" fill="#403d39"/><path d="M55.082 156.392l-2.015-7.106.53-9.191.389-.354.884 9.262.53 6.151z" fill="#544f45"/><path d="M57.781 112.644c-4.633 13.296-4.802 29.29-2.455 43.542 2.334 14.177 7.196 26.672 13.244 33.172.422.454.976.402.722-.255-10.399-26.967 1.116-51.309 12.38-66.823.287-.395 5.83-7.31 5.531-7.565-.298-.254-5.771 6.607-6.151 7.113-7.857 10.46-15.61 25.683-16.457 42.841-.357 7.23.809 15.21 3.364 22.936-3.421-4.795-4.717-7.747-6.519-11.956-2.406-5.62-4.154-12.277-5.358-19.587-2.33-14.153-1.885-29.952 2.428-43.17 1.268-3.888 3.191-8.926 3.024-8.99-.145-.056-2.638 5.545-3.753 8.742z" style="line-height:normal;font-variant-ligatures:normal;font-variant-position:normal;font-variant-caps:normal;font-variant-numeric:normal;font-variant-alternates:normal;font-feature-settings:normal;text-indent:0;text-align:start;text-decoration-line:none;text-decoration-style:solid;text-decoration-color:#000;text-transform:none;text-orientation:mixed;white-space:normal;shape-padding:0;isolation:auto;mix-blend-mode:normal;solid-color:#000;solid-opacity:1" color="#000" font-weight="400" font-family="sans-serif" overflow="visible" fill="#45433e"/><path d="M115.31 125.519l1.5-2.646 2.638 2.81 3.575 4.541 3.636 5.983 3.002 6.76c-2.594-5.739-6.965-11.708-8.805-13.975-1.56-1.922-3.701-3.573-3.701-3.573l3.85 11.416 2.06 8.493c-2.9-9.915-5.71-15.407-5.71-15.407z" fill="#544f45"/><path d="M104.848 174.75l-.125-9.475.6-8.524 1-5.524 1.575-7.924 2.05-6.25 5.399-12.173 1.45-2.4 4.48 3.376 5.925 5.98c-7.388-8.086-8.265-15.543-3.006-21.655 0 0-15.873 6.198-21.223 23.898s-.458 33.176 1.875 40.67zM145.044 177.399l1.85-7.4 2.25-14.848.15-9.599-.75-8.149-2.958-10.892 4.223 5.876c-.515-1.524-3.451-12.798-8.692-19.729-6.68-8.833-12.246-13.22-19.17-17.3 7.63 9.35 10.447 15.58 13.898 22.346 2.97 5.825 5.83 12.684 7.149 18.05 2.85 11.598 5.221 23.476 1.7 41.495zM159.742 165.35l3.6-6.2 2.6-7.948 1.35-6.65.084-8.856 6.11 9.93c-.629-6.58-5.204-19.33-8.392-24.56-4.148-6.805-9.306-11.587-14.922-15.514 0 0 4.85 8.16 8.041 15.47 1.925 4.41 3.696 10.252 4.08 14.581.89 9.9-.032 19.599-2.55 29.747z" fill="#544f45"/><path d="M173.05 156.922c.124-3.482.124-6.734.124-6.734l-1.185-6.876-2.263-3.754-2.358-3.288s-.106 1.555.223 3.045c.14.632.647 1.423.812 1.933.482-.095.537-.093 1.155-.518 1.451 4.16 3.48 10.916 3.492 16.192zM180.403 173.466c.919-3.181 1.59-5.408 1.59-5.408l1.768-9.121 1.202-12.302v-9.651l-1.414-10.818-1.52-6.292-3.182-7.636-2.867-4.615s-4.789-6.112-10.357-10.443c7.451 11.543 9.406 17.815 13.012 31.602 3.606 13.787 3.783 34.079 1.768 44.684zM92.6 130.279s-1.956.62-2.23 3.349c-.106 1.052.331 7.43.264 7.77-.236 1.193-.138 3.763.116 8.554.4 7.549 4.024 19.523 4.024 19.523l-.725-5.8-.95-7.649.25-8.674-.15-3.275z" fill="#544f45"/><path d="M93.741 120.216c-4.321 4.438-11.69 14.687-14.64 26.336-2.95 11.649-2.85 31.547-1.65 35.696l.9-4.45 1.1-9.498 2.75-12.549 2.05-7.549 2.2-5.9 2.799-6.599 3.6-6.399.3-4.7z" fill="#544f45"/><path d="M68.902 188.648l-1.8-5.25-1.05-5.1-.8-5.149-.35-7.699.6-6.95 2-8.798 2.45-7.25 3.85-8.398 5.999-10.1 9.099-11.248 4.6-5.8C76 118.357 71.051 124.906 66.651 132.855c-3.372 6.092-11.348 24.247 2.25 55.794z" fill="#544f45"/><path d="M190.047 110.93c-.16.067 1.834 3.444 3.295 6.896.083.196 2.597 5.07 3.641 14.26.988 8.7.545 21.158-4.85 36.33 1.315-19.778-4.084-32.667-7.865-39.536l-.286 1.027c3.95 7.096 9.218 19.749 7.198 41.11 0 0-.047.648.215.688.26.04.524-.514.524-.514 6.348-16.474 6.883-29.894 5.826-39.195-1.056-9.302-3.656-14.384-3.72-14.514-1.513-3.087-3.817-6.618-3.978-6.552z" style="line-height:normal;font-variant-ligatures:normal;font-variant-position:normal;font-variant-caps:normal;font-variant-numeric:normal;font-variant-alternates:normal;font-feature-settings:normal;text-indent:0;text-align:start;text-decoration-line:none;text-decoration-style:solid;text-decoration-color:#000;text-transform:none;text-orientation:mixed;white-space:normal;shape-padding:0;isolation:auto;mix-blend-mode:normal;solid-color:#000;solid-opacity:1" color="#000" font-weight="400" font-family="sans-serif" overflow="visible" fill="#403d39"/><path d="M169.77 100.873c-.14.185 3.726 4.736 3.87 4.906 3.46 4.083 7.534 10.026 9.659 21.503 2.04 11.018 2.068 26.369-2.704 44.883-.856-15.224-7.056-28.898-12.871-36.59-.32-.422-.931.042-.61.463 6.047 7.936 12.572 22.085 12.86 38.111.006.262.006.916.257.957.226.037.314-.206.494-.86 5.42-19.701 5.478-35.503 3.33-47.105-2.148-11.602-5.873-17.508-9.919-21.943-.2-.22-4.199-4.543-4.365-4.325zM53.867 136.529c-1.175 4.024-1.448 11.753-.867 19.47.202 2.687.623 5.433.975 8.142.563 4.323 1.164 8.614 2.723 12.402.346.842.938.813.728-.22-2.22-10.894-1.77-21.276-1.756-21.531l-.826-2.275c-.009.172.035 6.28.336 11.26.147 2.445.579 6.285 1.179 10.06-1.314-4.21-2.391-14.957-2.597-17.888-.54-7.672-.317-15.152.796-18.946-.173-.543-.393-.851-.69-.474zM92.596 128.79s-3.093 4.17-6.537 13.029c-3.337 8.583-7.09 21.916-8.685 39.889-8.5-17.444-6.367-38.662-2.617-48.662.18-.478-.41-.69-.59-.212-3.938 10.502-6.257 32.553 3.17 50.512.655 1.056.617.27.717-.147 1.499-18.81 5.298-32.312 8.716-41.104 3.418-8.79 6.315-12.865 6.315-12.865-.063-.72-.132-.417-.489-.44z" style="line-height:normal;font-variant-ligatures:normal;font-variant-position:normal;font-variant-caps:normal;font-variant-numeric:normal;font-variant-alternates:normal;font-feature-settings:normal;text-indent:0;text-align:start;text-decoration-line:none;text-decoration-style:solid;text-decoration-color:#000;text-transform:none;text-orientation:mixed;white-space:normal;shape-padding:0;isolation:auto;mix-blend-mode:normal;solid-color:#000;solid-opacity:1" color="#000" font-weight="400" font-family="sans-serif" overflow="visible" fill="#45433e"/><path d="M99.113 99.12c-.15-.04-2.995 9.372-3.034 9.521-7.73 29.701-3.673 46.95 8.445 66.53.462.608.625.312.706-.231-2.38-30.527 11.821-52.061 11.821-52.061.306-.43-.456-.872-.733-.424 0 0-6.205 9.376-9.727 24.487-1.766 7.574-2.656 17.135-2.057 27.133-11.45-18.953-15.447-36.367-7.71-65.242.99-3.695 2.662-9.618 2.289-9.714z" style="line-height:normal;font-variant-ligatures:normal;font-variant-position:normal;font-variant-caps:normal;font-variant-numeric:normal;font-variant-alternates:normal;font-feature-settings:normal;text-indent:0;text-align:start;text-decoration-line:none;text-decoration-style:solid;text-decoration-color:#000;text-transform:none;text-orientation:mixed;white-space:normal;shape-padding:0;isolation:auto;mix-blend-mode:normal;solid-color:#000;solid-opacity:1" color="#000" font-weight="400" font-family="sans-serif" overflow="visible" fill="#45433e"/><path d="M136.889 111.899c11.649 15.754 15.533 34.14 8.027 64.068-3.549-24.672-15.167-46.315-27.994-53.63-.445-.252-.823.414-.379.666 12.763 7.28 24.628 29.662 27.9 54.957.078.606.461 1.127.75.045 8.332-31.227 4.628-50.597-7.694-66.57-.33-.427-4.562-5.262-4.761-5.193-.173.06 3.618 4.936 4.15 5.657z" style="line-height:normal;font-variant-ligatures:normal;font-variant-position:normal;font-variant-caps:normal;font-variant-numeric:normal;font-variant-alternates:normal;font-feature-settings:normal;text-indent:0;text-align:start;text-decoration-line:none;text-decoration-style:solid;text-decoration-color:#000;text-transform:none;text-orientation:mixed;white-space:normal;shape-padding:0;isolation:auto;mix-blend-mode:normal;solid-color:#000;solid-opacity:1" color="#000" font-weight="400" font-family="sans-serif" overflow="visible" fill="#45433e"/><path d="M160.198 117.697c-.247.142 2.188 4.206 3.117 5.933 3.866 7.193 4.392 15.435 3.195 23.004-1.127 7.12-3.822 13.474-6.633 17.913-2.339-19.919-8.284-31.23-14.554-39.495-.309-.41-.924.053-.615.463 6.343 8.362 12.367 19.665 14.604 40.268.098.9.419.587.7.175 3.095-4.536 6.038-11.517 7.254-19.205 1.217-7.688.68-16.096-3.274-23.484-1.017-1.901-3.655-5.652-3.794-5.572zM88.568 136.23c-1.944 11.761.839 22.667 6.478 34.888.646 1.102.86.446.74-.192-3.244-12.518-2.407-22.217-2.15-24.427-.229-.321-.392-.573-.696-.593 0 0-1.287 9.437 1.285 21.62-4.379-10.686-6.778-20.86-5.056-31.28-.37-.732-.296-.22-.6-.016z" style="line-height:normal;font-variant-ligatures:normal;font-variant-position:normal;font-variant-caps:normal;font-variant-numeric:normal;font-variant-alternates:normal;font-feature-settings:normal;text-indent:0;text-align:start;text-decoration-line:none;text-decoration-style:solid;text-decoration-color:#000;text-transform:none;text-orientation:mixed;white-space:normal;shape-padding:0;isolation:auto;mix-blend-mode:normal;solid-color:#000;solid-opacity:1" color="#000" font-weight="400" font-family="sans-serif" overflow="visible" fill="#45433e"/><path d="M167.515 139.245a.383.383 0 00-.288.547s4.91 10.778 5.272 19.126c.03.66.19 1.414.323 1.354.154-.07.298-.425.44-1.416 1.279-8.931-1.474-16.838-1.474-16.838-.129-.533-.757-.308-.555.201 0 0 1.85 6.454 1.678 13.426-1.267-7.677-5.103-16.36-5.103-16.36-.07-.158-.122-.066-.293-.04zM116.109 124.025c-.286-.057-.449.35-.288.593.553.869 1.546 2.996 2.642 5.876 1.096 2.88 2.309 6.532 3.364 10.534 1.199 4.545 2.338 11.687 2.726 16.508-.54-4.303-1.68-10.872-2.72-14.95-1.92-7.526-4.377-14.048-6.323-17.398-.256-.444-.922-.06-.666.384 1.869 3.216 4.337 9.73 6.244 17.206 1.907 7.478 3.262 15.937 2.975 23.095-.006 1.528.583.684.762-.04 1.332-7.568-.143-16.975-2.258-24.997a107.54 107.54 0 00-3.393-10.613c-1.105-2.906-2.08-5.028-2.71-6.018-.075-.122-.215-.152-.355-.18z" style="line-height:normal;font-variant-ligatures:normal;font-variant-position:normal;font-variant-caps:normal;font-variant-numeric:normal;font-variant-alternates:normal;font-feature-settings:normal;text-indent:0;text-align:start;text-decoration-line:none;text-decoration-style:solid;text-decoration-color:#000;text-transform:none;text-orientation:mixed;white-space:normal;shape-padding:0;isolation:auto;mix-blend-mode:normal;solid-color:#000;solid-opacity:1" color="#000" font-weight="400" font-family="sans-serif" overflow="visible" fill="#45433e"/><path d="M116.735 122.28c.344.169-.543.486-.225.7 1.083.757 2.733 2.508 4.516 4.895 1.783 2.386 3.718 5.417 5.476 8.761 2.328 4.43 4.867 10.666 5.654 16.243-1.483-6.276-4.154-12.599-6.524-16.79-3.417-6.046-7.097-10.43-9.264-11.985-.414-.301-.865.32-.451.62 1.937 1.391 5.67 5.766 9.05 11.743 3.378 5.977 6.417 13.576 7.259 21.492.132 1.243.6 1.463.745-.164.61-6.828-2.264-14.802-5.792-21.514-1.777-3.381-3.735-6.442-5.544-8.864-1.81-2.421-3.452-4.202-4.686-5.063-.062-.046-.283-.108-.214-.074zM72.657 169.684v92.652l.762 2.211v-93.14z" style="line-height:normal;font-variant-ligatures:normal;font-variant-position:normal;font-variant-caps:normal;font-variant-numeric:normal;font-variant-alternates:normal;font-feature-settings:normal;text-indent:0;text-align:start;text-decoration-line:none;text-decoration-style:solid;text-decoration-color:#000;text-transform:none;text-orientation:mixed;white-space:normal;shape-padding:0;isolation:auto;mix-blend-mode:normal;solid-color:#000;solid-opacity:1" color="#000" font-weight="400" font-family="sans-serif" overflow="visible" fill="#45433e"/><path style="line-height:normal;font-variant-ligatures:normal;font-variant-position:normal;font-variant-caps:normal;font-variant-numeric:normal;font-variant-alternates:normal;font-feature-settings:normal;text-indent:0;text-align:start;text-decoration-line:none;text-decoration-style:solid;text-decoration-color:#000;text-transform:none;text-orientation:mixed;white-space:normal;shape-padding:0;isolation:auto;mix-blend-mode:normal;solid-color:#000;solid-opacity:1" d="M39.7 243.965l.09.762c12.29-1.41 23.85 3.153 29.818 12.798 4.462 7.209 7.613 18.224 6.464 27.803l.757-.316c1.177-9.81-2.012-20.52-6.572-27.888-6.144-9.929-18.028-14.598-30.558-13.16z" color="#000" font-weight="400" font-family="sans-serif" overflow="visible" fill="#333"/><path d="M126.125 242.584l-1.286 1.162-1.765-.043-1.408-1.505c1.775-.406 3.712-.636 4.65-.516z" fill="#be8888"/><path style="line-height:normal;font-variant-ligatures:normal;font-variant-position:normal;font-variant-caps:normal;font-variant-numeric:normal;font-variant-alternates:normal;font-feature-settings:normal;text-indent:0;text-align:start;text-decoration-line:none;text-decoration-style:solid;text-decoration-color:#000;text-transform:none;text-orientation:mixed;white-space:normal;shape-padding:0;isolation:auto;mix-blend-mode:normal;solid-color:#000;solid-opacity:1" d="M122.128 237.438c-.674-.174-1.384-.135-1.863.344-.451.451-.581 1.083-.52 1.71.063.627.305 1.279.644 1.897.678 1.237 1.705 2.351 2.733 2.721 1.937.698 3.74-.802 3.618-2.518-.038-.537-.382-1.045-.847-1.586a9.641 9.641 0 00-1.733-1.552c-.658-.463-1.358-.842-2.032-1.016zm-.192.74a6.79 6.79 0 011.784.902 8.972 8.972 0 011.592 1.429c.415.483.653.96.666 1.14.083 1.152-1.12 2.276-2.597 1.744-.68-.244-1.72-1.27-2.326-2.376-.303-.553-.505-1.125-.553-1.604-.047-.478.012-.876.305-1.09.43-.31.754-.264 1.13-.146z" color="#000" font-weight="400" font-family="sans-serif" overflow="visible" fill="#987567"/><path style="line-height:normal;font-variant-ligatures:normal;font-variant-position:normal;font-variant-caps:normal;font-variant-numeric:normal;font-variant-alternates:normal;font-feature-settings:normal;text-indent:0;text-align:start;text-decoration-line:none;text-decoration-style:solid;text-decoration-color:#000;text-transform:none;text-orientation:mixed;white-space:normal;shape-padding:0;isolation:auto;mix-blend-mode:normal;solid-color:#000;solid-opacity:1" d="M126.387 277.281c-1.051 1.5-2.274 3.24-3.416 5.132-2.339 3.876-4.325 8.342-3.472 12.476l.012.056.029.045s1.408 2.888 2.26 4.772c.488 1.079.757 1.754 1.269 2.995 3.282 7.95 9.063 22.16 9.036 37.574l.604-.715c.038-21.152-12.377-44.73-12.459-44.886-.78-3.79 1.075-8.11 3.376-11.923 1.151-1.907 2.404-3.684 3.472-5.21 1.036-1.48 1.771-2.659 2.207-3.6l-.463-.56z" color="#000" font-weight="400" font-family="sans-serif" overflow="visible" fill="#39554a"/><path d="M128.842 273.437s-10.816 11.134-14.949 18.635c-5.234 9.5-11.946 24.787-9.275 37.885.009.046.267.719.428.69.195-.033.329-.572.329-.572 1.61-10.207 3.8-18.03 6.181-23.704 2.283-5.441 4.742-8.793 6.978-10.472.702.85 1.789 2.728 3.048 5.594 1.342 3.054 2.846 7.012 4.251 11.415 2.811 8.807 5.311 20.42 5.311 29.225l.684-1.004c0-8.944-2.44-19.597-5.267-28.452a114.779 114.779 0 00-3.726-10.03s-.856-2.21-1.42-3.353c-1.298-2.627-1.964-3.5-2.519-4.287l-.226-.237-.27.187c-2.52 1.737-5.135 5.364-7.548 11.115-2.147 5.116-4.061 12.216-5.612 20.871-1.222-12.104 4.502-25.744 9.326-34.498 2.993-5.432 8.569-11.648 11.821-15.164l2.61-3.168z" style="line-height:normal;font-variant-ligatures:normal;font-variant-position:normal;font-variant-caps:normal;font-variant-numeric:normal;font-variant-alternates:normal;font-feature-settings:normal;text-indent:0;text-align:start;text-decoration-line:none;text-decoration-style:solid;text-decoration-color:#000;text-transform:none;text-orientation:mixed;white-space:normal;shape-padding:0;isolation:auto;mix-blend-mode:normal;solid-color:#000;solid-opacity:1" color="#000" font-weight="400" font-family="sans-serif" overflow="visible" fill="#39554a"/><path style="line-height:normal;font-variant-ligatures:normal;font-variant-position:normal;font-variant-caps:normal;font-variant-numeric:normal;font-variant-alternates:normal;font-feature-settings:normal;text-indent:0;text-align:start;text-decoration-line:none;text-decoration-style:solid;text-decoration-color:#000;text-transform:none;text-orientation:mixed;white-space:normal;shape-padding:0;isolation:auto;mix-blend-mode:normal;solid-color:#000;solid-opacity:1" d="M128.404 266.15l-.72.24c.571 1.66.877 5.05 1.016 7.976.139 2.927.146 5.43.146 5.43l.78 1.354s-.02-3.868-.159-6.817c-.14-2.95-.418-6.31-1.063-8.182z" color="#000" font-weight="400" font-family="sans-serif" overflow="visible" fill="#987567"/><path style="line-height:normal;font-variant-ligatures:normal;font-variant-position:normal;font-variant-caps:normal;font-variant-numeric:normal;font-variant-alternates:normal;font-feature-settings:normal;text-indent:0;text-align:start;text-decoration-line:none;text-decoration-style:solid;text-decoration-color:#000;text-transform:none;text-orientation:mixed;white-space:normal;shape-padding:0;isolation:auto;mix-blend-mode:normal;solid-color:#000;solid-opacity:1" d="M230.5 378.092c-11.03 8.05-16.782 14.449-26.584 24.127-20.011 19.758-35.182 37.773-35.182 37.773l.587.497s15.148-17.992 35.13-37.722c9.798-9.673 15.588-15.988 26.501-24.06 1.564-1.156 8.072-6.34 8.072-6.34s-7.063 4.659-8.523 5.725z" color="#000" font-weight="400" font-family="sans-serif" overflow="visible" fill="#39554a"/><path style="line-height:normal;font-variant-ligatures:normal;font-variant-position:normal;font-variant-caps:normal;font-variant-numeric:normal;font-variant-alternates:normal;font-feature-settings:normal;text-indent:0;text-align:start;text-decoration-line:none;text-decoration-style:solid;text-decoration-color:#000;text-transform:none;text-orientation:mixed;white-space:normal;shape-padding:0;isolation:auto;mix-blend-mode:normal;solid-color:#000;solid-opacity:1" d="M99.01 369.99l-.441.627c4.404 3.103 11.76 10.112 18.844 17.263 7.084 7.152 13.915 14.458 17.359 18.206 6.932 7.544 38.356 39.146 38.356 39.146.387.388 6.814 6.204 6.89 6.112.075-.091-5.96-6.265-6.348-6.654 0 0-31.476-31.66-38.333-39.123-3.45-3.755-10.288-11.067-17.382-18.229-7.094-7.162-14.428-14.164-18.946-17.348zM55.552 385.758S51.836 442.6 60.079 501.57c-.134 9.877-2.733 33.147-5.3 53.912-2.569 20.765-5.104 39.049-5.104 39.049l.756.107s2.535-18.288 5.104-39.06c2.569-20.772 5.176-44.008 5.312-54.003v-.029l-.006-.028c-8.24-58.893-4.522-115.71-4.522-115.71z" color="#000" font-weight="400" font-family="sans-serif" overflow="visible" fill="#39554a"/><path d="M54.3 352.82l.103-.91.87 1.176z" fill="#ddddad"/><path style="line-height:normal;font-variant-ligatures:normal;font-variant-position:normal;font-variant-caps:normal;font-variant-numeric:normal;font-variant-alternates:normal;font-feature-settings:normal;text-indent:0;text-align:start;text-decoration-line:none;text-decoration-style:solid;text-decoration-color:#000;text-transform:none;text-orientation:mixed;white-space:normal;shape-padding:0;isolation:auto;mix-blend-mode:normal;solid-color:#000;solid-opacity:1" d="M42.105 244.14a23.58 23.58 0 00-5.973.045c-7.399.978-13.813 6.835-17.495 12.56-3.72 5.785-5.428 16.078-5.171 27.567.129 5.755.99 10.984 2.094 15.072 1.105 4.089 2.413 7.013 3.63 8.282l.554-.53c-.984-1.026-2.356-3.929-3.444-7.955s-1.939-9.196-2.066-14.886c-.256-11.402 1.494-21.608 5.047-27.132 3.59-5.583 9.893-11.288 16.952-12.222 7.121-.941 16.846.805 26.087 14.531 4.59 6.819 6.571 16.088 6.752 25.122.181 9.034-1.436 17.832-3.946 23.676l.7.305c2.573-5.99 4.191-14.864 4.008-23.998-.183-9.135-2.163-18.534-6.876-25.534-7.023-10.432-14.472-14.12-20.853-14.903z" color="#000" font-weight="400" font-family="sans-serif" overflow="visible" fill="#333"/><path style="line-height:normal;font-variant-ligatures:normal;font-variant-position:normal;font-variant-caps:normal;font-variant-numeric:normal;font-variant-alternates:normal;font-feature-settings:normal;text-indent:0;text-align:start;text-decoration-line:none;text-decoration-style:solid;text-decoration-color:#000;text-transform:none;text-orientation:mixed;white-space:normal;shape-padding:0;isolation:auto;mix-blend-mode:normal;solid-color:#000;solid-opacity:1" d="M25.423 285.91s.328 1.547.643 3.341c.315 1.795.615 3.847.585 4.766 0 0-.006.126.017.187.026.067.124.16.124.16 1.953 1.856 1.919 2.287 2.954 3.519l.587-.497c-.94-1.118-1.13-1.732-2.947-3.489.012-1.13-.263-3.034-.57-4.781-.317-1.81-.66-2.92-.66-2.92-.293-.451-.268-.24-.734-.287z" color="#000" font-weight="400" font-family="sans-serif" overflow="visible" fill="#987567"/><path style="line-height:normal;font-variant-ligatures:normal;font-variant-position:normal;font-variant-caps:normal;font-variant-numeric:normal;font-variant-alternates:normal;font-feature-settings:normal;text-indent:0;text-align:start;text-decoration-line:none;text-decoration-style:solid;text-decoration-color:#000;text-transform:none;text-orientation:mixed;white-space:normal;shape-padding:0;isolation:auto;mix-blend-mode:normal;solid-color:#000;solid-opacity:1" d="M24.915 260.63c-1.908 3.53-4.543 7.355-7.718 10.498 0 0-.152.154-.197.265-.057.142-.05.45-.05.45.043 3.339.974 20.71 1.181 23.198 0 0 .015.155.041.23.03.082.126.222.126.222 2.737 4.19 10.13 15.85 10.13 15.85.205.357 4.864 6.608 4.958 6.56.093-.046-4.152-6.685-4.32-6.977 0 0-7.37-11.61-10.17-15.894-.202-2.475-1.137-20.041-1.18-23.377 3.186-3.188 5.958-7.125 7.87-10.664z" color="#000" font-weight="400" font-family="sans-serif" overflow="visible" fill="#987567"/><path style="line-height:normal;font-variant-ligatures:normal;font-variant-position:normal;font-variant-caps:normal;font-variant-numeric:normal;font-variant-alternates:normal;font-feature-settings:normal;text-indent:0;text-align:start;text-decoration-line:none;text-decoration-style:solid;text-decoration-color:#000;text-transform:none;text-orientation:mixed;white-space:normal;shape-padding:0;isolation:auto;mix-blend-mode:normal;solid-color:#000;solid-opacity:1" d="M25.135 255.39c-.227.11-.35.336-.401.543-.052.206-.06.427-.056.688.006.524.074 1.21.13 2.078.111 1.735.174 4.188-.402 7.316-.184 1-.779 3.392-1.332 5.55-.276 1.079-.545 2.106-.745 2.879l-.243.942c-.06.237-.073.26-.092.377 0 0-.017.11-.014.168.006.077.055.222.055.222 2.358 7.033 4.188 12.585 7.65 21.617l.017.056 11.646 14.709c.246.31 5.578 6.3 5.643 6.243.066-.056-4.759-6.356-5.045-6.717L30.38 297.442c-3.423-8.938-5.288-14.59-7.626-21.565.011-.04.026-.116.073-.299l.243-.943c.2-.771.468-1.798.745-2.879.554-2.161 1.146-4.532 1.343-5.606.591-3.207.532-5.74.418-7.502-.057-.882-.129-1.576-.135-2.038-.003-.231.017-.402.04-.491.022-.089.022-.056-.012-.04.168-.082.528-.081.999.096.47.177 1.032.509 1.586.937 1.107.856 2.193 2.115 2.682 3.291.708 1.871.831 5.04.632 8.096-.2 3.058-.706 6.032-1.163 7.52 0 0-.02.13-.002.207.02.077.103.182.103.182.07.066.27.354.474.767.206.413.44.962.69 1.592.5 1.262 1.06 2.871 1.591 4.517a114.823 114.823 0 011.423 4.736c.387 1.41.658 2.57.722 3.088 0 0 .01.082.026.119a.47.47 0 00.07.09c1.087 1.185 2.453 2.174 2.453 2.174l.452-.62s-1.281-.95-2.284-2.023c-.093-.646-.335-1.68-.705-3.031-.39-1.424-.894-3.114-1.429-4.77-.535-1.657-1.099-3.275-1.608-4.562a22.221 22.221 0 00-.717-1.648 3.839 3.839 0 00-.503-.78c.481-1.63.976-4.473 1.174-7.508.203-3.11.115-6.32-.683-8.423l-.006-.005v-.006c-.565-1.366-1.723-2.68-2.924-3.607-.6-.464-1.212-.835-1.784-1.05-.572-.216-1.126-.3-1.603-.068z" color="#000" font-weight="400" font-family="sans-serif" overflow="visible" fill="#a78f87"/><path style="line-height:normal;font-variant-ligatures:normal;font-variant-position:normal;font-variant-caps:normal;font-variant-numeric:normal;font-variant-alternates:normal;font-feature-settings:normal;text-indent:0;text-align:start;text-decoration-line:none;text-decoration-style:solid;text-decoration-color:#000;text-transform:none;text-orientation:mixed;white-space:normal;shape-padding:0;isolation:auto;mix-blend-mode:normal;solid-color:#000;solid-opacity:1" d="M17.59 285.4c-.183 2.62-.477 12.764-.078 15.025 1.827 10.348 5.469 17.106 6.912 19.785.199.37.652.91 1.371 1.733.72.823 1.691 1.887 2.846 3.128 2.308 2.482 5.36 5.677 8.637 9.094C43.83 341 51.28 348.711 55.444 353.297l.565-.514c-4.183-4.606-11.628-12.31-18.178-19.143-3.275-3.416-6.329-6.613-8.632-9.089a144.22 144.22 0 01-2.828-3.11c-.71-.813-1.176-1.424-1.27-1.598-1.377-2.557-5.001-9.208-6.822-19.466-.403-2.272-.348-11.805 0-14.481-.585-.556-.506-1.458-.69-.496z" color="#000" font-weight="400" font-family="sans-serif" overflow="visible" fill="#987567"/><path d="M81.3 341.071l.024-1.072.552.796z" fill="#baba7d"/><path style="line-height:normal;font-variant-ligatures:normal;font-variant-position:normal;font-variant-caps:normal;font-variant-numeric:normal;font-variant-alternates:normal;font-feature-settings:normal;text-indent:0;text-align:start;text-decoration-line:none;text-decoration-style:solid;text-decoration-color:#000;text-transform:none;text-orientation:mixed;white-space:normal;shape-padding:0;isolation:auto;mix-blend-mode:normal;solid-color:#000;solid-opacity:1" d="M46.293 255.498c-1.066-.216-2.394.072-3.99.858-.872.429-1.514 1.194-2.033 2.19-.52.997-.934 2.238-1.366 3.704-.865 2.93-1.771 6.724-3.623 11.212 0 0-.038.079-.046.123-.012.06 0 .183 0 .183.669 7.214 1.254 14.676 3.103 22.526 0 0 .04.132.068.197.028.064.097.182.097.182 4.494 7.2 9.755 12.397 9.755 12.397.254.255 5.804 5.763 5.881 5.647.077-.116-5.175-6.02-5.34-6.183 0 0-5.288-5.303-9.697-12.345-1.813-7.73-2.435-15.335-3.1-22.513 1.84-4.487 2.789-8.335 3.636-11.206.428-1.45.834-2.655 1.31-3.568.475-.912 1.005-1.521 1.688-1.857 1.51-.743 2.706-.959 3.51-.796.805.163 1.274.64 1.491 1.541.184.763.187 2.087.045 3.636-.141 1.548-.419 3.336-.767 5.092a62.132 62.132 0 01-1.18 4.917c-.413 1.436-.835 2.598-1.14 3.15 0 0-.052.098-.055.16a.607.607 0 00.038.173c.217.502.5 1.655.762 3.088s.516 3.17.74 4.928c.446 3.518.762 7.162.739 8.654 0 0-.003.113.026.174.03.061.136.148.136.148.145.1.517.44.988.926a80.032 80.032 0 011.733 1.863c1.342 1.478 3.005 3.36 4.703 5.256 1.698 1.895 3.434 3.804 4.917 5.334 1.483 1.531 2.664 2.669 3.466 3.105 1.49.81 3.125.592 4.63-.017 1.503-.609 2.919-1.606 4.092-2.444l.017-.012.018-.017c.636-.562 1.047-1.568 1.417-2.834.369-1.266.662-2.793.903-4.353.48-3.12.749-6.38.914-7.87.155-1.389 1.09-3.69 1.993-5.594.733-1.544 1.194-2.353 1.434-2.788.94 2.214 2.125 4.292 3.15 6.249 1.14 2.176 2.008 4.26 1.976 6.419-.034 2.265-.097 7.416-.3 12.42-.1 2.5-.236 4.967-.417 7.01-.18 2.045-.419 3.688-.677 4.45-1.133 3.33-2.99 6.483-3.337 10.703-.177 2.162.43 5.056 1.062 7.44a59.631 59.631 0 001.342 4.36l.684-.369s-.67-1.839-1.292-4.188c-.624-2.35-1.194-5.22-1.034-7.181.33-4.027 2.131-7.094 3.297-10.523.316-.93.535-2.56.717-4.624.183-2.064.316-4.542.418-7.05.203-5.018.271-10.174.305-12.437.035-2.37-.907-4.574-2.066-6.786-1.16-2.211-2.543-4.442-3.472-6.864-.183-.51-.233-.437-.406-.427-.191.011-.233.186-.334.562 0 0-.822 1.367-1.738 3.297-.917 1.93-1.887 4.216-2.067 5.837-.169 1.522-.434 4.754-.909 7.836-.237 1.54-.527 3.044-.88 4.256-.353 1.21-.8 2.125-1.191 2.473v.006c-1.163.83-2.531 1.774-3.907 2.331-1.388.562-2.74.728-3.974.057-.56-.305-1.817-1.453-3.286-2.97-1.469-1.516-3.199-3.414-4.894-5.306-1.696-1.893-3.356-3.777-4.703-5.262a81.894 81.894 0 00-1.75-1.885 9.137 9.137 0 00-.96-.887c.01-1.662-.282-5.112-.722-8.575a95.844 95.844 0 00-.751-4.968c-.252-1.378-.5-2.412-.768-3.082.36-.69.747-1.75 1.146-3.139.42-1.461.844-3.208 1.197-4.984.353-1.777.634-3.58.78-5.166.144-1.587.159-2.947-.068-3.89-.269-1.113-1.018-1.895-2.084-2.11z" color="#000" font-weight="400" font-family="sans-serif" overflow="visible" fill="#987567"/><path style="line-height:normal;font-variant-ligatures:normal;font-variant-position:normal;font-variant-caps:normal;font-variant-numeric:normal;font-variant-alternates:normal;font-feature-settings:normal;text-indent:0;text-align:start;text-decoration-line:none;text-decoration-style:solid;text-decoration-color:#000;text-transform:none;text-orientation:mixed;white-space:normal;shape-padding:0;isolation:auto;mix-blend-mode:normal;solid-color:#000;solid-opacity:1" d="M81.397 340.305c.085.06.16.112.194.141.161.133-.21.649-.743 1.126-.532.477-1.303 1.04-2.309 1.665-2.012 1.25-4.97 2.74-8.925 4.308-2.057.815-4.867 2.133-7.706 3.234-2.839 1.102-4.946 2.201-7.026 1.99-.204-.02-.308-.261-.375-.5l-.266-.288-.485.955c-.53 1.046-.926 2.684-1.253 4.736-.327 2.052-.575 4.513-.762 7.136-.374 5.245-.497 11.151-.48 15.79.01 2.793 1.845 4.606 4.144 5.554 2.299.949 5.08 1.117 7.248.74 1.104-.192 4.375-1.054 8.694-2.518 4.32-1.464 9.651-3.528 14.757-6.108 8.873-4.485 16.713-10.104 20.092-13.492 1.23-1.235 1.713-2.93 1.637-4.545-.077-1.614-.704-3.165-1.767-4.16-.723-.677-2.352-1.828-4.488-3.263a437.373 437.373 0 00-7.384-4.816c-5.25-3.366-10.52-6.735-11.872-7.689-.39-.274-.74-.343-1.052-.38zm.76.804c1.78.818 6.508 4.244 11.625 7.525a436.598 436.598 0 017.367 4.804c2.127 1.43 3.784 2.61 4.397 3.184.88.823 1.456 2.205 1.524 3.641.069 1.437-.362 2.911-1.416 3.969-3.258 3.267-11.09 8.901-19.894 13.351-5.061 2.558-10.362 4.614-14.656 6.069-4.293 1.455-7.613 2.316-8.58 2.484-2.021.35-4.702.187-6.826-.689-2.123-.876-3.666-2.382-3.675-4.85-.017-4.622.108-10.522.48-15.738.186-2.609.435-5.044.757-7.063.312-1.96.695-3.83 1.14-4.386.426.188 1.171.234 1.86.092 1.797-.37 3.93-1.237 5.925-2.011 2.872-1.115 5.695-2.435 7.711-3.235 3.987-1.581 6.984-3.086 9.05-4.37 1.033-.641 1.83-1.224 2.41-1.744.423-.38.454-1.193.802-1.033z" color="#000" font-weight="400" font-family="sans-serif" overflow="visible" fill="#8e8e62"/><path style="line-height:normal;font-variant-ligatures:normal;font-variant-position:normal;font-variant-caps:normal;font-variant-numeric:normal;font-variant-alternates:normal;font-feature-settings:normal;text-indent:0;text-align:start;text-decoration-line:none;text-decoration-style:solid;text-decoration-color:#000;text-transform:none;text-orientation:mixed;white-space:normal;shape-padding:0;isolation:auto;mix-blend-mode:normal;solid-color:#000;solid-opacity:1" d="M34.602 239.03l-.757.068.497 5.64.762-.068zM43.838 237.642l-.757.085.706 6.322.756-.084z" color="#000" font-weight="400" font-family="sans-serif" overflow="visible" fill="#333"/><path style="line-height:normal;font-variant-ligatures:normal;font-variant-position:normal;font-variant-caps:normal;font-variant-numeric:normal;font-variant-alternates:normal;font-feature-settings:normal;text-indent:0;text-align:start;text-decoration-line:none;text-decoration-style:solid;text-decoration-color:#000;text-transform:none;text-orientation:mixed;white-space:normal;shape-padding:0;isolation:auto;mix-blend-mode:normal;solid-color:#000;solid-opacity:1" d="M37.752 230.055c-2.168.208-5.09.639-7.469 1.411-1.19.386-2.241.854-3.014 1.45-.773.598-1.284 1.376-1.203 2.282.08.89.65 1.63 1.468 2.19.819.56 1.903.974 3.144 1.27 2.484.592 5.597.703 8.423.333 2.809-.367 5.717-1.068 7.915-2.06 1.099-.496 2.026-1.06 2.676-1.722.65-.663 1.028-1.46.926-2.315-.107-.888-.796-1.533-1.705-1.964-.91-.432-2.081-.696-3.37-.858-2.579-.325-5.618-.226-7.791-.018zm.068.756c2.126-.204 5.141-.29 7.626.023 1.243.157 2.354.418 3.14.79.785.373 1.203.81 1.27 1.361.07.585-.166 1.131-.712 1.688-.546.557-1.4 1.092-2.444 1.564-2.09.943-4.944 1.639-7.695 1.998-2.734.358-5.79.242-8.152-.321-1.181-.282-2.189-.677-2.89-1.158-.702-.48-1.08-1.016-1.135-1.626-.053-.593.247-1.102.903-1.609.656-.506 1.648-.956 2.79-1.326 2.282-.741 5.167-1.179 7.299-1.383z" color="#000" font-weight="400" font-family="sans-serif" overflow="visible" fill="#333"/><path style="line-height:normal;font-variant-ligatures:normal;font-variant-position:normal;font-variant-caps:normal;font-variant-numeric:normal;font-variant-alternates:normal;font-feature-settings:normal;text-indent:0;text-align:start;text-decoration-line:none;text-decoration-style:solid;text-decoration-color:#000;text-transform:none;text-orientation:mixed;white-space:normal;shape-padding:0;isolation:auto;mix-blend-mode:normal;solid-color:#000;solid-opacity:1" d="M121.381 300.446c-2.182 1.5-5.768 4.85-9.122 9.828-3.355 4.979-6.466 11.58-7.639 19.55l.757.113c1.153-7.838 4.218-14.333 7.52-19.234 3.301-4.9 6.848-8.205 8.913-9.625z" color="#000" font-weight="400" font-family="sans-serif" overflow="visible" fill="#39554a"/><g><path d="M84.394 187.85c.304 5.43 2.306 12.476 4.94 15.734 1.76 2.179 6.691 6.264 8.587 6.301 1.896.038 6.263 1.299 8.7-2.249 2.501-3.642 1.883-16.639 1.181-17.562-.614-.808-5.387-6.1-8.253-8.11-2.596-1.819-3.977-1.594-7.142-1.415-2.5.142-4.911.614-6.424 2.609-1.88 2.48-1.763 1.585-1.589 4.692z" fill="#fff"/><path d="M85.488 194.403c.87-4.062 4.71-8.042 7.43-8.857 4.601-1.377 10.102 2.322 14.568 5.208l-2.95-4.875-6.95-5.2-9.448-.85-2.05 3.675-2.75 5.55z" fill="#e5e5e5"/><path d="M95.699 185.704l-2.25 3.569-.929 3.272-.464 2.936.111 3.402.26 2.844 1.413 4.48 1.803 2.194 3.384 1.58 3.457-.54 2.026-1.765 1.747-3.625.93-4.071-.056-5.019-1.375-5.781-2.156-3.179-2.417-1.877-2.547-.223z" fill="#a0a4f9"/><path d="M28.606 82.136c.304-.454.704-.316 1.74-.362 1.313-.058 1.838.15 1.913.355.043-.222.585-1.03.735-1.942.149-.9.066-1.852.066-1.852l-.292-1.643-.496-1.165-.527-.823-.964-.524-.843.018-.83.558-.868 1.515-.353 1.61v1.451z" fill="url(#c)" transform="matrix(2.89039 0 0 2.89039 11.545 -30.415)"/><path d="M99.69 192.655c1.661.053 2.484 3.043 2.54 6.058.056 3.016-.921 6.45-2.68 6.45-1.759 0-2.521-3.427-2.492-6.352.03-2.925.97-6.21 2.632-6.156z" fill="#292a4d"/><path d="M96.393 187.288c-1.654-.848-2.983 3.637-1.43 4.636 1.552 1 3.084-3.788 1.43-4.636zM104.003 204.294c.809.808-.708 3.342-1.798 2.361-1.09-.98.99-3.17 1.798-2.361z" fill="#fff"/><path style="line-height:normal;font-variant-ligatures:normal;font-variant-position:normal;font-variant-caps:normal;font-variant-numeric:normal;font-variant-alternates:normal;font-feature-settings:normal;text-indent:0;text-align:start;text-decoration-line:none;text-decoration-style:solid;text-decoration-color:#000;text-transform:none;text-orientation:mixed;white-space:normal;shape-padding:0;isolation:auto;mix-blend-mode:normal;solid-color:#000;solid-opacity:1" d="M99.647 183.415c-2.493-.113-4.35 1.601-5.743 4.197-1.393 2.596-2.244 5.962-2.186 9.172.057 3.172.446 6.446 1.664 8.973 1.217 2.527 3.264 4.338 6.296 4.378 3.045.04 5.15-1.846 6.39-4.415 1.241-2.57 1.585-5.862 1.508-8.843-.076-2.994-.733-6.275-2.08-8.892-1.345-2.618-3.361-4.457-5.85-4.57zm.019.695c2.056.093 3.906 1.708 5.18 4.184 1.273 2.476 1.931 5.762 2.005 8.626.073 2.878-.406 6.177-1.56 8.565-1.153 2.388-2.918 3.972-5.619 3.937-2.713-.036-4.403-1.68-5.533-4.025-1.13-2.346-1.602-5.514-1.658-8.613-.055-3.062.708-6.334 2.018-8.775 1.31-2.44 3.116-3.993 5.167-3.9z" color="#000" font-weight="400" font-family="sans-serif" overflow="visible" fill="#2e2e55"/><path d="M92.019 180.574c3.078-.689 4.98-.187 7.47 1.279 4.281 2.521 7.793 7.403 8.06 7.797.42.624 1.408 1.081.845-.382-.342-.89-3.107-6.106-7.065-9.209-3.213-2.519-6.897-2.899-9.184-2.725-2.943.224-5.602 1.627-7.009 3.624-1.247 1.77-2.154 4.416-2.278 5.334-.262 1.952 1.492 5.413 1.871 6.383.38.97 1.538 1.91 1.056.414-.774-2.408-.258-4.637-.08-5.589.322-1.716 1.197-3.011 2.01-4.142 1.176-1.634 2.727-2.43 4.304-2.784z"/></g><path style="line-height:normal;font-variant-ligatures:normal;font-variant-position:normal;font-variant-caps:normal;font-variant-numeric:normal;font-variant-alternates:normal;font-feature-settings:normal;text-indent:0;text-align:start;text-decoration-line:none;text-decoration-style:solid;text-decoration-color:#000;text-transform:none;text-orientation:mixed;white-space:normal;shape-padding:0;isolation:auto;mix-blend-mode:normal;solid-color:#000;solid-opacity:1" d="M130.257 305.95l-1.218-9.963c.01.512.09 1.763.09 1.763l.495 6.263 1.526 21.452.239 2.23.714 4.087-.334-6.727-1.364-17.984z" color="#000" font-weight="400" font-family="sans-serif" overflow="visible" fill="#39554a"/><path d="M142.215 183.737c-.205.349.17.873.744-.053.793-1.283 2.461-2.787 3.152-3.334.303-.24.426-1.226-.69-.307-1.555 1.283-2.265 2.094-3.206 3.694z" fill="#987567"/><g><path d="M144.61 190.542c.116-.822 4.258-5.716 6.037-7.345 2.66-2.435 5.375-3.592 8.805-4.706 2.857-.927 5.057-1.609 7.968-.867 3.112.794 7.649 2.645 7.798 2.719.148.074 1.863 6.637 1.268 8.83-.595 2.194-5.096 11.6-7.65 15.467-1.558 2.358-7.176 8.523-17.486 6.82-3.26-.538-5.396-6.042-5.674-7.6-.291-1.641-1.587-9.652-1.066-13.318z" fill="#fff"/><path d="M175.777 192.966c-1.566-2.675-7.279-8.49-12.668-8.8-7.834-.45-14.796 4.25-18.5 6.376-.424-.92.226-1.192.226-1.192l3.995-5.586 7.99-5.904 11.418-1.06 8.095 7.212.177 6.858z" fill="#e5e5e5"/><path d="M149.617 186.092l-2.445 4.1-1.078 5.547.237 7.44 1.892 4.995 2.787 2.681 2.96.59 4.006-.182 3.066-2.234 1.517-3.368 1.496-4.95.262-7.754-3.091-5.46-1.725-2.667-3.129-1.183-3.286.078z" fill="#a0a4f9"/><path d="M46.67 78.887l.245-2.037.646-1.61.67-.785.764-.528 1.023-.16.939.157 1.04.49.66.858.466 1.465-.068 2.905-.612 2.024-.937.662c-.355-.356-1.13-.228-2.088-.256-.957-.028-1.738-.065-2.034.134l-.568-1.666z" fill="url(#d)" transform="matrix(2.89039 0 0 2.89039 11.003 -29.805)"/><path d="M154.992 193.004c2.33-.027 3.779 3.386 3.693 6.507-.086 3.12-1.735 6.695-4.043 6.689-2.309-.007-3.822-3.418-3.73-6.726.09-3.309 1.749-6.442 4.08-6.47z" fill="#292a4d"/><path d="M151.114 189.528c2.71 1.447.49 6.511-2.269 5.217-2.758-1.294-.442-6.663 2.269-5.217z" fill="#fff"/><path style="line-height:normal;font-variant-ligatures:normal;font-variant-position:normal;font-variant-caps:normal;font-variant-numeric:normal;font-variant-alternates:normal;font-feature-settings:normal;text-indent:0;text-align:start;text-decoration-line:none;text-decoration-style:solid;text-decoration-color:#000;text-transform:none;text-orientation:mixed;white-space:normal;shape-padding:0;isolation:auto;mix-blend-mode:normal;solid-color:#000;solid-opacity:1" d="M156.03 182.802c-2.359 0-5.412 1.404-7.2 3.874-1.787 2.47-2.99 6.182-3.086 11.22-.095 5.035.876 8.49 2.509 10.738 1.633 2.247 4.258 3.153 6.632 3.27 2.46.123 5.588-.93 7.126-3.641 1.537-2.712 2.975-6.94 2.975-11.67 0-4.721-1.282-8.241-2.651-10.453-1.37-2.213-3.97-3.338-6.304-3.338zm.198.94c2.097 0 4.066.647 5.307 2.65 1.24 2.003 2.773 5.744 2.773 10.374 0 4.62-1.664 8.854-3.102 11.39-1.438 2.537-4.199 3.1-6.283 2.997-2.17-.108-4.503-.973-5.987-3.016s-2.446-5.31-2.353-10.228c.092-4.912 1.273-8.446 2.93-10.736 1.659-2.29 4.643-3.43 6.715-3.43z" color="#000" font-weight="400" font-family="sans-serif" overflow="visible" fill="#2e2e55"/><path d="M145.619 190.147c.91-1.62 2.63-3.601 4.683-5.256 2.001-1.613 4.32-2.91 6.3-3.834 2.512-1.172 7.355-2.781 12.808-.092 3.188 1.573 5.516 4.513 6.023 7.058.505 2.53-1.004 7.587-.31 7.443 1.177-.243 4.868-7.677 4.235-9.48-2.378-6.77-9.295-9.374-11.047-9.666-.938-.156-3.85-.534-6.68-.163-2.464.323-4.803 1.307-6.545 2.314-1.748 1.01-4.806 3.474-7.155 5.995-2.212 2.373-3.454 4.936-3.776 5.685-.761 1.77-.003 2.724 1.464-.003z"/></g></svg>