<svg xmlns="http://www.w3.org/2000/svg" width="344.667" height="144.141" viewBox="0 0 91.193 38.137"><g font-weight="700" font-size="4.233" font-family="DejaVu Sans" letter-spacing="0" word-spacing="0"><g fill="#717ede"><path style="line-height:1.25;-inkscape-font-specification:'DejaVu Sans Bold'" d="M0 38.137h25.718l13.173-36.19-25.724.013L10.605 9h16.387l-2.453 6.739H12.547L9.98 22.793h11.992l-3.018 8.29H2.567zM44.796 10.43l-9.6 27.707h19.175zM63.789 38.137L50.499 1.946h9.38l2.28 6.593H76.75l2.303-6.593h9.381L75.03 38.137zm5.666-8.484l4.969-14.399H64.51z"/></g><g fill="#e5e8fd"><path style="line-height:1.25;-inkscape-font-specification:'DejaVu Sans Bold'" d="M2.758 36.192h25.718L41.65 0 15.925.015l-2.562 7.04H29.75l-2.453 6.738H15.305l-2.567 7.054H24.73l-3.018 8.29H5.325zM47.554 8.484l-9.6 27.708H57.13zM66.547 36.192L53.257 0h9.38l2.28 6.594h14.592L81.812 0h9.381L77.788 36.192zm5.666-8.485l4.969-14.399h-9.915z"/></g></g></svg>