<?xml version="1.0" encoding="UTF-8" standalone="no"?>
<svg
   xmlns:dc="http://purl.org/dc/elements/1.1/"
   xmlns:cc="http://creativecommons.org/ns#"
   xmlns:rdf="http://www.w3.org/1999/02/22-rdf-syntax-ns#"
   xmlns:svg="http://www.w3.org/2000/svg"
   xmlns="http://www.w3.org/2000/svg"
   xmlns:xlink="http://www.w3.org/1999/xlink"
   xmlns:sodipodi="http://sodipodi.sourceforge.net/DTD/sodipodi-0.dtd"
   xmlns:inkscape="http://www.inkscape.org/namespaces/inkscape"
   width="621.975"
   height="1070.239"
   version="1.1"
   id="svg417"
   sodipodi:docname="Elpida.svg"
   inkscape:version="1.0 (1.0+r73+1)">
  <title
     id="title1037">Elpida</title>
  <metadata
     id="metadata421">
    <rdf:RDF>
      <cc:Work
         rdf:about="">
        <dc:format>image/svg+xml</dc:format>
        <dc:type
           rdf:resource="http://purl.org/dc/dcmitype/StillImage" />
        <dc:title>Elpida</dc:title>
        <dc:creator>
          <cc:Agent>
            <dc:title>Ioannis Panagiotopoulos</dc:title>
          </cc:Agent>
        </dc:creator>
        <dc:rights>
          <cc:Agent>
            <dc:title>Ioannis Panagiotopoulos</dc:title>
          </cc:Agent>
        </dc:rights>
      </cc:Work>
    </rdf:RDF>
  </metadata>
  <sodipodi:namedview
     inkscape:document-rotation="0"
     pagecolor="#ffffff"
     bordercolor="#666666"
     borderopacity="1"
     objecttolerance="10"
     gridtolerance="10"
     guidetolerance="10"
     inkscape:pageopacity="0"
     inkscape:pageshadow="2"
     inkscape:window-width="3840"
     inkscape:window-height="2045"
     id="namedview419"
     showgrid="false"
     inkscape:zoom="1.565071"
     inkscape:cx="310.98749"
     inkscape:cy="535.11951"
     inkscape:window-x="3840"
     inkscape:window-y="0"
     inkscape:window-maximized="1"
     inkscape:current-layer="svg417" />
  <defs
     id="defs9">
    <linearGradient
       gradientTransform="matrix(1.23653 -.16546 .18131 1.35495 -472.721 439.37)"
       xlink:href="#a"
       id="b"
       x1="500.065"
       y1="-97.003"
       x2="499.827"
       y2="-90.061"
       gradientUnits="userSpaceOnUse" />
    <linearGradient
       id="a">
      <stop
         offset="0"
         stop-color="#363765"
         id="stop3" />
      <stop
         offset="1"
         stop-color="#9a9eef"
         id="stop5" />
    </linearGradient>
    <linearGradient
       gradientTransform="matrix(1.29394 -.17315 .18118 1.35395 -499.108 442.521)"
       xlink:href="#a"
       id="c"
       x1="444.865"
       y1="-97.139"
       x2="444.924"
       y2="-90.907"
       gradientUnits="userSpaceOnUse" />
  </defs>
  <g
     transform="translate(237.935 25.383)"
     id="g415">
    <path
       d="M-53.334 22.81L249.36-6.36l122.57 281.835-302.692 29.17z"
       fill="#5ca385"
       id="path11" />
    <path
       d="M371.93 275.475l-302.693 29.17L-53.333 22.81"
       fill="none"
       stroke="#5b5b4a"
       stroke-width=".973"
       stroke-linecap="round"
       stroke-linejoin="round"
       id="path13" />
    <path
       d="M41.552 144.482l4.695 35.278-6.33 8.438 2.046 11.103 7.69 14.714 2.021 15.561 1.123 9.958 1.686 17.415 1.668 21.563 1.172 19.434 1.03 22.346.637 18.409.49 18.815.35 18.55.238 17.933.163 18.032.098 16.519.065 16.64.04 14.43.054 22.087.114 30.075 28.98 87.481 94.772 59.008c70.225-4.66 87.006-130.155 67.766-209.493-10.377-42.79-49.38-354.735-49.38-354.735z"
       fill="#6e685a"
       id="path15" />
    <path
       d="M202.74 94.043L34.877 144.771c28.79 92.637 24.806 239.314 25.794 378.007.207 29.124 38.469 133.879 123.683 135.493"
       fill="none"
       stroke="#3e3b37"
       stroke-linecap="round"
       stroke-linejoin="round"
       id="path17" />
    <path
       d="M29.058 140.927c.866-12.397 12.853-37.91 45.096-60.374 18.37-12.799 40.08-19.065 65.628-21.985 14.966-1.711 26.181-1.249 41.921 2.05 18.827 3.945 36.346 10.58 46.41 16.39 12.787 7.383 23 15.163 32.235 30.658 11.335 19.017 17.234 35.596 18.324 40.713 5.217 24.486 4.29 52.88 4.824 79.505 1.108 55.22-20.56 120.072-8.155 175.739 6.753 30.307.65 99.453.65 99.453l-24.318-49.728-73.821-310.034"
       fill="#6e685a"
       id="path19" />
    <path
       d="M77.242 78.571c33.242-2.344 102.44 30.519 103.523 64.403.458 14.35 11.484 60.807 11.484 60.807l7.992 33.563 11.544 48.483 11.11 60.294 7.512 55.613-9.254 135.938-36.8 120.6 10.982-1.52 7.752-2.21 8.081-3.64 10.404-5.831 9.432-6.978 8.126-7.585 7.243-8.328 5.722-7.946 5.092-8.43 3.946-7.724 4.082-9.536 3.537-10.164 2.38-8.403 2.64-11.904 1.454-8.737 1.22-10.052.791-10.189.453-11.005.643-16.844.836-20.239.697-15.94 1.033-21.877.518-13.777.806-15.058.944-19.714 1.079-22.595.97-20.73.94-20.873.816-19.33.954-25.64.285-16.349.618-26.751-.207-19.253-1.595-28.072-3-18.392-1.955-10.09-1.502-8.725-1.898-9.462-2.62-8.44-2.774-7.854-3.216-7.46-5.174-9.726-2.79-4.535-3.498-5.397-6.074-8.425-7.303-7.245-6.87-5.636-11.116-7.135-10.123-4.915-10.08-3.891-15.242-4.705-6.693-1.654-5.466-1.166-9.629-1.613-8.305-.802-9.49-.14-7.827.461-7.672.839-7.331 1.066-6.982 1.277-7.208 1.623-5.837 1.414-7.695 2.622-6.713 2.514-6.736 3.08-5.462 2.82z"
       fill="#4d493f"
       id="path21" />
    <path
       d="M74.3 399.696l84.898-10.653-12.385-106.909-79.028 1.094z"
       fill="#4d493f"
       id="path23" />
    <path
       d="M28.826 141.121c1.73-14.12 14.35-40.013 45.328-60.568 18.655-12.379 40.08-19.065 65.628-21.985 14.966-1.711 26.181-1.249 41.921 2.05 18.827 3.945 38.443 11.074 50.757 18.987 15.497 9.958 23.193 19.8 32.428 35.294 11.334 19.018 14.238 36.738 15.329 41.856 5.216 24.486 8.015 45.46 8.549 72.084 1.108 55.22-7.498 187.857-11.27 294.624-3.448 97.63-58.208 132.403-93.142 134.808l63.82-207.382-70.322-307.575"
       fill="none"
       stroke="#423c38"
       stroke-width=".7"
       stroke-linecap="round"
       stroke-linejoin="round"
       id="path25" />
    <path
       d="M105.926 1008.13c-38.237-.09-81.755 6.665-79.195 14.63 4.551 14.159 132.794 25.79 134.662.648.817-11-25.727-15.208-55.467-15.277z"
       fill="#c7cdf9"
       id="path27" />
    <path
       d="M158.844 1018.191l-1.144 1.787.635 4.092 1.53-.361 1.48-.049.18-1.82-.85-2.274z"
       fill="#a3aeeb"
       id="path29" />
    <path
       d="M105.926 1008.13c-38.237-.09-81.755 6.665-79.195 14.63 4.551 14.159 132.794 25.79 134.662.648.817-11-25.727-15.208-55.467-15.277z"
       fill="none"
       stroke="#989cc1"
       id="path31" />
    <path
       d="M258.33 487.515c32.009-45.158 11.567-110.354 8.268-112.836-4.339-2.544-15.108-11.66-24.424-12.046 0 0 24.695 61.822-4.825 118.37-41.178-4.995-85.736-1.168-114.975-13.392 15.695-34.11 9.206-116.393-1.625-117.656-6.84 1.552-8.152 2.355-21.768 14.324 15.151-6.265 2.797 87.163-3.347 100.672l-31.65-8.096 3.324 77.556 195.11 12.216 29.869-49.777z"
       fill="#898ee2"
       stroke="#605baa"
       id="path33" />
    <path
       d="M-71.254 956.732c13.745 15.534 27.538 56.19 131.496 26.725 40.339-11.434 14.55-54.295 87.835-17.237 82.536 41.736 146.169 3.205 150.992-10.382-32.527-36.514-364.7-1.433-364.7-1.433z"
       fill="#585f98"
       stroke="#605baa"
       stroke-width=".7"
       stroke-linejoin="round"
       id="path35" />
    <path
       d="M-184.321 580.287c-4.332-.465-8.403.12-8.377 3.288.028 3.262 3.322 5.076 5.82 5.767"
       fill="#e9d8d0"
       stroke="#967566"
       stroke-width=".7"
       stroke-linecap="round"
       id="path37" />
    <path
       d="M80.527 451.698l-3.4 151.473-17.617 24.462c-40.02 9.33-147.656.106-147.656.106l-30.769 4.696c-1.507.423-5.27 1.622-13.072 3.102-2.464.468-11.01-.098-13.304-3.315-8.027-1.912-9.748-4.361-12.615-7.745-4.555-.038-7.515-.644-9.602-8.392-5.085-3.128-9.412-7.303-9.485-13.847l29.629-3.869c-3.545-2.221-6.172-1.119-12.678-2.83-15.517-1.938-34.01-2.205-31.86-13.462.946-4.953 20.39-2.623 30.062-.724 7.79 1.529 16.27 3.603 18.082 4.569 3.97 2.118 25.243 1.558 41.35 14.408 0 0 84.012-31.19 135.446-21.815 0 0 20.396-131.538 25.688-153.963 2.409-17.39-5.067-29.035 43.587-58.826 23.488-14.38 32.107-20.783 32.107-20.783"
       fill="#e9d8d0"
       id="path39" />
    <path
       d="M-118.115 619.591l-33.345 1.434-25.584-18.273.49-6.327 52.403 7.448z"
       fill="#e9d8d0"
       id="path41" />
    <path
       d="M-134.787 620.308s2.816 8.528 9.878 13.73l9.678-2.166-13.467-11.826z"
       fill="#b89e93"
       id="path43" />
    <path
       d="M80.527 451.698l-3.4 151.473-17.617 24.462c-40.02 9.33-147.656.106-147.656.106l-30.769 4.696c-1.507.423-5.27 1.622-13.072 3.102-2.464.468-11.01-.098-13.304-3.315-8.027-1.912-9.748-4.361-12.615-7.745-4.555-.038-7.515-.644-9.602-8.392-5.085-3.128-9.412-7.303-9.485-13.847m29.629-3.869c-3.545-2.221-6.172-1.119-12.678-2.83-15.517-1.938-34.01-2.205-31.86-13.462.946-4.953 20.39-2.623 30.062-.724 7.79 1.529 16.27 3.603 18.082 4.569 3.97 2.118 25.243 1.558 41.35 14.408 0 0 84.012-31.19 135.446-21.815 0 0 20.396-131.538 25.688-153.963 2.409-17.39-5.067-29.035 43.587-58.826 23.488-14.38 32.107-20.783 32.107-20.783"
       fill="none"
       stroke="#967566"
       stroke-width=".699"
       stroke-linecap="square"
       stroke-linejoin="round"
       id="path45" />
    <path
       d="M-232.585 516.704l1.006-5.41 164.483-39.857 196.508 201.697-160.099 45.94z"
       fill="#585858"
       stroke="#3f3f3f"
       stroke-width=".7"
       stroke-linecap="round"
       stroke-linejoin="round"
       id="path47" />
    <path
       d="M-231.579 511.294l165.215-45.191 196.887 202.076-159.825 45.865z"
       fill="#877c72"
       id="path49" />
    <path
       d="M-231.579 511.294l165.215-45.191 196.887 202.076-159.825 45.865z"
       fill="#585858"
       stroke="#3f3f3f"
       stroke-width=".7"
       stroke-linecap="round"
       stroke-linejoin="round"
       id="path51" />
    <path
       d="M13.668 706.457l-15.742 4.406 5.387-6.179c2.5-6.025 6.003-17.643 16.996-29.46l4.729-1.312 7.988-1.616 3.043 27.622zM-122.75 601.297l-8.1 3.901 5.533 12.294 2.957 9.662-8.356-7.548-7.707-15.208-.187-2.895 8.912-5.247 1.806-.632z"
       fill="#454545"
       id="path53" />
    <path
       d="M-206.687 516.825l141.54-38.716 168.672 173.119-136.921 39.292z"
       fill="#f0f0f0"
       stroke="#939393"
       stroke-width=".7"
       stroke-linecap="round"
       stroke-linejoin="round"
       id="path55" />
    <path
       d="M-180.575 501.424l89.57-25.656 11.935 10.239-90.443 25.323z"
       fill="#b6b6b6"
       stroke="#787878"
       stroke-width=".7"
       id="path57" />
    <ellipse
       cx="-97.113"
       cy="482.37"
       rx="2.399"
       ry="1.423"
       fill="#b6b6b6"
       stroke="#787878"
       stroke-width=".7"
       stroke-linecap="round"
       stroke-linejoin="round"
       id="ellipse59" />
    <path
       d="M-205.737 515.581l141.54-38.715 168.673 173.118-136.922 39.293z"
       fill="#f0f0f0"
       stroke="#939393"
       stroke-width=".7"
       stroke-linecap="round"
       stroke-linejoin="round"
       id="path61" />
    <path
       d="M-163.194 500.105l.185.575c3.126-.483 6.746-.517 9.091.46 2.561 1.067 3.604 3.339.828 7.548l-1.853.567s1.261 2.784 2.509 2.576c7.917-1.323 64.533-16.703 64.971-19.55 4.358-5.286 3.17-8.035.621-9.426-2.802-1.529-7.25-1.413-7.768-1.216l-.06 1.079s2.82.188 4.986 1.204c2.421 1.137 4.028 3.309-.031 7.412-1.212 1.102-60.683 16.681-60.683 16.681 1.247-3.346.823-5.989-.98-7.551-2.147-1.862-6.25-2.192-11.816-.359z"
       fill="#828282"
       id="path63" />
    <path
       d="M-204.58 514.77l141.358-36.872L108 651.376l-141.358 36.871z"
       fill="#f8f8f8"
       stroke="#939393"
       stroke-width=".7"
       stroke-linecap="round"
       stroke-linejoin="round"
       id="path65" />
    <path
       d="M-111.189 590.638s6.999.28 6.409 4.577l-17.735 2.988-.074 3.187-6.635-6.921 19.529-13.627c-2.248 3.271-1.494 9.796-1.494 9.796z"
       fill="#8a8a8a"
       fill-opacity=".643"
       id="path67" />
    <g
       fill="#898ee2"
       stroke="#d2d1f1"
       stroke-width=".341"
       font-weight="700"
       font-size="4.233"
       font-family="DejaVu Sans"
       letter-spacing="0"
       word-spacing="0"
       id="g71">
      <path
         d="M-147.091 73.64h7.264l3.721-10.222-7.266.004-.724 1.988h4.63l-.694 1.904h-3.387l-.725 1.992h3.387l-.852 2.342h-4.629zM-134.438 65.814l-2.711 7.827h5.416zM-129.073 73.64l-3.754-10.222h2.65l.643 1.862h4.122l.65-1.862h2.65l-3.786 10.223zm1.6-2.396l1.404-4.067h-2.8z"
         style="line-height:1.25;-inkscape-font-specification:'DejaVu Sans Bold'"
         transform="matrix(1.79899 -.46924 1.47734 1.4968 62.526 332.155)"
         id="path69" />
    </g>
    <path
       d="M-190.71 518.402l77.23-20.144 63.187 64.02-77.23 20.144z"
       opacity=".998"
       fill="#e1e9f8"
       stroke="#5c5bb7"
       stroke-width=".7"
       stroke-linecap="round"
       stroke-linejoin="round"
       id="path73" />
    <path
       d="M-124.089 568.712c19.34-8.21 27.149-13.307 27.933-25.558.34-5.31-10.24-29.313-15.745-35.15"
       fill="none"
       stroke="#5c5bb7"
       stroke-width=".7"
       id="path75" />
    <path
       d="M-172.512 518.886l56.314 57.056M-132.634 571.031l66.175-17.26"
       fill="none"
       stroke="#000"
       stroke-width=".7"
       stroke-dasharray="1.4,1.4"
       id="path77" />
    <g
       aria-label="Αναφορά"
       style="line-height:1.25;-inkscape-font-specification:'SF Mono'"
       font-weight="400"
       font-size="7.915"
       font-family="DejaVu Sans"
       letter-spacing="0"
       word-spacing="0"
       stroke-width=".989"
       id="g81">
      <path
         d="M-80.832 514.013l1.27 2.606 2.075-.54zm-1.048-.513l.865-.225 6.783 4.132-.794.207-1.702-1.07-2.543.664.674 1.338-.804.21zM-72.596 516.98l-4.768-3.183.748-.195 4.01 2.67q.068-.508-.088-1.148-.113-.48-.446-.836-.156-.169-.557-.46-.476-.346-1.283-.653l.703-.184q.537.212 1.096.557.512.317.754.562.608.616.637 1.3.04.892-.066 1.377zM-68.266 513.791l-.883-.682q-.905-.701-1.578-.526-.506.132-.395.538.137.51.702 1.082.683.692 1.292.948.619.262 1.076.142.506-.132.118-.872zm-.56-1.063l-.535-1.019.62-.161 1.109 2.11.83.649q.186.145.446.24.304.11.425.079l.332-.087.484.49-.415.109q-.356.092-.934-.089-.285-.092-.622-.352.17.395.085.76-.039.173-.58.314-.887.232-1.79-.134-.929-.378-1.782-1.243-.912-.924-.86-1.483.054-.623.802-.818 1.176-.307 2.385.635zM-64.625 511.063q-.246.064.204.52l2.129 2.157q.359-.094.395-.515.033-.376-.66-1.077-.645-.654-1.317-.921-.547-.217-.751-.164zm-.487-.494q.529-.138 1.418.152.955.309 1.87 1.236.842.852.824 1.493-.016.605-.783.805l1.247 1.264-.691.18-1.245-1.26q-.752.196-1.733-.153-.998-.357-1.85-1.221-.888-.9-.827-1.492.047-.443.587-.695l.506.512q-.178.138-.155.44.032.446.621 1.044.627.635 1.309.912.61.247 1.033.137l-2.131-2.16q-.937-.95 0-1.194zM-60.346 509.868q-.559.146-.524.595.032.446.656 1.078.623.632 1.304.913.682.277 1.245.13.556-.145.52-.594-.034-.45-.655-1.079-.617-.625-1.302-.905-.688-.283-1.244-.138zm-.484-.49q.907-.237 1.909.118 1.002.356 1.858 1.223.853.865.823 1.493-.034.626-.94.862-.911.238-1.913-.117-1.001-.36-1.854-1.225-.857-.867-.827-1.492.034-.625.944-.863zM-56.717 509.202q-.086-.38.205-.813.114-.168.802-.347.771-.201 1.754.183.986.383 1.805 1.213.82.83.838 1.465.023.635-.748.836-.465.121-.95.058-.484-.067-1.014-.325l1.843 1.868-.699.182-3.025-3.065q-.717-.726-.811-1.255zm3.844.424q-.63-.638-1.304-.917-.673-.283-1.225-.139-.552.144-.51.592.044.443.674 1.081.63.638 1.303.921.675.28 1.226.135.552-.144.509-.587-.043-.448-.673-1.086zM-48.413 508.613l-.883-.682q-.906-.701-1.578-.526-.507.132-.396.538.137.51.702 1.082.683.692 1.292.948.62.261 1.076.142.507-.132.118-.873zm-.56-1.063l-.536-1.019.62-.162 1.109 2.11.83.65q.187.145.446.24.304.11.425.078l.332-.086.484.49-.415.109q-.355.092-.933-.09-.286-.09-.623-.35.17.394.085.76-.039.172-.579.313-.888.232-1.79-.134-.93-.378-1.783-1.243-.912-.924-.86-1.483.055-.623.803-.818 1.175-.307 2.384.635zm-3.227-2.365l.752-.196-.066 1.504-.578.15z"
         style="-inkscape-font-specification:'DejaVu Sans'"
         id="path79" />
    </g>
    <path
       d="M-113.732 594.084c15.436 1.946 5.412-6.614 13.948-3.086 8.537 3.527.654-9.626 11.984-4.558 6.266 2.803 7.46 1.52 7.978-1.959.563-3.789 9.18 4.79 11.984-2.408 2.474-6.349 5.936-3.273 10.708-3.125 5.484.17 2.636-8.364 8.155-4.424 5.266 3.76 4.23-5.041 8.597-2.02 2.21 1.53 5.284 2.968 9.636-3.467.82-1.213 2.542 2.265 8.02 2.12 2.832-.075 3.244-5.274 6.413-6.057 2.912-.718 5.27 3.122 7.487 3.205 1.086.04 4.497-3.7 5.646-4.734 4.571-4.11 5.813 5.475 8.118-2.322M-97.91 608.61c3.96 1.432 3.45.793 3.986-1.91.858-4.333 4.65.05 7.396-.836 3.756-1.211 2.77-7.326 7.445-3.521 1.788 1.456 7.807.584 6.986-2.344-.862-3.07 7.447-6.938 10.756-2.461 2.018 2.73 5.61.83 6.452-2.156 1.426-5.063 2.609-6 10.403-2.442 4.32 1.973 4.35-4.733 7.916-6.019 3.47-1.252 8.337 1.71 8.93-.644 1.157-4.594 9.095 1.836 9.329-.373.38-3.586 1.288-5.993 10.361-2.106 5.252 2.25 2.655-6.755 8.53-1.788 4.152 3.511 3.417-3.545 5.615-4.551 2.118-.97 5.795 4.36 6.337.155.215-1.673 2.436-3.04 6.091.238M-83.919 622.356c2.591 1.205 1.468-3.642 8.034 1.334 2.509 1.9 2.467-7.287 7.472-8.646 1.674-.455 3.21 4.713 8.426 3.713 4.085-.782 1.284-7.186 4.654-8.32 2.564-.864 6.116 3.314 8.038 3.035 2.65-.386 3.337-9.171 5.707-5.892 3.712 5.133 9.585 3.458 8.96-.644-.544-3.562 2.676-6.154 7.583-1.3 3.148 3.113 6.493-7.75 8.89-5.135 8.729 9.522 6.69-2.35 8.696-3.255 5.016-2.263 7.197 8.312 9.195 3.158 2.897-7.472 6.091-1.747 8.875-2.195 3.793-.61 1.375-6.135 3.548-6.22 2.798-.108 7.467.967 7.316-.019-.346-2.251 2.8-2.708 6.917-.568M-67.99 639.294c.25-3.507 2.35-7.223 5.555-2.63 1.536 2.2 3.833-4.567 6.254-5.362 2.439-.8 5.394 4.146 6.84 3.818 2.855-.647 5.168-10.181 9.652-4.174 1.275 1.709 9.146 1.452 8.73-.862-.637-3.532 1.893-6.803 6.052-3.862 10.088 7.135 4.289-7.596 12.36-3.039 1.398.79 5.904 2.358 7.051 1.228 1.303-1.283 2.718-5.642 4.317-6.341 3.008-1.314 9.538 4.9 10.203 1.445 2.154-11.186 10.406-4.598 12.101-4.134 3.286.898 1.91-6.34 3.812-6.652 2.287-.376 8.428 3.149 9.943 2.517 2.799-1.167-2.31-3.096 1.472-6.101 2.085-1.656 5.007.9 5.19.414"
       fill="none"
       stroke="#000"
       stroke-width=".7"
       id="path83" />
    <path
       d="M20.136 675.177l.058-1.14s8.06-22.957 11.816-32.63c6.692-17.236 14.88-33.508 18.03-46.768l9.724.916-18.901 73.458z"
       fill="#8a8a8a"
       fill-opacity=".643"
       id="path85" />
    <path
       d="M-52.852 654.873c-1.607-4.45 3.048-4.57 4.89-2.87 2.758 2.542 7.247 4.528 6.78-.267-.162-1.647 2.903-6.779 6.283-3.386 2.5 2.508 4.267 4.31 8.317-1.69 2.567-3.802 4.015 3.989 10.816 1.27 2.537-1.014 5.03-7.746 8.068-5.823 7.105 4.497 10.613 2.582 10.792-2.483.11-3.068-.632-3.357 6.085-2.61 2.088.233 6.164 2.277 7.343.07.651-1.218 1.96-4.52 5.305-6.52 2.715-1.621 4.079 3.16 6.184 2.484 1.846-.592 1.448-4.928 4.496-6.997 3.007-2.043 6.415 3.526 7.487 1.646 1.591-2.789 12.36-8.13 16.757-5.1M-38.033 668.91s-1.36-4.308 5.119-3.653c6.478.655 3.528 3.047 6.486 2.508 3.485-.634.918-7.148 7.76-5.099 6.842 2.049 8.994 3.367 7.887-.343-.909-3.043 1.344-9.442 5.771-4.041 1.726 2.106 5.586 5.012 6.122-.864.458-5.029 3.512-3.025 7.231-.624 3.72 2.4 3.725-7.061 8.286-3.391 5.656 4.55 2.944-3.244 5.9-3.606 2.65-.325 8.375 3.462 8.285 2.032-.19-3.025.178-5.621 3.662-2.954 3.93 3.011-.796-5.255 4.122-2.198 4.918 3.058 9.767 2.639 11.062.829 1.295-1.81-4.654-6.904 2.37-4.294 7.023 2.61 6.38-2.671 7.57-4.355 1.189-1.683 13.827.515 13.827.515"
       fill="none"
       stroke="#000"
       stroke-width=".7"
       id="path87" />
    <path
       d="M-166.844 599.287c-.17-2.96 4.915-13.893 2.158-15.452 3.24-1.79 13.762-6.853 16.717-9.97 5.692-1.552 7.967-2.037 16.79-3.058 2.016-.234 3.487-1.932 4.3-5.28 0 0-5.102-2.16-6.4-2.302-6.058-.666-15.91-1.347-19.761-.133-4.153 1.31-21.355 9.695-22.082 15.58-.65 5.27-2.004 11.643-1.871 23.566"
       fill="#e9d8d0"
       stroke="#967566"
       stroke-width=".7"
       id="path89" />
    <path
       d="M-154.944 605.888c-.17-2.961 3.402-17.518 3.007-20.838 3.24-1.79 9.227-3.593 14.51-6.525 3.58-.113 5.248.645 17.332-1.158 1.398-.209 3.504-1.566 4.36-4.621l-5.198-2.095c-2.026-.352-16.293-3.491-20.267-2.238-4.152 1.309-22.559 5.582-24.448 12.55-1.838 6.78-2.563 11.767-1.68 19.883"
       fill="#e9d8d0"
       stroke="#967566"
       stroke-width=".7"
       stroke-linecap="round"
       id="path91" />
    <path
       d="M-145.885 616.165c-.17-2.961 2.845-21.469 1.817-25.388 3.24-1.79 10.75-2.754 13.705-5.87 5.178-.54 7.291-.445 14.608-.859 1.604-.09 4.756-.79 6.307-4.447l-3.093-2.089c-6.043-1.084-16.2-3.917-20.16-2.669-4.152 1.31-22.395 5.034-23.95 12.18-1.493 6.864-1.926 11.637-.86 22.938"
       fill="#e9d8d0"
       id="path93" />
    <path
       d="M-142.764 589.422c2.678-2.782 14.641-7.292 14.641-7.292 4.486.492 16.37-.342 17.744-.76l-2.056 1.718-3.334 1.17-8.274.18-11.667 3.605z"
       fill="#b89e93"
       id="path95" />
    <path
       d="M-145.885 616.165c-.17-2.961 2.845-21.469 1.817-25.388 3.24-1.79 10.75-2.754 13.705-5.87 5.178-.54 7.291-.445 14.608-.859 1.577-.09 4.754-1.137 6.448-4.769l-5.977-2.423c-6.132-1.15-14.088-3.062-17.417-2.013-4.152 1.31-22.395 5.034-23.95 12.18-1.493 6.864-1.926 11.637-.86 22.938"
       fill="none"
       stroke="#967566"
       stroke-width=".7"
       stroke-linecap="round"
       id="path97" />
    <path
       d="M-130 620.623c-.17-2.961-6.767-14.592-8.506-18.045 3.24-1.79 8.977-5.006 11.932-8.123 4.684-.153 6.514-.007 13.425-2.226 2.091-1.739 3.076-3.706 3.076-3.706l-4.43-2.926c-7.142-.718-12.441-2.188-16.494-.918-4.155 1.301-16.44 5.48-16.92 9.696-.309 2.7.273 15.742 1.09 25.626"
       fill="#e9d8d0"
       id="path99" />
    <path
       d="M-130 620.623l-4.71-.094c-2.27-9.256-6.18-18.99-6.18-18.99 7.309-2.881 13.645-9.077 13.645-9.077 7.765-.25 14.003-2.338 16.913-2.887l-.857 1.063-1.894 1.504-2.02.691-7.42 1.469-4.05.153-4.459 3.632-7.474 4.491 3.987 7.548 2.434 4.864z"
       fill="#b89e93"
       id="path101" />
    <path
       d="M-130 620.623c-.17-2.961-6.767-14.592-8.506-18.045 3.24-1.79 8.977-5.006 11.932-8.123 4.684-.153 6.817-.13 13.425-2.226 1.988-.63 2.247-1.914 2.898-3.699-.212-1.496-3.743-3.04-4.792-3.264-6.802-.332-12.094-1.797-15.954-.587-4.155 1.301-16.44 5.48-16.92 9.696-.309 2.7.273 15.742 1.09 25.626"
       fill="none"
       stroke="#967566"
       stroke-width=".7"
       stroke-linecap="round"
       id="path103" />
    <path
       d="M-29.534 713.811l-1.006 5.41"
       fill="none"
       stroke="#3f3f3f"
       stroke-width=".7"
       id="path105" />
    <path
       d="M-153.918 501.14c2.561 1.067 3.604 3.339.828 7.548l-1.853.567s1.261 2.784 2.509 2.576c7.917-1.323 64.533-16.703 64.971-19.55 4.358-5.286 3.17-8.035.621-9.426l-2.842 1.067c2.421 1.137 4.028 3.309-.031 7.412-1.212 1.102-60.683 16.681-60.683 16.681 1.247-3.346.823-5.989-.98-7.551z"
       fill="#8a8a8a"
       fill-opacity=".643"
       id="path107" />
    <ellipse
       ry="1.423"
       rx="2.399"
       cy="501.239"
       cx="-165.72"
       fill="#b6b6b6"
       stroke="#787878"
       stroke-width=".7"
       stroke-linecap="round"
       stroke-linejoin="round"
       id="ellipse109" />
    <path
       d="M-166.043 502.052c5.927-1.676 9.16 1.807 9.715 8.567.139 1.682 67.357-16.868 67.36-18.857-.48-6.034-3.975-11.161-9.866-9.34l.637.782c4.046-1.3 7.35 1.926 7.006 8.146-3.193 1.603-58.958 17.036-63.734 17.858-.254-10.224-9.566-9.528-12.131-7.411z"
       fill="#b6b6b6"
       stroke="#787878"
       stroke-width=".7"
       id="path111" />
    <path
       d="M-132.599 566.922c1.997.578 5.885 1.359 6.077-1.44.046-.67-3.277-2.307-7.413-1.9M-121.052 574.118c1.891.63 5.262 1.45 5.543-1.27.107-1.033-3.27-2.309-7.286-2.141M-114.53 581.027c1.975.15 5.084 1.005 5.386-1.769.125-1.146-2.896-2.21-7.255-2.2M-114.724 589.216c2.604.523 4.496 1.102 4.489-1.006-.002-.677-2.069-2.482-5.543-2.75"
       fill="#e9d8d0"
       stroke="#967566"
       stroke-width=".7"
       stroke-linecap="round"
       id="path113" />
    <path
       d="M73.87 403.76S44.95 476.743 40.13 503.596c-4.82 26.852 20.657 50.95 20.657 50.95S40.434 656.008 34.51 667.649c-63.47 124.726-38.463 255.93 1.674 378.836H157.84c9.03-105.29-6.269-187.363-27.362-252.295z"
       fill="#e9d8d0"
       id="path115" />
    <path
       d="M105.352 935.516l-67.572 9.957-23.315 26.271 4.893 18.834c9.443 8.032 35.158 12.82 61.725 12.893 34.482.096 79.365-9.424 79.365-9.424l.03-13.444z"
       fill="#b29389"
       id="path117" />
    <path
       d="M73.87 403.76S44.95 476.743 40.13 503.596c-4.82 26.852 20.657 50.95 20.657 50.95S40.434 656.008 34.51 667.649c-63.47 124.726-38.463 255.93 1.674 378.836H157.84c9.03-105.29-6.269-187.363-27.362-252.295z"
       fill="none"
       stroke="#967566"
       stroke-width=".7"
       stroke-linejoin="round"
       id="path119" />
    <path
       d="M28.38 1022.22l-1.918.485a991.92 991.92 0 007.921 23.78h125.028a962.955 962.955 0 001.695-23.077l-1.328.133c-2.065 23.369-125.61 15.662-131.398-1.32z"
       fill="#c7cdf9"
       id="path121" />
    <path
       d="M161.458 1023.053l-1.68.488-1.09 3.12-2.24 2.446-3.836 2.39-2.871 1.39-5.557 1.73-6.756 1.285-8.728 1.2-7.729.726-10.685.373-24.643-.695c.875 2.581 1.731 5.6 2.512 8.978h71.434l.464-4.806.996-12.985z"
       fill="#8a99e5"
       id="path123" />
    <path
       d="M26.692 1022.687c2.924 9.16 5.254 16.307 7.775 23.797H159.62c.706-7.695 1.3-15.413 1.773-23.076z"
       fill="none"
       stroke="#6a7098"
       stroke-width=".7"
       stroke-linecap="round"
       stroke-linejoin="round"
       id="path125" />
    <path
       d="M28.264 1022.203c5.647 16.489 129.7 25.179 131.514 1.338z"
       fill="none"
       stroke="#989cc1"
       stroke-linecap="round"
       id="path127" />
    <path
       d="M42.872 1011.92c-8.627-.024-14.432 1.154-15.553 3.904-3.509 8.61-.99 20.404 6.021 30.66h129.465c-5.003-14.95-85.258-34.468-119.933-34.564z"
       fill="#c7cdf9"
       id="path129" />
    <path
       d="M161.235 1045.672l-.314.812h1.894l-.021-.228z"
       fill="#8a99e5"
       id="path131" />
    <path
       d="M42.872 1011.92c-8.627-.024-14.432 1.154-15.553 3.904-3.509 8.61-.99 20.404 6.021 30.66h129.465c-5.003-14.95-85.258-34.468-119.933-34.564z"
       fill="none"
       stroke="#6a7098"
       stroke-width=".7"
       id="path133" />
    <path
       d="M202.614 345.73l-74.035 480.03c-17.264 21.842-89.996 143.863-108.85 220.724h142.885c27.418-46.878 67.293-110.327 87.828-175.078 31.23-60.68 10.029-140.894-34.365-186.685-41.958-43.28 55.064-122.138 90.36-230.465 14.518-44.56-10.861-55.657-23.065-66.117-11.144-9.552-62.168-36.28-80.758-42.409z"
       fill="#e9d8d0"
       id="path135" />
    <path
       d="M62.454 939.383L49.842 965.64l-2.334 5.4c17.912-18.474 75.694 18.705 72.811 30.03-5.065 19.894-10.167 34.52-14.44 45.413h56.784l11.959-20.384 18.402-31.504 5.506-9.703-92.873-43.518z"
       fill="#b29389"
       id="path137" />
    <path
       d="M202.614 345.73l-74.035 480.03c-17.264 21.842-89.996 143.863-108.85 220.724h142.885c27.418-46.878 67.293-110.327 87.828-175.078 31.23-60.68 10.029-140.894-34.365-186.685-41.958-43.28 55.064-122.138 90.36-230.465 14.518-44.56-10.861-55.657-23.065-66.117-11.144-9.552-62.168-36.28-80.758-42.409z"
       fill="none"
       stroke="#967566"
       stroke-width=".7"
       stroke-linecap="round"
       stroke-linejoin="round"
       id="path139" />
    <path
       d="M130.267 312.1l1.37 17.696-.31 12.644-1.487 13.566 30.706-.416 50.94.441-2.005-11.946-1.11-9.02-.696-12.593.47-7.737.8-5.292.847-5.938.968-5.163 2.641-11.113 2.147-7.278 1.807-5.11 4.683-11.98-16.212 6.37-4.529 6.657-8.538 9.193-6.468 3.285-16.483 8.532-11.226 3.716-15.34 4.574z"
       fill="#e9d8d0"
       id="path141" />
    <path
       d="M221.542 263.798c-5.74 10.902-13.45 36.192-14.042 57.463-.4 14.374 5.716 42.949 5.716 42.949"
       fill="none"
       stroke="#927163"
       stroke-width="1.03"
       stroke-linejoin="round"
       id="path143" />
    <path
       d="M161.176 810.014l69.262-439.097-16.9-17.638-84.416.868-54.833 69.059 28.89 378.576"
       fill="#e9d8d0"
       id="path145" />
    <path
       d="M131.178 322.884l.167 3.958.004 10.35-1.551 15.348-2.254 23.606.257 36.228 22.123-22.167c-13.988-16.694-18.746-67.323-18.746-67.323z"
       fill="#b89e93"
       id="path147" />
    <path
       d="M129.871 308.52s4.158 28.647-1.107 48.669"
       fill="none"
       stroke="#927163"
       stroke-width=".7"
       stroke-linecap="round"
       stroke-linejoin="round"
       id="path149" />
    <path
       d="M129.07 308.52c45.355-1.173 57.402 9.165 54.805 39.32 8.804.7 28.813 16.232 28.813 16.232l-5.328-38.444 1.157-16.254 1.2-7.855 5.218-20.264 5.032-14.398-3.099-.838-10.29 3.257-3.589 2.855-4.486 5.108-6.132-.324.041 5.305-4.166 4.617-6.646 2.564-8.184 6.249-9.908 3.334-19.874 6.097-4.94 1.176z"
       fill="#a18981"
       id="path151" />
    <path
       d="M27.192 1015.814c-2.802 7.853-5.942 18.527-8.68 30.67h22.155c-3.535-2.66-6.54-5.54-8.684-8.695-4.563-6.716-5.569-14.487-3.531-21.623z"
       fill="#c7cdf9"
       id="path153" />
    <path
       d="M27.319 1015.824c-2.801 7.852-5.983 18.521-8.756 30.66h130.46"
       fill="none"
       stroke="#6a7098"
       stroke-width=".7"
       stroke-linecap="round"
       stroke-linejoin="round"
       id="path155" />
    <path
       d="M28.653 1016.092c-3.618 12.857 1.843 22.799 11.652 30.392h107.748"
       fill="none"
       stroke="#6a7098"
       stroke-width=".7"
       stroke-linecap="round"
       id="path157" />
    <path
       d="M9.84 315.07c-.243.467-1.595 9.053-3.418 9.113"
       fill="none"
       stroke="#000"
       id="path159" />
    <path
       d="M107.199 361.532s-39.203 22.126-45.453 34.966c-3.531 7.256-28.08 92.4-37.673 97.965 19.223 17.688 79.424 14.347 79.424 14.347z"
       fill="#c7cdf9"
       stroke="#6a7098"
       stroke-width=".7"
       stroke-linejoin="round"
       id="path161" />
    <path
       d="M214.956 348.798c28.77 14.432 56.432 30.082 73.889 42.62 44.12 31.691 7.519 98.256-14.883 134.5-37.056 59.952-68.025 115.345-66.8 137.446-44.833 8.363-127.779 19.755-171.474.399L59.75 554.848c-7.367-6.998-22.511-30.152-21.424-43.37 3.084-37.474 28.326-91.088 44.204-134.345 11.406-7.829 30.369-19.7 47.807-30.746l-1.774 63.8 6.883-12.893 9.64-14.81 5.824-7.683 8.44-9.943 6.011-6.604 3.867-1.618 4.245-2.065 3.648-2.103 5.337-3.563 2.836-2.13z"
       fill="#c7cdf9"
       id="path163" />
    <path
       d="M124.627 350c-7.514 8.144-14.513 20.29-24.876 44.389-3.293 17.1 5.583 48.421 16.918 67.918l-43.883-20.743 25.334-69.86 13.143-17.709 9.712-1.83z"
       fill="#8a99e5"
       id="path165" />
    <path
       d="M208.105 345.395c31.177 15.337 61.9 32.492 80.74 46.024 44.12 31.69 7.519 98.255-14.883 134.499-37.056 59.952-68.025 115.345-66.8 137.446-88.849 20.25-151.287 7.904-171.474.399L59.75 554.848c-7.367-6.998-22.511-30.152-21.424-43.37 3.084-37.474 28.326-91.088 44.204-134.345 11.264-7.731 29.896-19.404 47.153-30.332"
       fill="none"
       stroke="#6a7098"
       stroke-width="1.03"
       stroke-linecap="round"
       stroke-linejoin="round"
       id="path167" />
    <path
       d="M125.562 417.756c8.615-19.309 41.005-62.114 50.227-29.24l-1.274-7.11-1.607-7.05-3.073-7.856-4.072-5.942-6.416 7.441-13.02 14.812-9.9 13.322-6.47 11.628zM208.281 315.805l1.19 1.176-.022 1.374-2.925 5.903-4.56 6.207-8.28 8.998-9.809 8.377c7.625 2.73 9.084 26.665 4.356 35.972l9.265-9.454 6.58-7.805 6.054-8.389 4.535-8.592.75-3.615.135-4.967-.48-10.326-1.287-7.552-2.476-5.901-3.162-2.476z"
       fill="#8a99e5"
       id="path169" />
    <path
       d="M214.956 348.798l-23.389 31.807-3.337 3.207-6.19 5.277-5.51 3.62-2.926 31.749c-1.302 6.936-18.441 33.775-18.441 33.775-12.442.105-30.971-3.502-41.132-5.646l-.745.536c-1.544-.348-5.096-2.196-5.685-2.354 0 0 1.395 5.614 10.344 7.747 11.855 2.827 34.019 2.867 33.454 3.647l10.846-1.035 18.445 1.147 1.978-3.681c-6.006.99-18.626.559-18.626.559 4.169-4.635 12.745-14.866 16.514-24.433l.136 25.658 32.407-.047 6.449 7.787 5.137 5.688 6.144-5.27 13.889-11.627 15.84-13.336-10.072-4.4 15.353-43.563 11.697-12.31-10.398-6.016-29.908-16.941z"
       fill="#8a99e5"
       id="path171" />
    <path
       d="M125.279 440.977c1.438.497 2.741 4.401 1.408 6.373-1.333 1.972-3.344 1.774-5.426 1.34z"
       fill="#8a99e5"
       id="path173" />
    <path
       d="M207.752 315.64s2.016.576 1.901 2.304c-1.74 7.419-21.42 31.912-44.293 40.31-31.903 34.32-43.574 56.66-62.202 134.3-18.629 77.64 1.255 37.106 9.542 63.872-2.78 52.196-17.379 107.7-19.475 117.362 2.153-9.492 17.77-63.988 21.024-116.459-6.597-27.592-30.95 33.26-9.512-64.542 21.438-97.803 32.198-97.973 61.026-132.229 7.33 8.636 8.057 17.168 10.768 32.15 12.822-6.613 38.99-36.914 38.884-46.751.45-8.076.229-30.317-7.836-31.239"
       fill="none"
       stroke="#6a7098"
       stroke-width=".7"
       stroke-linejoin="round"
       id="path175" />
    <path
       d="M132.23 421.094c1.437.497 2.74 4.402 1.408 6.374-1.334 1.972-3.3 1.954-5.382 1.52z"
       fill="#8a99e5"
       id="path177" />
    <ellipse
       cx="275.511"
       cy="348.431"
       rx="3.739"
       ry="4.52"
       transform="rotate(21.33)"
       fill="#7a7fc5"
       id="ellipse179" />
    <ellipse
       transform="rotate(21.33)"
       ry="3.366"
       rx="2.784"
       cy="348.4"
       cx="275.507"
       fill="#8a99e5"
       id="ellipse181" />
    <ellipse
       cx="274.554"
       cy="347.116"
       rx=".616"
       ry=".744"
       transform="rotate(21.33)"
       fill="#7a7fc5"
       id="ellipse183" />
    <ellipse
       cx="276.517"
       cy="347.247"
       rx=".616"
       ry=".744"
       transform="rotate(21.33)"
       fill="#7a7fc5"
       id="ellipse185" />
    <ellipse
       cx="274.518"
       cy="349.453"
       rx=".616"
       ry=".744"
       transform="rotate(21.33)"
       fill="#7a7fc5"
       id="ellipse187" />
    <ellipse
       cx="276.408"
       cy="349.607"
       rx=".616"
       ry=".744"
       transform="rotate(21.33)"
       fill="#7a7fc5"
       id="ellipse189" />
    <ellipse
       transform="rotate(14.305)"
       ry="4.52"
       rx="3.739"
       cy="400.408"
       cx="228.859"
       fill="#7a7fc5"
       id="ellipse191" />
    <ellipse
       cx="228.855"
       cy="400.378"
       rx="2.784"
       ry="3.366"
       transform="rotate(14.305)"
       fill="#8a99e5"
       id="ellipse193" />
    <ellipse
       transform="rotate(14.305)"
       ry=".744"
       rx=".616"
       cy="399.093"
       cx="227.902"
       fill="#7a7fc5"
       id="ellipse195" />
    <ellipse
       transform="rotate(14.305)"
       ry=".744"
       rx=".616"
       cy="399.225"
       cx="229.865"
       fill="#7a7fc5"
       id="ellipse197" />
    <ellipse
       transform="rotate(14.305)"
       ry=".744"
       rx=".616"
       cy="401.431"
       cx="227.866"
       fill="#7a7fc5"
       id="ellipse199" />
    <ellipse
       transform="rotate(14.305)"
       ry=".744"
       rx=".616"
       cy="401.585"
       cx="229.756"
       fill="#7a7fc5"
       id="ellipse201" />
    <path
       d="M141.015 400.624c.05 1.1-.098 2.86-.72 4.315-.62 1.455-1.721 2.57-3.194 3.528-.055-1.54.386-3.578.894-4.626.507-1.048 1.904-2.59 3.02-3.217z"
       fill="#8a99e5"
       id="path203" />
    <path
       d="M137.976 406.829s.468-1.648.9-2.522c.434-.874 1.369-2.153 1.369-2.153s-.477 1.706-.91 2.582c-.433.876-1.359 2.093-1.359 2.093z"
       fill="#6269bb"
       stroke="#6269bb"
       stroke-width=".352625"
       stroke-linecap="round"
       stroke-miterlimit="6.6"
       id="path205" />
    <path
       d="M129.423 423.133c.697 1.61.89 3.17.89 3.17M128.605 425.423c1.28-1.021 2.626-1.44 2.626-1.44M122.28 443.028a37.618 37.618 0 011.12 2.902M121.461 445.318c.781-.71 2.197-1.522 2.626-1.653"
       fill="none"
       stroke="#6a70be"
       stroke-width=".7"
       stroke-linecap="round"
       id="path207" />
    <path
       d="M266.687 375.839l-5.127-2.66c-16.847 8.91-50.392 76.98-50.392 76.98l3.86 20.345 4.452-2.175 1.129-9.589 2.196-8.58 4.089-12.317 6.203-15.939 8.433-16.924 7.274-12.708 5.622-7.264 2.827-3.944 1.749-1.721 3.058-2.264 2.258-.929 1.269-.106zM77.564 443.195l4.83-15.65 6.296-15.76 6.26-15.317 6.832-14.325 8.149-15.392 4.291-6.796 3.122-3.907 3.522-4.77-3.748-1.194-13.728 7.088-30.604 84.392z"
       fill="#898ee2"
       id="path209" />
    <path
       d="M218.68 466.479c-4.713-9.3 26.715-88.96 46.818-92.265 0 0-.374-.25.991.281-5.656-5.197-21.958-15.146-27.963-11.654-17.15 9.97-41.101 61.027-52.816 95.481-2.947 8.669-112.59-6.518-109.47-18.147 6.934-25.84 36.162-89.108 44.867-89.999-4.211-3.453-29.133 14.75-32.493 19.033-7.838 9.993-43.01 90.339-50.948 127.386-1.782 8.314-3.531 24.14 4.587 37.992 4.375 7.466 13.762 21.013 14.187 24.915.697 6.388-9.438 47.105-21.872 104.698-58.043 95.057-40.45 209.39-105.822 292.532 32.187-13.188 100.965 43.975 123.347 7.902 26.06-42.003 102.396 43.976 163.96 20.007 49.867-19.415 41.277-31.34 83.016-28.803-6.965-41.142-2.886-196.213-85.144-278.472-8.704-8.703-.941-35.044 3.963-45.869 12.16-26.835 75.103-134.428 75.103-134.428-24.582 1.851-63.145-11.103-74.31-30.59z"
       fill="#898ee2"
       id="path211" />
    <path
       d="M77.523 442.854l.84-3.508 3.394-10.228 4.236-11.3 4.2-10.076 5.497-12.852 11.298-23.1 7.286-11.934 6.693-7.575 1.811-1.012-1.9-1.276-2.557-.243-7.328 3.102-11.906 7.677-9.629 7.63-3.066 4.285-4.628 9.012-4.225 8.664-1.43 50.84zM211.368 673.27l-.793-2.73-.478-3.407-.08-4.25.499-5.72 1.53-8.338 3.45-11.36 3.512-8.368 4.726-9.409 6.97-13.095 8.143-14.839 13.33-23.77 14.566-25.554 11.67-20.265 14.578-25.096-3.169.156-8.802-.303-7.58-.966-10.055-2.14-7.985-2.38-10.017-3.923-9.97-5.234-5.518-3.741-6.237-5.501-4.178-4.708.41-3.485 1.196-7.967 1.72-6.717 2.043-6.159 2.829-8.173 3.268-8.709 4.085-9.307 3.685-7.65 5.49-10.278 5.45-8.918 4.012-5.656 3.585-4.246 1.749-1.721 2.17-1.723 2.017-1.005 1.565-.367 1.21.208 1.174.829.962-.056-1.61-2.734-3.876-3.096-5.702-3.695-6.734-3.418-4.532-1.587-2.961-.54-2.933.184-2.961 1.628-3.73 3.166-7.046 8.175-4.921 7.065-7.242 12.05-4.901 9.149-6.844 14.041-8.543 19.707-6.602 17.385-1.503 4.046c-11.853 14.024-20.115 56.682-22.628 67.684-2.945 13.114 8.524 32.306 17.5 47.659l-10.733 104.826c28.123 161.028-36.958 294.149-36.958 294.149l15.414 6.262 6.917 2.482 9.005 2.804 7.343 1.851 6.548 1.26 7.03.883 7.746.324 6.991-.376 4.371-.598 3.263-.645 5.99-1.669 5.177-1.95 6.092-2.517 7.996-3.6 6.892-3.421 5.692-3.08c12.958-92.32 2.61-176.784-19.822-247.345 39.505 69.823 50.223 200.798 45.713 233.85l5.655-1.246 5.797-.64 4.31-.181 5.929.03 6.38.287-.763-5.267-.821-7.455-.705-7.734-1.23-15.009-1.157-13.852-1.59-16.936-1.928-17.294-1.657-12.667L287.327 847l-1.592-9.462-2.008-10.75-2.018-9.736-2.765-11.964-3.223-12.366-4.051-13.682-3.2-9.647-4.514-12.218-6.25-14.784-4.64-9.694-7.529-13.869-5.675-9.203-5.016-7.383-6.83-9.078-8.945-10.439-5.92-6.233-1.783-3.222"
       fill="#6269bb"
       id="path213" />
    <path
       d="M218.68 466.479c-4.713-9.3 26.715-88.96 46.818-92.265 0 0 .528.045.991.281-5.656-5.197-21.958-15.146-27.963-11.654-17.15 9.97-41.101 61.027-52.816 95.481-2.947 8.669-112.59-6.518-109.47-18.147 6.934-25.84 36.162-89.108 44.867-89.999-4.211-3.453-29.133 14.75-32.493 19.033-7.838 9.993-43.01 90.339-50.948 127.386-1.782 8.314-3.531 24.14 4.587 37.992 4.375 7.466 13.762 21.013 14.187 24.915.697 6.388-9.438 47.105-21.872 104.698-58.043 95.057-40.45 209.39-105.822 292.532 32.187-13.188 100.965 43.975 123.347 7.902 26.06-42.003 102.396 43.976 163.96 20.007 49.867-19.415 41.277-31.34 83.016-28.803-6.965-41.142-2.886-196.213-85.144-278.472-8.704-8.703-.941-35.044 3.963-45.869 12.16-26.835 75.103-134.428 75.103-134.428-24.582 1.851-63.145-11.103-74.31-30.59z"
       fill="none"
       stroke="#605baa"
       stroke-width=".7"
       stroke-linejoin="round"
       id="path215" />
    <path
       d="M267.33 377.423c-10.095-11.271-46.884 61.509-47.767 90.497M120.975 352.165c-16.813 14.932-41.61 81.023-43.412 90.349"
       fill="none"
       stroke="#605baa"
       stroke-width=".7"
       stroke-linecap="round"
       id="path217" />
    <path
       d="M218.68 466.479c-4.713-9.3 26.715-88.96 46.818-92.265 0 0-.374-.25.991.281-5.656-5.197-21.958-15.146-27.963-11.654-17.15 9.97-41.101 61.027-52.816 95.481-2.947 8.669-112.59-6.518-109.47-18.147 6.934-25.84 36.162-89.108 44.867-89.999-4.211-3.453-29.133 14.75-32.493 19.033-7.838 9.993-43.01 90.339-50.948 127.386-1.782 8.314-3.531 24.14 4.587 37.992 4.375 7.466 13.762 21.013 14.187 24.915.697 6.388-9.438 47.105-21.872 104.698-58.043 95.057-40.45 209.39-105.822 292.532 32.187-13.188 100.965 43.975 123.347 7.902 26.06-42.003 102.396 43.976 163.96 20.007 49.867-19.415 41.277-31.34 83.016-28.803-6.965-41.142-2.886-196.213-85.144-278.472-8.704-8.703-.941-35.044 3.963-45.869 12.16-26.835 75.103-134.428 75.103-134.428-24.582 1.851-63.145-11.103-74.31-30.59z"
       fill="none"
       id="path219" />
    <path
       d="M76.753 440.462c-13.278 28.662-21.492 60.602-21.43 75.574.063 14.944 18.997 41.216 19.377 44.14.644 4.95-5.837 39.959-18.209 106.76-42.651 97.78-31.504 227.935-74.46 298.515 3.99 1.409 7.912 2.987 11.888 4.333 12.024 4.072 23.765 7.33 33.982 7.41 10.216.082 18.812-3.13 24.508-12.312 3.204-5.163 7.196-8.378 11.783-10.052 4.587-1.674 9.94-1.883 15.772-1.002 11.664 1.762 25.61 7.756 40.626 14.38 8.586 3.786 17.553 7.75 26.698 11.222 49.946-157.11 1.612-223.901 10.293-303.683 7.53-58.542 12.395-100.954 11.844-105.072-.557-4.159-12.45-35.92-11.815-47.186.443-7.853 12.305-35.748 26.457-64.199-.147.074-.837.276-1.022.346-.895.336-1.468.133-3.08.326-3.222.386-7.716.46-13.023.268-10.612-.386-24.482-1.834-38.16-3.914-13.677-2.081-27.169-4.798-37.013-7.71-4.923-1.455-8.936-2.963-11.575-4.437-1.319-.737-2.29-1.47-2.851-2.135-.511-.604-.669-1.093-.59-1.572z"
       fill="#e5e8fd"
       id="path221" />
    <path
       d="M34.323 663.407c-6.118-2.644.382-35.544 7.306-32.531 34.245 14.9 86.84 21.783 171.199 9.027 4.598-.696 8.948 33.53-.845 35.072C131.098 687.71 68 677.963 34.323 663.407z"
       fill="#c7cdf9"
       id="path223" />
    <path
       d="M156.757 685.52c8.844.61 14.984.466 14.984.466l-1.376-6.163-13.275.708z"
       fill="#6269bb"
       id="path225" />
    <path
       d="M173.078 644.723c6.534 2.712 6.661 19.018 3.306 27.264-2.652 6.52-34.002 9.938-88.386 5.361l6.349.983 8.162.72 8.3.681 10.846.752 13.842.317 12.81-.088 12.178-.363 20.66-1.489 11.58-1.23 10.236-1.317 9.299-1.432 1.888-.937 1.78-2.478 1.197-3.69.713-6.077-.107-6.289-.516-4.783-.87-4.508-1.125-3.558-1.557-2.413-.748-.255-6.948 1.013-7.783 1.056-9.004 1.106-8.559.93z"
       fill="#8a99e5"
       id="path227" />
    <path
       d="M84.048 676.69c10.253 4.824 46.104 8.355 72.708 8.852l.33-5.01-17.557.36-18.228-.416-10.613-.752-13.94-1.147z"
       fill="#bdc2f8"
       id="path229" />
    <path
       d="M34.323 663.407c-6.118-2.644.382-35.544 7.306-32.531 34.245 14.9 86.84 21.783 171.199 9.027 4.598-.696 8.948 33.53-.845 35.072C131.098 687.71 68 677.963 34.323 663.407z"
       fill="none"
       stroke="#6a7098"
       stroke-width=".7"
       stroke-linecap="round"
       stroke-linejoin="round"
       id="path231" />
    <path
       d="M170.228 841.28c-8.091 35.64-20.881 76.782-40.187 131.072 5.663 2.454 11.44 4.885 17.303 7.111 17.806-56.01 23.014-100.421 22.884-138.183zM118.343 754.841C79.248 866.162 24.572 970.704 15.83 975.968c4.194.82 8.248 1.24 12.079 1.24 7.736 0 13.945-1.668 19.188-6.051l4.745-11.095s54.818-142.043 66.5-205.221zM184.112 459.237c-.147.073-.65.232-.844.274-1.231.267-1.69.258-3.302.451-.76.091-1.604.162-2.5.219l-6.047 10.256s5.064-1.34 11.675-9.154c.33-.667.686-1.379 1.018-2.046zM151.013 459.1l-5.176 9.307-13.43 15.15c7.017-2.568 20.783-12.919 30.873-23.5a291.665 291.665 0 01-12.267-.956z"
       fill="#babff8"
       id="path233" />
    <path
       d="M106.923 452.36l20.523 29.567c-6.352-11.724-10.953-20.446-15.414-28.52-1.738-.34-3.439-.69-5.11-1.046z"
       fill="#bdc2f8"
       id="path235" />
    <path
       d="M80.276 444.212c2.712 9.503 6.91 23.38 9.106 26.309-.6-6.604-.778-14.724-.637-22.86-3.496-1.142-6.403-2.306-8.469-3.449z"
       fill="#babff8"
       id="path237" />
    <path
       d="M130.892 322.936l-4.618 4.21-3.998 3.643-5.495 5.1-8.575 10.133-8.305 12.57-3.418 10.741-1.914 9.762s6.725-18.889 17.66-24.808l3.371 8.28 4.538 10.882 2.713 10.647 5.594 26.036.832-1.755 1.218-61.692.378-5.801.18-4.853.058-2.779-.04-4.64z"
       fill="#8a99e5"
       id="path239" />
    <path
       d="M110.006 346.605c1.61-7.936 14.382-16.816 20.542-23.624-32.977 28.456-32.697 40.49-36.158 55.903 2.001-11.392 4.704-23.027 14.103-31.49 4.323 8.249 15.685 34.493 20.046 63.223-1.953-25.022-14.488-56.491-18.533-64.012z"
       fill="#c7cdf9"
       stroke="#6a7098"
       stroke-width=".7"
       stroke-linecap="square"
       stroke-linejoin="round"
       id="path241" />
    <path
       d="M94.39 378.884c1.36-5.815 12.768-23.011 17.467-24.449"
       fill="none"
       stroke="#6a7098"
       stroke-width=".7"
       id="path243" />
    <path
       d="M78.602 409.248c.885 14.866 20.206 51.28 50.397 74.843-62.692-85.617-54.014-212.31-55.485-344.702l-33.16 1.076 6.448 64.383 12.436 152.96zM40.354 140.465c3.604 148.771-6.732 277.667 48.942 330.73-4.192-15.855-7.407-32.829-7.585-49.502"
       fill="#6e685a"
       id="path245" />
    <path
       d="M73.514 139.389l-20.343.66s1.393 149.394 3.733 196.818c1.241 25.146 5.883 86.937 32.392 134.328l-1.57-6.196-1.826-8.062-2.09-11.369-1.164-8.73-.754-9.346.215-4.832-2.723-8.465c13.264 24.663 32.987 54.99 49.614 69.896l-4.16-5.893-6.616-10.363-4.8-8.43-5.01-9.821-3.195-6.928-4.062-9.724-3.108-8.287-4.238-12.823-3.834-13.635-4.321-18.803-2.34-12.496-2.165-13.81-2.394-19.362-1.583-16.987-1.378-20.34-.916-20.104-.562-19.43-.324-19.43-.132-14.71-.083-19.608-.036-19.38-.05-19.647z"
       fill-opacity=".3"
       id="path247" />
    <path
       d="M78.602 409.248c.885 14.866 20.206 51.28 50.397 74.843-62.692-85.617-54.014-212.31-55.485-344.702"
       fill="none"
       stroke="#423c38"
       stroke-width=".7"
       stroke-linecap="round"
       stroke-miterlimit="100"
       id="path249" />
    <path
       d="M40.354 140.465c3.604 148.771-6.732 277.667 48.942 330.73-4.192-15.855-7.407-32.829-7.585-49.502"
       fill="none"
       stroke="#423c38"
       stroke-width=".7"
       stroke-linecap="round"
       stroke-linejoin="round"
       id="path251" />
    <path
       d="M-11.262 303.878c-5.158 1.229-8.09 7.467-6.549 13.932 1.542 6.467 6.973 10.711 12.132 9.481 5.157-1.23 8.089-7.469 6.547-13.934-1.542-6.465-6.972-10.709-12.13-9.48zm.677 2.973c3.837-.915 7.878 2.242 9.024 7.052 1.147 4.81-1.034 9.45-4.871 10.365-3.837.914-6.7-2.642-7.846-7.45-1.147-4.81-.143-9.052 3.693-9.967z"
       fill="#6c6c6c"
       id="path253" />
    <path
       d="M-2.509 321.374l1.187-2.886.188-1.61s1.782-4.171-1.505-8.142c-3.287-3.971-7.624-4.947-10.856-3.974l1.905-.814 2.82-.298 2.526.781 3.466 2.274 2.061 2.858 1.289 2.895.805 4.393-.274 2.454-.864 2.59-1.445 2.552z"
       fill="#585858"
       id="path255" />
    <path
       d="M-11.262 303.878c-5.158 1.229-8.09 7.467-6.549 13.932 1.542 6.467 6.973 10.711 12.132 9.481 5.157-1.23 8.089-7.469 6.547-13.934-1.542-6.465-6.972-10.709-12.13-9.48zm.677 2.973c3.837-.915 7.878 2.242 9.024 7.052 1.147 4.81-1.034 9.45-4.871 10.365-3.837.914-6.7-2.642-7.846-7.45-1.147-4.81-.143-9.052 3.693-9.967z"
       fill="none"
       stroke="#3c3c3c"
       stroke-width=".7"
       stroke-linecap="square"
       stroke-linejoin="round"
       id="path257" />
    <path
       d="M4.914 327.592l4.922-.288 5.815.649 4.086 1.228 3.91 1.907 3.79 2.69 3.519 3.435 3.135 4.054 3.505 6.066 2.407 5.95 2.255 6.86 1.233 6.198.532 5.21.036 5.014-.662 5.941-1.106 4.44-2.039 4.94-2.797 4.38-4.236 4.361-5.182 3.105-5.28 2.603-5.957 1.37-6.048-.043-4.78-1.147-3.643-1.607-3.324-2.09-3.167-2.624-3.884-4.227-3.02-4.248-2.213-3.812-2.6-5.5-1.913-5.062-1.604-5.275-1.036-4.427-.83-5.5-.257-4.955.448-6.095.869-4.053 1.389-3.903 1.903-3.584 2.397-3.176 3.792-3.399 4.444-2.448-3.817-10.365-1.257.729-1.037-2.92 8.967-3.188 1.038 2.92-1.475.524L.09 328.48z"
       fill="#6c6c6c"
       id="path259" />
    <path
       d="M-9.81 320.33l3.849 10.038 3.684-1.005 3.055-.242 3.714.292 4.305 1.03 2.691 1.006 5.249 2.815 3.673 2.748 3.225 3.086 1.755 2.016 1.827 2.42 1.646 2.535 1.61 2.917 1.703 3.75 1.655 4.633 1.132 4.066.785 3.603.731 4.663.359 3.78.14 4.15-.13 3.907-.297 3.355-.422 2.254-.66 2.852-1.414 4.096-1.273 2.58-1.01 1.624-1.069 1.429-1.417 1.55-1.25 1.454 2.067-.856 1.694-1.146 1.422-1.103 1.533-1.365 1.63-1.701 2.08-2.677 1.79-2.999 1.29-2.839.892-2.564.963-3.976.333-2.984.375-5.193-.253-5.033-.49-3.786-.588-3.138-.917-3.753-1.455-4.008-1.274-3.797-1.532-3.48-1.57-2.958-1.935-3.11-1.967-2.667-2.413-2.72-3.55-3.463-3.457-2.236-3.919-1.7-4.15-.727-2.906-.365-3.974-.048-3.753.415-3.912.726-3.866-10.41 1.393-.366-1.038-2.919-4.779 1.7c.663.748-.953 2.558-1.193 3.623z"
       fill="#585858"
       id="path261" />
    <path
       d="M16.737 334.264c-1.37.59-1.222 2.287-2.74 5.785 1.564 6.992 2.864 11.506 4.094 20.195 8.133 8.01 18.817 16.312 18.817 16.312l-.357 9.337-12.011-1.142-31.89-16.797-6.125-30.044 4.844-6.569 5.554-1.837 13.466-1.718z"
       fill="#585858"
       id="path263" />
    <path
       d="M-10.094 320.165l3.817 10.365"
       fill="none"
       stroke="#3c3c3c"
       stroke-width=".744"
       id="path265" />
    <path
       d="M-4.203 329.8c9.755-2.896 27.607 3.216 36.067 23.184 7.534 17.78 8.53 47.52-9.428 53.46-18.66 6.173-34.387-8.185-41.525-33.26-7.138-25.075 2.536-39.717 14.886-43.384zM-3.776 318.07L.09 328.48"
       fill="none"
       stroke="#3c3c3c"
       stroke-width=".7"
       id="path267" />
    <path
       d="M-12.388 317.975l8.967-3.189 1.038 2.92-8.968 3.188z"
       fill="none"
       stroke="#3c3c3c"
       stroke-width=".7"
       stroke-linecap="square"
       stroke-linejoin="round"
       id="path269" />
    <path
       d="M-4.376 329.834c20.213-6.997 33.444-.321 42.277 18.128 8.77 18.317 12.11 50.371-16.774 58.883"
       fill="none"
       stroke="#3c3c3c"
       stroke-width=".7"
       id="path271" />
    <path
       d="M293.256 557.554l-4.064-4.456-2.362-2.7-1.199-4.108-1.734-4.414-6.975-12.921-9.974-13.524-10.56-10.675-10.385-7.58-9.76-4.642-10.022-2.793-9.91.286-8.965 2.226-6.828 3.72-4.281 3.84-1.357 2.967.161 2.632 1.73 5.002 4.468 5.793 12.09 10.635 16.094 10.8 14.328 7.816 10.522 5.388 14.153 5.947 12.425 3.977 6.434 1.195 5.064.477 4.097-.654 1.462-.804z"
       fill="#7b86d1"
       id="path273" />
    <path
       d="M297.778 561.096c-15.492 10.518-116.61-43.185-101.29-61.246M295.03 560.532c-5.672 5.02-48.547-13.956-67.646-25.687-20.054-12.319-34.17-26.856-29.092-34.097"
       fill="none"
       stroke="#6a7098"
       stroke-width=".7"
       stroke-linecap="round"
       stroke-linejoin="round"
       id="path275" />
    <path
       d="M135.606 615.912l-8.526-9.01-12.863-16.438-24.402-35.666-23.889-37.89-22.894-37.587-22.586-36.602-12.483-16.404-15.61-20.492-9.165-11.98-5.042-10.055-3.597-9.812-.317-9.499-.085-4.06-.037-11.522-2.083-11.187 2.65-2.86 4.252-5.544 4.73-5.51.548.394 3.986-7.054.964-.683 1.105-.602 3.321 2.385 1.082 2.392-.142 3.69-1.07 4.269-1.94 4.976-2.924 5.696 3.48 8.575 3.034 10.83 3.221 3.137-1.871-11.575-.76-12.747 3.696-10.72 2.162-7.09 1.467-2.86 3.092-1.973 2.26-.397 2.267.976.824 2.623-.233 5.43-1.678 8.64-2.322 7.093.972 3.514 1.856 13.875.227 4.603 20.395 21.455 6.366 2.51 4.912.064 1.29-.753-.994-9.637 1.134-8.074-3.374-2.36-3.615-4.172-2.15-4.213-.904-4.13.41-4.052 2.51.172 4.64 2.712 14.307 11.953 1.499 10.162.319 13.516-2.654 12.566-1.647 8.545-.562 6.58.871 5.115 1.07 3.596 22.618 24.96 10.931 10.813 26.686 24.838 11.359 9.934 15.882 14.035 13.338 13.017 7.49 8.623 6.529 8.964 8.63-11.631 9.837-12.152 6.377-7.396 9.024-9.923 18.51-18.511 41.74 7.038 14.703 37.416-20.524 21.586-33.22 31.939-26.13 23.137-13.986 10.714-9.25 4.845-6.984 2.98-8.367 2.538-7 .897-6.286-.514-5.816-1.995z"
       fill="#e9d8d0"
       id="path277" />
    <path
       d="M-18.943 370.88s2.5 7.465 3.776 9.643c1.289 2.2 10.026 11.379 10.026 11.379z"
       fill="#bea79d"
       id="path279" />
    <path
       d="M-5.141 391.902c-3.36-4.721-16.746-25.683-17.518-26.682-.88-6.85-5.223-24.29-5.314-27.512 2.397-2.13 6.81-8.11 9.35-11.936l2.686-2.437c.27.42.144.853.144.853"
       fill="none"
       stroke="#967566"
       stroke-width=".7"
       stroke-linecap="round"
       stroke-linejoin="round"
       stroke-miterlimit="100"
       id="path281" />
    <path
       d="M-15.291 323.204c-2.302-.595-3.76 2.833-5.04 5.06"
       fill="#e9d8d0"
       stroke="#967566"
       stroke-width=".7"
       id="path283" />
    <path
       d="M-19.804 346.516c.03 2.814 3.079 16.283 3.079 16.283 5.27 8.076 12.634 17.214 21.78 24.602l-10.958-13.504-5.28-6.53-2.912-3.628zM-1.676 361.799l-3.22-3.137-.607-2.907-1.337-4.58-1.489-4.502-1.342-3.128-1.74-4.288 2.046-3.83 1.848-4.354 1.505-4.623.652-2.95.025-2.874-1.082-2.392-1.244-.94c.143 3.79-6.204 17.758-7.332 20.729.94 3.073 5.361 17.796 6.622 22.495 3.362 3.077 16.997 17.165 16.997 17.165L3.22 370.1z"
       fill="#bea79d"
       id="path285" />
    <path
       d="M-1.687 361.729c-.953-.84-3.21-3.067-3.21-3.067-.181-2.769-5.02-17.501-6.513-19.405 2.867-4.941 6.2-12.388 6.168-17.667-.02-3.323-3.33-4.762-5.601-5.139-1.895 1.617-2.88 2.552-3.744 4.823-2.406 6.191-5.219 11.319-7.513 17.71.847 2.506 5.245 17.95 8.005 24.755 3.495 4.403 19.15 23.662 19.15 23.662"
       fill="none"
       stroke="#967566"
       stroke-width=".7"
       stroke-linecap="round"
       stroke-linejoin="round"
       stroke-miterlimit="100"
       id="path287" />
    <path
       d="M262.271 443.53c-51.768 38.826-82.906 79.603-93.332 94.4"
       fill="none"
       stroke="#ad9285"
       stroke-width=".7"
       stroke-linecap="round"
       stroke-linejoin="round"
       id="path289" />
    <path
       d="M231.232 491.137s-56.101 69.361-55.284 59.744l-4.9-9.411-5.374-8.022-6.04-7.846-8.982-9.424-8.94-8.726-10.26-9.078-30.538-27.115-18.607-17.88-21.97-22.994-6.23-7.64-1.07-3.595-.872-5.115.28-3.29 1.105-7.563 3.478-16.838-.041-8.509-1.028-10.088-.75-5.081-6.105-4.994-9.299-8.178-3.443-1.93-2.34-.536-.68 4.853 1.079 4.587 1.976 3.756 3.615 4.172 3.374 2.36-1.055 5.732.109 6.78.806 5.2-1.29.752-3.92.13-5.227-1.626-2.13-1.078-6.995-6.968-8.114-8.925-5.287-5.562-.227-4.603-.6-5.623-.99-6.78-1.238-4.986 1.161-3.546 1.786-6.157.722-3.728.448-5.017-.295-4.027-.412-1.311s-7.999 19.798-8.102 22.9c-.103 3.103 1.541 20.225 3.27 24.053 1.73 3.829 16.125 21.941 17.203 23.73 2.286 3.795 4.414 19.257 19.34 37.96 35.797 44.853 101.685 117.831 111.274 134.59 19.667 34.373-9.136 54.845-32.975 40.037l10.695 12.724 4.263 4.505 4.59 2.986 4.474 1.682 4.436.748 4.686-.112 2.994-.233 3.774-.765 3.493-.987 7.105-2.749 6.67-3.029 4.406-2.283 6.126-4.157 13.33-10.788 9.198-8.02 5.931-5.322 8.754-8.028 13.84-13.052 15.403-15.12 16.198-16.479 6.45-6.612-18.531-28.035z"
       fill="#bea79d"
       id="path291" />
    <path
       d="M280.719 386.028c12.426 8.946 32.368 25.776 39.139 42.996 5.32 13.534-14.631 64.894-48.713 101.041-25.65 27.205-76.192 74.492-89.746 81.564-15.836 8.262-34.592 16.122-48.197 2.066-31.872-32.932-90.379-136.598-112.756-170.976 0 0-34.353-45.16-37.258-48.876-2.593-4.065-6.586-12.919-8.639-19.867-.304-5.648-.63-22.622-.44-25.081M54.355 423.358c65.69 75.476 106.896 86.917 124.634 134.91"
       fill="none"
       stroke="#967566"
       stroke-width=".7"
       stroke-linecap="round"
       stroke-linejoin="round"
       id="path293" />
    <path
       d="M14.402 383.947c-9.169-8.897-12.447-16.202-16.078-22.148-2.542-10.713-2.222-20.01-2.63-24.322 3.54-8.125 5.285-18.293 7.163-20.489 2.225-2.602 7.965-4.246 8.533.302.734 5.886-2.19 17.523-4.162 21.91.979 1.026 3.155 17 3.055 21.991 2.85 2.768 15.266 17.052 20.395 21.455 3.679 2.124 10.085 4.174 12.568 1.821-1.232-5.174-1.466-13.541.14-17.711-6.033-3.132-11.92-11.977-9.53-19.264l2.453-.047 3.416 1.963c7.629 8.071 13.177 10.255 15.463 13.228 1.441 1.874 2.32 21.718 1.76 24.29-.656 3.01-3.736 16.737-4.69 23.455-.637 4.493 1.19 10.253 2.097 12.977"
       fill="none"
       stroke="#967566"
       stroke-width=".7"
       stroke-linecap="round"
       stroke-linejoin="round"
       stroke-miterlimit="100"
       id="path295" />
    <path
       d="M7.726 319.88c2.17-2.538 2.491-6.503.017-6.404-3.665.147-5.572 5.461-5.877 7.43M-10.292 321.878c1.731-1.828 2.983-6.502.766-5.954-3.332.824-4.879 4.778-5.599 6.7"
       fill="#e9d8d0"
       stroke="#967566"
       stroke-width=".7"
       stroke-linecap="round"
       id="path297" />
    <path
       d="M43.074 353.224c-1.47-3.153-7.2-8.049-9.053-6.196-.83.83.418 4.67 5.037 6.887"
       fill="#bea79d"
       stroke="#967566"
       stroke-width=".7"
       stroke-linecap="round"
       id="path299" />
    <path
       d="M267.138 377.285c37.652 20.368 47.67 40.254 52.75 49.601 7.253 13.344-7.006 68.609-22.089 134.21-19.01-9.068-24.712-50.353-58.16-65.413-19.623-8.835-35.305-2.148-41.593 4.822 0 0-.415.42-.942 1.997l-1.833 2.029c-.125-1.13.099-2.436.742-3.413.931-1.414 3.012-4.355 6.996-8.112 19.252-18.153 57.549-49.433 57.549-49.433"
       fill="#c7cdf9"
       id="path301" />
    <path
       d="M237.773 462.723l22.785-19.15c-24.096 35.076-30.398 48.92-30.398 48.92l3.913 1.056 5.808 2.14 4.78 2.205 6 3.875 8.079 7.76 3.505 4.375 4.25 5.966 4.185 6.527 2.868 4.735 5.391 9.076 5.897 9.282 3.31 4.456 2.855 3.216 4.028 3.37 2.83.643 1.208-5.669 4.74-20.37 5.467-24.252 5.364-24.238 4.128-20.164 2.824-19.814.418-10.912-.65-5.691-1.791-4.544-3.398-5.908-5.177-7.472-5.544-6.524-4.393-4.446-5.38-4.827-6.185-4.914-5.217-3.739-6.737-4.39-10.398-6.016z"
       fill="#8a99e5"
       id="path303" />
    <path
       d="M267.138 377.285c37.652 20.368 47.904 39.911 52.985 49.258 7.252 13.344-7.263 68.95-22.345 134.553-19.595-12.36-24.247-51.944-57.695-67.004-22.88-10.302-39.586.277-43.595 5.758 4.372-6.623 64.07-56.277 64.07-56.277"
       fill="none"
       stroke="#6a7098"
       stroke-width=".7"
       stroke-linecap="round"
       stroke-linejoin="round"
       id="path305" />
    <path
       d="M198.292 500.748c2.611-3.669 19.45-16.393 46.05-3.017 23.631 11.884 35.2 52.655 50.687 62.8"
       fill="none"
       stroke="#6a7098"
       stroke-width=".699"
       stroke-linecap="round"
       stroke-linejoin="round"
       id="path307" />
    <path
       d="M222.038 262.86c84.71-96.566 28.718-216.69-91.926-196.602-79.757 13.28-104.33 93.313-79.303 153.396.365.877 1.674 5.227 2.722 9.758 2.542 10.993 4.035 25.272 6.12 36.85.752 4.172 2.79 10.578 6.85 15.577 2.816 3.468 6.075 6.49 9.279 9.009 2.711 2.131 5.501 4.283 8.561 6.316 5.076 3.372 12.761 8.24 20.32 12.358 9.75 5.312 14.549 7.544 21.404 6.36 12.64-2.184 50.46-21.357 60.614-27.272 2.002-1.166 15.266-12.554 16.006-17.018"
       fill="#e9d8d0"
       id="path309" />
    <path
       d="M51.445 220.751c41.79 3.209 113.02-12.68 134.456-18.64l-10.868-83.108-128.604 17.97-1.419 6.283-1.671 7.72-1.004 6.604-.736 8.347-.167 9.503.36 6.115.737 6.903.84 5.45 1.624 7.826 1.706 6.352 1.944 5.962z"
       fill="#a18981"
       id="path311" />
    <path
       d="M173.664 194.094c10.52 62.872 1.195 88.594-45.208 121.472l5.862-2.08 10.08-4.044 10.139-4.502 8.712-4.146 8.695-4.324 7.414-3.84 6.543-3.571 3.496-2.532 4.17-3.681 3.361-3.277 3.368-3.776 25.538-21.028-34.015-104.4L166.845 155z"
       fill="#a18981"
       id="path313" />
    <path
       d="M221.542 263.798c85.226-98.342 29.214-217.628-91.43-197.54-79.757 13.28-104.33 93.313-79.303 153.396.365.877 1.674 5.227 2.722 9.758 2.542 10.993 4.035 25.272 6.12 36.85.752 4.172 2.79 10.578 6.85 15.577 2.816 3.468 6.075 6.49 9.279 9.009 2.711 2.131 5.501 4.283 8.561 6.316 5.076 3.372 12.761 8.24 20.32 12.358 9.75 5.312 14.549 7.544 21.404 6.36 12.64-2.184 50.46-21.357 60.614-27.272 4.523-2.634 15.266-12.554 16.006-17.018"
       fill="none"
       stroke="#927163"
       stroke-width=".7"
       stroke-linecap="round"
       stroke-linejoin="round"
       id="path315" />
    <path
       d="M117.702 280.348l1.91 1.007 1.367 1.174.891 1.645-.607 2.03-.924.682-1.531.3-1.469-.428-1.876-1.525-1.225-1.54-.76-1.95.483-1.662 1.648-.336z"
       fill="#835656"
       id="path317" />
    <path
       d="M121.933 285.161l-.67 1.043-.924.682-1.078.211-1.204.039-1.245-.679-.976-.92c2.218-.828 4.82-1.558 6.05-1.565z"
       fill="#b68282"
       id="path319" />
    <path
       d="M89.33 212.915c.053.524-.297 1.309-.966.06-.896-1.67-2.794-3.701-3.563-4.242-.412-.29-.373-1.736 1.034-.4 1.07 1.015 3.29 2.513 3.496 4.582zM132.564 207.929c-.204.485.37 1.096.949-.197.801-1.789 2.691-4.015 3.486-4.839.35-.362.338-1.653-.94-.276-1.784 1.92-2.56 3.088-3.495 5.312z"
       fill="#7c6459"
       id="path321" />
    <path
       d="M136.618 217.069c-.076-1.792-.219-3.1-.119-5.81l6.958-5.22 10.749-5.471 11.691-.89 8.715 5.09 4.885 4.68c.696 3.023-3.133 16.85-7.143 21.997-2.366 3.037-7.249 6.768-18.187 8.519-7.483 1.198-12.115-4.35-13.208-6.214-2.449-4.173-4.062-10.054-4.341-16.681z"
       fill="#f5f5f5"
       id="path323" />
    <path
       d="M177.505 219.188c-2.602-3.336-8.173-7.83-15.52-7.272-10.68.81-20.741 1.608-25.367 5.153-.74-1.167-.143-5.093-.143-5.093l4.626-4.84 11.341-5.655 14.063-2.312 10.482 7.048 2.85 5.52z"
       fill="#dcdcdc"
       id="path325" />
    <path
       d="M150.302 209.29c-7.387.937-12.826 8.437-11.548 16.56 1.277 8.121 7.31 14.247 15.809 13.214 8.498-1.033 12.347-10.388 11.223-17.416-1.124-7.028-8.096-13.294-15.484-12.358z"
       fill="url(#b)"
       stroke="#2c2c51"
       stroke-width="1.03"
       id="path327" />
    <path
       d="M174.704 206.819c-13.92 3.874-33.774 7.6-38.454 8.35l-.002-.401.012-.46.032-.6.018-.236.166-1.496 2.526-2.643 4.456-3.294 5.858-2.999 4.89-2.472 9.133-.695 8.703 3.018z"
       fill-opacity=".3"
       id="path329" />
    <path
       d="M150.736 217.98c-4.21.534-7.31 4.81-6.582 9.44.728 4.629 4.167 8.12 9.011 7.532 4.844-.589 7.038-5.922 6.397-9.928-.64-4.006-4.615-7.577-8.826-7.043z"
       fill="#27284a"
       id="path331" />
    <path
       d="M142.368 207.713c2.286-1.707 4.043-2.663 6.726-3.507 4.55-1.433 10.157-2.678 18.02-.026 4.599 1.55 8.281 5.107 9.428 8.457 1.141 3.333.015 10.447.927 10.128 1.549-.543 5.197-11.268 4.014-13.593-4.442-8.73-14.126-10.633-16.696-11.078-1.278-.221-5.94-.121-9.752.694-3.141.672-4.315.994-7.264 2.227-2.605 1.088-5.84 3.509-7.55 4.95-3.57 3.01-4.967 5.45-5.569 6.384-1.401 2.176-.816 3.989 1.407 1.44 2.257-2.589 3.426-3.923 6.31-6.076z"
       id="path333" />
    <path
       d="M113.528 280.687c-.848 2.438 4.5 9.297 7.969 5.265 2.792-3.246-6.891-8.362-7.969-5.265z"
       fill="none"
       stroke="#905353"
       id="path335" />
    <path
       d="M107.268 244.743c3.888 3.758 6.387 7.624 6.616 10.086.245 2.615-3.929 5.81-4.99 6.37l-1.715-3.154-1.905-1.12-.554-.902.524-1.46.895-1.765 1.395-2.776z"
       fill="#bea79d"
       id="path337" />
    <path
       d="M107.502 248.21c.343 2.2-.33 3.176-1.08 4.475-.704 1.22-1.595 2.12-1.682 3.652-.095 1.67 3.14.856 4.139 4.068"
       fill="none"
       stroke="#927163"
       stroke-width=".7"
       stroke-linecap="round"
       id="path339" />
    <path
       d="M49.64 197.64c11.297-8.45 31.928-5.515 39.022.201M128.09 193.612c3.651-5.997 38.135-18.337 52.604-11.282"
       fill="none"
       stroke="#7c6459"
       stroke-width="1.374"
       stroke-linecap="round"
       id="path341" />
    <path
       d="M58.17 226.706c1.395 7.292 3.7 10.552 7.34 15.038 2.287 2.818 7.862 7.815 16.395 7.578 3.366-.094 7.33-2.514 9.712-6.143 3.31-5.043-.842-21.08-2.034-22.841l-5.845-5.473-7.118-2.222-8.853-.125-7.622 4.859z"
       fill="#f5f5f5"
       id="path343" />
    <path
       d="M60.699 235.221c.442-5.654 6.344-12.713 9.877-14.308 5.975-2.696 13.759-.02 20.324 3.075l-.528-1.9-.656-1.56-3.45-3.955-5.473-3.204-5.994-1.613-8.294 1.566-6.847 5.715-2.637 6.114z"
       fill="#dcdcdc"
       id="path345" />
    <path
       d="M79.566 218.724c5.428-.484 10.855 3.6 12.526 14.233 1.175 7.473-2.391 14.765-8.618 15.62-6.078.835-12.49-4.942-13.464-13.612-1.002-8.917 3.968-15.742 9.556-16.24z"
       fill="url(#c)"
       stroke="#2c2c51"
       stroke-width="1.008"
       id="path347" />
    <path
       d="M77.743 213.843c5.153-.442 9.354 4.054 11.706 6.858.66.787 1.68.816.654-1.061-.625-1.142-2.876-4.45-8.52-7.278-5.911-2.962-10.662-1.927-14.046-.961-3.874 1.105-6.35 3.556-8.26 5.64-1.997 2.18-3.553 7.389-3.554 8.653-.002 2.69 3.551 8.257 4.24 9.5.69 1.244 2.426 2.308 1.504.37-1.484-3.119-1.112-6.307-1.068-7.627.107-3.234 1.63-6.59 2.808-8.083 1.766-2.24 3.905-3.787 6.166-4.559 3.013-1.028 4.596-1.128 8.37-1.452z"
       id="path349" />
    <path
       d="M58.644 222.972c2.666-.012 29.077-1.648 31.392-1.797l-1.439-2.39-3.488-2.988-4.568-1.93-3.921-1.224-8.853-.125-7.622 4.859z"
       fill-opacity=".3"
       id="path351" />
    <path
       d="M34.877 144.77l73.424-10.565 67.335 23.837 9.845 22.44 37.987 119.223 48.805-8.614 5.171-117.95-16.964-56.948-34.359-40.565-66.142-17.935-76.57 18.585-8.963 4.805-21.698 19.201-8.676 24.45z"
       fill="#6e685a"
       id="path353" />
    <path
       d="M64.966 87.207c37.68-7.335 89.094-8.16 115.799 57.987l34.72 203.392 18.683 9.389 41.498-8.411 5.19-72.209.252-58.616-2.72-44.25-8.213-45.908-11.923-23.919-6.95-9.17-9.215-8.916-15.966-10.948-16.752-7.062-29.736-8.371-19.654-2.502-25.448 1.53-19.541 3.62-13.43 4.26-18.441 8.548-8.965 4.902z"
       fill="#4d493f"
       id="path355" />
    <path
       d="M179.86 409.745c-.783 14.872-19.852 51.418-49.88 75.188 62.1-86.046 52.552-212.677 53.113-345.076l33.168.849-6.006 64.425-11.384 153.042zm36.4-269.04c-2.581 148.793 8.64 277.614-46.667 331.059 4.083-15.884 7.18-32.879 7.244-49.553"
       fill="#6e685a"
       id="path357" />
    <path
       d="M216.26 140.706l-33.167-.849.217 75.396c3.185 20.163 13.317 62.41 8.892 121.36-5.094 67.857-39.867 129.107-62.222 148.32l7.07-6.002 3.946-3.72 6.353-6.59 5.037-5.808 3.948-4.959 3.33-4.498 3.678-5.362 3.83-6.111 2.662-4.653 3.053-5.902 3.561-8.147 1.666-5.032c3.622 9.424-3.56 49.769-8.521 53.615l6.239-6.673 4.123-5.227 4.398-6.472 4.2-7.26 3.455-6.97 3.425-8.06 4.948-14.424 2.129-7.62 2.137-8.874 2.013-9.862 1.834-10.776 1.34-9.427 1.17-9.773 1.63-17.519 1.219-18.658.872-20.314.552-21.569.283-20.831.113-17.01.058-20.273.029-18.203.072-23.877.143-20.059z"
       fill-opacity=".3"
       id="path359" />
    <path
       d="M216.26 140.706c-2.581 148.792 8.64 277.613-46.667 331.058 4.083-15.884 7.18-32.879 7.244-49.553"
       fill="none"
       stroke="#423c38"
       stroke-width=".7"
       stroke-linecap="round"
       stroke-miterlimit="100"
       id="path361" />
    <path
       d="M179.86 409.745c-.783 14.872-19.852 51.418-49.88 75.188 60.67-84.063 52.954-206.86 53.09-335.93"
       fill="none"
       stroke="#423c38"
       stroke-width=".7"
       stroke-linecap="round"
       stroke-miterlimit="100"
       id="path363" />
    <path
       d="M176.448 124.64c14.162 35.007 14.773 58.012 14.511 68.675-1.387.233-10.936 1.857-12.464 2.115-.729-6.3-4.184-27.492-12.118-47.589 6.41 18.739 10.32 42.376 10.423 47.879-3.004.555-21.408 3.354-24.935 3.839-.404-8.678-5.35-33.869-14.757-52.337 6.926 19.122 9.546 41.572 9.785 53.125-5.008.816-23.01 3.282-31.89 4.708-1.197-7.521-6.915-45.913-19.772-64.589-1.748 16.62 4.178 49.577 10.124 66.872-8.33 1.488-23.79 3.35-26.817 3.702-5.74-11.52-12.402-37.958-10.694-60.62-3.336 22.308 3.187 48.701 7.479 60.841-3.886.492-15.863 1.371-15.863 1.371-5.749-10.826-13.08-39.042-9.808-60.965-4.507 24.272 5.208 56.299 8.015 60.983-5.75.432-18.461-.435-24.714-.657-5.197-25.388-8.251-54.417-3.895-71.066"
       fill="#6e685a"
       id="path365" />
    <path
       d="M41.834 129.611c-4.97 25.09-5.484 58.283 3.3 82.606-10.85-24.071-15.685-46.883-3.3-82.606z"
       fill="#4d493f"
       id="path367" />
    <path
       d="M45.935 127.451c-4.971 25.09.215 60.993 8.998 85.316-9.678-24.536-18.07-50.908-8.998-85.316zM79.833 123.478c-4.97 25.09.215 60.993 8.999 85.316-10.85-24.07-21.383-49.593-9-85.316z"
       fill="#4d493f"
       id="path369" />
    <path
       d="M85.005 130.463c-2.75 23.655 3.506 55.703 12.643 78.094-9.928-22.554-18.372-45.564-12.643-78.094z"
       fill="#4d493f"
       id="path371" />
    <path
       d="M80.572 121.078c-4.97 25.09.216 60.993 8.999 85.316-9.679-24.536-18.071-50.908-8.999-85.316zM71.546 129.67c-1.883 6.177-3.601 16.932-3.788 21.02l-.704 13.136 1.37 18.104 1.943 11.457 2.522 10.146 2.434 7.728-4.31.44c-8.528-28.905-10.092-59.364.533-82.032z"
       fill="#4d493f"
       id="path373" />
    <path
       d="M59.698 125.993c-3.924 25.276 2.75 60.931 12.536 84.868-10.69-24.112-20.171-50.113-12.536-84.868zM41.834 129.611c-4.121 25.244-3.42 57.189 6.179 81.202-10.502-24.195-14.085-46.507-6.18-81.202zM99.562 121.88c16.387 19.638 29.042 53.634 32.991 79.191-3.264-26.173-8.538-53.341-32.991-79.192z"
       fill="#4d493f"
       id="path375" />
    <path
       d="M110.91 123.4c13.177 17.055 24.328 46.887 28.581 69.422-3.777-23.093-9.097-47.028-28.58-69.423z"
       fill="#4d493f"
       id="path377" />
    <path
       d="M111.704 132.786c10.989 14.797 20.999 41.057 25.332 61.028-3.99-20.484-9.214-41.67-25.332-61.028zM128.475 119.025c14.746 19.077 26.057 51.807 29.524 76.308-1.714-25.2-4.304-51.49-29.524-76.308zM156.925 104.36c15.51 22.073 21.074 53.16 22.087 90.982l11.947-2.027-.028-7.3-.583-8.639-.746-6.101-.877-5.418-1.263-6.327-1.227-5.226-1.26-4.774-1.566-5.855-2.016-5.753-1.793-4.513-.816-2.783-2.287-5.834c-6.857-10.092-12.469-15.876-19.571-20.432zM116.993 121.507c15.674 21.496 21.598 62.822 21.254 80.124l8.646-1.284-.456-8.27-.728-7.058-.769-5.644-.935-5.682-1.444-7.264-1.63-6.81-1.343-6.152c-7.006-17.672-9.451-21.946-22.595-31.96zM147.424 116.416c17.17 22.926 16.264 61.8 16.935 81.276l12.44-1.972-.85-7.711-1.202-7.141-1.087-5.57-1.315-7.062-3.177-11.02-3.539-11.423c-8.027-21.163-13.218-24.39-18.205-29.377zM95.32 140.89l-.3 10.572.63 8.835.933 7.83 1.233 7.986 2.164 11.213 2.22 9.372 3.155 10.64-5.524.896c-10.432-27.838-14.568-58.11-2.486-82.76-.516 1.581-1.487 8.37-2.026 15.415zM54.247 130.676c-1.476 6.95-3.43 17.383-4.086 21.503l-1.542 13.136 1.37 18.103 2.068 11.537 2.716 10.17 2.676 7.33-4.728.428c-15.828-41.616-3.073-72.27 1.526-82.207z"
       fill="#4d493f"
       id="path379" />
    <path
       d="M176.448 124.64c14.162 35.007 14.773 58.012 14.511 68.675-1.387.233-10.936 1.857-12.464 2.115-.729-6.3-4.184-27.492-12.118-47.589 6.41 18.739 10.32 42.376 10.423 47.879-3.004.555-21.408 3.354-24.935 3.839-.404-8.678-5.35-33.869-14.757-52.337 6.926 19.122 9.546 41.572 9.785 53.125-5.008.816-23.01 3.282-31.89 4.708-1.197-7.521-6.915-45.913-19.772-64.589-1.748 16.62 4.178 49.577 10.124 66.872-8.33 1.488-23.79 3.35-26.817 3.702-5.74-11.52-12.402-37.958-10.694-60.62-3.336 22.308 3.187 48.701 7.479 60.841-3.886.492-15.863 1.371-15.863 1.371-5.749-10.826-13.08-39.042-9.808-60.965-4.507 24.272 5.208 56.299 8.015 60.983-5.75.432-18.702-.409-24.955-.63-5.148-25.971-7.638-51.443-3.886-70.899"
       fill="none"
       stroke="#423c38"
       stroke-width=".7"
       stroke-linecap="round"
       stroke-miterlimit="100"
       id="path381" />
    <path
       d="M38.875 126.462c-8.152 24.244-7.621 60.515-2.035 85.765-6.447-25.576-11.382-52.808 2.035-85.765z"
       fill="#4d493f"
       id="path383" />
    <path
       d="M61.692 164.475c-6.91.518-8.79.668-12.734-.243l.967-9.8c4.047 1.578 5.01 2.066 12.283 2.972-.587 2.888-.784 4.552-.516 7.071zm-17.154-2.005c-1.346-.513-1.621-.647-2.7-1.01-16.308-5.503-15.868 7.547-11.076 41.067-3.699-18.647-4.711-38.217-3.783-49.814 1.122-14.016 3.043-22.394 10.01-34.355-4.953 19.765-9.7 24.38 4.647 31.543 1.777.887 2.595 1.956 4.297 2.706m22.214 4.78c6.473.638 9.763 1.52 17.988.986-.34 2.005-.416 3.58-.442 5.072-7.946 1.02-10.784 1.306-17.289 1.391m34.672-9.787c8.371-1.076 17.461-2.701 27.245-4.921l.966 3.261a299.667 299.667 0 01-26.45 6.215m33.29-11.338a433.582 433.582 0 0020.975-5.823l.43 1.418a293.365 293.365 0 01-20.165 7.121m24.822-10.116c3.197-1.009 6.447-2.07 9.752-3.185a264.258 264.258 0 01-9.449 4.164"
       fill="#afaa9d"
       id="path385" />
    <path
       d="M4.548 41.934S19.719 26.985 27.15 26.273c80.877-7.758 226.891-21.865 226.891-21.865l104.5 240.285-38 3.521-58.39-136.858-126.27-73.351z"
       fill="#406555"
       fill-opacity=".996"
       id="path387" />
    <path
       d="M-3.215 59.391l201.477-19.435 4.91-.065 4.221.586 4.268 1.157 4.38 1.78 4.573 2.553 2.65 1.852 2.754 2.28 2.187 2.13 2.937 3.47 1.976 2.934 1.748 3.307 9.054 20.804 71.53 164.474 1.678 5.035.541 3.75-.12 3.74-.55 2.665-.436 1.628 4.392-7.75 4.441-7.61 1.112-2.188 1.045-3.576.295-3.609-.321-3.49-.721-3.046-.666-1.945L245.29 44.847l-2.29-4.365-2.707-3.778-2.88-3.154-2.314-2.106-3.066-2.351-1.972-1.293-2.466-1.406-2.587-1.247-2.77-1.093-3.229-.97-3.078-.626-3.374-.341-3.35.04L6.792 41.777l-2.228.324-2.685.999-3.29 1.456-2.535 2.17-3.85 13.758 1.62-.502z"
       fill="#979797"
       fill-opacity=".996"
       id="path389" />
    <path
       d="M-17.322 68.482l3.848-6.756 4.737-8.315 2.066-3.627 3.625-4.068L-.27 43.9l4.834-1.798c-9.763 9.352-9.292 13.194-7.779 17.29l-2.962.591-3.948 1.498-2.622 1.624-2.117 1.884z"
       fill="#e2e2e2"
       id="path391" />
    <path
       d="M-6.625 49.71c2.827-4.478 7.855-7.52 14.564-8.166l200.608-19.332c14.303-1.378 30.67 8.667 36.695 22.522l80.388 184.842c2.969 6.825 2.707 13.306.12 18.248"
       fill="none"
       stroke="#6f6f6f"
       stroke-width=".973"
       stroke-linecap="round"
       stroke-linejoin="round"
       id="path393" />
    <path
       d="M29.263 193.507L-17.145 86.772c-6.026-13.856.638-26.12 14.942-27.498l200.607-19.332c14.304-1.378 30.67 8.667 36.695 22.522l80.389 184.842c6.026 13.856-.638 26.124-14.942 27.498l-11.965 1.15s.568-18.92.442-37.205c-.082-11.938-6.726-32.303-9.415-38.746C244.305 115.426 168.893 78.764 94.94 90.905c-28.894 4.743-60.845 26.58-66.32 57.659-2.939 16.684-1.612 26.364.643 44.943z"
       fill="#e2e2e2"
       id="path395" />
    <path
       d="M98.398 90.36c76.424-10.623 159.78 44.36 190.523 159.893l.068.488 28.929-2.43-44.2-96.682-17.505-51.696c-42.623-8.527-81.467-20.93-157.815-9.572z"
       fill="#979797"
       id="path397" />
    <path
       d="M288.5 275.961l12.046-1.157c14.304-1.374 20.968-13.643 14.942-27.498L235.099 62.464c-6.025-13.855-22.391-23.9-36.695-22.522L-2.203 59.274c-14.304 1.378-20.964 13.64-14.942 27.498l46.307 106.561"
       fill="none"
       stroke="#6f6f6f"
       stroke-width=".973"
       stroke-linejoin="round"
       id="path399" />
    <path
       d="M-6.671 49.784l-11.056 19.41M326.508 246.488l-11.578 20.43"
       fill="none"
       stroke="#6f6f6f"
       stroke-width=".973"
       id="path401" />
    <path
       d="M-53.334 22.81L249.36-6.36 371.93 275.476l6.623-13.537-122.57-281.835-302.694 29.17z"
       fill="#99996a"
       fill-opacity=".996"
       stroke="#000"
       stroke-width=".324"
       id="path403" />
    <path
       d="M-46.71 9.273l302.692-29.17 122.571 281.835"
       fill="none"
       stroke="#5b5b4a"
       stroke-width=".973"
       stroke-linecap="round"
       stroke-linejoin="round"
       id="path405" />
    <path
       d="M80.807 227.878c3.566-.491 6.709 3.34 7.203 7.51.494 4.17-1.243 7.828-4.335 8.524-3.093.696-7.252-.926-8.454-6.101-1.201-5.176 2.02-9.443 5.586-9.933z"
       fill="#27284a"
       id="path407" />
    <path
       d="M-53.334 22.81L249.36-6.36l122.57 281.835"
       fill="none"
       stroke="#5b5b4a"
       stroke-width=".973"
       stroke-linecap="round"
       stroke-linejoin="round"
       id="path409" />
    <path
       d="M-46.71 9.273l-6.624 13.537M255.982-19.897L249.36-6.359M378.553 261.938l-6.623 13.537"
       fill="none"
       stroke="#5b5b4a"
       stroke-width=".973"
       id="path411" />
    <path
       d="M145.431 216.84c3.614 1.51 1.787 8.74-1.859 7.443-3.645-1.297-1.754-8.955 1.86-7.444zM75.671 224.017c-3.41-1.686-5.084 4.949-1.887 6.274 3.198 1.325 5.298-4.589 1.887-6.274z"
       fill="#f5f5f5"
       id="path413" />
  </g>
</svg>
