<svg id="RSSicon" width="128px" height="128px" version="1.1" viewBox="0 0 256 256" xmlns="http://www.w3.org/2000/svg">
 <path d="m92 189c0 13.255-10.745 24-24 24s-24-10.745-24-24 10.745-24 24-24 24 10.745 24 24"/>
 <path d="m160 213h-34c0-45.287-36.713-82-82-82v-34c64.065 0 116 51.935 116 116z"/>
 <path d="m184 213c0-77.32-62.68-140-140-140v-35c96.65 0 175 78.35 175 175z"/>
 <path d="m61.309 0c-33.826 2.7128e-15 -61.309 27.482-61.309 61.309v133.38c2.7128e-15 33.826 27.482 61.309 61.309 61.309h133.38c33.826 0 61.309-27.482 61.309-61.309v-133.38c0-33.826-27.482-61.309-61.309-61.309h-133.38zm0 16h133.38c25.239 0 45.309 20.07 45.309 45.309v133.38c0 25.239-20.07 45.309-45.309 45.309h-133.38c-25.239 0-45.309-20.07-45.309-45.309v-133.38c0-25.239 20.07-45.309 45.309-45.309z" color="#000000" color-rendering="auto" dominant-baseline="auto" fill-rule="evenodd" image-rendering="auto" shape-rendering="auto" solid-color="#000000" stop-color="#000000" style="font-feature-settings:normal;font-variant-alternates:normal;font-variant-caps:normal;font-variant-east-asian:normal;font-variant-ligatures:normal;font-variant-numeric:normal;font-variant-position:normal;font-variation-settings:normal;inline-size:0;isolation:auto;mix-blend-mode:normal;shape-margin:0;shape-padding:0;text-decoration-color:#000000;text-decoration-line:none;text-decoration-style:solid;text-indent:0;text-orientation:mixed;text-transform:none;white-space:normal"/>
</svg>
