<?xml version="1.0" encoding="UTF-8" standalone="no"?>
<svg
   width="64"
   height="64"
   viewBox="0 0 64 64"
   inkscape:version="1.1.1 (3bf5ae0d25, 2021-09-20)"
   sodipodi:docname="home.svg"
   version="1.1"
   id="svg7469"
   xmlns:inkscape="http://www.inkscape.org/namespaces/inkscape"
   xmlns:sodipodi="http://sodipodi.sourceforge.net/DTD/sodipodi-0.dtd"
   xmlns="http://www.w3.org/2000/svg"
   xmlns:svg="http://www.w3.org/2000/svg">
  <defs
     id="defs7464" />
  <sodipodi:namedview
     inkscape:zoom="0.70710678"
     inkscape:cx="120.91526"
     inkscape:cy="-6.363961"
     inkscape:window-width="1920"
     inkscape:window-height="1017"
     inkscape:window-x="3232"
     inkscape:window-y="-8"
     inkscape:window-maximized="1"
     id="namedview7466"
     pagecolor="#ffffff"
     bordercolor="#666666"
     borderopacity="1.0"
     inkscape:pageshadow="2"
     inkscape:pageopacity="0.0"
     inkscape:pagecheckerboard="0" />
  <path
     id="rect4183"
     style="stroke-width:4.81873;stroke-linecap:square"
     d="M 31.978516 0 C 31.084926 -0.00023571158 30.226114 0.35496424 29.59375 0.98632812 L 0.98828125 29.591797 C -0.32727027 30.908189 -0.32727027 33.042983 0.98828125 34.359375 C 2.3048966 35.676228 4.439244 35.676228 5.7558594 34.359375 L 10.992188 29.123047 L 10.992188 64 L 26 64 L 26 46.857422 L 38 46.857422 L 38 64 L 52.962891 64 L 52.962891 29.123047 L 58.199219 34.359375 C 59.515835 35.676228 61.650181 35.676228 62.966797 34.359375 C 64.282349 33.042983 64.282349 30.908189 62.966797 29.591797 L 34.361328 0.98632812 C 33.728963 0.35496423 32.872107 -0.00023571158 31.978516 0 z " />
</svg>
