<svg version="1.1" viewBox="0 0 64 64" xmlns="http://www.w3.org/2000/svg"><path d="m5.3574 0c-4.6462 0-3.933 4.7188-2.2783 6.3372l23.129 22.622h-1.1584c-2.567 0-4.6333 2.0665-4.6333 4.6333 0 2.567 2.0665 4.6333 4.6333 4.6333h1.1584v19.693c0 8.1086 11.584 8.1086 11.584 0v-19.693h10.425v2.3167c0 2.567 2.0507 4.6334 4.5974 4.6334h0.07257c2.5466 0 4.5974-2.0665 4.5974-4.6334v-2.3167c2.567 0 4.6333-2.0665 4.6333-4.6333 0-2.567-2.0665-4.6333-4.6333-4.6333v-2.3167c0-2.567-2.0507-4.6333-4.5974-4.6333h-0.07257c-2.5466 0-4.5974 2.0665-4.5974 4.6333v2.3167h-10.425l23.129-22.622c1.6547-1.6184 2.368-6.3372-2.2783-6.3372h-26.643z" stroke-width="3.7796"/></svg>
